G75*
G70*
%OFA0B0*%
%FSLAX24Y24*%
%IPPOS*%
%LPD*%
%AMOC8*
5,1,8,0,0,1.08239X$1,22.5*
%
%ADD10C,0.0140*%
%ADD11R,0.2126X0.2441*%
%ADD12R,0.0394X0.0630*%
%ADD13R,0.0394X0.0551*%
%ADD14R,0.0512X0.0630*%
%ADD15R,0.1417X0.0591*%
%ADD16R,0.0630X0.0512*%
%ADD17R,0.0591X0.0591*%
%ADD18R,0.0945X0.0945*%
%ADD19R,0.0630X0.0460*%
%ADD20C,0.0825*%
%ADD21C,0.0594*%
%ADD22R,0.0827X0.0827*%
%ADD23R,0.0551X0.0709*%
%ADD24C,0.0660*%
%ADD25C,0.0500*%
%ADD26C,0.0560*%
%ADD27C,0.0160*%
%ADD28C,0.0240*%
%ADD29C,0.0360*%
%ADD30C,0.0100*%
%ADD31C,0.0760*%
%ADD32R,0.0531X0.0531*%
%ADD33R,0.0396X0.0396*%
%ADD34R,0.0650X0.0650*%
%ADD35C,0.0120*%
D10*
X008319Y001785D02*
X008319Y002159D01*
X008319Y001972D02*
X008506Y002159D01*
X008599Y002159D01*
X008856Y002065D02*
X008949Y002159D01*
X009136Y002159D01*
X009230Y002065D01*
X009230Y001972D01*
X008856Y001972D01*
X008856Y002065D02*
X008856Y001878D01*
X008949Y001785D01*
X009136Y001785D01*
X009500Y002159D02*
X009687Y001785D01*
X009874Y002159D01*
X010790Y002159D02*
X010976Y002345D01*
X010976Y001785D01*
X010790Y001785D02*
X011163Y001785D01*
X011434Y001785D02*
X011434Y001878D01*
X011528Y001878D01*
X011528Y001785D01*
X011434Y001785D01*
X011756Y001878D02*
X011756Y002252D01*
X011850Y002345D01*
X012037Y002345D01*
X012130Y002252D01*
X011756Y001878D01*
X011850Y001785D01*
X012037Y001785D01*
X012130Y001878D01*
X012130Y002252D01*
D11*
X011633Y012118D03*
X015633Y012118D03*
X019633Y012118D03*
X023633Y012118D03*
D12*
X022736Y009244D03*
X024531Y009244D03*
X020531Y009244D03*
X018736Y009244D03*
X016531Y009244D03*
X014736Y009244D03*
X012531Y009244D03*
X010736Y009244D03*
D13*
X011341Y006577D03*
X011715Y005710D03*
X010967Y005710D03*
X014967Y005710D03*
X015715Y005710D03*
X015341Y006577D03*
X018967Y005710D03*
X019715Y005710D03*
X019341Y006577D03*
X022967Y005710D03*
X023715Y005710D03*
X023341Y006577D03*
D14*
X023259Y007633D03*
X024007Y007633D03*
X024007Y004633D03*
X023259Y004633D03*
X023259Y003633D03*
X024007Y003633D03*
X020507Y003633D03*
X019759Y003633D03*
X019759Y004633D03*
X020507Y004633D03*
X020007Y007633D03*
X019259Y007633D03*
X016007Y007633D03*
X015259Y007633D03*
X012007Y007633D03*
X011259Y007633D03*
X011759Y004633D03*
X012507Y004633D03*
X012507Y003633D03*
X011759Y003633D03*
X015759Y003633D03*
X016507Y003633D03*
X016507Y004633D03*
X015759Y004633D03*
D15*
X015133Y014248D03*
X015133Y016019D03*
X011133Y016019D03*
X011133Y014248D03*
X019133Y014248D03*
X019133Y016019D03*
X023133Y016019D03*
X023133Y014248D03*
D16*
X022217Y007237D03*
X022217Y006489D03*
X018217Y006489D03*
X018217Y007237D03*
X014217Y007237D03*
X014217Y006489D03*
X010217Y006489D03*
X010217Y007237D03*
X007133Y008759D03*
X007133Y009507D03*
X006133Y009507D03*
X006133Y008759D03*
X005133Y008759D03*
X005133Y009507D03*
X004133Y009507D03*
X004133Y008759D03*
X002633Y009259D03*
X002633Y010007D03*
X001633Y010007D03*
X001633Y009259D03*
D17*
X001633Y008322D03*
X002633Y008322D03*
X002633Y006944D03*
X001633Y006944D03*
X010277Y004775D03*
X010277Y003397D03*
X014277Y003397D03*
X014277Y004775D03*
X018277Y004775D03*
X018277Y003397D03*
X022277Y003397D03*
X022277Y004775D03*
D18*
X020633Y015267D03*
X020633Y016999D03*
X016633Y016999D03*
X016633Y015267D03*
X012633Y015267D03*
X012633Y016999D03*
X024633Y016999D03*
X024633Y015267D03*
D19*
X025133Y006733D03*
X025133Y006133D03*
X025133Y005533D03*
X021133Y005533D03*
X021133Y006133D03*
X021133Y006733D03*
X017133Y006733D03*
X017133Y006133D03*
X017133Y005533D03*
X013133Y005533D03*
X013133Y006133D03*
X013133Y006733D03*
D20*
X012633Y018221D02*
X012633Y019046D01*
X014633Y019046D02*
X014633Y018221D01*
X016633Y018221D02*
X016633Y019046D01*
X018633Y019046D02*
X018633Y018221D01*
X020633Y018221D02*
X020633Y019046D01*
X022633Y019046D02*
X022633Y018221D01*
X024633Y018221D02*
X024633Y019046D01*
X010633Y019046D02*
X010633Y018221D01*
D21*
X010133Y020836D02*
X010133Y021430D01*
X011133Y021430D02*
X011133Y020836D01*
X012133Y020836D02*
X012133Y021430D01*
X013133Y021430D02*
X013133Y020836D01*
X014133Y020836D02*
X014133Y021430D01*
X015133Y021430D02*
X015133Y020836D01*
X016133Y020836D02*
X016133Y021430D01*
X017133Y021430D02*
X017133Y020836D01*
X018133Y020836D02*
X018133Y021430D01*
X019133Y021430D02*
X019133Y020836D01*
X020133Y020836D02*
X020133Y021430D01*
X021133Y021430D02*
X021133Y020836D01*
X022133Y020836D02*
X022133Y021430D01*
X023133Y021430D02*
X023133Y020836D01*
X024133Y020836D02*
X024133Y021430D01*
X025133Y021430D02*
X025133Y020836D01*
X008133Y020836D02*
X008133Y021430D01*
X007133Y021430D02*
X007133Y020836D01*
X006133Y020836D02*
X006133Y021430D01*
X005133Y021430D02*
X005133Y020836D01*
X004133Y020836D02*
X004133Y021430D01*
X003133Y021430D02*
X003133Y020836D01*
X002430Y014133D02*
X001836Y014133D01*
X001836Y013133D02*
X002430Y013133D01*
X002430Y012133D02*
X001836Y012133D01*
X004133Y011836D02*
X004133Y012430D01*
X005133Y012430D02*
X005133Y011836D01*
X006133Y011836D02*
X006133Y012430D01*
X007133Y012430D02*
X007133Y011836D01*
X002430Y003133D02*
X001836Y003133D01*
X001836Y002133D02*
X002430Y002133D01*
X004133Y002430D02*
X004133Y001836D01*
X005133Y001836D02*
X005133Y002430D01*
X006133Y002430D02*
X006133Y001836D01*
X007133Y001836D02*
X007133Y002430D01*
X016133Y002430D02*
X016133Y001836D01*
X017133Y001836D02*
X017133Y002430D01*
X018133Y002430D02*
X018133Y001836D01*
X019133Y001836D02*
X019133Y002430D01*
X024836Y002133D02*
X025430Y002133D01*
X025430Y003133D02*
X024836Y003133D01*
D22*
X007287Y016551D03*
X005633Y016551D03*
X003980Y016551D03*
X003980Y018716D03*
X005633Y018716D03*
X007287Y018716D03*
D23*
X007803Y007133D03*
X006464Y007133D03*
X004803Y007133D03*
X003464Y007133D03*
X003303Y005633D03*
X001964Y005633D03*
X007964Y005633D03*
X009303Y005633D03*
D24*
X012531Y008236D02*
X012531Y009244D01*
X016531Y009244D02*
X016531Y008236D01*
X020531Y008236D02*
X020531Y009244D01*
X024531Y009244D02*
X024531Y008236D01*
X008133Y009633D02*
X008133Y014133D01*
X005633Y014133D01*
X003633Y014133D01*
X003633Y013133D01*
X003133Y013133D01*
X002133Y013133D01*
X005633Y014133D02*
X005633Y016551D01*
D25*
X011133Y016019D02*
X011633Y016007D01*
X012633Y015267D02*
X012633Y014248D01*
X011133Y014248D01*
X011633Y013633D01*
X015133Y014248D02*
X016633Y014248D01*
X016633Y015267D01*
X015633Y016007D02*
X015133Y016019D01*
X015133Y014248D02*
X015633Y013633D01*
X019133Y014248D02*
X020633Y014248D01*
X020633Y015267D01*
X019633Y016007D02*
X019133Y016019D01*
X019133Y014248D02*
X019633Y013633D01*
X023133Y014248D02*
X024633Y014248D01*
X024633Y015267D01*
X023633Y016007D02*
X023133Y016019D01*
X023133Y014248D02*
X023633Y013633D01*
X022736Y009244D02*
X022736Y008157D01*
X023259Y007633D01*
X024007Y007633D02*
X024007Y007712D01*
X025133Y007383D02*
X025133Y006733D01*
X025133Y006133D02*
X024473Y006133D01*
X025133Y005533D02*
X025133Y005133D01*
X021133Y005133D02*
X021133Y005533D01*
X021133Y006133D02*
X020473Y006133D01*
X021133Y006733D02*
X021133Y007383D01*
X020007Y007633D02*
X020007Y007712D01*
X019259Y007633D02*
X018736Y008157D01*
X018736Y009244D01*
X017133Y007383D02*
X017133Y006733D01*
X017133Y006133D02*
X016473Y006133D01*
X017133Y005533D02*
X017133Y005133D01*
X016007Y007633D02*
X016007Y007712D01*
X015259Y007633D02*
X014736Y008157D01*
X014736Y009244D01*
X013133Y007383D02*
X013133Y006733D01*
X013133Y006133D02*
X012473Y006133D01*
X013133Y005533D02*
X013133Y005133D01*
X012007Y007633D02*
X012007Y007712D01*
X011259Y007633D02*
X010736Y008157D01*
X010736Y009244D01*
D26*
X012351Y008236D02*
X012351Y007633D01*
X012351Y006960D01*
X012355Y006964D01*
X012351Y006960D02*
X012351Y006255D01*
X012473Y006133D01*
X012531Y008236D02*
X012351Y008236D01*
X016351Y008236D02*
X016351Y007633D01*
X016351Y006960D01*
X016355Y006964D01*
X016351Y006960D02*
X016351Y006255D01*
X016473Y006133D01*
X016531Y008236D02*
X016351Y008236D01*
X020351Y008236D02*
X020351Y007633D01*
X020351Y006960D01*
X020355Y006964D01*
X020351Y006960D02*
X020351Y006255D01*
X020473Y006133D01*
X020531Y008236D02*
X020351Y008236D01*
X024351Y008236D02*
X024351Y007633D01*
X024351Y006960D01*
X024355Y006964D01*
X024351Y006960D02*
X024351Y006255D01*
X024473Y006133D01*
X024531Y008236D02*
X024351Y008236D01*
D27*
X026045Y001312D02*
X000804Y001312D01*
X000812Y022608D01*
X026045Y022608D01*
X026045Y001312D01*
X026045Y001450D02*
X019403Y001450D01*
X019396Y001444D02*
X019526Y001574D01*
X019597Y001744D01*
X019597Y001907D01*
X023727Y001907D01*
X024101Y002281D01*
X024234Y002413D01*
X024234Y003152D01*
X024332Y003152D01*
X024361Y003181D01*
X024360Y003171D01*
X024360Y003152D01*
X025115Y003152D01*
X025115Y003610D01*
X024799Y003610D01*
X024725Y003598D01*
X024653Y003575D01*
X024587Y003541D01*
X024526Y003497D01*
X024473Y003444D01*
X024430Y003385D01*
X024430Y004017D01*
X024332Y004115D01*
X023682Y004115D01*
X023633Y004066D01*
X023584Y004115D01*
X023546Y004115D01*
X023546Y004152D01*
X023584Y004152D01*
X023624Y004191D01*
X023641Y004174D01*
X023682Y004151D01*
X023728Y004138D01*
X023959Y004138D01*
X023959Y004585D01*
X024055Y004585D01*
X024055Y004138D01*
X024287Y004138D01*
X024333Y004151D01*
X024374Y004174D01*
X024407Y004208D01*
X024431Y004249D01*
X024443Y004295D01*
X024443Y004585D01*
X024055Y004585D01*
X024055Y004681D01*
X023959Y004681D01*
X023959Y005128D01*
X023728Y005128D01*
X023682Y005116D01*
X023641Y005092D01*
X023624Y005075D01*
X023584Y005115D01*
X023254Y005115D01*
X023254Y005289D01*
X023330Y005366D01*
X023330Y006055D01*
X023251Y006134D01*
X023415Y006134D01*
X023408Y006130D01*
X023374Y006097D01*
X023350Y006055D01*
X023338Y006010D01*
X023338Y005729D01*
X023697Y005729D01*
X023697Y006166D01*
X023638Y006166D01*
X023704Y006232D01*
X023704Y006921D01*
X023628Y006998D01*
X023905Y006998D01*
X023905Y007152D02*
X023905Y006166D01*
X023733Y006166D01*
X023733Y005729D01*
X023697Y005729D01*
X023697Y005692D01*
X023733Y005692D01*
X023733Y005255D01*
X023936Y005255D01*
X023981Y005267D01*
X024022Y005291D01*
X024056Y005324D01*
X024080Y005365D01*
X024092Y005411D01*
X024092Y005692D01*
X023733Y005692D01*
X023733Y005729D01*
X024092Y005729D01*
X024092Y005882D01*
X024098Y005876D01*
X024220Y005755D01*
X024384Y005687D01*
X024561Y005687D01*
X024634Y005717D01*
X024652Y005717D01*
X024652Y005234D01*
X024717Y005169D01*
X024717Y005050D01*
X024769Y004925D01*
X024769Y004866D01*
X024866Y004769D01*
X024925Y004769D01*
X025050Y004717D01*
X025216Y004717D01*
X025341Y004769D01*
X025400Y004769D01*
X025498Y004866D01*
X025498Y004925D01*
X025550Y005050D01*
X025550Y005169D01*
X025615Y005234D01*
X025615Y005832D01*
X025614Y005833D01*
X025615Y005834D01*
X025615Y006432D01*
X025614Y006433D01*
X025615Y006434D01*
X025615Y007032D01*
X025550Y007097D01*
X025550Y007466D01*
X025498Y007591D01*
X025498Y007650D01*
X025400Y007748D01*
X025341Y007748D01*
X025216Y007800D01*
X025050Y007800D01*
X024925Y007748D01*
X024866Y007748D01*
X024798Y007680D01*
X024798Y007809D01*
X024812Y007815D01*
X024952Y007954D01*
X025028Y008137D01*
X025028Y009342D01*
X024952Y009525D01*
X024894Y009582D01*
X024894Y009628D01*
X024797Y009725D01*
X024666Y009725D01*
X024630Y009740D01*
X024432Y009740D01*
X024396Y009725D01*
X024265Y009725D01*
X024168Y009628D01*
X024168Y009582D01*
X024110Y009525D01*
X024034Y009342D01*
X024034Y008550D01*
X023973Y008489D01*
X023905Y008325D01*
X023905Y008120D01*
X023891Y008115D01*
X023682Y008115D01*
X023633Y008066D01*
X023584Y008115D01*
X023367Y008115D01*
X023152Y008330D01*
X023152Y009326D01*
X023099Y009455D01*
X023099Y009628D01*
X023002Y009725D01*
X022470Y009725D01*
X022372Y009628D01*
X022372Y009455D01*
X022319Y009326D01*
X022319Y008947D01*
X022190Y009077D01*
X022190Y010417D01*
X025223Y010417D01*
X025350Y010544D01*
X025350Y014223D01*
X025223Y014350D01*
X025050Y014350D01*
X025050Y014628D01*
X025175Y014628D01*
X025272Y014726D01*
X025272Y015809D01*
X025175Y015906D01*
X024092Y015906D01*
X024009Y015823D01*
X024009Y015826D01*
X024048Y015915D01*
X024052Y016080D01*
X024009Y016192D01*
X024009Y016383D01*
X023911Y016481D01*
X023680Y016481D01*
X023680Y016742D01*
X023597Y016943D01*
X023443Y017097D01*
X023242Y017180D01*
X023025Y017180D01*
X022824Y017097D01*
X022670Y016943D01*
X022587Y016742D01*
X022587Y016481D01*
X022356Y016481D01*
X022258Y016383D01*
X022258Y016163D01*
X021660Y015566D01*
X021617Y015460D01*
X021617Y008901D01*
X021660Y008795D01*
X021741Y008715D01*
X021930Y008525D01*
X021930Y007660D01*
X021833Y007660D01*
X021736Y007562D01*
X021736Y006913D01*
X021785Y006863D01*
X021736Y006814D01*
X021736Y006165D01*
X021833Y006067D01*
X021990Y006067D01*
X021990Y005237D01*
X021912Y005237D01*
X021815Y005140D01*
X021815Y004411D01*
X021912Y004313D01*
X022641Y004313D01*
X022738Y004411D01*
X022738Y004623D01*
X022837Y004525D01*
X022837Y004249D01*
X022934Y004152D01*
X022973Y004152D01*
X022973Y004115D01*
X022934Y004115D01*
X022837Y004017D01*
X022837Y003249D01*
X022934Y003152D01*
X023584Y003152D01*
X023633Y003201D01*
X023682Y003152D01*
X023781Y003152D01*
X023781Y002601D01*
X023539Y002360D01*
X019597Y002360D01*
X019597Y002522D01*
X019526Y002693D01*
X019459Y002760D01*
X020454Y002760D01*
X020587Y002893D01*
X020734Y003040D01*
X020734Y003152D01*
X020832Y003152D01*
X020930Y003249D01*
X020930Y004017D01*
X020832Y004115D01*
X020182Y004115D01*
X020133Y004066D01*
X020084Y004115D01*
X020046Y004115D01*
X020046Y004152D01*
X020084Y004152D01*
X020124Y004191D01*
X020141Y004174D01*
X020182Y004151D01*
X020228Y004138D01*
X020459Y004138D01*
X020459Y004585D01*
X020555Y004585D01*
X020555Y004138D01*
X020787Y004138D01*
X020833Y004151D01*
X020874Y004174D01*
X020907Y004208D01*
X020931Y004249D01*
X020943Y004295D01*
X020943Y004585D01*
X020555Y004585D01*
X020555Y004681D01*
X020943Y004681D01*
X020943Y004761D01*
X021050Y004717D01*
X021216Y004717D01*
X021341Y004769D01*
X021400Y004769D01*
X021498Y004866D01*
X021498Y004925D01*
X021550Y005050D01*
X021550Y005169D01*
X021615Y005234D01*
X021615Y005832D01*
X021614Y005833D01*
X021615Y005834D01*
X021615Y006432D01*
X021614Y006433D01*
X021615Y006434D01*
X021615Y007032D01*
X021550Y007097D01*
X021550Y007466D01*
X021498Y007591D01*
X021498Y007650D01*
X021400Y007748D01*
X021341Y007748D01*
X021216Y007800D01*
X021050Y007800D01*
X020925Y007748D01*
X020866Y007748D01*
X020798Y007680D01*
X020798Y007809D01*
X020812Y007815D01*
X020952Y007954D01*
X021028Y008137D01*
X021028Y009342D01*
X020952Y009525D01*
X020894Y009582D01*
X020894Y009628D01*
X020797Y009725D01*
X020666Y009725D01*
X020630Y009740D01*
X020432Y009740D01*
X020396Y009725D01*
X020265Y009725D01*
X020168Y009628D01*
X020168Y009582D01*
X020110Y009525D01*
X020034Y009342D01*
X020034Y008550D01*
X019973Y008489D01*
X019905Y008325D01*
X019905Y008120D01*
X019891Y008115D01*
X019682Y008115D01*
X019633Y008066D01*
X019584Y008115D01*
X019367Y008115D01*
X019152Y008330D01*
X019152Y009326D01*
X019099Y009455D01*
X019099Y009628D01*
X019002Y009725D01*
X018470Y009725D01*
X018372Y009628D01*
X018372Y009455D01*
X018319Y009326D01*
X018319Y008947D01*
X018190Y009077D01*
X018190Y010417D01*
X021223Y010417D01*
X021350Y010544D01*
X021350Y014223D01*
X021223Y014350D01*
X021050Y014350D01*
X021050Y014628D01*
X021175Y014628D01*
X021272Y014726D01*
X021272Y015809D01*
X021175Y015906D01*
X020092Y015906D01*
X020009Y015823D01*
X020009Y015826D01*
X020048Y015915D01*
X020052Y016080D01*
X020009Y016192D01*
X020009Y016383D01*
X019911Y016481D01*
X019680Y016481D01*
X019680Y016742D01*
X019597Y016943D01*
X019443Y017097D01*
X019242Y017180D01*
X019025Y017180D01*
X018824Y017097D01*
X018670Y016943D01*
X018587Y016742D01*
X018587Y016481D01*
X018356Y016481D01*
X018258Y016383D01*
X018258Y016163D01*
X017660Y015566D01*
X017617Y015460D01*
X017617Y008901D01*
X017660Y008795D01*
X017741Y008715D01*
X017930Y008525D01*
X017930Y007660D01*
X017833Y007660D01*
X017736Y007562D01*
X017736Y006913D01*
X017785Y006863D01*
X017736Y006814D01*
X017736Y006165D01*
X017833Y006067D01*
X017990Y006067D01*
X017990Y005237D01*
X017912Y005237D01*
X017815Y005140D01*
X017815Y004411D01*
X017912Y004313D01*
X018641Y004313D01*
X018738Y004411D01*
X018738Y004623D01*
X018805Y004557D01*
X018890Y004471D01*
X018971Y004390D01*
X019076Y004347D01*
X019337Y004347D01*
X019337Y004249D01*
X019434Y004152D01*
X019473Y004152D01*
X019473Y004115D01*
X019434Y004115D01*
X019337Y004017D01*
X019337Y003249D01*
X019373Y003213D01*
X018809Y003213D01*
X018752Y003156D01*
X018752Y003330D01*
X018344Y003330D01*
X018344Y003465D01*
X018209Y003465D01*
X018209Y003873D01*
X017958Y003873D01*
X017912Y003860D01*
X017871Y003837D01*
X017837Y003803D01*
X017814Y003762D01*
X017801Y003716D01*
X017801Y003465D01*
X018209Y003465D01*
X018209Y003330D01*
X017801Y003330D01*
X017801Y003078D01*
X017814Y003033D01*
X017837Y002992D01*
X017871Y002958D01*
X017912Y002934D01*
X017958Y002922D01*
X018209Y002922D01*
X018209Y003330D01*
X018344Y003330D01*
X018344Y002922D01*
X018518Y002922D01*
X018423Y002828D01*
X018423Y002796D01*
X018396Y002823D01*
X018226Y002894D01*
X018041Y002894D01*
X017871Y002823D01*
X017740Y002693D01*
X017670Y002522D01*
X017670Y001744D01*
X017740Y001574D01*
X017871Y001444D01*
X018041Y001373D01*
X018226Y001373D01*
X018396Y001444D01*
X018526Y001574D01*
X018597Y001744D01*
X018597Y002276D01*
X018670Y002349D01*
X018670Y001744D01*
X018740Y001574D01*
X018871Y001444D01*
X019041Y001373D01*
X019226Y001373D01*
X019396Y001444D01*
X019541Y001609D02*
X026045Y001609D01*
X026045Y001767D02*
X025738Y001767D01*
X025741Y001770D02*
X025794Y001823D01*
X025838Y001883D01*
X025872Y001950D01*
X025895Y002022D01*
X025907Y002096D01*
X025907Y002115D01*
X025152Y002115D01*
X025152Y002152D01*
X025115Y002152D01*
X025115Y002610D01*
X024799Y002610D01*
X024725Y002598D01*
X024653Y002575D01*
X024587Y002541D01*
X024526Y002497D01*
X024473Y002444D01*
X024429Y002383D01*
X024395Y002316D01*
X024371Y002245D01*
X024360Y002171D01*
X024360Y002152D01*
X025115Y002152D01*
X025115Y002115D01*
X025152Y002115D01*
X025152Y001656D01*
X025468Y001656D01*
X025542Y001668D01*
X025613Y001691D01*
X025680Y001725D01*
X025741Y001770D01*
X025860Y001926D02*
X026045Y001926D01*
X026045Y002084D02*
X025905Y002084D01*
X025907Y002152D02*
X025907Y002171D01*
X025895Y002245D01*
X025872Y002316D01*
X025838Y002383D01*
X025794Y002444D01*
X025741Y002497D01*
X025680Y002541D01*
X025613Y002575D01*
X025542Y002598D01*
X025468Y002610D01*
X025152Y002610D01*
X025152Y002152D01*
X025907Y002152D01*
X025896Y002243D02*
X026045Y002243D01*
X026045Y002401D02*
X025825Y002401D01*
X025643Y002560D02*
X026045Y002560D01*
X026045Y002718D02*
X025666Y002718D01*
X025680Y002725D02*
X025741Y002770D01*
X025794Y002823D01*
X025838Y002883D01*
X025872Y002950D01*
X025895Y003022D01*
X025907Y003096D01*
X025907Y003115D01*
X025152Y003115D01*
X025152Y003152D01*
X025115Y003152D01*
X025115Y003115D01*
X025152Y003115D01*
X025152Y002656D01*
X025468Y002656D01*
X025542Y002668D01*
X025613Y002691D01*
X025680Y002725D01*
X025833Y002877D02*
X026045Y002877D01*
X026045Y003035D02*
X025897Y003035D01*
X025907Y003152D02*
X025907Y003171D01*
X025895Y003245D01*
X025872Y003316D01*
X025838Y003383D01*
X025794Y003444D01*
X025741Y003497D01*
X025680Y003541D01*
X025613Y003575D01*
X025542Y003598D01*
X025468Y003610D01*
X025152Y003610D01*
X025152Y003152D01*
X025907Y003152D01*
X025903Y003194D02*
X026045Y003194D01*
X026045Y003352D02*
X025854Y003352D01*
X025722Y003511D02*
X026045Y003511D01*
X026045Y003669D02*
X024430Y003669D01*
X024430Y003511D02*
X024545Y003511D01*
X024430Y003828D02*
X026045Y003828D01*
X026045Y003986D02*
X024430Y003986D01*
X024311Y004145D02*
X026045Y004145D01*
X026045Y004303D02*
X024443Y004303D01*
X024443Y004462D02*
X026045Y004462D01*
X026045Y004620D02*
X024055Y004620D01*
X024055Y004681D02*
X024443Y004681D01*
X024443Y004972D01*
X024431Y005018D01*
X024407Y005059D01*
X024374Y005092D01*
X024333Y005116D01*
X024287Y005128D01*
X024055Y005128D01*
X024055Y004681D01*
X024055Y004779D02*
X023959Y004779D01*
X023959Y004937D02*
X024055Y004937D01*
X024055Y005096D02*
X023959Y005096D01*
X023697Y005255D02*
X023697Y005692D01*
X023338Y005692D01*
X023338Y005411D01*
X023350Y005365D01*
X023374Y005324D01*
X023408Y005291D01*
X023449Y005267D01*
X023494Y005255D01*
X023697Y005255D01*
X023697Y005413D02*
X023733Y005413D01*
X023733Y005571D02*
X023697Y005571D01*
X023697Y005730D02*
X023733Y005730D01*
X023733Y005888D02*
X023697Y005888D01*
X023697Y006047D02*
X023733Y006047D01*
X023678Y006205D02*
X023905Y006205D01*
X023905Y006364D02*
X023704Y006364D01*
X023704Y006522D02*
X023905Y006522D01*
X023905Y006681D02*
X023704Y006681D01*
X023704Y006839D02*
X023905Y006839D01*
X023905Y007152D02*
X023682Y007152D01*
X023633Y007201D01*
X023628Y007195D01*
X023628Y006998D01*
X023628Y007156D02*
X023678Y007156D01*
X024007Y007633D02*
X024351Y007633D01*
X024798Y007790D02*
X025027Y007790D01*
X024946Y007949D02*
X026045Y007949D01*
X026045Y008107D02*
X025015Y008107D01*
X025028Y008266D02*
X026045Y008266D01*
X026045Y008424D02*
X025028Y008424D01*
X025028Y008583D02*
X026045Y008583D01*
X026045Y008741D02*
X025028Y008741D01*
X025028Y008900D02*
X026045Y008900D01*
X026045Y009058D02*
X025028Y009058D01*
X025028Y009217D02*
X026045Y009217D01*
X026045Y009375D02*
X025014Y009375D01*
X024943Y009534D02*
X026045Y009534D01*
X026045Y009692D02*
X024830Y009692D01*
X024232Y009692D02*
X023034Y009692D01*
X023099Y009534D02*
X024119Y009534D01*
X024048Y009375D02*
X023132Y009375D01*
X023152Y009217D02*
X024034Y009217D01*
X024034Y009058D02*
X023152Y009058D01*
X023152Y008900D02*
X024034Y008900D01*
X024034Y008741D02*
X023152Y008741D01*
X023152Y008583D02*
X024034Y008583D01*
X023946Y008424D02*
X023152Y008424D01*
X023216Y008266D02*
X023905Y008266D01*
X023675Y008107D02*
X023592Y008107D01*
X022319Y009058D02*
X022208Y009058D01*
X022190Y009217D02*
X022319Y009217D01*
X022339Y009375D02*
X022190Y009375D01*
X022190Y009534D02*
X022372Y009534D01*
X022437Y009692D02*
X022190Y009692D01*
X022190Y009851D02*
X026045Y009851D01*
X026045Y010009D02*
X022190Y010009D01*
X022190Y010168D02*
X026045Y010168D01*
X026045Y010326D02*
X022190Y010326D01*
X021617Y010326D02*
X018190Y010326D01*
X018190Y010168D02*
X021617Y010168D01*
X021617Y010009D02*
X018190Y010009D01*
X018190Y009851D02*
X021617Y009851D01*
X021617Y009692D02*
X020830Y009692D01*
X020943Y009534D02*
X021617Y009534D01*
X021617Y009375D02*
X021014Y009375D01*
X021028Y009217D02*
X021617Y009217D01*
X021617Y009058D02*
X021028Y009058D01*
X021028Y008900D02*
X021617Y008900D01*
X021714Y008741D02*
X021028Y008741D01*
X021028Y008583D02*
X021873Y008583D01*
X021930Y008424D02*
X021028Y008424D01*
X021028Y008266D02*
X021930Y008266D01*
X021930Y008107D02*
X021015Y008107D01*
X020946Y007949D02*
X021930Y007949D01*
X021930Y007790D02*
X021239Y007790D01*
X021027Y007790D02*
X020798Y007790D01*
X020351Y007633D02*
X020007Y007633D01*
X019905Y007152D02*
X019905Y006166D01*
X019733Y006166D01*
X019733Y005729D01*
X019697Y005729D01*
X019697Y006166D01*
X019638Y006166D01*
X019704Y006232D01*
X019704Y006921D01*
X019628Y006998D01*
X019905Y006998D01*
X019905Y007152D02*
X019682Y007152D01*
X019633Y007201D01*
X019628Y007195D01*
X019628Y006998D01*
X019628Y007156D02*
X019678Y007156D01*
X019704Y006839D02*
X019905Y006839D01*
X019905Y006681D02*
X019704Y006681D01*
X019704Y006522D02*
X019905Y006522D01*
X019905Y006364D02*
X019704Y006364D01*
X019678Y006205D02*
X019905Y006205D01*
X019733Y006047D02*
X019697Y006047D01*
X019697Y005888D02*
X019733Y005888D01*
X019733Y005730D02*
X019697Y005730D01*
X019697Y005729D02*
X019697Y005692D01*
X019733Y005692D01*
X019733Y005255D01*
X019936Y005255D01*
X019981Y005267D01*
X020022Y005291D01*
X020056Y005324D01*
X020080Y005365D01*
X020092Y005411D01*
X020092Y005692D01*
X019733Y005692D01*
X019733Y005729D01*
X020092Y005729D01*
X020092Y005882D01*
X020098Y005876D01*
X020220Y005755D01*
X020384Y005687D01*
X020561Y005687D01*
X020634Y005717D01*
X020652Y005717D01*
X020652Y005234D01*
X020717Y005169D01*
X020717Y005128D01*
X020555Y005128D01*
X020555Y004681D01*
X020459Y004681D01*
X020459Y005128D01*
X020228Y005128D01*
X020182Y005116D01*
X020141Y005092D01*
X020124Y005075D01*
X020084Y005115D01*
X019434Y005115D01*
X019337Y005017D01*
X019337Y004920D01*
X019254Y004920D01*
X019254Y005289D01*
X019330Y005366D01*
X019330Y006055D01*
X019251Y006134D01*
X019415Y006134D01*
X019408Y006130D01*
X019374Y006097D01*
X019350Y006055D01*
X019338Y006010D01*
X019338Y005729D01*
X019697Y005729D01*
X019697Y005692D02*
X019338Y005692D01*
X019338Y005411D01*
X019350Y005365D01*
X019374Y005324D01*
X019408Y005291D01*
X019449Y005267D01*
X019494Y005255D01*
X019697Y005255D01*
X019697Y005692D01*
X019697Y005571D02*
X019733Y005571D01*
X019733Y005413D02*
X019697Y005413D01*
X020092Y005413D02*
X020652Y005413D01*
X020652Y005571D02*
X020092Y005571D01*
X020092Y005730D02*
X020280Y005730D01*
X020652Y005254D02*
X019254Y005254D01*
X019254Y005096D02*
X019415Y005096D01*
X019337Y004937D02*
X019254Y004937D01*
X019330Y005413D02*
X019338Y005413D01*
X019330Y005571D02*
X019338Y005571D01*
X019330Y005730D02*
X019338Y005730D01*
X019330Y005888D02*
X019338Y005888D01*
X019330Y006047D02*
X019348Y006047D01*
X020103Y005096D02*
X020147Y005096D01*
X020459Y005096D02*
X020555Y005096D01*
X020555Y004937D02*
X020459Y004937D01*
X020459Y004779D02*
X020555Y004779D01*
X020555Y004620D02*
X021815Y004620D01*
X021815Y004462D02*
X020943Y004462D01*
X020943Y004303D02*
X022837Y004303D01*
X022837Y004462D02*
X022738Y004462D01*
X022738Y004620D02*
X022741Y004620D01*
X022973Y004145D02*
X020811Y004145D01*
X020930Y003986D02*
X022837Y003986D01*
X022837Y003828D02*
X022691Y003828D01*
X022682Y003837D02*
X022641Y003860D01*
X022595Y003873D01*
X022344Y003873D01*
X022344Y003465D01*
X022209Y003465D01*
X022209Y003873D01*
X021958Y003873D01*
X021912Y003860D01*
X021871Y003837D01*
X021837Y003803D01*
X021814Y003762D01*
X021801Y003716D01*
X021801Y003465D01*
X022209Y003465D01*
X022209Y003330D01*
X021801Y003330D01*
X021801Y003078D01*
X021814Y003033D01*
X021837Y002992D01*
X021871Y002958D01*
X021912Y002934D01*
X021958Y002922D01*
X022209Y002922D01*
X022209Y003330D01*
X022344Y003330D01*
X022344Y003465D01*
X022752Y003465D01*
X022752Y003716D01*
X022740Y003762D01*
X022716Y003803D01*
X022682Y003837D01*
X022752Y003669D02*
X022837Y003669D01*
X022837Y003511D02*
X022752Y003511D01*
X022837Y003352D02*
X022344Y003352D01*
X022344Y003330D02*
X022752Y003330D01*
X022752Y003078D01*
X022740Y003033D01*
X022716Y002992D01*
X022682Y002958D01*
X022641Y002934D01*
X022595Y002922D01*
X022344Y002922D01*
X022344Y003330D01*
X022344Y003194D02*
X022209Y003194D01*
X022209Y003352D02*
X020930Y003352D01*
X020930Y003511D02*
X021801Y003511D01*
X021801Y003669D02*
X020930Y003669D01*
X020930Y003828D02*
X021862Y003828D01*
X022209Y003828D02*
X022344Y003828D01*
X022344Y003669D02*
X022209Y003669D01*
X022209Y003511D02*
X022344Y003511D01*
X022344Y003035D02*
X022209Y003035D01*
X021813Y003035D02*
X020729Y003035D01*
X020587Y002893D02*
X020587Y002893D01*
X020571Y002877D02*
X023781Y002877D01*
X023781Y003035D02*
X022740Y003035D01*
X022752Y003194D02*
X022892Y003194D01*
X023626Y003194D02*
X023640Y003194D01*
X023781Y002718D02*
X019501Y002718D01*
X019581Y002560D02*
X023739Y002560D01*
X023581Y002401D02*
X019597Y002401D01*
X019597Y001767D02*
X024529Y001767D01*
X024526Y001770D02*
X024587Y001725D01*
X024653Y001691D01*
X024725Y001668D01*
X024799Y001656D01*
X025115Y001656D01*
X025115Y002115D01*
X024360Y002115D01*
X024360Y002096D01*
X024371Y002022D01*
X024395Y001950D01*
X024429Y001883D01*
X024473Y001823D01*
X024526Y001770D01*
X024407Y001926D02*
X023746Y001926D01*
X023905Y002084D02*
X024361Y002084D01*
X024371Y002243D02*
X024063Y002243D01*
X024222Y002401D02*
X024442Y002401D01*
X024623Y002560D02*
X024234Y002560D01*
X024234Y002718D02*
X024601Y002718D01*
X024587Y002725D02*
X024653Y002691D01*
X024725Y002668D01*
X024799Y002656D01*
X025115Y002656D01*
X025115Y003115D01*
X024360Y003115D01*
X024360Y003096D01*
X024371Y003022D01*
X024395Y002950D01*
X024429Y002883D01*
X024473Y002823D01*
X024526Y002770D01*
X024587Y002725D01*
X024433Y002877D02*
X024234Y002877D01*
X024234Y003035D02*
X024369Y003035D01*
X025115Y003035D02*
X025152Y003035D01*
X025152Y002877D02*
X025115Y002877D01*
X025115Y002718D02*
X025152Y002718D01*
X025152Y002560D02*
X025115Y002560D01*
X025115Y002401D02*
X025152Y002401D01*
X025152Y002243D02*
X025115Y002243D01*
X025115Y002084D02*
X025152Y002084D01*
X025152Y001926D02*
X025115Y001926D01*
X025115Y001767D02*
X025152Y001767D01*
X025115Y003194D02*
X025152Y003194D01*
X025152Y003352D02*
X025115Y003352D01*
X025115Y003511D02*
X025152Y003511D01*
X024055Y004145D02*
X023959Y004145D01*
X023959Y004303D02*
X024055Y004303D01*
X024055Y004462D02*
X023959Y004462D01*
X023704Y004145D02*
X023546Y004145D01*
X024443Y004779D02*
X024856Y004779D01*
X024764Y004937D02*
X024443Y004937D01*
X024368Y005096D02*
X024717Y005096D01*
X024652Y005254D02*
X023254Y005254D01*
X023330Y005413D02*
X023338Y005413D01*
X023330Y005571D02*
X023338Y005571D01*
X023330Y005730D02*
X023338Y005730D01*
X023330Y005888D02*
X023338Y005888D01*
X023330Y006047D02*
X023348Y006047D01*
X024092Y005730D02*
X024280Y005730D01*
X024092Y005571D02*
X024652Y005571D01*
X024652Y005413D02*
X024092Y005413D01*
X023647Y005096D02*
X023603Y005096D01*
X021990Y005254D02*
X021615Y005254D01*
X021615Y005413D02*
X021990Y005413D01*
X021990Y005571D02*
X021615Y005571D01*
X021615Y005730D02*
X021990Y005730D01*
X021990Y005888D02*
X021615Y005888D01*
X021615Y006047D02*
X021990Y006047D01*
X021736Y006205D02*
X021615Y006205D01*
X021615Y006364D02*
X021736Y006364D01*
X021736Y006522D02*
X021615Y006522D01*
X021615Y006681D02*
X021736Y006681D01*
X021761Y006839D02*
X021615Y006839D01*
X021615Y006998D02*
X021736Y006998D01*
X021736Y007156D02*
X021550Y007156D01*
X021550Y007315D02*
X021736Y007315D01*
X021736Y007473D02*
X021547Y007473D01*
X021498Y007632D02*
X021805Y007632D01*
X020034Y008583D02*
X019152Y008583D01*
X019152Y008741D02*
X020034Y008741D01*
X020034Y008900D02*
X019152Y008900D01*
X019152Y009058D02*
X020034Y009058D01*
X020034Y009217D02*
X019152Y009217D01*
X019132Y009375D02*
X020048Y009375D01*
X020119Y009534D02*
X019099Y009534D01*
X019034Y009692D02*
X020232Y009692D01*
X021291Y010485D02*
X021617Y010485D01*
X021617Y010643D02*
X021350Y010643D01*
X021350Y010802D02*
X021617Y010802D01*
X021617Y010960D02*
X021350Y010960D01*
X021350Y011119D02*
X021617Y011119D01*
X021617Y011277D02*
X021350Y011277D01*
X021350Y011436D02*
X021617Y011436D01*
X021617Y011594D02*
X021350Y011594D01*
X021350Y011753D02*
X021617Y011753D01*
X021617Y011911D02*
X021350Y011911D01*
X021350Y012070D02*
X021617Y012070D01*
X021617Y012228D02*
X021350Y012228D01*
X021350Y012387D02*
X021617Y012387D01*
X021617Y012545D02*
X021350Y012545D01*
X021350Y012704D02*
X021617Y012704D01*
X021617Y012862D02*
X021350Y012862D01*
X021350Y013021D02*
X021617Y013021D01*
X021617Y013179D02*
X021350Y013179D01*
X021350Y013338D02*
X021617Y013338D01*
X021617Y013496D02*
X021350Y013496D01*
X021350Y013655D02*
X021617Y013655D01*
X021617Y013813D02*
X021350Y013813D01*
X021350Y013972D02*
X021617Y013972D01*
X021617Y014130D02*
X021350Y014130D01*
X021284Y014289D02*
X021617Y014289D01*
X021617Y014447D02*
X021050Y014447D01*
X021050Y014606D02*
X021617Y014606D01*
X021617Y014764D02*
X021272Y014764D01*
X021272Y014923D02*
X021617Y014923D01*
X021617Y015081D02*
X021272Y015081D01*
X021272Y015240D02*
X021617Y015240D01*
X021617Y015398D02*
X021272Y015398D01*
X021272Y015557D02*
X021657Y015557D01*
X021810Y015715D02*
X021272Y015715D01*
X021207Y015874D02*
X021969Y015874D01*
X022127Y016032D02*
X020051Y016032D01*
X020059Y015874D02*
X020030Y015874D01*
X020009Y016191D02*
X022258Y016191D01*
X022258Y016349D02*
X021138Y016349D01*
X021129Y016347D02*
X021175Y016359D01*
X021216Y016383D01*
X021250Y016417D01*
X021274Y016458D01*
X021286Y016503D01*
X021286Y016919D01*
X020713Y016919D01*
X020713Y016347D01*
X021129Y016347D01*
X021286Y016508D02*
X022587Y016508D01*
X022587Y016666D02*
X021286Y016666D01*
X021286Y016825D02*
X022621Y016825D01*
X022710Y016983D02*
X020713Y016983D01*
X020713Y016919D02*
X020713Y017079D01*
X021286Y017079D01*
X021286Y017496D01*
X021274Y017541D01*
X021250Y017582D01*
X021216Y017616D01*
X021175Y017640D01*
X021129Y017652D01*
X020800Y017652D01*
X020861Y017672D01*
X020944Y017714D01*
X021019Y017769D01*
X021085Y017835D01*
X021140Y017910D01*
X021182Y017993D01*
X021211Y018082D01*
X021226Y018174D01*
X021226Y018576D01*
X020691Y018576D01*
X020691Y018691D01*
X021226Y018691D01*
X021226Y019092D01*
X021211Y019185D01*
X021182Y019273D01*
X021140Y019356D01*
X021085Y019432D01*
X021019Y019498D01*
X020944Y019553D01*
X020861Y019595D01*
X020772Y019624D01*
X020691Y019637D01*
X020691Y018691D01*
X020576Y018691D01*
X020576Y019637D01*
X020495Y019624D01*
X020406Y019595D01*
X020323Y019553D01*
X020247Y019498D01*
X020181Y019432D01*
X020127Y019356D01*
X020084Y019273D01*
X020055Y019185D01*
X020041Y019092D01*
X020041Y018691D01*
X020576Y018691D01*
X020576Y018576D01*
X020041Y018576D01*
X020041Y018174D01*
X020055Y018082D01*
X020084Y017993D01*
X020127Y017910D01*
X020181Y017835D01*
X020247Y017769D01*
X020323Y017714D01*
X020406Y017672D01*
X020467Y017652D01*
X020137Y017652D01*
X020091Y017640D01*
X020050Y017616D01*
X020017Y017582D01*
X019993Y017541D01*
X019981Y017496D01*
X019981Y017079D01*
X020553Y017079D01*
X020553Y016919D01*
X020713Y016919D01*
X020713Y016825D02*
X020553Y016825D01*
X020553Y016919D02*
X020553Y016347D01*
X020137Y016347D01*
X020091Y016359D01*
X020050Y016383D01*
X020017Y016417D01*
X019993Y016458D01*
X019981Y016503D01*
X019981Y016919D01*
X020553Y016919D01*
X020553Y016983D02*
X019556Y016983D01*
X019646Y016825D02*
X019981Y016825D01*
X019981Y016666D02*
X019680Y016666D01*
X019680Y016508D02*
X019981Y016508D01*
X020009Y016349D02*
X020129Y016349D01*
X020553Y016349D02*
X020713Y016349D01*
X020713Y016508D02*
X020553Y016508D01*
X020553Y016666D02*
X020713Y016666D01*
X020713Y017079D02*
X020553Y017079D01*
X020553Y017634D01*
X020576Y017630D01*
X020576Y018576D01*
X020691Y018576D01*
X020691Y017630D01*
X020713Y017634D01*
X020713Y017079D01*
X020713Y017142D02*
X020553Y017142D01*
X020553Y017300D02*
X020713Y017300D01*
X020713Y017459D02*
X020553Y017459D01*
X020553Y017617D02*
X020713Y017617D01*
X020691Y017776D02*
X020576Y017776D01*
X020576Y017934D02*
X020691Y017934D01*
X020691Y018093D02*
X020576Y018093D01*
X020576Y018251D02*
X020691Y018251D01*
X020691Y018410D02*
X020576Y018410D01*
X020576Y018568D02*
X020691Y018568D01*
X020691Y018727D02*
X020576Y018727D01*
X020576Y018885D02*
X020691Y018885D01*
X020691Y019044D02*
X020576Y019044D01*
X020576Y019202D02*
X020691Y019202D01*
X020691Y019361D02*
X020576Y019361D01*
X020576Y019519D02*
X020691Y019519D01*
X020990Y019519D02*
X022288Y019519D01*
X022305Y019537D02*
X022142Y019374D01*
X022054Y019161D01*
X022054Y018106D01*
X022142Y017893D01*
X022305Y017730D01*
X022518Y017642D01*
X022749Y017642D01*
X022961Y017730D01*
X023124Y017893D01*
X023212Y018106D01*
X023212Y019161D01*
X023124Y019374D01*
X022961Y019537D01*
X022749Y019625D01*
X022518Y019625D01*
X022305Y019537D01*
X022137Y019361D02*
X021137Y019361D01*
X021205Y019202D02*
X022071Y019202D01*
X022054Y019044D02*
X021226Y019044D01*
X021226Y018885D02*
X022054Y018885D01*
X022054Y018727D02*
X021226Y018727D01*
X021226Y018568D02*
X022054Y018568D01*
X022054Y018410D02*
X021226Y018410D01*
X021226Y018251D02*
X022054Y018251D01*
X022060Y018093D02*
X021213Y018093D01*
X021152Y017934D02*
X022125Y017934D01*
X022259Y017776D02*
X021026Y017776D01*
X021214Y017617D02*
X024053Y017617D01*
X024050Y017616D02*
X024017Y017582D01*
X023993Y017541D01*
X023981Y017496D01*
X023981Y017079D01*
X024553Y017079D01*
X024553Y016919D01*
X024713Y016919D01*
X024713Y016347D01*
X025129Y016347D01*
X025175Y016359D01*
X025216Y016383D01*
X025250Y016417D01*
X025274Y016458D01*
X025286Y016503D01*
X025286Y016919D01*
X024713Y016919D01*
X024713Y017079D01*
X025286Y017079D01*
X025286Y017496D01*
X025274Y017541D01*
X025250Y017582D01*
X025216Y017616D01*
X025175Y017640D01*
X025129Y017652D01*
X024800Y017652D01*
X024861Y017672D01*
X024944Y017714D01*
X025019Y017769D01*
X025085Y017835D01*
X025140Y017910D01*
X025182Y017993D01*
X025211Y018082D01*
X025226Y018174D01*
X025226Y018576D01*
X024691Y018576D01*
X024691Y018691D01*
X025226Y018691D01*
X025226Y019092D01*
X025211Y019185D01*
X025182Y019273D01*
X025140Y019356D01*
X025085Y019432D01*
X025019Y019498D01*
X024944Y019553D01*
X024861Y019595D01*
X024772Y019624D01*
X024691Y019637D01*
X024691Y018691D01*
X024576Y018691D01*
X024576Y019637D01*
X024495Y019624D01*
X024406Y019595D01*
X024323Y019553D01*
X024247Y019498D01*
X024181Y019432D01*
X024127Y019356D01*
X024084Y019273D01*
X024055Y019185D01*
X024041Y019092D01*
X024041Y018691D01*
X024576Y018691D01*
X024576Y018576D01*
X024041Y018576D01*
X024041Y018174D01*
X024055Y018082D01*
X024084Y017993D01*
X024127Y017910D01*
X024181Y017835D01*
X024247Y017769D01*
X024323Y017714D01*
X024406Y017672D01*
X024467Y017652D01*
X024137Y017652D01*
X024091Y017640D01*
X024050Y017616D01*
X023981Y017459D02*
X021286Y017459D01*
X021286Y017300D02*
X023981Y017300D01*
X023981Y017142D02*
X023334Y017142D01*
X023556Y016983D02*
X024553Y016983D01*
X024553Y016919D02*
X023981Y016919D01*
X023981Y016503D01*
X023993Y016458D01*
X024017Y016417D01*
X024050Y016383D01*
X024091Y016359D01*
X024137Y016347D01*
X024553Y016347D01*
X024553Y016919D01*
X024553Y016825D02*
X024713Y016825D01*
X024713Y016983D02*
X026045Y016983D01*
X026045Y016825D02*
X025286Y016825D01*
X025286Y016666D02*
X026045Y016666D01*
X026045Y016508D02*
X025286Y016508D01*
X025138Y016349D02*
X026045Y016349D01*
X026045Y016191D02*
X024009Y016191D01*
X024009Y016349D02*
X024129Y016349D01*
X023981Y016508D02*
X023680Y016508D01*
X023680Y016666D02*
X023981Y016666D01*
X023981Y016825D02*
X023646Y016825D01*
X022933Y017142D02*
X021286Y017142D01*
X020240Y017776D02*
X019007Y017776D01*
X018961Y017730D02*
X019124Y017893D01*
X019212Y018106D01*
X019212Y019161D01*
X019124Y019374D01*
X018961Y019537D01*
X018749Y019625D01*
X018518Y019625D01*
X018305Y019537D01*
X018142Y019374D01*
X018054Y019161D01*
X018054Y018106D01*
X018142Y017893D01*
X018305Y017730D01*
X018518Y017642D01*
X018749Y017642D01*
X018961Y017730D01*
X019141Y017934D02*
X020114Y017934D01*
X020054Y018093D02*
X019207Y018093D01*
X019212Y018251D02*
X020041Y018251D01*
X020041Y018410D02*
X019212Y018410D01*
X019212Y018568D02*
X020041Y018568D01*
X020041Y018727D02*
X019212Y018727D01*
X019212Y018885D02*
X020041Y018885D01*
X020041Y019044D02*
X019212Y019044D01*
X019195Y019202D02*
X020061Y019202D01*
X020130Y019361D02*
X019130Y019361D01*
X018979Y019519D02*
X020277Y019519D01*
X020171Y020360D02*
X020245Y020371D01*
X020316Y020395D01*
X020383Y020429D01*
X020444Y020473D01*
X020497Y020526D01*
X020541Y020587D01*
X020575Y020653D01*
X020598Y020725D01*
X020610Y020799D01*
X020610Y021115D01*
X020152Y021115D01*
X020152Y021152D01*
X020610Y021152D01*
X020610Y021468D01*
X020598Y021542D01*
X020575Y021613D01*
X020541Y021680D01*
X020497Y021741D01*
X020444Y021794D01*
X020383Y021838D01*
X020316Y021872D01*
X020245Y021895D01*
X020171Y021907D01*
X020152Y021907D01*
X020152Y021152D01*
X020115Y021152D01*
X020115Y021907D01*
X020096Y021907D01*
X020022Y021895D01*
X019950Y021872D01*
X019883Y021838D01*
X019823Y021794D01*
X019770Y021741D01*
X019725Y021680D01*
X019691Y021613D01*
X019668Y021542D01*
X019656Y021468D01*
X019656Y021152D01*
X020115Y021152D01*
X020115Y021115D01*
X020152Y021115D01*
X020152Y020360D01*
X020171Y020360D01*
X020115Y020360D02*
X020115Y021115D01*
X019656Y021115D01*
X019656Y020799D01*
X019668Y020725D01*
X019691Y020653D01*
X019725Y020587D01*
X019770Y020526D01*
X019823Y020473D01*
X019883Y020429D01*
X019950Y020395D01*
X020022Y020371D01*
X020096Y020360D01*
X020115Y020360D01*
X020115Y020470D02*
X020152Y020470D01*
X020152Y020629D02*
X020115Y020629D01*
X020115Y020787D02*
X020152Y020787D01*
X020152Y020946D02*
X020115Y020946D01*
X020115Y021104D02*
X020152Y021104D01*
X020152Y021263D02*
X020115Y021263D01*
X020115Y021421D02*
X020152Y021421D01*
X020152Y021580D02*
X020115Y021580D01*
X020115Y021738D02*
X020152Y021738D01*
X020152Y021897D02*
X020115Y021897D01*
X020032Y021897D02*
X017235Y021897D01*
X017245Y021895D02*
X017171Y021907D01*
X017152Y021907D01*
X017152Y021152D01*
X017610Y021152D01*
X017610Y021468D01*
X017598Y021542D01*
X017575Y021613D01*
X017541Y021680D01*
X017497Y021741D01*
X017444Y021794D01*
X017383Y021838D01*
X017316Y021872D01*
X017245Y021895D01*
X017152Y021897D02*
X017115Y021897D01*
X017115Y021907D02*
X017096Y021907D01*
X017022Y021895D01*
X016950Y021872D01*
X016883Y021838D01*
X016823Y021794D01*
X016770Y021741D01*
X016725Y021680D01*
X016691Y021613D01*
X016668Y021542D01*
X016656Y021468D01*
X016656Y021152D01*
X017115Y021152D01*
X017115Y021907D01*
X017032Y021897D02*
X016235Y021897D01*
X016245Y021895D02*
X016171Y021907D01*
X016152Y021907D01*
X016152Y021152D01*
X016610Y021152D01*
X016610Y021468D01*
X016598Y021542D01*
X016575Y021613D01*
X016541Y021680D01*
X016497Y021741D01*
X016444Y021794D01*
X016383Y021838D01*
X016316Y021872D01*
X016245Y021895D01*
X016152Y021897D02*
X016115Y021897D01*
X016115Y021907D02*
X016096Y021907D01*
X016022Y021895D01*
X015950Y021872D01*
X015883Y021838D01*
X015823Y021794D01*
X015770Y021741D01*
X015725Y021680D01*
X015691Y021613D01*
X015668Y021542D01*
X015656Y021468D01*
X015656Y021152D01*
X016115Y021152D01*
X016115Y021907D01*
X016032Y021897D02*
X013235Y021897D01*
X013245Y021895D02*
X013171Y021907D01*
X013152Y021907D01*
X013152Y021152D01*
X013610Y021152D01*
X013610Y021468D01*
X013598Y021542D01*
X013575Y021613D01*
X013541Y021680D01*
X013497Y021741D01*
X013444Y021794D01*
X013383Y021838D01*
X013316Y021872D01*
X013245Y021895D01*
X013152Y021897D02*
X013115Y021897D01*
X013115Y021907D02*
X013096Y021907D01*
X013022Y021895D01*
X012950Y021872D01*
X012883Y021838D01*
X012823Y021794D01*
X012770Y021741D01*
X012725Y021680D01*
X012691Y021613D01*
X012668Y021542D01*
X012656Y021468D01*
X012656Y021152D01*
X013115Y021152D01*
X013115Y021907D01*
X013032Y021897D02*
X012235Y021897D01*
X012245Y021895D02*
X012171Y021907D01*
X012152Y021907D01*
X012152Y021152D01*
X012610Y021152D01*
X012610Y021468D01*
X012598Y021542D01*
X012575Y021613D01*
X012541Y021680D01*
X012497Y021741D01*
X012444Y021794D01*
X012383Y021838D01*
X012316Y021872D01*
X012245Y021895D01*
X012152Y021897D02*
X012115Y021897D01*
X012115Y021907D02*
X012096Y021907D01*
X012022Y021895D01*
X011950Y021872D01*
X011883Y021838D01*
X011823Y021794D01*
X011770Y021741D01*
X011725Y021680D01*
X011691Y021613D01*
X011668Y021542D01*
X011656Y021468D01*
X011656Y021152D01*
X012115Y021152D01*
X012115Y021907D01*
X012032Y021897D02*
X008235Y021897D01*
X008245Y021895D02*
X008171Y021907D01*
X008152Y021907D01*
X008152Y021152D01*
X008610Y021152D01*
X008610Y021468D01*
X008598Y021542D01*
X008575Y021613D01*
X008541Y021680D01*
X008497Y021741D01*
X008444Y021794D01*
X008383Y021838D01*
X008316Y021872D01*
X008245Y021895D01*
X008152Y021897D02*
X008115Y021897D01*
X008115Y021907D02*
X008096Y021907D01*
X008022Y021895D01*
X007950Y021872D01*
X007883Y021838D01*
X007823Y021794D01*
X007770Y021741D01*
X007725Y021680D01*
X007691Y021613D01*
X007668Y021542D01*
X007656Y021468D01*
X007656Y021152D01*
X008115Y021152D01*
X008115Y021907D01*
X008032Y021897D02*
X007235Y021897D01*
X007245Y021895D02*
X007171Y021907D01*
X007152Y021907D01*
X007152Y021152D01*
X007610Y021152D01*
X007610Y021468D01*
X007598Y021542D01*
X007575Y021613D01*
X007541Y021680D01*
X007497Y021741D01*
X007444Y021794D01*
X007383Y021838D01*
X007316Y021872D01*
X007245Y021895D01*
X007152Y021897D02*
X007115Y021897D01*
X007115Y021907D02*
X007096Y021907D01*
X007022Y021895D01*
X006950Y021872D01*
X006883Y021838D01*
X006823Y021794D01*
X006770Y021741D01*
X006725Y021680D01*
X006691Y021613D01*
X006668Y021542D01*
X006656Y021468D01*
X006656Y021152D01*
X007115Y021152D01*
X007115Y021907D01*
X007032Y021897D02*
X000811Y021897D01*
X000811Y022055D02*
X026045Y022055D01*
X026045Y021897D02*
X025235Y021897D01*
X025245Y021895D02*
X025171Y021907D01*
X025152Y021907D01*
X025152Y021152D01*
X025610Y021152D01*
X025610Y021468D01*
X025598Y021542D01*
X025575Y021613D01*
X025541Y021680D01*
X025497Y021741D01*
X025444Y021794D01*
X025383Y021838D01*
X025316Y021872D01*
X025245Y021895D01*
X025152Y021897D02*
X025115Y021897D01*
X025115Y021907D02*
X025096Y021907D01*
X025022Y021895D01*
X024950Y021872D01*
X024883Y021838D01*
X024823Y021794D01*
X024770Y021741D01*
X024725Y021680D01*
X024691Y021613D01*
X024668Y021542D01*
X024656Y021468D01*
X024656Y021152D01*
X025115Y021152D01*
X025115Y021907D01*
X025032Y021897D02*
X024235Y021897D01*
X024245Y021895D02*
X024171Y021907D01*
X024152Y021907D01*
X024152Y021152D01*
X024610Y021152D01*
X024610Y021468D01*
X024598Y021542D01*
X024575Y021613D01*
X024541Y021680D01*
X024497Y021741D01*
X024444Y021794D01*
X024383Y021838D01*
X024316Y021872D01*
X024245Y021895D01*
X024152Y021897D02*
X024115Y021897D01*
X024115Y021907D02*
X024096Y021907D01*
X024022Y021895D01*
X023950Y021872D01*
X023883Y021838D01*
X023823Y021794D01*
X023770Y021741D01*
X023725Y021680D01*
X023691Y021613D01*
X023668Y021542D01*
X023656Y021468D01*
X023656Y021152D01*
X024115Y021152D01*
X024115Y021907D01*
X024032Y021897D02*
X021235Y021897D01*
X021245Y021895D02*
X021171Y021907D01*
X021152Y021907D01*
X021152Y021152D01*
X021610Y021152D01*
X021610Y021468D01*
X021598Y021542D01*
X021575Y021613D01*
X021541Y021680D01*
X021497Y021741D01*
X021444Y021794D01*
X021383Y021838D01*
X021316Y021872D01*
X021245Y021895D01*
X021152Y021897D02*
X021115Y021897D01*
X021115Y021907D02*
X021096Y021907D01*
X021022Y021895D01*
X020950Y021872D01*
X020883Y021838D01*
X020823Y021794D01*
X020770Y021741D01*
X020725Y021680D01*
X020691Y021613D01*
X020668Y021542D01*
X020656Y021468D01*
X020656Y021152D01*
X021115Y021152D01*
X021115Y021907D01*
X021032Y021897D02*
X020235Y021897D01*
X020499Y021738D02*
X020768Y021738D01*
X020681Y021580D02*
X020586Y021580D01*
X020610Y021421D02*
X020656Y021421D01*
X020656Y021263D02*
X020610Y021263D01*
X020656Y021115D02*
X020656Y020799D01*
X020668Y020725D01*
X020691Y020653D01*
X020725Y020587D01*
X020770Y020526D01*
X020823Y020473D01*
X020883Y020429D01*
X020950Y020395D01*
X021022Y020371D01*
X021096Y020360D01*
X021115Y020360D01*
X021115Y021115D01*
X021152Y021115D01*
X021152Y021152D01*
X021115Y021152D01*
X021115Y021115D01*
X020656Y021115D01*
X020656Y021104D02*
X020610Y021104D01*
X020610Y020946D02*
X020656Y020946D01*
X020658Y020787D02*
X020608Y020787D01*
X020563Y020629D02*
X020704Y020629D01*
X020826Y020470D02*
X020441Y020470D01*
X019826Y020470D02*
X019423Y020470D01*
X019396Y020444D02*
X019526Y020574D01*
X019597Y020744D01*
X019597Y021522D01*
X019526Y021693D01*
X019396Y021823D01*
X019226Y021894D01*
X019041Y021894D01*
X018871Y021823D01*
X018740Y021693D01*
X018670Y021522D01*
X018670Y020744D01*
X018740Y020574D01*
X018871Y020444D01*
X019041Y020373D01*
X019226Y020373D01*
X019396Y020444D01*
X019549Y020629D02*
X019704Y020629D01*
X019658Y020787D02*
X019597Y020787D01*
X019597Y020946D02*
X019656Y020946D01*
X019656Y021104D02*
X019597Y021104D01*
X019597Y021263D02*
X019656Y021263D01*
X019656Y021421D02*
X019597Y021421D01*
X019573Y021580D02*
X019681Y021580D01*
X019768Y021738D02*
X019481Y021738D01*
X018786Y021738D02*
X018481Y021738D01*
X018526Y021693D02*
X018396Y021823D01*
X018226Y021894D01*
X018041Y021894D01*
X017871Y021823D01*
X017740Y021693D01*
X017670Y021522D01*
X017670Y020744D01*
X017740Y020574D01*
X017871Y020444D01*
X018041Y020373D01*
X018226Y020373D01*
X018396Y020444D01*
X018526Y020574D01*
X018597Y020744D01*
X018597Y021522D01*
X018526Y021693D01*
X018573Y021580D02*
X018694Y021580D01*
X018670Y021421D02*
X018597Y021421D01*
X018597Y021263D02*
X018670Y021263D01*
X018670Y021104D02*
X018597Y021104D01*
X018597Y020946D02*
X018670Y020946D01*
X018670Y020787D02*
X018597Y020787D01*
X018549Y020629D02*
X018718Y020629D01*
X018844Y020470D02*
X018423Y020470D01*
X017844Y020470D02*
X017441Y020470D01*
X017444Y020473D02*
X017497Y020526D01*
X017541Y020587D01*
X017575Y020653D01*
X017598Y020725D01*
X017610Y020799D01*
X017610Y021115D01*
X017152Y021115D01*
X017152Y021152D01*
X017115Y021152D01*
X017115Y021115D01*
X017152Y021115D01*
X017152Y020360D01*
X017171Y020360D01*
X017245Y020371D01*
X017316Y020395D01*
X017383Y020429D01*
X017444Y020473D01*
X017563Y020629D02*
X017718Y020629D01*
X017670Y020787D02*
X017608Y020787D01*
X017610Y020946D02*
X017670Y020946D01*
X017670Y021104D02*
X017610Y021104D01*
X017610Y021263D02*
X017670Y021263D01*
X017670Y021421D02*
X017610Y021421D01*
X017586Y021580D02*
X017694Y021580D01*
X017786Y021738D02*
X017499Y021738D01*
X017152Y021738D02*
X017115Y021738D01*
X017115Y021580D02*
X017152Y021580D01*
X017152Y021421D02*
X017115Y021421D01*
X017115Y021263D02*
X017152Y021263D01*
X017115Y021115D02*
X016656Y021115D01*
X016656Y020799D01*
X016668Y020725D01*
X016691Y020653D01*
X016725Y020587D01*
X016770Y020526D01*
X016823Y020473D01*
X016883Y020429D01*
X016950Y020395D01*
X017022Y020371D01*
X017096Y020360D01*
X017115Y020360D01*
X017115Y021115D01*
X017115Y021104D02*
X017152Y021104D01*
X017152Y020946D02*
X017115Y020946D01*
X017115Y020787D02*
X017152Y020787D01*
X017152Y020629D02*
X017115Y020629D01*
X017115Y020470D02*
X017152Y020470D01*
X016826Y020470D02*
X016441Y020470D01*
X016444Y020473D02*
X016497Y020526D01*
X016541Y020587D01*
X016575Y020653D01*
X016598Y020725D01*
X016610Y020799D01*
X016610Y021115D01*
X016152Y021115D01*
X016152Y021152D01*
X016115Y021152D01*
X016115Y021115D01*
X016152Y021115D01*
X016152Y020360D01*
X016171Y020360D01*
X016245Y020371D01*
X016316Y020395D01*
X016383Y020429D01*
X016444Y020473D01*
X016563Y020629D02*
X016704Y020629D01*
X016658Y020787D02*
X016608Y020787D01*
X016610Y020946D02*
X016656Y020946D01*
X016656Y021104D02*
X016610Y021104D01*
X016610Y021263D02*
X016656Y021263D01*
X016656Y021421D02*
X016610Y021421D01*
X016586Y021580D02*
X016681Y021580D01*
X016768Y021738D02*
X016499Y021738D01*
X016152Y021738D02*
X016115Y021738D01*
X016115Y021580D02*
X016152Y021580D01*
X016152Y021421D02*
X016115Y021421D01*
X016115Y021263D02*
X016152Y021263D01*
X016115Y021115D02*
X015656Y021115D01*
X015656Y020799D01*
X015668Y020725D01*
X015691Y020653D01*
X015725Y020587D01*
X015770Y020526D01*
X015823Y020473D01*
X015883Y020429D01*
X015950Y020395D01*
X016022Y020371D01*
X016096Y020360D01*
X016115Y020360D01*
X016115Y021115D01*
X016115Y021104D02*
X016152Y021104D01*
X016152Y020946D02*
X016115Y020946D01*
X016115Y020787D02*
X016152Y020787D01*
X016152Y020629D02*
X016115Y020629D01*
X016115Y020470D02*
X016152Y020470D01*
X015826Y020470D02*
X015423Y020470D01*
X015396Y020444D02*
X015526Y020574D01*
X015597Y020744D01*
X015597Y021522D01*
X015526Y021693D01*
X015396Y021823D01*
X015226Y021894D01*
X015041Y021894D01*
X014871Y021823D01*
X014740Y021693D01*
X014670Y021522D01*
X014670Y020744D01*
X014740Y020574D01*
X014871Y020444D01*
X015041Y020373D01*
X015226Y020373D01*
X015396Y020444D01*
X015549Y020629D02*
X015704Y020629D01*
X015658Y020787D02*
X015597Y020787D01*
X015597Y020946D02*
X015656Y020946D01*
X015656Y021104D02*
X015597Y021104D01*
X015597Y021263D02*
X015656Y021263D01*
X015656Y021421D02*
X015597Y021421D01*
X015573Y021580D02*
X015681Y021580D01*
X015768Y021738D02*
X015481Y021738D01*
X014786Y021738D02*
X014481Y021738D01*
X014526Y021693D02*
X014396Y021823D01*
X014226Y021894D01*
X014041Y021894D01*
X013871Y021823D01*
X013740Y021693D01*
X013670Y021522D01*
X013670Y020744D01*
X013740Y020574D01*
X013871Y020444D01*
X014041Y020373D01*
X014226Y020373D01*
X014396Y020444D01*
X014526Y020574D01*
X014597Y020744D01*
X014597Y021522D01*
X014526Y021693D01*
X014573Y021580D02*
X014694Y021580D01*
X014670Y021421D02*
X014597Y021421D01*
X014597Y021263D02*
X014670Y021263D01*
X014670Y021104D02*
X014597Y021104D01*
X014597Y020946D02*
X014670Y020946D01*
X014670Y020787D02*
X014597Y020787D01*
X014549Y020629D02*
X014718Y020629D01*
X014844Y020470D02*
X014423Y020470D01*
X013844Y020470D02*
X013441Y020470D01*
X013444Y020473D02*
X013497Y020526D01*
X013541Y020587D01*
X013575Y020653D01*
X013598Y020725D01*
X013610Y020799D01*
X013610Y021115D01*
X013152Y021115D01*
X013152Y021152D01*
X013115Y021152D01*
X013115Y021115D01*
X013152Y021115D01*
X013152Y020360D01*
X013171Y020360D01*
X013245Y020371D01*
X013316Y020395D01*
X013383Y020429D01*
X013444Y020473D01*
X013563Y020629D02*
X013718Y020629D01*
X013670Y020787D02*
X013608Y020787D01*
X013610Y020946D02*
X013670Y020946D01*
X013670Y021104D02*
X013610Y021104D01*
X013610Y021263D02*
X013670Y021263D01*
X013670Y021421D02*
X013610Y021421D01*
X013586Y021580D02*
X013694Y021580D01*
X013786Y021738D02*
X013499Y021738D01*
X013152Y021738D02*
X013115Y021738D01*
X013115Y021580D02*
X013152Y021580D01*
X013152Y021421D02*
X013115Y021421D01*
X013115Y021263D02*
X013152Y021263D01*
X013115Y021115D02*
X012656Y021115D01*
X012656Y020799D01*
X012668Y020725D01*
X012691Y020653D01*
X012725Y020587D01*
X012770Y020526D01*
X012823Y020473D01*
X012883Y020429D01*
X012950Y020395D01*
X013022Y020371D01*
X013096Y020360D01*
X013115Y020360D01*
X013115Y021115D01*
X013115Y021104D02*
X013152Y021104D01*
X013152Y020946D02*
X013115Y020946D01*
X013115Y020787D02*
X013152Y020787D01*
X013152Y020629D02*
X013115Y020629D01*
X013115Y020470D02*
X013152Y020470D01*
X012826Y020470D02*
X012441Y020470D01*
X012444Y020473D02*
X012497Y020526D01*
X012541Y020587D01*
X012575Y020653D01*
X012598Y020725D01*
X012610Y020799D01*
X012610Y021115D01*
X012152Y021115D01*
X012152Y021152D01*
X012115Y021152D01*
X012115Y021115D01*
X012152Y021115D01*
X012152Y020360D01*
X012171Y020360D01*
X012245Y020371D01*
X012316Y020395D01*
X012383Y020429D01*
X012444Y020473D01*
X012563Y020629D02*
X012704Y020629D01*
X012658Y020787D02*
X012608Y020787D01*
X012610Y020946D02*
X012656Y020946D01*
X012656Y021104D02*
X012610Y021104D01*
X012610Y021263D02*
X012656Y021263D01*
X012656Y021421D02*
X012610Y021421D01*
X012586Y021580D02*
X012681Y021580D01*
X012768Y021738D02*
X012499Y021738D01*
X012152Y021738D02*
X012115Y021738D01*
X012115Y021580D02*
X012152Y021580D01*
X012152Y021421D02*
X012115Y021421D01*
X012115Y021263D02*
X012152Y021263D01*
X012115Y021115D02*
X011656Y021115D01*
X011656Y020799D01*
X011668Y020725D01*
X011691Y020653D01*
X011725Y020587D01*
X011770Y020526D01*
X011823Y020473D01*
X011883Y020429D01*
X011950Y020395D01*
X012022Y020371D01*
X012096Y020360D01*
X012115Y020360D01*
X012115Y021115D01*
X012115Y021104D02*
X012152Y021104D01*
X012152Y020946D02*
X012115Y020946D01*
X012115Y020787D02*
X012152Y020787D01*
X012152Y020629D02*
X012115Y020629D01*
X012115Y020470D02*
X012152Y020470D01*
X011826Y020470D02*
X011423Y020470D01*
X011396Y020444D02*
X011526Y020574D01*
X011597Y020744D01*
X011597Y021522D01*
X011526Y021693D01*
X011396Y021823D01*
X011226Y021894D01*
X011041Y021894D01*
X010871Y021823D01*
X010740Y021693D01*
X010670Y021522D01*
X010670Y020744D01*
X010740Y020574D01*
X010871Y020444D01*
X011041Y020373D01*
X011226Y020373D01*
X011396Y020444D01*
X011549Y020629D02*
X011704Y020629D01*
X011658Y020787D02*
X011597Y020787D01*
X011597Y020946D02*
X011656Y020946D01*
X011656Y021104D02*
X011597Y021104D01*
X011597Y021263D02*
X011656Y021263D01*
X011656Y021421D02*
X011597Y021421D01*
X011573Y021580D02*
X011681Y021580D01*
X011768Y021738D02*
X011481Y021738D01*
X010786Y021738D02*
X010481Y021738D01*
X010526Y021693D02*
X010396Y021823D01*
X010226Y021894D01*
X010041Y021894D01*
X009871Y021823D01*
X009740Y021693D01*
X009670Y021522D01*
X009670Y020744D01*
X009740Y020574D01*
X009871Y020444D01*
X010041Y020373D01*
X010226Y020373D01*
X010396Y020444D01*
X010526Y020574D01*
X010597Y020744D01*
X010597Y021522D01*
X010526Y021693D01*
X010573Y021580D02*
X010694Y021580D01*
X010670Y021421D02*
X010597Y021421D01*
X010597Y021263D02*
X010670Y021263D01*
X010670Y021104D02*
X010597Y021104D01*
X010597Y020946D02*
X010670Y020946D01*
X010670Y020787D02*
X010597Y020787D01*
X010549Y020629D02*
X010718Y020629D01*
X010844Y020470D02*
X010423Y020470D01*
X009844Y020470D02*
X008441Y020470D01*
X008444Y020473D02*
X008497Y020526D01*
X008541Y020587D01*
X008575Y020653D01*
X008598Y020725D01*
X008610Y020799D01*
X008610Y021115D01*
X008152Y021115D01*
X008152Y021152D01*
X008115Y021152D01*
X008115Y021115D01*
X008152Y021115D01*
X008152Y020360D01*
X008171Y020360D01*
X008245Y020371D01*
X008316Y020395D01*
X008383Y020429D01*
X008444Y020473D01*
X008563Y020629D02*
X009718Y020629D01*
X009670Y020787D02*
X008608Y020787D01*
X008610Y020946D02*
X009670Y020946D01*
X009670Y021104D02*
X008610Y021104D01*
X008610Y021263D02*
X009670Y021263D01*
X009670Y021421D02*
X008610Y021421D01*
X008586Y021580D02*
X009694Y021580D01*
X009786Y021738D02*
X008499Y021738D01*
X008152Y021738D02*
X008115Y021738D01*
X008115Y021580D02*
X008152Y021580D01*
X008152Y021421D02*
X008115Y021421D01*
X008115Y021263D02*
X008152Y021263D01*
X008115Y021115D02*
X007656Y021115D01*
X007656Y020799D01*
X007668Y020725D01*
X007691Y020653D01*
X007725Y020587D01*
X007770Y020526D01*
X007823Y020473D01*
X007883Y020429D01*
X007950Y020395D01*
X008022Y020371D01*
X008096Y020360D01*
X008115Y020360D01*
X008115Y021115D01*
X008115Y021104D02*
X008152Y021104D01*
X008152Y020946D02*
X008115Y020946D01*
X008115Y020787D02*
X008152Y020787D01*
X008152Y020629D02*
X008115Y020629D01*
X008115Y020470D02*
X008152Y020470D01*
X007826Y020470D02*
X007441Y020470D01*
X007444Y020473D02*
X007497Y020526D01*
X007541Y020587D01*
X007575Y020653D01*
X007598Y020725D01*
X007610Y020799D01*
X007610Y021115D01*
X007152Y021115D01*
X007152Y021152D01*
X007115Y021152D01*
X007115Y021115D01*
X007152Y021115D01*
X007152Y020360D01*
X007171Y020360D01*
X007245Y020371D01*
X007316Y020395D01*
X007383Y020429D01*
X007444Y020473D01*
X007563Y020629D02*
X007704Y020629D01*
X007658Y020787D02*
X007608Y020787D01*
X007610Y020946D02*
X007656Y020946D01*
X007656Y021104D02*
X007610Y021104D01*
X007610Y021263D02*
X007656Y021263D01*
X007656Y021421D02*
X007610Y021421D01*
X007586Y021580D02*
X007681Y021580D01*
X007768Y021738D02*
X007499Y021738D01*
X007152Y021738D02*
X007115Y021738D01*
X007115Y021580D02*
X007152Y021580D01*
X007152Y021421D02*
X007115Y021421D01*
X007115Y021263D02*
X007152Y021263D01*
X007115Y021115D02*
X006656Y021115D01*
X006656Y020799D01*
X006668Y020725D01*
X006691Y020653D01*
X006725Y020587D01*
X006770Y020526D01*
X006823Y020473D01*
X006883Y020429D01*
X006950Y020395D01*
X007022Y020371D01*
X007096Y020360D01*
X007115Y020360D01*
X007115Y021115D01*
X007115Y021104D02*
X007152Y021104D01*
X007152Y020946D02*
X007115Y020946D01*
X007115Y020787D02*
X007152Y020787D01*
X007152Y020629D02*
X007115Y020629D01*
X007115Y020470D02*
X007152Y020470D01*
X006826Y020470D02*
X006423Y020470D01*
X006396Y020444D02*
X006526Y020574D01*
X006597Y020744D01*
X006597Y021522D01*
X006526Y021693D01*
X006396Y021823D01*
X006226Y021894D01*
X006041Y021894D01*
X005871Y021823D01*
X005740Y021693D01*
X005670Y021522D01*
X005670Y020744D01*
X005740Y020574D01*
X005871Y020444D01*
X006041Y020373D01*
X006226Y020373D01*
X006396Y020444D01*
X006549Y020629D02*
X006704Y020629D01*
X006658Y020787D02*
X006597Y020787D01*
X006597Y020946D02*
X006656Y020946D01*
X006656Y021104D02*
X006597Y021104D01*
X006597Y021263D02*
X006656Y021263D01*
X006656Y021421D02*
X006597Y021421D01*
X006573Y021580D02*
X006681Y021580D01*
X006768Y021738D02*
X006481Y021738D01*
X005786Y021738D02*
X005481Y021738D01*
X005526Y021693D02*
X005396Y021823D01*
X005226Y021894D01*
X005041Y021894D01*
X004871Y021823D01*
X004740Y021693D01*
X004670Y021522D01*
X004670Y020744D01*
X004740Y020574D01*
X004871Y020444D01*
X005041Y020373D01*
X005226Y020373D01*
X005396Y020444D01*
X005526Y020574D01*
X005597Y020744D01*
X005597Y021522D01*
X005526Y021693D01*
X005573Y021580D02*
X005694Y021580D01*
X005670Y021421D02*
X005597Y021421D01*
X005597Y021263D02*
X005670Y021263D01*
X005670Y021104D02*
X005597Y021104D01*
X005597Y020946D02*
X005670Y020946D01*
X005670Y020787D02*
X005597Y020787D01*
X005549Y020629D02*
X005718Y020629D01*
X005844Y020470D02*
X005423Y020470D01*
X004844Y020470D02*
X004423Y020470D01*
X004396Y020444D02*
X004526Y020574D01*
X004597Y020744D01*
X004597Y021522D01*
X004526Y021693D01*
X004396Y021823D01*
X004226Y021894D01*
X004041Y021894D01*
X003871Y021823D01*
X003740Y021693D01*
X003670Y021522D01*
X003670Y020744D01*
X003740Y020574D01*
X003871Y020444D01*
X004041Y020373D01*
X004226Y020373D01*
X004396Y020444D01*
X004549Y020629D02*
X004718Y020629D01*
X004670Y020787D02*
X004597Y020787D01*
X004597Y020946D02*
X004670Y020946D01*
X004670Y021104D02*
X004597Y021104D01*
X004597Y021263D02*
X004670Y021263D01*
X004670Y021421D02*
X004597Y021421D01*
X004573Y021580D02*
X004694Y021580D01*
X004786Y021738D02*
X004481Y021738D01*
X003786Y021738D02*
X003481Y021738D01*
X003526Y021693D02*
X003396Y021823D01*
X003226Y021894D01*
X003041Y021894D01*
X002871Y021823D01*
X002740Y021693D01*
X002670Y021522D01*
X002670Y020744D01*
X002740Y020574D01*
X002871Y020444D01*
X003041Y020373D01*
X003226Y020373D01*
X003396Y020444D01*
X003526Y020574D01*
X003597Y020744D01*
X003597Y021522D01*
X003526Y021693D01*
X003573Y021580D02*
X003694Y021580D01*
X003670Y021421D02*
X003597Y021421D01*
X003597Y021263D02*
X003670Y021263D01*
X003670Y021104D02*
X003597Y021104D01*
X003597Y020946D02*
X003670Y020946D01*
X003670Y020787D02*
X003597Y020787D01*
X003549Y020629D02*
X003718Y020629D01*
X003844Y020470D02*
X003423Y020470D01*
X002844Y020470D02*
X000811Y020470D01*
X000811Y020312D02*
X026045Y020312D01*
X026045Y020470D02*
X025441Y020470D01*
X025444Y020473D02*
X025497Y020526D01*
X025541Y020587D01*
X025575Y020653D01*
X025598Y020725D01*
X025610Y020799D01*
X025610Y021115D01*
X025152Y021115D01*
X025152Y021152D01*
X025115Y021152D01*
X025115Y021115D01*
X025152Y021115D01*
X025152Y020360D01*
X025171Y020360D01*
X025245Y020371D01*
X025316Y020395D01*
X025383Y020429D01*
X025444Y020473D01*
X025563Y020629D02*
X026045Y020629D01*
X026045Y020787D02*
X025608Y020787D01*
X025610Y020946D02*
X026045Y020946D01*
X026045Y021104D02*
X025610Y021104D01*
X025610Y021263D02*
X026045Y021263D01*
X026045Y021421D02*
X025610Y021421D01*
X025586Y021580D02*
X026045Y021580D01*
X026045Y021738D02*
X025499Y021738D01*
X025152Y021738D02*
X025115Y021738D01*
X025115Y021580D02*
X025152Y021580D01*
X025152Y021421D02*
X025115Y021421D01*
X025115Y021263D02*
X025152Y021263D01*
X025115Y021115D02*
X024656Y021115D01*
X024656Y020799D01*
X024668Y020725D01*
X024691Y020653D01*
X024725Y020587D01*
X024770Y020526D01*
X024823Y020473D01*
X024883Y020429D01*
X024950Y020395D01*
X025022Y020371D01*
X025096Y020360D01*
X025115Y020360D01*
X025115Y021115D01*
X025115Y021104D02*
X025152Y021104D01*
X025152Y020946D02*
X025115Y020946D01*
X025115Y020787D02*
X025152Y020787D01*
X025152Y020629D02*
X025115Y020629D01*
X025115Y020470D02*
X025152Y020470D01*
X024826Y020470D02*
X024441Y020470D01*
X024444Y020473D02*
X024497Y020526D01*
X024541Y020587D01*
X024575Y020653D01*
X024598Y020725D01*
X024610Y020799D01*
X024610Y021115D01*
X024152Y021115D01*
X024152Y021152D01*
X024115Y021152D01*
X024115Y021115D01*
X024152Y021115D01*
X024152Y020360D01*
X024171Y020360D01*
X024245Y020371D01*
X024316Y020395D01*
X024383Y020429D01*
X024444Y020473D01*
X024563Y020629D02*
X024704Y020629D01*
X024658Y020787D02*
X024608Y020787D01*
X024610Y020946D02*
X024656Y020946D01*
X024656Y021104D02*
X024610Y021104D01*
X024610Y021263D02*
X024656Y021263D01*
X024656Y021421D02*
X024610Y021421D01*
X024586Y021580D02*
X024681Y021580D01*
X024768Y021738D02*
X024499Y021738D01*
X024152Y021738D02*
X024115Y021738D01*
X024115Y021580D02*
X024152Y021580D01*
X024152Y021421D02*
X024115Y021421D01*
X024115Y021263D02*
X024152Y021263D01*
X024115Y021115D02*
X023656Y021115D01*
X023656Y020799D01*
X023668Y020725D01*
X023691Y020653D01*
X023725Y020587D01*
X023770Y020526D01*
X023823Y020473D01*
X023883Y020429D01*
X023950Y020395D01*
X024022Y020371D01*
X024096Y020360D01*
X024115Y020360D01*
X024115Y021115D01*
X024115Y021104D02*
X024152Y021104D01*
X024152Y020946D02*
X024115Y020946D01*
X024115Y020787D02*
X024152Y020787D01*
X024152Y020629D02*
X024115Y020629D01*
X024115Y020470D02*
X024152Y020470D01*
X023826Y020470D02*
X023423Y020470D01*
X023396Y020444D02*
X023526Y020574D01*
X023597Y020744D01*
X023597Y021522D01*
X023526Y021693D01*
X023396Y021823D01*
X023226Y021894D01*
X023041Y021894D01*
X022871Y021823D01*
X022740Y021693D01*
X022670Y021522D01*
X022670Y020744D01*
X022740Y020574D01*
X022871Y020444D01*
X023041Y020373D01*
X023226Y020373D01*
X023396Y020444D01*
X023549Y020629D02*
X023704Y020629D01*
X023658Y020787D02*
X023597Y020787D01*
X023597Y020946D02*
X023656Y020946D01*
X023656Y021104D02*
X023597Y021104D01*
X023597Y021263D02*
X023656Y021263D01*
X023656Y021421D02*
X023597Y021421D01*
X023573Y021580D02*
X023681Y021580D01*
X023768Y021738D02*
X023481Y021738D01*
X022786Y021738D02*
X022481Y021738D01*
X022526Y021693D02*
X022396Y021823D01*
X022226Y021894D01*
X022041Y021894D01*
X021871Y021823D01*
X021740Y021693D01*
X021670Y021522D01*
X021670Y020744D01*
X021740Y020574D01*
X021871Y020444D01*
X022041Y020373D01*
X022226Y020373D01*
X022396Y020444D01*
X022526Y020574D01*
X022597Y020744D01*
X022597Y021522D01*
X022526Y021693D01*
X022573Y021580D02*
X022694Y021580D01*
X022670Y021421D02*
X022597Y021421D01*
X022597Y021263D02*
X022670Y021263D01*
X022670Y021104D02*
X022597Y021104D01*
X022597Y020946D02*
X022670Y020946D01*
X022670Y020787D02*
X022597Y020787D01*
X022549Y020629D02*
X022718Y020629D01*
X022844Y020470D02*
X022423Y020470D01*
X021844Y020470D02*
X021441Y020470D01*
X021444Y020473D02*
X021497Y020526D01*
X021541Y020587D01*
X021575Y020653D01*
X021598Y020725D01*
X021610Y020799D01*
X021610Y021115D01*
X021152Y021115D01*
X021152Y020360D01*
X021171Y020360D01*
X021245Y020371D01*
X021316Y020395D01*
X021383Y020429D01*
X021444Y020473D01*
X021563Y020629D02*
X021718Y020629D01*
X021670Y020787D02*
X021608Y020787D01*
X021610Y020946D02*
X021670Y020946D01*
X021670Y021104D02*
X021610Y021104D01*
X021610Y021263D02*
X021670Y021263D01*
X021670Y021421D02*
X021610Y021421D01*
X021586Y021580D02*
X021694Y021580D01*
X021786Y021738D02*
X021499Y021738D01*
X021152Y021738D02*
X021115Y021738D01*
X021115Y021580D02*
X021152Y021580D01*
X021152Y021421D02*
X021115Y021421D01*
X021115Y021263D02*
X021152Y021263D01*
X021152Y021104D02*
X021115Y021104D01*
X021115Y020946D02*
X021152Y020946D01*
X021152Y020787D02*
X021115Y020787D01*
X021115Y020629D02*
X021152Y020629D01*
X021152Y020470D02*
X021115Y020470D01*
X022979Y019519D02*
X024277Y019519D01*
X024130Y019361D02*
X023130Y019361D01*
X023195Y019202D02*
X024061Y019202D01*
X024041Y019044D02*
X023212Y019044D01*
X023212Y018885D02*
X024041Y018885D01*
X024041Y018727D02*
X023212Y018727D01*
X023212Y018568D02*
X024041Y018568D01*
X024041Y018410D02*
X023212Y018410D01*
X023212Y018251D02*
X024041Y018251D01*
X024054Y018093D02*
X023207Y018093D01*
X023141Y017934D02*
X024114Y017934D01*
X024240Y017776D02*
X023007Y017776D01*
X024553Y017634D02*
X024553Y017079D01*
X024713Y017079D01*
X024713Y017634D01*
X024691Y017630D01*
X024691Y018576D01*
X024576Y018576D01*
X024576Y017630D01*
X024553Y017634D01*
X024553Y017617D02*
X024713Y017617D01*
X024713Y017459D02*
X024553Y017459D01*
X024553Y017300D02*
X024713Y017300D01*
X024713Y017142D02*
X024553Y017142D01*
X024553Y016666D02*
X024713Y016666D01*
X024713Y016508D02*
X024553Y016508D01*
X024553Y016349D02*
X024713Y016349D01*
X025207Y015874D02*
X026045Y015874D01*
X026045Y016032D02*
X024051Y016032D01*
X024059Y015874D02*
X024030Y015874D01*
X025272Y015715D02*
X026045Y015715D01*
X026045Y015557D02*
X025272Y015557D01*
X025272Y015398D02*
X026045Y015398D01*
X026045Y015240D02*
X025272Y015240D01*
X025272Y015081D02*
X026045Y015081D01*
X026045Y014923D02*
X025272Y014923D01*
X025272Y014764D02*
X026045Y014764D01*
X026045Y014606D02*
X025050Y014606D01*
X025050Y014447D02*
X026045Y014447D01*
X026045Y014289D02*
X025284Y014289D01*
X025350Y014130D02*
X026045Y014130D01*
X026045Y013972D02*
X025350Y013972D01*
X025350Y013813D02*
X026045Y013813D01*
X026045Y013655D02*
X025350Y013655D01*
X025350Y013496D02*
X026045Y013496D01*
X026045Y013338D02*
X025350Y013338D01*
X025350Y013179D02*
X026045Y013179D01*
X026045Y013021D02*
X025350Y013021D01*
X025350Y012862D02*
X026045Y012862D01*
X026045Y012704D02*
X025350Y012704D01*
X025350Y012545D02*
X026045Y012545D01*
X026045Y012387D02*
X025350Y012387D01*
X025350Y012228D02*
X026045Y012228D01*
X026045Y012070D02*
X025350Y012070D01*
X025350Y011911D02*
X026045Y011911D01*
X026045Y011753D02*
X025350Y011753D01*
X025350Y011594D02*
X026045Y011594D01*
X026045Y011436D02*
X025350Y011436D01*
X025350Y011277D02*
X026045Y011277D01*
X026045Y011119D02*
X025350Y011119D01*
X025350Y010960D02*
X026045Y010960D01*
X026045Y010802D02*
X025350Y010802D01*
X025350Y010643D02*
X026045Y010643D01*
X026045Y010485D02*
X025291Y010485D01*
X025239Y007790D02*
X026045Y007790D01*
X026045Y007632D02*
X025498Y007632D01*
X025547Y007473D02*
X026045Y007473D01*
X026045Y007315D02*
X025550Y007315D01*
X025550Y007156D02*
X026045Y007156D01*
X026045Y006998D02*
X025615Y006998D01*
X025615Y006839D02*
X026045Y006839D01*
X026045Y006681D02*
X025615Y006681D01*
X025615Y006522D02*
X026045Y006522D01*
X026045Y006364D02*
X025615Y006364D01*
X025615Y006205D02*
X026045Y006205D01*
X026045Y006047D02*
X025615Y006047D01*
X025615Y005888D02*
X026045Y005888D01*
X026045Y005730D02*
X025615Y005730D01*
X025615Y005571D02*
X026045Y005571D01*
X026045Y005413D02*
X025615Y005413D01*
X025615Y005254D02*
X026045Y005254D01*
X026045Y005096D02*
X025550Y005096D01*
X025503Y004937D02*
X026045Y004937D01*
X026045Y004779D02*
X025411Y004779D01*
X021815Y004779D02*
X021411Y004779D01*
X021503Y004937D02*
X021815Y004937D01*
X021815Y005096D02*
X021550Y005096D01*
X020555Y004462D02*
X020459Y004462D01*
X020459Y004303D02*
X020555Y004303D01*
X020555Y004145D02*
X020459Y004145D01*
X020204Y004145D02*
X020046Y004145D01*
X019473Y004145D02*
X016811Y004145D01*
X016833Y004151D02*
X016874Y004174D01*
X016907Y004208D01*
X016931Y004249D01*
X016943Y004295D01*
X016943Y004585D01*
X016555Y004585D01*
X016555Y004138D01*
X016787Y004138D01*
X016833Y004151D01*
X016832Y004115D02*
X016182Y004115D01*
X016133Y004066D01*
X016084Y004115D01*
X016046Y004115D01*
X016046Y004152D01*
X016084Y004152D01*
X016124Y004191D01*
X016141Y004174D01*
X016182Y004151D01*
X016228Y004138D01*
X016459Y004138D01*
X016459Y004585D01*
X016555Y004585D01*
X016555Y004681D01*
X016943Y004681D01*
X016943Y004761D01*
X017050Y004717D01*
X017216Y004717D01*
X017341Y004769D01*
X017400Y004769D01*
X017498Y004866D01*
X017498Y004925D01*
X017550Y005050D01*
X017550Y005169D01*
X017615Y005234D01*
X017615Y005832D01*
X017614Y005833D01*
X017615Y005834D01*
X017615Y006432D01*
X017614Y006433D01*
X017615Y006434D01*
X017615Y007032D01*
X017550Y007097D01*
X017550Y007466D01*
X017498Y007591D01*
X017498Y007650D01*
X017400Y007748D01*
X017341Y007748D01*
X017216Y007800D01*
X017050Y007800D01*
X016925Y007748D01*
X016866Y007748D01*
X016798Y007680D01*
X016798Y007809D01*
X016812Y007815D01*
X016952Y007954D01*
X017028Y008137D01*
X017028Y009342D01*
X016952Y009525D01*
X016894Y009582D01*
X016894Y009628D01*
X016797Y009725D01*
X016666Y009725D01*
X016630Y009740D01*
X016432Y009740D01*
X016396Y009725D01*
X016265Y009725D01*
X016168Y009628D01*
X016168Y009582D01*
X016110Y009525D01*
X016034Y009342D01*
X016034Y008550D01*
X015973Y008489D01*
X015905Y008325D01*
X015905Y008120D01*
X015891Y008115D01*
X015682Y008115D01*
X015633Y008066D01*
X015584Y008115D01*
X015367Y008115D01*
X015152Y008330D01*
X015152Y009326D01*
X015099Y009455D01*
X015099Y009628D01*
X015002Y009725D01*
X014470Y009725D01*
X014372Y009628D01*
X014372Y009455D01*
X014319Y009326D01*
X014319Y008947D01*
X014190Y009077D01*
X014190Y010417D01*
X017223Y010417D01*
X017350Y010544D01*
X017350Y014223D01*
X017223Y014350D01*
X017050Y014350D01*
X017050Y014628D01*
X017175Y014628D01*
X017272Y014726D01*
X017272Y015809D01*
X017175Y015906D01*
X016092Y015906D01*
X016009Y015823D01*
X016009Y015826D01*
X016048Y015915D01*
X016052Y016080D01*
X016009Y016192D01*
X016009Y016383D01*
X015911Y016481D01*
X015680Y016481D01*
X015680Y016742D01*
X015597Y016943D01*
X015443Y017097D01*
X015242Y017180D01*
X015025Y017180D01*
X014824Y017097D01*
X014670Y016943D01*
X014587Y016742D01*
X014587Y016481D01*
X014356Y016481D01*
X014258Y016383D01*
X014258Y016163D01*
X013660Y015566D01*
X013617Y015460D01*
X013617Y008901D01*
X013660Y008795D01*
X013741Y008715D01*
X013930Y008525D01*
X013930Y007660D01*
X013833Y007660D01*
X013736Y007562D01*
X013736Y006913D01*
X013785Y006863D01*
X013736Y006814D01*
X013736Y006165D01*
X013833Y006067D01*
X013990Y006067D01*
X013990Y005237D01*
X013912Y005237D01*
X013815Y005140D01*
X013815Y004411D01*
X013912Y004313D01*
X014641Y004313D01*
X014738Y004411D01*
X014738Y004623D01*
X014971Y004390D01*
X015076Y004347D01*
X015337Y004347D01*
X015337Y004249D01*
X015434Y004152D01*
X015473Y004152D01*
X015473Y004115D01*
X015434Y004115D01*
X015337Y004017D01*
X015337Y003249D01*
X015434Y003152D01*
X016084Y003152D01*
X016133Y003201D01*
X016182Y003152D01*
X016668Y003152D01*
X016907Y002913D01*
X016907Y002838D01*
X016871Y002823D01*
X016740Y002693D01*
X016670Y002522D01*
X016670Y001744D01*
X016740Y001574D01*
X016871Y001444D01*
X017041Y001373D01*
X017226Y001373D01*
X017396Y001444D01*
X017526Y001574D01*
X017597Y001744D01*
X017597Y002522D01*
X017526Y002693D01*
X017396Y002823D01*
X017360Y002838D01*
X017360Y003101D01*
X017227Y003234D01*
X016930Y003531D01*
X016930Y004017D01*
X016832Y004115D01*
X016930Y003986D02*
X019337Y003986D01*
X019337Y003828D02*
X018691Y003828D01*
X018682Y003837D02*
X018641Y003860D01*
X018595Y003873D01*
X018344Y003873D01*
X018344Y003465D01*
X018752Y003465D01*
X018752Y003716D01*
X018740Y003762D01*
X018716Y003803D01*
X018682Y003837D01*
X018752Y003669D02*
X019337Y003669D01*
X019337Y003511D02*
X018752Y003511D01*
X018344Y003511D02*
X018209Y003511D01*
X018209Y003669D02*
X018344Y003669D01*
X018344Y003828D02*
X018209Y003828D01*
X017862Y003828D02*
X016930Y003828D01*
X016930Y003669D02*
X017801Y003669D01*
X017801Y003511D02*
X016950Y003511D01*
X017109Y003352D02*
X018209Y003352D01*
X018344Y003352D02*
X019337Y003352D01*
X018790Y003194D02*
X018752Y003194D01*
X018344Y003194D02*
X018209Y003194D01*
X018209Y003035D02*
X018344Y003035D01*
X018266Y002877D02*
X018473Y002877D01*
X018001Y002877D02*
X017360Y002877D01*
X017360Y003035D02*
X017813Y003035D01*
X017801Y003194D02*
X017267Y003194D01*
X016907Y002877D02*
X016266Y002877D01*
X016226Y002894D02*
X016041Y002894D01*
X015871Y002823D01*
X015740Y002693D01*
X015670Y002522D01*
X015670Y002360D01*
X013227Y002360D01*
X012860Y002727D01*
X012860Y003179D01*
X012930Y003249D01*
X012930Y004017D01*
X012832Y004115D01*
X012182Y004115D01*
X012133Y004066D01*
X012084Y004115D01*
X012046Y004115D01*
X012046Y004152D01*
X012084Y004152D01*
X012124Y004191D01*
X012141Y004174D01*
X012182Y004151D01*
X012228Y004138D01*
X012459Y004138D01*
X012459Y004585D01*
X012555Y004585D01*
X012555Y004138D01*
X012787Y004138D01*
X012833Y004151D01*
X012874Y004174D01*
X012907Y004208D01*
X012931Y004249D01*
X012943Y004295D01*
X012943Y004585D01*
X012555Y004585D01*
X012555Y004681D01*
X012943Y004681D01*
X012943Y004761D01*
X013050Y004717D01*
X013216Y004717D01*
X013341Y004769D01*
X013400Y004769D01*
X013498Y004866D01*
X013498Y004925D01*
X013550Y005050D01*
X013550Y005169D01*
X013615Y005234D01*
X013615Y005832D01*
X013614Y005833D01*
X013615Y005834D01*
X013615Y006432D01*
X013614Y006433D01*
X013615Y006434D01*
X013615Y007032D01*
X013550Y007097D01*
X013550Y007466D01*
X013498Y007591D01*
X013498Y007650D01*
X013400Y007748D01*
X013341Y007748D01*
X013216Y007800D01*
X013050Y007800D01*
X012925Y007748D01*
X012866Y007748D01*
X012798Y007680D01*
X012798Y007809D01*
X012812Y007815D01*
X012952Y007954D01*
X013028Y008137D01*
X013028Y009342D01*
X012952Y009525D01*
X012894Y009582D01*
X012894Y009628D01*
X012797Y009725D01*
X012666Y009725D01*
X012630Y009740D01*
X012432Y009740D01*
X012396Y009725D01*
X012265Y009725D01*
X012168Y009628D01*
X012168Y009582D01*
X012110Y009525D01*
X012034Y009342D01*
X012034Y008550D01*
X011973Y008489D01*
X011905Y008325D01*
X011905Y008120D01*
X011891Y008115D01*
X011682Y008115D01*
X011633Y008066D01*
X011584Y008115D01*
X011367Y008115D01*
X011152Y008330D01*
X011152Y009326D01*
X011099Y009455D01*
X011099Y009628D01*
X011002Y009725D01*
X010470Y009725D01*
X010372Y009628D01*
X010372Y009455D01*
X010319Y009326D01*
X010319Y008947D01*
X010190Y009077D01*
X010190Y010417D01*
X013223Y010417D01*
X013350Y010544D01*
X013350Y014223D01*
X013223Y014350D01*
X013050Y014350D01*
X013050Y014628D01*
X013175Y014628D01*
X013272Y014726D01*
X013272Y015809D01*
X013175Y015906D01*
X012092Y015906D01*
X012009Y015823D01*
X012009Y015826D01*
X012048Y015915D01*
X012052Y016080D01*
X012009Y016192D01*
X012009Y016383D01*
X011911Y016481D01*
X011680Y016481D01*
X011680Y016742D01*
X011597Y016943D01*
X011443Y017097D01*
X011242Y017180D01*
X011025Y017180D01*
X010824Y017097D01*
X010670Y016943D01*
X010587Y016742D01*
X010587Y016481D01*
X010356Y016481D01*
X010258Y016383D01*
X010258Y016163D01*
X009660Y015566D01*
X009617Y015460D01*
X009617Y008901D01*
X009660Y008795D01*
X009741Y008715D01*
X009930Y008525D01*
X009930Y007660D01*
X009833Y007660D01*
X009736Y007562D01*
X009736Y006913D01*
X009785Y006863D01*
X009736Y006814D01*
X009736Y006165D01*
X009833Y006067D01*
X009990Y006067D01*
X009990Y005237D01*
X009912Y005237D01*
X009815Y005140D01*
X009815Y004411D01*
X009912Y004313D01*
X010641Y004313D01*
X010738Y004411D01*
X010738Y004623D01*
X010971Y004390D01*
X011076Y004347D01*
X011337Y004347D01*
X011337Y004249D01*
X011434Y004152D01*
X011473Y004152D01*
X011473Y004115D01*
X011434Y004115D01*
X011337Y004017D01*
X011337Y003249D01*
X011434Y003152D01*
X012084Y003152D01*
X012133Y003201D01*
X012182Y003152D01*
X012407Y003152D01*
X012407Y002539D01*
X012907Y002039D01*
X013039Y001907D01*
X015670Y001907D01*
X015670Y001744D01*
X015740Y001574D01*
X015871Y001444D01*
X016041Y001373D01*
X016226Y001373D01*
X016396Y001444D01*
X016526Y001574D01*
X016597Y001744D01*
X016597Y002522D01*
X016526Y002693D01*
X016396Y002823D01*
X016226Y002894D01*
X016001Y002877D02*
X012860Y002877D01*
X012860Y003035D02*
X013813Y003035D01*
X013814Y003033D02*
X013837Y002992D01*
X013871Y002958D01*
X013912Y002934D01*
X013958Y002922D01*
X014209Y002922D01*
X014209Y003330D01*
X013801Y003330D01*
X013801Y003078D01*
X013814Y003033D01*
X013801Y003194D02*
X012874Y003194D01*
X012930Y003352D02*
X014209Y003352D01*
X014209Y003330D02*
X014209Y003465D01*
X014209Y003873D01*
X013958Y003873D01*
X013912Y003860D01*
X013871Y003837D01*
X013837Y003803D01*
X013814Y003762D01*
X013801Y003716D01*
X013801Y003465D01*
X014209Y003465D01*
X014344Y003465D01*
X014344Y003873D01*
X014595Y003873D01*
X014641Y003860D01*
X014682Y003837D01*
X014716Y003803D01*
X014740Y003762D01*
X014752Y003716D01*
X014752Y003465D01*
X014344Y003465D01*
X014344Y003330D01*
X014752Y003330D01*
X014752Y003078D01*
X014740Y003033D01*
X014716Y002992D01*
X014682Y002958D01*
X014641Y002934D01*
X014595Y002922D01*
X014344Y002922D01*
X014344Y003330D01*
X014209Y003330D01*
X014209Y003194D02*
X014344Y003194D01*
X014344Y003352D02*
X015337Y003352D01*
X015337Y003511D02*
X014752Y003511D01*
X014752Y003669D02*
X015337Y003669D01*
X015337Y003828D02*
X014691Y003828D01*
X014344Y003828D02*
X014209Y003828D01*
X014209Y003669D02*
X014344Y003669D01*
X014344Y003511D02*
X014209Y003511D01*
X013801Y003511D02*
X012930Y003511D01*
X012930Y003669D02*
X013801Y003669D01*
X013862Y003828D02*
X012930Y003828D01*
X012930Y003986D02*
X015337Y003986D01*
X015473Y004145D02*
X012811Y004145D01*
X012943Y004303D02*
X015337Y004303D01*
X014899Y004462D02*
X014738Y004462D01*
X014738Y004620D02*
X014741Y004620D01*
X015254Y004920D02*
X015254Y005289D01*
X015330Y005366D01*
X015330Y006055D01*
X015251Y006134D01*
X015415Y006134D01*
X015408Y006130D01*
X015374Y006097D01*
X015350Y006055D01*
X015338Y006010D01*
X015338Y005729D01*
X015697Y005729D01*
X015697Y006166D01*
X015638Y006166D01*
X015704Y006232D01*
X015704Y006921D01*
X015628Y006998D01*
X015905Y006998D01*
X015905Y007152D02*
X015905Y006166D01*
X015733Y006166D01*
X015733Y005729D01*
X015697Y005729D01*
X015697Y005692D01*
X015733Y005692D01*
X015733Y005255D01*
X015936Y005255D01*
X015981Y005267D01*
X016022Y005291D01*
X016056Y005324D01*
X016080Y005365D01*
X016092Y005411D01*
X016092Y005692D01*
X015733Y005692D01*
X015733Y005729D01*
X016092Y005729D01*
X016092Y005882D01*
X016098Y005876D01*
X016220Y005755D01*
X016384Y005687D01*
X016561Y005687D01*
X016634Y005717D01*
X016652Y005717D01*
X016652Y005234D01*
X016717Y005169D01*
X016717Y005128D01*
X016555Y005128D01*
X016555Y004681D01*
X016459Y004681D01*
X016459Y005128D01*
X016228Y005128D01*
X016182Y005116D01*
X016141Y005092D01*
X016124Y005075D01*
X016084Y005115D01*
X015434Y005115D01*
X015337Y005017D01*
X015337Y004920D01*
X015254Y004920D01*
X015254Y004937D02*
X015337Y004937D01*
X015415Y005096D02*
X015254Y005096D01*
X015254Y005254D02*
X016652Y005254D01*
X016652Y005413D02*
X016092Y005413D01*
X016092Y005571D02*
X016652Y005571D01*
X016280Y005730D02*
X016092Y005730D01*
X015733Y005730D02*
X015697Y005730D01*
X015697Y005692D02*
X015338Y005692D01*
X015338Y005411D01*
X015350Y005365D01*
X015374Y005324D01*
X015408Y005291D01*
X015449Y005267D01*
X015494Y005255D01*
X015697Y005255D01*
X015697Y005692D01*
X015697Y005571D02*
X015733Y005571D01*
X015733Y005413D02*
X015697Y005413D01*
X015338Y005413D02*
X015330Y005413D01*
X015330Y005571D02*
X015338Y005571D01*
X015330Y005730D02*
X015338Y005730D01*
X015330Y005888D02*
X015338Y005888D01*
X015330Y006047D02*
X015348Y006047D01*
X015697Y006047D02*
X015733Y006047D01*
X015733Y005888D02*
X015697Y005888D01*
X015678Y006205D02*
X015905Y006205D01*
X015905Y006364D02*
X015704Y006364D01*
X015704Y006522D02*
X015905Y006522D01*
X015905Y006681D02*
X015704Y006681D01*
X015704Y006839D02*
X015905Y006839D01*
X015905Y007152D02*
X015682Y007152D01*
X015633Y007201D01*
X015628Y007195D01*
X015628Y006998D01*
X015628Y007156D02*
X015678Y007156D01*
X016007Y007633D02*
X016351Y007633D01*
X016798Y007790D02*
X017027Y007790D01*
X016946Y007949D02*
X017930Y007949D01*
X017930Y008107D02*
X017015Y008107D01*
X017028Y008266D02*
X017930Y008266D01*
X017930Y008424D02*
X017028Y008424D01*
X017028Y008583D02*
X017873Y008583D01*
X017714Y008741D02*
X017028Y008741D01*
X017028Y008900D02*
X017617Y008900D01*
X017617Y009058D02*
X017028Y009058D01*
X017028Y009217D02*
X017617Y009217D01*
X017617Y009375D02*
X017014Y009375D01*
X016943Y009534D02*
X017617Y009534D01*
X017617Y009692D02*
X016830Y009692D01*
X016232Y009692D02*
X015034Y009692D01*
X015099Y009534D02*
X016119Y009534D01*
X016048Y009375D02*
X015132Y009375D01*
X015152Y009217D02*
X016034Y009217D01*
X016034Y009058D02*
X015152Y009058D01*
X015152Y008900D02*
X016034Y008900D01*
X016034Y008741D02*
X015152Y008741D01*
X015152Y008583D02*
X016034Y008583D01*
X015946Y008424D02*
X015152Y008424D01*
X015216Y008266D02*
X015905Y008266D01*
X015675Y008107D02*
X015592Y008107D01*
X014319Y009058D02*
X014208Y009058D01*
X014190Y009217D02*
X014319Y009217D01*
X014339Y009375D02*
X014190Y009375D01*
X014190Y009534D02*
X014372Y009534D01*
X014437Y009692D02*
X014190Y009692D01*
X014190Y009851D02*
X017617Y009851D01*
X017617Y010009D02*
X014190Y010009D01*
X014190Y010168D02*
X017617Y010168D01*
X017617Y010326D02*
X014190Y010326D01*
X013617Y010326D02*
X010190Y010326D01*
X010190Y010168D02*
X013617Y010168D01*
X013617Y010009D02*
X010190Y010009D01*
X010190Y009851D02*
X013617Y009851D01*
X013617Y009692D02*
X012830Y009692D01*
X012943Y009534D02*
X013617Y009534D01*
X013617Y009375D02*
X013014Y009375D01*
X013028Y009217D02*
X013617Y009217D01*
X013617Y009058D02*
X013028Y009058D01*
X013028Y008900D02*
X013617Y008900D01*
X013714Y008741D02*
X013028Y008741D01*
X013028Y008583D02*
X013873Y008583D01*
X013930Y008424D02*
X013028Y008424D01*
X013028Y008266D02*
X013930Y008266D01*
X013930Y008107D02*
X013015Y008107D01*
X012946Y007949D02*
X013930Y007949D01*
X013930Y007790D02*
X013239Y007790D01*
X013027Y007790D02*
X012798Y007790D01*
X012351Y007633D02*
X012007Y007633D01*
X011905Y007152D02*
X011682Y007152D01*
X011633Y007201D01*
X011628Y007195D01*
X011628Y006998D01*
X011905Y006998D01*
X011905Y007152D02*
X011905Y006166D01*
X011733Y006166D01*
X011733Y005729D01*
X011697Y005729D01*
X011697Y006166D01*
X011638Y006166D01*
X011704Y006232D01*
X011704Y006921D01*
X011628Y006998D01*
X011628Y007156D02*
X011678Y007156D01*
X011704Y006839D02*
X011905Y006839D01*
X011905Y006681D02*
X011704Y006681D01*
X011704Y006522D02*
X011905Y006522D01*
X011905Y006364D02*
X011704Y006364D01*
X011678Y006205D02*
X011905Y006205D01*
X011733Y006047D02*
X011697Y006047D01*
X011697Y005888D02*
X011733Y005888D01*
X011733Y005730D02*
X011697Y005730D01*
X011697Y005729D02*
X011697Y005692D01*
X011733Y005692D01*
X011733Y005255D01*
X011936Y005255D01*
X011981Y005267D01*
X012022Y005291D01*
X012056Y005324D01*
X012080Y005365D01*
X012092Y005411D01*
X012092Y005692D01*
X011733Y005692D01*
X011733Y005729D01*
X012092Y005729D01*
X012092Y005882D01*
X012098Y005876D01*
X012220Y005755D01*
X012384Y005687D01*
X012561Y005687D01*
X012634Y005717D01*
X012652Y005717D01*
X012652Y005234D01*
X012717Y005169D01*
X012717Y005128D01*
X012555Y005128D01*
X012555Y004681D01*
X012459Y004681D01*
X012459Y005128D01*
X012228Y005128D01*
X012182Y005116D01*
X012141Y005092D01*
X012124Y005075D01*
X012084Y005115D01*
X011434Y005115D01*
X011337Y005017D01*
X011337Y004920D01*
X011254Y004920D01*
X011254Y005289D01*
X011330Y005366D01*
X011330Y006055D01*
X011251Y006134D01*
X011415Y006134D01*
X011408Y006130D01*
X011374Y006097D01*
X011350Y006055D01*
X011338Y006010D01*
X011338Y005729D01*
X011697Y005729D01*
X011697Y005692D02*
X011338Y005692D01*
X011338Y005411D01*
X011350Y005365D01*
X011374Y005324D01*
X011408Y005291D01*
X011449Y005267D01*
X011494Y005255D01*
X011697Y005255D01*
X011697Y005692D01*
X011697Y005571D02*
X011733Y005571D01*
X011733Y005413D02*
X011697Y005413D01*
X011338Y005413D02*
X011330Y005413D01*
X011330Y005571D02*
X011338Y005571D01*
X011330Y005730D02*
X011338Y005730D01*
X011330Y005888D02*
X011338Y005888D01*
X011330Y006047D02*
X011348Y006047D01*
X011254Y005254D02*
X012652Y005254D01*
X012652Y005413D02*
X012092Y005413D01*
X012092Y005571D02*
X012652Y005571D01*
X012280Y005730D02*
X012092Y005730D01*
X012103Y005096D02*
X012147Y005096D01*
X012459Y005096D02*
X012555Y005096D01*
X012555Y004937D02*
X012459Y004937D01*
X012459Y004779D02*
X012555Y004779D01*
X012555Y004620D02*
X013815Y004620D01*
X013815Y004462D02*
X012943Y004462D01*
X012555Y004462D02*
X012459Y004462D01*
X012459Y004303D02*
X012555Y004303D01*
X012555Y004145D02*
X012459Y004145D01*
X012204Y004145D02*
X012046Y004145D01*
X011473Y004145D02*
X007360Y004145D01*
X007360Y004303D02*
X011337Y004303D01*
X011337Y003986D02*
X007360Y003986D01*
X007360Y003828D02*
X009862Y003828D01*
X009871Y003837D02*
X009837Y003803D01*
X009814Y003762D01*
X009801Y003716D01*
X009801Y003465D01*
X010209Y003465D01*
X010209Y003873D01*
X009958Y003873D01*
X009912Y003860D01*
X009871Y003837D01*
X009801Y003669D02*
X007360Y003669D01*
X007360Y003511D02*
X009801Y003511D01*
X009801Y003330D02*
X009801Y003078D01*
X009814Y003033D01*
X009837Y002992D01*
X009871Y002958D01*
X009912Y002934D01*
X009958Y002922D01*
X010209Y002922D01*
X010209Y003330D01*
X009801Y003330D01*
X009801Y003194D02*
X007360Y003194D01*
X007360Y003352D02*
X010209Y003352D01*
X010209Y003330D02*
X010209Y003465D01*
X010344Y003465D01*
X010344Y003873D01*
X010595Y003873D01*
X010641Y003860D01*
X010682Y003837D01*
X010716Y003803D01*
X010740Y003762D01*
X010752Y003716D01*
X010752Y003465D01*
X010344Y003465D01*
X010344Y003330D01*
X010752Y003330D01*
X010752Y003078D01*
X010740Y003033D01*
X010716Y002992D01*
X010682Y002958D01*
X010641Y002934D01*
X010595Y002922D01*
X010344Y002922D01*
X010344Y003330D01*
X010209Y003330D01*
X010209Y003194D02*
X010344Y003194D01*
X010344Y003352D02*
X011337Y003352D01*
X011337Y003511D02*
X010752Y003511D01*
X010752Y003669D02*
X011337Y003669D01*
X011337Y003828D02*
X010691Y003828D01*
X010344Y003828D02*
X010209Y003828D01*
X010209Y003669D02*
X010344Y003669D01*
X010344Y003511D02*
X010209Y003511D01*
X010209Y003035D02*
X010344Y003035D01*
X010740Y003035D02*
X012407Y003035D01*
X012407Y002877D02*
X007360Y002877D01*
X007360Y002838D02*
X007360Y005407D01*
X007522Y005407D01*
X007522Y005210D01*
X007619Y005112D01*
X008309Y005112D01*
X008406Y005210D01*
X008406Y006057D01*
X008309Y006154D01*
X007619Y006154D01*
X007522Y006057D01*
X007522Y005860D01*
X007360Y005860D01*
X007360Y006708D01*
X007383Y006668D01*
X007417Y006635D01*
X007458Y006611D01*
X007503Y006599D01*
X007745Y006599D01*
X007745Y007076D01*
X007860Y007076D01*
X007860Y006599D01*
X008102Y006599D01*
X008148Y006611D01*
X008189Y006635D01*
X008222Y006668D01*
X008246Y006710D01*
X008258Y006755D01*
X008258Y007076D01*
X007860Y007076D01*
X007860Y007191D01*
X007745Y007191D01*
X007745Y007668D01*
X007503Y007668D01*
X007458Y007655D01*
X007417Y007632D01*
X007360Y007632D01*
X007383Y007598D02*
X007360Y007558D01*
X007360Y008337D01*
X007517Y008337D01*
X007615Y008434D01*
X007615Y009084D01*
X007566Y009133D01*
X007615Y009182D01*
X007615Y009832D01*
X007517Y009930D01*
X007360Y009930D01*
X007360Y011429D01*
X007396Y011444D01*
X007526Y011574D01*
X007597Y011744D01*
X007597Y012522D01*
X007526Y012693D01*
X007396Y012823D01*
X007226Y012894D01*
X007041Y012894D01*
X006871Y012823D01*
X006740Y012693D01*
X006670Y012522D01*
X006670Y011744D01*
X006740Y011574D01*
X006871Y011444D01*
X006907Y011429D01*
X006907Y009930D01*
X006749Y009930D01*
X006652Y009832D01*
X006652Y009182D01*
X006701Y009133D01*
X006652Y009084D01*
X006652Y008434D01*
X006749Y008337D01*
X006907Y008337D01*
X006907Y002838D01*
X006871Y002823D01*
X006740Y002693D01*
X006670Y002522D01*
X006670Y001744D01*
X006740Y001574D01*
X006871Y001444D01*
X007041Y001373D01*
X007226Y001373D01*
X007396Y001444D01*
X007526Y001574D01*
X007597Y001744D01*
X007597Y002522D01*
X007526Y002693D01*
X007396Y002823D01*
X007360Y002838D01*
X007501Y002718D02*
X012407Y002718D01*
X012407Y002560D02*
X012157Y002560D01*
X012135Y002582D02*
X011752Y002582D01*
X011613Y002443D01*
X011520Y002350D01*
X011520Y002115D01*
X011336Y002115D01*
X011243Y002021D01*
X011213Y002021D01*
X011213Y002443D01*
X011076Y002580D01*
X011074Y002582D01*
X010878Y002582D01*
X010878Y002582D01*
X010553Y002257D01*
X010553Y002061D01*
X010642Y001972D01*
X010553Y001883D01*
X010553Y001687D01*
X010692Y001548D01*
X011261Y001548D01*
X011299Y001586D01*
X011336Y001548D01*
X011626Y001548D01*
X011689Y001611D01*
X011752Y001548D01*
X012135Y001548D01*
X012273Y001687D01*
X012367Y001780D01*
X012367Y002350D01*
X012228Y002489D01*
X012135Y002582D01*
X012315Y002401D02*
X012545Y002401D01*
X012703Y002243D02*
X012367Y002243D01*
X012367Y002084D02*
X012862Y002084D01*
X013020Y001926D02*
X012367Y001926D01*
X012354Y001767D02*
X015670Y001767D01*
X015726Y001609D02*
X012195Y001609D01*
X011691Y001609D02*
X011686Y001609D01*
X011306Y002084D02*
X011213Y002084D01*
X011213Y002243D02*
X011520Y002243D01*
X011571Y002401D02*
X011213Y002401D01*
X011097Y002560D02*
X011730Y002560D01*
X011392Y003194D02*
X010752Y003194D01*
X010856Y002560D02*
X007581Y002560D01*
X007597Y002401D02*
X009457Y002401D01*
X009482Y002414D02*
X009307Y002326D01*
X009306Y002323D01*
X009234Y002395D01*
X008851Y002395D01*
X008774Y002318D01*
X008697Y002395D01*
X008221Y002395D01*
X008082Y002257D01*
X008082Y001687D01*
X008221Y001548D01*
X008417Y001548D01*
X008555Y001687D01*
X008555Y001874D01*
X008604Y001922D01*
X008619Y001922D01*
X008619Y001780D01*
X008758Y001642D01*
X008851Y001548D01*
X009047Y001548D01*
X009234Y001548D01*
X009373Y001687D01*
X009373Y001780D01*
X009408Y001815D01*
X009468Y001694D01*
X009494Y001617D01*
X009511Y001609D01*
X009519Y001591D01*
X009596Y001566D01*
X009669Y001529D01*
X009687Y001535D01*
X009705Y001529D01*
X009778Y001566D01*
X009855Y001591D01*
X009864Y001609D01*
X010631Y001609D01*
X010553Y001767D02*
X009943Y001767D01*
X009906Y001694D02*
X010130Y002140D01*
X010068Y002326D01*
X009892Y002414D01*
X009706Y002352D01*
X009687Y002314D01*
X009668Y002352D01*
X009482Y002414D01*
X009520Y002401D02*
X009854Y002401D01*
X009918Y002401D02*
X010698Y002401D01*
X010553Y002243D02*
X010095Y002243D01*
X010102Y002084D02*
X010553Y002084D01*
X010596Y001926D02*
X010022Y001926D01*
X009906Y001694D02*
X009881Y001617D01*
X009864Y001609D01*
X009510Y001609D02*
X009295Y001609D01*
X009373Y001767D02*
X009431Y001767D01*
X008791Y001609D02*
X008477Y001609D01*
X008555Y001767D02*
X008632Y001767D01*
X008160Y001609D02*
X007541Y001609D01*
X007597Y001767D02*
X008082Y001767D01*
X008082Y001926D02*
X007597Y001926D01*
X007597Y002084D02*
X008082Y002084D01*
X008082Y002243D02*
X007597Y002243D01*
X007403Y001450D02*
X015864Y001450D01*
X016403Y001450D02*
X016864Y001450D01*
X016726Y001609D02*
X016541Y001609D01*
X016597Y001767D02*
X016670Y001767D01*
X016670Y001926D02*
X016597Y001926D01*
X016597Y002084D02*
X016670Y002084D01*
X016670Y002243D02*
X016597Y002243D01*
X016597Y002401D02*
X016670Y002401D01*
X016685Y002560D02*
X016581Y002560D01*
X016501Y002718D02*
X016766Y002718D01*
X016785Y003035D02*
X014740Y003035D01*
X014752Y003194D02*
X015392Y003194D01*
X015766Y002718D02*
X012869Y002718D01*
X013027Y002560D02*
X015685Y002560D01*
X015670Y002401D02*
X013186Y002401D01*
X014209Y003035D02*
X014344Y003035D01*
X016046Y004145D02*
X016204Y004145D01*
X016459Y004145D02*
X016555Y004145D01*
X016555Y004303D02*
X016459Y004303D01*
X016459Y004462D02*
X016555Y004462D01*
X016555Y004620D02*
X017815Y004620D01*
X017815Y004462D02*
X016943Y004462D01*
X016943Y004303D02*
X019337Y004303D01*
X018899Y004462D02*
X018738Y004462D01*
X018805Y004557D02*
X018805Y004557D01*
X018741Y004620D02*
X018738Y004620D01*
X018890Y004471D02*
X018890Y004471D01*
X017815Y004779D02*
X017411Y004779D01*
X017503Y004937D02*
X017815Y004937D01*
X017815Y005096D02*
X017550Y005096D01*
X017615Y005254D02*
X017990Y005254D01*
X017990Y005413D02*
X017615Y005413D01*
X017615Y005571D02*
X017990Y005571D01*
X017990Y005730D02*
X017615Y005730D01*
X017615Y005888D02*
X017990Y005888D01*
X017990Y006047D02*
X017615Y006047D01*
X017615Y006205D02*
X017736Y006205D01*
X017736Y006364D02*
X017615Y006364D01*
X017615Y006522D02*
X017736Y006522D01*
X017736Y006681D02*
X017615Y006681D01*
X017615Y006839D02*
X017761Y006839D01*
X017736Y006998D02*
X017615Y006998D01*
X017550Y007156D02*
X017736Y007156D01*
X017736Y007315D02*
X017550Y007315D01*
X017547Y007473D02*
X017736Y007473D01*
X017805Y007632D02*
X017498Y007632D01*
X017239Y007790D02*
X017930Y007790D01*
X018208Y009058D02*
X018319Y009058D01*
X018319Y009217D02*
X018190Y009217D01*
X018190Y009375D02*
X018339Y009375D01*
X018372Y009534D02*
X018190Y009534D01*
X018190Y009692D02*
X018437Y009692D01*
X017617Y010485D02*
X017291Y010485D01*
X017350Y010643D02*
X017617Y010643D01*
X017617Y010802D02*
X017350Y010802D01*
X017350Y010960D02*
X017617Y010960D01*
X017617Y011119D02*
X017350Y011119D01*
X017350Y011277D02*
X017617Y011277D01*
X017617Y011436D02*
X017350Y011436D01*
X017350Y011594D02*
X017617Y011594D01*
X017617Y011753D02*
X017350Y011753D01*
X017350Y011911D02*
X017617Y011911D01*
X017617Y012070D02*
X017350Y012070D01*
X017350Y012228D02*
X017617Y012228D01*
X017617Y012387D02*
X017350Y012387D01*
X017350Y012545D02*
X017617Y012545D01*
X017617Y012704D02*
X017350Y012704D01*
X017350Y012862D02*
X017617Y012862D01*
X017617Y013021D02*
X017350Y013021D01*
X017350Y013179D02*
X017617Y013179D01*
X017617Y013338D02*
X017350Y013338D01*
X017350Y013496D02*
X017617Y013496D01*
X017617Y013655D02*
X017350Y013655D01*
X017350Y013813D02*
X017617Y013813D01*
X017617Y013972D02*
X017350Y013972D01*
X017350Y014130D02*
X017617Y014130D01*
X017617Y014289D02*
X017284Y014289D01*
X017050Y014447D02*
X017617Y014447D01*
X017617Y014606D02*
X017050Y014606D01*
X017272Y014764D02*
X017617Y014764D01*
X017617Y014923D02*
X017272Y014923D01*
X017272Y015081D02*
X017617Y015081D01*
X017617Y015240D02*
X017272Y015240D01*
X017272Y015398D02*
X017617Y015398D01*
X017657Y015557D02*
X017272Y015557D01*
X017272Y015715D02*
X017810Y015715D01*
X017969Y015874D02*
X017207Y015874D01*
X017129Y016347D02*
X016713Y016347D01*
X016713Y016919D01*
X016553Y016919D01*
X016553Y016347D01*
X016137Y016347D01*
X016091Y016359D01*
X016050Y016383D01*
X016017Y016417D01*
X015993Y016458D01*
X015981Y016503D01*
X015981Y016919D01*
X016553Y016919D01*
X016553Y017079D01*
X015981Y017079D01*
X015981Y017496D01*
X015993Y017541D01*
X016017Y017582D01*
X016050Y017616D01*
X016091Y017640D01*
X016137Y017652D01*
X016467Y017652D01*
X016406Y017672D01*
X016323Y017714D01*
X016247Y017769D01*
X016181Y017835D01*
X016127Y017910D01*
X016084Y017993D01*
X016055Y018082D01*
X016041Y018174D01*
X016041Y018576D01*
X016576Y018576D01*
X016576Y018691D01*
X016576Y019637D01*
X016495Y019624D01*
X016406Y019595D01*
X016323Y019553D01*
X016247Y019498D01*
X016181Y019432D01*
X016127Y019356D01*
X016084Y019273D01*
X016055Y019185D01*
X016041Y019092D01*
X016041Y018691D01*
X016576Y018691D01*
X016691Y018691D01*
X017226Y018691D01*
X017226Y019092D01*
X017211Y019185D01*
X017182Y019273D01*
X017140Y019356D01*
X017085Y019432D01*
X017019Y019498D01*
X016944Y019553D01*
X016861Y019595D01*
X016772Y019624D01*
X016691Y019637D01*
X016691Y018691D01*
X016691Y018576D01*
X017226Y018576D01*
X017226Y018174D01*
X017211Y018082D01*
X017182Y017993D01*
X017140Y017910D01*
X017085Y017835D01*
X017019Y017769D01*
X016944Y017714D01*
X016861Y017672D01*
X016800Y017652D01*
X017129Y017652D01*
X017175Y017640D01*
X017216Y017616D01*
X017250Y017582D01*
X017274Y017541D01*
X017286Y017496D01*
X017286Y017079D01*
X016713Y017079D01*
X016713Y016919D01*
X017286Y016919D01*
X017286Y016503D01*
X017274Y016458D01*
X017250Y016417D01*
X017216Y016383D01*
X017175Y016359D01*
X017129Y016347D01*
X017138Y016349D02*
X018258Y016349D01*
X018258Y016191D02*
X016009Y016191D01*
X016009Y016349D02*
X016129Y016349D01*
X015981Y016508D02*
X015680Y016508D01*
X015680Y016666D02*
X015981Y016666D01*
X015981Y016825D02*
X015646Y016825D01*
X015556Y016983D02*
X016553Y016983D01*
X016553Y017079D02*
X016553Y017634D01*
X016576Y017630D01*
X016576Y018576D01*
X016691Y018576D01*
X016691Y017630D01*
X016713Y017634D01*
X016713Y017079D01*
X016553Y017079D01*
X016553Y017142D02*
X016713Y017142D01*
X016713Y017300D02*
X016553Y017300D01*
X016553Y017459D02*
X016713Y017459D01*
X016713Y017617D02*
X016553Y017617D01*
X016576Y017776D02*
X016691Y017776D01*
X016691Y017934D02*
X016576Y017934D01*
X016576Y018093D02*
X016691Y018093D01*
X016691Y018251D02*
X016576Y018251D01*
X016576Y018410D02*
X016691Y018410D01*
X016691Y018568D02*
X016576Y018568D01*
X016576Y018727D02*
X016691Y018727D01*
X016691Y018885D02*
X016576Y018885D01*
X016576Y019044D02*
X016691Y019044D01*
X016691Y019202D02*
X016576Y019202D01*
X016576Y019361D02*
X016691Y019361D01*
X016691Y019519D02*
X016576Y019519D01*
X016277Y019519D02*
X014979Y019519D01*
X014961Y019537D02*
X014749Y019625D01*
X014518Y019625D01*
X014305Y019537D01*
X014142Y019374D01*
X014054Y019161D01*
X014054Y018106D01*
X014142Y017893D01*
X014305Y017730D01*
X014518Y017642D01*
X014749Y017642D01*
X014961Y017730D01*
X015124Y017893D01*
X015212Y018106D01*
X015212Y019161D01*
X015124Y019374D01*
X014961Y019537D01*
X015130Y019361D02*
X016130Y019361D01*
X016061Y019202D02*
X015195Y019202D01*
X015212Y019044D02*
X016041Y019044D01*
X016041Y018885D02*
X015212Y018885D01*
X015212Y018727D02*
X016041Y018727D01*
X016041Y018568D02*
X015212Y018568D01*
X015212Y018410D02*
X016041Y018410D01*
X016041Y018251D02*
X015212Y018251D01*
X015207Y018093D02*
X016054Y018093D01*
X016114Y017934D02*
X015141Y017934D01*
X015007Y017776D02*
X016240Y017776D01*
X016053Y017617D02*
X013214Y017617D01*
X013216Y017616D02*
X013175Y017640D01*
X013129Y017652D01*
X012800Y017652D01*
X012861Y017672D01*
X012944Y017714D01*
X013019Y017769D01*
X013085Y017835D01*
X013140Y017910D01*
X013182Y017993D01*
X013211Y018082D01*
X013226Y018174D01*
X013226Y018576D01*
X012691Y018576D01*
X012691Y018691D01*
X013226Y018691D01*
X013226Y019092D01*
X013211Y019185D01*
X013182Y019273D01*
X013140Y019356D01*
X013085Y019432D01*
X013019Y019498D01*
X012944Y019553D01*
X012861Y019595D01*
X012772Y019624D01*
X012691Y019637D01*
X012691Y018691D01*
X012576Y018691D01*
X012576Y019637D01*
X012495Y019624D01*
X012406Y019595D01*
X012323Y019553D01*
X012247Y019498D01*
X012181Y019432D01*
X012127Y019356D01*
X012084Y019273D01*
X012055Y019185D01*
X012041Y019092D01*
X012041Y018691D01*
X012576Y018691D01*
X012576Y018576D01*
X012041Y018576D01*
X012041Y018174D01*
X012055Y018082D01*
X012084Y017993D01*
X012127Y017910D01*
X012181Y017835D01*
X012247Y017769D01*
X012323Y017714D01*
X012406Y017672D01*
X012467Y017652D01*
X012137Y017652D01*
X012091Y017640D01*
X012050Y017616D01*
X012017Y017582D01*
X011993Y017541D01*
X011981Y017496D01*
X011981Y017079D01*
X012553Y017079D01*
X012553Y016919D01*
X012713Y016919D01*
X012713Y016347D01*
X013129Y016347D01*
X013175Y016359D01*
X013216Y016383D01*
X013250Y016417D01*
X013274Y016458D01*
X013286Y016503D01*
X013286Y016919D01*
X012713Y016919D01*
X012713Y017079D01*
X013286Y017079D01*
X013286Y017496D01*
X013274Y017541D01*
X013250Y017582D01*
X013216Y017616D01*
X013286Y017459D02*
X015981Y017459D01*
X015981Y017300D02*
X013286Y017300D01*
X013286Y017142D02*
X014933Y017142D01*
X014710Y016983D02*
X012713Y016983D01*
X012713Y017079D02*
X012553Y017079D01*
X012553Y017634D01*
X012576Y017630D01*
X012576Y018576D01*
X012691Y018576D01*
X012691Y017630D01*
X012713Y017634D01*
X012713Y017079D01*
X012713Y017142D02*
X012553Y017142D01*
X012553Y017300D02*
X012713Y017300D01*
X012713Y017459D02*
X012553Y017459D01*
X012553Y017617D02*
X012713Y017617D01*
X012691Y017776D02*
X012576Y017776D01*
X012576Y017934D02*
X012691Y017934D01*
X012691Y018093D02*
X012576Y018093D01*
X012576Y018251D02*
X012691Y018251D01*
X012691Y018410D02*
X012576Y018410D01*
X012576Y018568D02*
X012691Y018568D01*
X012691Y018727D02*
X012576Y018727D01*
X012576Y018885D02*
X012691Y018885D01*
X012691Y019044D02*
X012576Y019044D01*
X012576Y019202D02*
X012691Y019202D01*
X012691Y019361D02*
X012576Y019361D01*
X012576Y019519D02*
X012691Y019519D01*
X012990Y019519D02*
X014288Y019519D01*
X014137Y019361D02*
X013137Y019361D01*
X013205Y019202D02*
X014071Y019202D01*
X014054Y019044D02*
X013226Y019044D01*
X013226Y018885D02*
X014054Y018885D01*
X014054Y018727D02*
X013226Y018727D01*
X013226Y018568D02*
X014054Y018568D01*
X014054Y018410D02*
X013226Y018410D01*
X013226Y018251D02*
X014054Y018251D01*
X014060Y018093D02*
X013213Y018093D01*
X013152Y017934D02*
X014125Y017934D01*
X014259Y017776D02*
X013026Y017776D01*
X012240Y017776D02*
X011007Y017776D01*
X010961Y017730D02*
X011124Y017893D01*
X011212Y018106D01*
X011212Y019161D01*
X011124Y019374D01*
X010961Y019537D01*
X010749Y019625D01*
X010518Y019625D01*
X010305Y019537D01*
X010142Y019374D01*
X010054Y019161D01*
X010054Y018106D01*
X010142Y017893D01*
X010305Y017730D01*
X010518Y017642D01*
X010749Y017642D01*
X010961Y017730D01*
X011141Y017934D02*
X012114Y017934D01*
X012054Y018093D02*
X011207Y018093D01*
X011212Y018251D02*
X012041Y018251D01*
X012041Y018410D02*
X011212Y018410D01*
X011212Y018568D02*
X012041Y018568D01*
X012041Y018727D02*
X011212Y018727D01*
X011212Y018885D02*
X012041Y018885D01*
X012041Y019044D02*
X011212Y019044D01*
X011195Y019202D02*
X012061Y019202D01*
X012130Y019361D02*
X011130Y019361D01*
X010979Y019519D02*
X012277Y019519D01*
X012053Y017617D02*
X000810Y017617D01*
X000810Y017459D02*
X001875Y017459D01*
X001976Y017501D02*
X001694Y017384D01*
X001477Y017167D01*
X001360Y016885D01*
X001360Y016579D01*
X001477Y016296D01*
X001694Y016080D01*
X001976Y015963D01*
X002282Y015963D01*
X002565Y016080D01*
X002781Y016296D01*
X002898Y016579D01*
X002898Y016885D01*
X002781Y017167D01*
X002565Y017384D01*
X002282Y017501D01*
X001976Y017501D01*
X002383Y017459D02*
X008883Y017459D01*
X008984Y017501D02*
X008702Y017384D01*
X008485Y017167D01*
X008368Y016885D01*
X008368Y016579D01*
X008485Y016296D01*
X008702Y016080D01*
X008984Y015963D01*
X009290Y015963D01*
X009573Y016080D01*
X009789Y016296D01*
X009906Y016579D01*
X009906Y016885D01*
X009789Y017167D01*
X009573Y017384D01*
X009290Y017501D01*
X008984Y017501D01*
X008618Y017300D02*
X002648Y017300D01*
X002792Y017142D02*
X006842Y017142D01*
X006850Y017144D02*
X006804Y017132D01*
X006763Y017108D01*
X006729Y017075D01*
X006706Y017034D01*
X006693Y016988D01*
X006693Y016608D01*
X007229Y016608D01*
X007229Y016493D01*
X006693Y016493D01*
X006693Y016114D01*
X006706Y016068D01*
X006729Y016027D01*
X006763Y015993D01*
X006804Y015970D01*
X006850Y015957D01*
X007229Y015957D01*
X007229Y016493D01*
X007345Y016493D01*
X007345Y016608D01*
X007880Y016608D01*
X007880Y016988D01*
X007868Y017034D01*
X007844Y017075D01*
X007811Y017108D01*
X007770Y017132D01*
X007724Y017144D01*
X007345Y017144D01*
X007345Y016608D01*
X007229Y016608D01*
X007229Y017144D01*
X006850Y017144D01*
X006693Y016983D02*
X006213Y016983D01*
X006213Y017033D02*
X006116Y017131D01*
X005151Y017131D01*
X005053Y017033D01*
X005053Y016068D01*
X005137Y015985D01*
X005137Y014630D01*
X003535Y014630D01*
X003352Y014554D01*
X003212Y014415D01*
X003137Y014232D01*
X003137Y013630D01*
X002035Y013630D01*
X001955Y013597D01*
X001744Y013597D01*
X001574Y013526D01*
X001444Y013396D01*
X001380Y013242D01*
X001380Y013887D01*
X001437Y013887D01*
X001444Y013871D01*
X001574Y013740D01*
X001744Y013670D01*
X002522Y013670D01*
X002693Y013740D01*
X002823Y013871D01*
X002894Y014041D01*
X002894Y014226D01*
X002823Y014396D01*
X002693Y014526D01*
X002522Y014597D01*
X001744Y014597D01*
X001574Y014526D01*
X001444Y014396D01*
X001437Y014380D01*
X001084Y014380D01*
X000994Y014342D01*
X000924Y014273D01*
X000887Y014182D01*
X000887Y009958D01*
X000924Y009868D01*
X000994Y009798D01*
X001084Y009761D01*
X001152Y009761D01*
X001152Y009682D01*
X001201Y009633D01*
X001152Y009584D01*
X001152Y008934D01*
X001249Y008837D01*
X001387Y008837D01*
X001387Y008784D01*
X001269Y008784D01*
X001171Y008687D01*
X001171Y007958D01*
X001269Y007860D01*
X001998Y007860D01*
X002095Y007958D01*
X002095Y008687D01*
X001998Y008784D01*
X001880Y008784D01*
X001880Y008837D01*
X002017Y008837D01*
X002115Y008934D01*
X002115Y009584D01*
X002066Y009633D01*
X002115Y009682D01*
X002115Y010332D01*
X002017Y010430D01*
X001380Y010430D01*
X001380Y011995D01*
X001395Y011950D01*
X001429Y011883D01*
X001473Y011823D01*
X001526Y011770D01*
X001587Y011725D01*
X001653Y011691D01*
X001725Y011668D01*
X001799Y011656D01*
X002115Y011656D01*
X002115Y012115D01*
X002152Y012115D01*
X002152Y011656D01*
X002468Y011656D01*
X002542Y011668D01*
X002613Y011691D01*
X002680Y011725D01*
X002741Y011770D01*
X002794Y011823D01*
X002838Y011883D01*
X002872Y011950D01*
X002887Y011995D01*
X002887Y010430D01*
X002249Y010430D01*
X002152Y010332D01*
X002152Y009682D01*
X002201Y009633D01*
X002152Y009584D01*
X002152Y008934D01*
X002249Y008837D01*
X002387Y008837D01*
X002387Y008784D01*
X002269Y008784D01*
X002171Y008687D01*
X002171Y007958D01*
X002269Y007860D01*
X002998Y007860D01*
X003095Y007958D01*
X003095Y008687D01*
X002998Y008784D01*
X002880Y008784D01*
X002880Y008837D01*
X003017Y008837D01*
X003115Y008934D01*
X003115Y009584D01*
X003066Y009633D01*
X003115Y009682D01*
X003115Y009761D01*
X003182Y009761D01*
X003273Y009798D01*
X003342Y009868D01*
X003380Y009958D01*
X003380Y012637D01*
X003717Y012637D01*
X003670Y012522D01*
X003670Y011744D01*
X003740Y011574D01*
X003871Y011444D01*
X003907Y011429D01*
X003907Y009930D01*
X003749Y009930D01*
X003652Y009832D01*
X003652Y009182D01*
X003701Y009133D01*
X003652Y009084D01*
X003652Y008434D01*
X003749Y008337D01*
X003907Y008337D01*
X003907Y007558D01*
X003884Y007598D01*
X003850Y007632D01*
X003907Y007632D01*
X003850Y007632D02*
X003809Y007655D01*
X003763Y007668D01*
X003522Y007668D01*
X003522Y007191D01*
X003406Y007191D01*
X003406Y007668D01*
X003165Y007668D01*
X003119Y007655D01*
X003078Y007632D01*
X000806Y007632D01*
X000806Y007790D02*
X003907Y007790D01*
X003907Y007949D02*
X003086Y007949D01*
X003095Y008107D02*
X003907Y008107D01*
X003907Y008266D02*
X003095Y008266D01*
X003095Y008424D02*
X003662Y008424D01*
X003652Y008583D02*
X003095Y008583D01*
X003040Y008741D02*
X003652Y008741D01*
X003652Y008900D02*
X003080Y008900D01*
X003115Y009058D02*
X003652Y009058D01*
X003652Y009217D02*
X003115Y009217D01*
X003115Y009375D02*
X003652Y009375D01*
X003652Y009534D02*
X003115Y009534D01*
X003115Y009692D02*
X003652Y009692D01*
X003670Y009851D02*
X003326Y009851D01*
X003380Y010009D02*
X003907Y010009D01*
X003907Y010168D02*
X003380Y010168D01*
X003380Y010326D02*
X003907Y010326D01*
X003907Y010485D02*
X003380Y010485D01*
X003380Y010643D02*
X003907Y010643D01*
X003907Y010802D02*
X003380Y010802D01*
X003380Y010960D02*
X003907Y010960D01*
X003907Y011119D02*
X003380Y011119D01*
X003380Y011277D02*
X003907Y011277D01*
X003889Y011436D02*
X003380Y011436D01*
X003380Y011594D02*
X003732Y011594D01*
X003670Y011753D02*
X003380Y011753D01*
X003380Y011911D02*
X003670Y011911D01*
X003670Y012070D02*
X003380Y012070D01*
X003380Y012228D02*
X003670Y012228D01*
X003670Y012387D02*
X003380Y012387D01*
X003380Y012545D02*
X003679Y012545D01*
X004072Y012894D02*
X004130Y013035D01*
X004130Y013637D01*
X007637Y013637D01*
X007637Y009535D01*
X007642Y009522D01*
X007642Y009240D01*
X007740Y009142D01*
X008022Y009142D01*
X008035Y009137D01*
X008232Y009137D01*
X008245Y009142D01*
X008527Y009142D01*
X008625Y009240D01*
X008625Y009522D01*
X008630Y009535D01*
X008630Y014232D01*
X008554Y014415D01*
X008415Y014554D01*
X008232Y014630D01*
X006130Y014630D01*
X006130Y015985D01*
X006213Y016068D01*
X006213Y017033D01*
X006213Y016825D02*
X006693Y016825D01*
X006693Y016666D02*
X006213Y016666D01*
X006213Y016508D02*
X007229Y016508D01*
X007345Y016508D02*
X008398Y016508D01*
X008368Y016666D02*
X007880Y016666D01*
X007880Y016825D02*
X008368Y016825D01*
X008409Y016983D02*
X007880Y016983D01*
X007732Y017142D02*
X008475Y017142D01*
X008463Y016349D02*
X007880Y016349D01*
X007880Y016493D02*
X007345Y016493D01*
X007345Y015957D01*
X007724Y015957D01*
X007770Y015970D01*
X007811Y015993D01*
X007844Y016027D01*
X007868Y016068D01*
X007880Y016114D01*
X007880Y016493D01*
X007880Y016191D02*
X008591Y016191D01*
X008816Y016032D02*
X007848Y016032D01*
X007345Y016032D02*
X007229Y016032D01*
X007229Y016191D02*
X007345Y016191D01*
X007345Y016349D02*
X007229Y016349D01*
X007229Y016666D02*
X007345Y016666D01*
X007345Y016825D02*
X007229Y016825D01*
X007229Y016983D02*
X007345Y016983D01*
X007345Y017142D02*
X007229Y017142D01*
X006693Y016349D02*
X006213Y016349D01*
X006213Y016191D02*
X006693Y016191D01*
X006726Y016032D02*
X006177Y016032D01*
X006130Y015874D02*
X009969Y015874D01*
X010127Y016032D02*
X009458Y016032D01*
X009684Y016191D02*
X010258Y016191D01*
X010258Y016349D02*
X009811Y016349D01*
X009877Y016508D02*
X010587Y016508D01*
X010587Y016666D02*
X009906Y016666D01*
X009906Y016825D02*
X010621Y016825D01*
X010710Y016983D02*
X009865Y016983D01*
X009800Y017142D02*
X010933Y017142D01*
X011334Y017142D02*
X011981Y017142D01*
X011981Y017300D02*
X009656Y017300D01*
X009391Y017459D02*
X011981Y017459D01*
X011981Y016919D02*
X011981Y016503D01*
X011993Y016458D01*
X012017Y016417D01*
X012050Y016383D01*
X012091Y016359D01*
X012137Y016347D01*
X012553Y016347D01*
X012553Y016919D01*
X011981Y016919D01*
X011981Y016825D02*
X011646Y016825D01*
X011680Y016666D02*
X011981Y016666D01*
X011981Y016508D02*
X011680Y016508D01*
X012009Y016349D02*
X012129Y016349D01*
X012009Y016191D02*
X014258Y016191D01*
X014258Y016349D02*
X013138Y016349D01*
X013286Y016508D02*
X014587Y016508D01*
X014587Y016666D02*
X013286Y016666D01*
X013286Y016825D02*
X014621Y016825D01*
X015334Y017142D02*
X015981Y017142D01*
X016553Y016825D02*
X016713Y016825D01*
X016713Y016983D02*
X018710Y016983D01*
X018621Y016825D02*
X017286Y016825D01*
X017286Y016666D02*
X018587Y016666D01*
X018587Y016508D02*
X017286Y016508D01*
X016713Y016508D02*
X016553Y016508D01*
X016553Y016666D02*
X016713Y016666D01*
X016713Y016349D02*
X016553Y016349D01*
X016051Y016032D02*
X018127Y016032D01*
X018933Y017142D02*
X017286Y017142D01*
X017286Y017300D02*
X019981Y017300D01*
X019981Y017142D02*
X019334Y017142D01*
X019981Y017459D02*
X017286Y017459D01*
X017214Y017617D02*
X020053Y017617D01*
X018259Y017776D02*
X017026Y017776D01*
X017152Y017934D02*
X018125Y017934D01*
X018060Y018093D02*
X017213Y018093D01*
X017226Y018251D02*
X018054Y018251D01*
X018054Y018410D02*
X017226Y018410D01*
X017226Y018568D02*
X018054Y018568D01*
X018054Y018727D02*
X017226Y018727D01*
X017226Y018885D02*
X018054Y018885D01*
X018054Y019044D02*
X017226Y019044D01*
X017205Y019202D02*
X018071Y019202D01*
X018137Y019361D02*
X017137Y019361D01*
X016990Y019519D02*
X018288Y019519D01*
X016059Y015874D02*
X016030Y015874D01*
X014127Y016032D02*
X012051Y016032D01*
X012059Y015874D02*
X012030Y015874D01*
X012553Y016349D02*
X012713Y016349D01*
X012713Y016508D02*
X012553Y016508D01*
X012553Y016666D02*
X012713Y016666D01*
X012713Y016825D02*
X012553Y016825D01*
X012553Y016983D02*
X011556Y016983D01*
X010259Y017776D02*
X000810Y017776D01*
X000810Y017934D02*
X010125Y017934D01*
X010060Y018093D02*
X000810Y018093D01*
X000810Y018251D02*
X003400Y018251D01*
X003400Y018234D02*
X003497Y018136D01*
X004462Y018136D01*
X004560Y018234D01*
X004560Y019198D01*
X004462Y019296D01*
X003497Y019296D01*
X003400Y019198D01*
X003400Y018234D01*
X003400Y018410D02*
X000810Y018410D01*
X000810Y018568D02*
X003400Y018568D01*
X003400Y018727D02*
X000810Y018727D01*
X000810Y018885D02*
X003400Y018885D01*
X003400Y019044D02*
X000810Y019044D01*
X000810Y019202D02*
X003404Y019202D01*
X004556Y019202D02*
X005057Y019202D01*
X005053Y019198D02*
X005151Y019296D01*
X006116Y019296D01*
X006213Y019198D01*
X006213Y018234D01*
X006116Y018136D01*
X005151Y018136D01*
X005053Y018234D01*
X005053Y019198D01*
X005053Y019044D02*
X004560Y019044D01*
X004560Y018885D02*
X005053Y018885D01*
X005053Y018727D02*
X004560Y018727D01*
X004560Y018568D02*
X005053Y018568D01*
X005053Y018410D02*
X004560Y018410D01*
X004560Y018251D02*
X005053Y018251D01*
X006213Y018251D02*
X006701Y018251D01*
X006706Y018233D02*
X006729Y018192D01*
X006763Y018159D01*
X006804Y018135D01*
X006850Y018123D01*
X007229Y018123D01*
X007229Y018658D01*
X007345Y018658D01*
X007345Y018774D01*
X007880Y018774D01*
X007880Y019153D01*
X007868Y019199D01*
X007844Y019240D01*
X007811Y019273D01*
X007770Y019297D01*
X007724Y019309D01*
X007345Y019309D01*
X007345Y018774D01*
X007229Y018774D01*
X007229Y019309D01*
X006850Y019309D01*
X006804Y019297D01*
X006763Y019273D01*
X006729Y019240D01*
X006706Y019199D01*
X006693Y019153D01*
X006693Y018774D01*
X007229Y018774D01*
X007229Y018658D01*
X006693Y018658D01*
X006693Y018279D01*
X006706Y018233D01*
X006693Y018410D02*
X006213Y018410D01*
X006213Y018568D02*
X006693Y018568D01*
X006693Y018885D02*
X006213Y018885D01*
X006213Y018727D02*
X007229Y018727D01*
X007345Y018727D02*
X010054Y018727D01*
X010054Y018885D02*
X007880Y018885D01*
X007880Y019044D02*
X010054Y019044D01*
X010071Y019202D02*
X007866Y019202D01*
X007345Y019202D02*
X007229Y019202D01*
X007229Y019044D02*
X007345Y019044D01*
X007345Y018885D02*
X007229Y018885D01*
X007345Y018658D02*
X007880Y018658D01*
X007880Y018279D01*
X007868Y018233D01*
X007844Y018192D01*
X007811Y018159D01*
X007770Y018135D01*
X007724Y018123D01*
X007345Y018123D01*
X007345Y018658D01*
X007345Y018568D02*
X007229Y018568D01*
X007229Y018410D02*
X007345Y018410D01*
X007345Y018251D02*
X007229Y018251D01*
X007873Y018251D02*
X010054Y018251D01*
X010054Y018410D02*
X007880Y018410D01*
X007880Y018568D02*
X010054Y018568D01*
X010137Y019361D02*
X000811Y019361D01*
X000811Y019519D02*
X010288Y019519D01*
X006708Y019202D02*
X006209Y019202D01*
X006213Y019044D02*
X006693Y019044D01*
X004560Y017033D02*
X004462Y017131D01*
X003497Y017131D01*
X003400Y017033D01*
X003400Y016068D01*
X003497Y015971D01*
X004462Y015971D01*
X004560Y016068D01*
X004560Y017033D01*
X004560Y016983D02*
X005053Y016983D01*
X005053Y016825D02*
X004560Y016825D01*
X004560Y016666D02*
X005053Y016666D01*
X005053Y016508D02*
X004560Y016508D01*
X004560Y016349D02*
X005053Y016349D01*
X005053Y016191D02*
X004560Y016191D01*
X004524Y016032D02*
X005089Y016032D01*
X005137Y015874D02*
X000809Y015874D01*
X000809Y016032D02*
X001808Y016032D01*
X001583Y016191D02*
X000809Y016191D01*
X000809Y016349D02*
X001455Y016349D01*
X001390Y016508D02*
X000809Y016508D01*
X000810Y016666D02*
X001360Y016666D01*
X001360Y016825D02*
X000810Y016825D01*
X000810Y016983D02*
X001401Y016983D01*
X001467Y017142D02*
X000810Y017142D01*
X000810Y017300D02*
X001610Y017300D01*
X002858Y016983D02*
X003400Y016983D01*
X003400Y016825D02*
X002898Y016825D01*
X002898Y016666D02*
X003400Y016666D01*
X003400Y016508D02*
X002869Y016508D01*
X002803Y016349D02*
X003400Y016349D01*
X003400Y016191D02*
X002676Y016191D01*
X002450Y016032D02*
X003436Y016032D01*
X003476Y014606D02*
X000809Y014606D01*
X000809Y014764D02*
X005137Y014764D01*
X005137Y014923D02*
X000809Y014923D01*
X000809Y015081D02*
X005137Y015081D01*
X005137Y015240D02*
X000809Y015240D01*
X000809Y015398D02*
X005137Y015398D01*
X005137Y015557D02*
X000809Y015557D01*
X000809Y015715D02*
X005137Y015715D01*
X006130Y015715D02*
X009810Y015715D01*
X009657Y015557D02*
X006130Y015557D01*
X006130Y015398D02*
X009617Y015398D01*
X009617Y015240D02*
X006130Y015240D01*
X006130Y015081D02*
X009617Y015081D01*
X009617Y014923D02*
X006130Y014923D01*
X006130Y014764D02*
X009617Y014764D01*
X009617Y014606D02*
X008290Y014606D01*
X008522Y014447D02*
X009617Y014447D01*
X009617Y014289D02*
X008606Y014289D01*
X008630Y014130D02*
X009617Y014130D01*
X009617Y013972D02*
X008630Y013972D01*
X008630Y013813D02*
X009617Y013813D01*
X009617Y013655D02*
X008630Y013655D01*
X008630Y013496D02*
X009617Y013496D01*
X009617Y013338D02*
X008630Y013338D01*
X008630Y013179D02*
X009617Y013179D01*
X009617Y013021D02*
X008630Y013021D01*
X008630Y012862D02*
X009617Y012862D01*
X009617Y012704D02*
X008630Y012704D01*
X008630Y012545D02*
X009617Y012545D01*
X009617Y012387D02*
X008630Y012387D01*
X008630Y012228D02*
X009617Y012228D01*
X009617Y012070D02*
X008630Y012070D01*
X008630Y011911D02*
X009617Y011911D01*
X009617Y011753D02*
X008630Y011753D01*
X008630Y011594D02*
X009617Y011594D01*
X009617Y011436D02*
X008630Y011436D01*
X008630Y011277D02*
X009617Y011277D01*
X009617Y011119D02*
X008630Y011119D01*
X008630Y010960D02*
X009617Y010960D01*
X009617Y010802D02*
X008630Y010802D01*
X008630Y010643D02*
X009617Y010643D01*
X009617Y010485D02*
X008630Y010485D01*
X008630Y010326D02*
X009617Y010326D01*
X009617Y010168D02*
X008630Y010168D01*
X008630Y010009D02*
X009617Y010009D01*
X009617Y009851D02*
X008630Y009851D01*
X008630Y009692D02*
X009617Y009692D01*
X009617Y009534D02*
X008630Y009534D01*
X008625Y009375D02*
X009617Y009375D01*
X009617Y009217D02*
X008602Y009217D01*
X007665Y009217D02*
X007615Y009217D01*
X007615Y009375D02*
X007642Y009375D01*
X007637Y009534D02*
X007615Y009534D01*
X007615Y009692D02*
X007637Y009692D01*
X007637Y009851D02*
X007596Y009851D01*
X007637Y010009D02*
X007360Y010009D01*
X007360Y010168D02*
X007637Y010168D01*
X007637Y010326D02*
X007360Y010326D01*
X007360Y010485D02*
X007637Y010485D01*
X007637Y010643D02*
X007360Y010643D01*
X007360Y010802D02*
X007637Y010802D01*
X007637Y010960D02*
X007360Y010960D01*
X007360Y011119D02*
X007637Y011119D01*
X007637Y011277D02*
X007360Y011277D01*
X007377Y011436D02*
X007637Y011436D01*
X007637Y011594D02*
X007535Y011594D01*
X007597Y011753D02*
X007637Y011753D01*
X007637Y011911D02*
X007597Y011911D01*
X007597Y012070D02*
X007637Y012070D01*
X007637Y012228D02*
X007597Y012228D01*
X007597Y012387D02*
X007637Y012387D01*
X007637Y012545D02*
X007587Y012545D01*
X007637Y012704D02*
X007515Y012704D01*
X007637Y012862D02*
X007301Y012862D01*
X006966Y012862D02*
X006301Y012862D01*
X006226Y012894D02*
X006396Y012823D01*
X006526Y012693D01*
X006597Y012522D01*
X006597Y011744D01*
X006526Y011574D01*
X006396Y011444D01*
X006360Y011429D01*
X006360Y009930D01*
X006517Y009930D01*
X006615Y009832D01*
X006615Y009182D01*
X006566Y009133D01*
X006615Y009084D01*
X006615Y008434D01*
X006517Y008337D01*
X006360Y008337D01*
X006360Y007654D01*
X006809Y007654D01*
X006906Y007557D01*
X006906Y006710D01*
X006809Y006612D01*
X006360Y006612D01*
X006360Y002838D01*
X006396Y002823D01*
X006526Y002693D01*
X006597Y002522D01*
X006597Y001744D01*
X006526Y001574D01*
X006396Y001444D01*
X006226Y001373D01*
X006041Y001373D01*
X005871Y001444D01*
X005740Y001574D01*
X005670Y001744D01*
X005670Y002522D01*
X005740Y002693D01*
X005871Y002823D01*
X005907Y002838D01*
X005907Y008337D01*
X005749Y008337D01*
X005652Y008434D01*
X005652Y009084D01*
X005701Y009133D01*
X005652Y009182D01*
X005652Y009832D01*
X005749Y009930D01*
X005907Y009930D01*
X005907Y011429D01*
X005871Y011444D01*
X005740Y011574D01*
X005670Y011744D01*
X005670Y012522D01*
X005740Y012693D01*
X005871Y012823D01*
X006041Y012894D01*
X006226Y012894D01*
X005966Y012862D02*
X005301Y012862D01*
X005226Y012894D02*
X005041Y012894D01*
X004871Y012823D01*
X004740Y012693D01*
X004670Y012522D01*
X004670Y011744D01*
X004740Y011574D01*
X004871Y011444D01*
X004907Y011429D01*
X004907Y009930D01*
X004749Y009930D01*
X004652Y009832D01*
X004652Y009182D01*
X004701Y009133D01*
X004652Y009084D01*
X004652Y008434D01*
X004749Y008337D01*
X004907Y008337D01*
X004907Y007654D01*
X004458Y007654D01*
X004360Y007557D01*
X004360Y006710D01*
X004458Y006612D01*
X004907Y006612D01*
X004907Y002838D01*
X004871Y002823D01*
X004740Y002693D01*
X004670Y002522D01*
X004670Y001744D01*
X004740Y001574D01*
X004871Y001444D01*
X005041Y001373D01*
X005226Y001373D01*
X005396Y001444D01*
X005526Y001574D01*
X005597Y001744D01*
X005597Y002522D01*
X005526Y002693D01*
X005396Y002823D01*
X005360Y002838D01*
X005360Y008337D01*
X005517Y008337D01*
X005615Y008434D01*
X005615Y009084D01*
X005566Y009133D01*
X005615Y009182D01*
X005615Y009832D01*
X005517Y009930D01*
X005360Y009930D01*
X005360Y011429D01*
X005396Y011444D01*
X005526Y011574D01*
X005597Y011744D01*
X005597Y012522D01*
X005526Y012693D01*
X005396Y012823D01*
X005226Y012894D01*
X004966Y012862D02*
X004301Y012862D01*
X004226Y012894D02*
X004072Y012894D01*
X004124Y013021D02*
X007637Y013021D01*
X007637Y013179D02*
X004130Y013179D01*
X004130Y013338D02*
X007637Y013338D01*
X007637Y013496D02*
X004130Y013496D01*
X004226Y012894D02*
X004396Y012823D01*
X004526Y012693D01*
X004597Y012522D01*
X004597Y011744D01*
X004526Y011574D01*
X004396Y011444D01*
X004360Y011429D01*
X004360Y009930D01*
X004517Y009930D01*
X004615Y009832D01*
X004615Y009182D01*
X004566Y009133D01*
X004615Y009084D01*
X004615Y008434D01*
X004517Y008337D01*
X004360Y008337D01*
X004360Y002838D01*
X004396Y002823D01*
X004526Y002693D01*
X004597Y002522D01*
X004597Y001744D01*
X004526Y001574D01*
X004396Y001444D01*
X004226Y001373D01*
X004041Y001373D01*
X003871Y001444D01*
X003740Y001574D01*
X003670Y001744D01*
X003670Y002522D01*
X003740Y002693D01*
X003871Y002823D01*
X003907Y002838D01*
X003907Y005407D01*
X003745Y005407D01*
X003745Y005210D01*
X003647Y005112D01*
X002958Y005112D01*
X002860Y005210D01*
X002860Y006057D01*
X002958Y006154D01*
X003647Y006154D01*
X003745Y006057D01*
X003745Y005860D01*
X003907Y005860D01*
X003907Y006708D01*
X003884Y006668D01*
X003850Y006635D01*
X003809Y006611D01*
X003763Y006599D01*
X003522Y006599D01*
X003522Y007076D01*
X003406Y007076D01*
X003406Y006599D01*
X003165Y006599D01*
X003119Y006611D01*
X003107Y006618D01*
X003096Y006580D01*
X003073Y006539D01*
X003039Y006505D01*
X002998Y006481D01*
X002952Y006469D01*
X002701Y006469D01*
X002701Y006877D01*
X002566Y006877D01*
X002566Y006469D01*
X002314Y006469D01*
X002269Y006481D01*
X002228Y006505D01*
X002194Y006539D01*
X002170Y006580D01*
X002158Y006625D01*
X002158Y006877D01*
X002566Y006877D01*
X002566Y007012D01*
X002566Y007420D01*
X002314Y007420D01*
X002269Y007407D01*
X002228Y007384D01*
X002194Y007350D01*
X002170Y007309D01*
X002158Y007263D01*
X002158Y007012D01*
X002566Y007012D01*
X002701Y007012D01*
X002701Y007420D01*
X002952Y007420D01*
X002998Y007407D01*
X003008Y007401D01*
X003008Y007511D01*
X003021Y007557D01*
X003044Y007598D01*
X003078Y007632D01*
X003008Y007473D02*
X000806Y007473D01*
X000806Y007315D02*
X001174Y007315D01*
X001170Y007309D02*
X001158Y007263D01*
X001158Y007012D01*
X001566Y007012D01*
X001566Y007420D01*
X001314Y007420D01*
X001269Y007407D01*
X001228Y007384D01*
X001194Y007350D01*
X001170Y007309D01*
X001158Y007156D02*
X000806Y007156D01*
X000806Y006998D02*
X001566Y006998D01*
X001566Y007012D02*
X001566Y006877D01*
X001701Y006877D01*
X001701Y007012D01*
X002109Y007012D01*
X002109Y007263D01*
X002096Y007309D01*
X002073Y007350D01*
X002039Y007384D01*
X001998Y007407D01*
X001952Y007420D01*
X001701Y007420D01*
X001701Y007012D01*
X001566Y007012D01*
X001566Y006877D02*
X001158Y006877D01*
X001158Y006625D01*
X001170Y006580D01*
X001194Y006539D01*
X001228Y006505D01*
X001269Y006481D01*
X001314Y006469D01*
X001566Y006469D01*
X001566Y006877D01*
X001566Y006839D02*
X001701Y006839D01*
X001701Y006877D02*
X001701Y006469D01*
X001952Y006469D01*
X001998Y006481D01*
X002039Y006505D01*
X002073Y006539D01*
X002096Y006580D01*
X002109Y006625D01*
X002109Y006877D01*
X001701Y006877D01*
X001701Y006998D02*
X002566Y006998D01*
X002566Y007156D02*
X002701Y007156D01*
X002701Y007315D02*
X002566Y007315D01*
X002174Y007315D02*
X002093Y007315D01*
X002109Y007156D02*
X002158Y007156D01*
X002158Y006839D02*
X002109Y006839D01*
X002109Y006681D02*
X002158Y006681D01*
X002210Y006522D02*
X002056Y006522D01*
X001701Y006522D02*
X001566Y006522D01*
X001566Y006681D02*
X001701Y006681D01*
X001701Y007156D02*
X001566Y007156D01*
X001566Y007315D02*
X001701Y007315D01*
X001158Y006839D02*
X000806Y006839D01*
X000806Y006681D02*
X001158Y006681D01*
X001210Y006522D02*
X000806Y006522D01*
X000806Y006364D02*
X003907Y006364D01*
X003907Y006522D02*
X003056Y006522D01*
X003406Y006681D02*
X003522Y006681D01*
X003522Y006839D02*
X003406Y006839D01*
X003406Y006998D02*
X003522Y006998D01*
X003522Y007315D02*
X003406Y007315D01*
X003406Y007473D02*
X003522Y007473D01*
X003522Y007632D02*
X003406Y007632D01*
X004360Y007632D02*
X004436Y007632D01*
X004360Y007790D02*
X004907Y007790D01*
X004907Y007949D02*
X004360Y007949D01*
X004360Y008107D02*
X004907Y008107D01*
X004907Y008266D02*
X004360Y008266D01*
X004605Y008424D02*
X004662Y008424D01*
X004652Y008583D02*
X004615Y008583D01*
X004615Y008741D02*
X004652Y008741D01*
X004652Y008900D02*
X004615Y008900D01*
X004615Y009058D02*
X004652Y009058D01*
X004652Y009217D02*
X004615Y009217D01*
X004615Y009375D02*
X004652Y009375D01*
X004652Y009534D02*
X004615Y009534D01*
X004615Y009692D02*
X004652Y009692D01*
X004670Y009851D02*
X004596Y009851D01*
X004360Y010009D02*
X004907Y010009D01*
X004907Y010168D02*
X004360Y010168D01*
X004360Y010326D02*
X004907Y010326D01*
X004907Y010485D02*
X004360Y010485D01*
X004360Y010643D02*
X004907Y010643D01*
X004907Y010802D02*
X004360Y010802D01*
X004360Y010960D02*
X004907Y010960D01*
X004907Y011119D02*
X004360Y011119D01*
X004360Y011277D02*
X004907Y011277D01*
X004889Y011436D02*
X004377Y011436D01*
X004535Y011594D02*
X004732Y011594D01*
X004670Y011753D02*
X004597Y011753D01*
X004597Y011911D02*
X004670Y011911D01*
X004670Y012070D02*
X004597Y012070D01*
X004597Y012228D02*
X004670Y012228D01*
X004670Y012387D02*
X004597Y012387D01*
X004587Y012545D02*
X004679Y012545D01*
X004752Y012704D02*
X004515Y012704D01*
X005515Y012704D02*
X005752Y012704D01*
X005679Y012545D02*
X005587Y012545D01*
X005597Y012387D02*
X005670Y012387D01*
X005670Y012228D02*
X005597Y012228D01*
X005597Y012070D02*
X005670Y012070D01*
X005670Y011911D02*
X005597Y011911D01*
X005597Y011753D02*
X005670Y011753D01*
X005732Y011594D02*
X005535Y011594D01*
X005377Y011436D02*
X005889Y011436D01*
X005907Y011277D02*
X005360Y011277D01*
X005360Y011119D02*
X005907Y011119D01*
X005907Y010960D02*
X005360Y010960D01*
X005360Y010802D02*
X005907Y010802D01*
X005907Y010643D02*
X005360Y010643D01*
X005360Y010485D02*
X005907Y010485D01*
X005907Y010326D02*
X005360Y010326D01*
X005360Y010168D02*
X005907Y010168D01*
X005907Y010009D02*
X005360Y010009D01*
X005596Y009851D02*
X005670Y009851D01*
X005652Y009692D02*
X005615Y009692D01*
X005615Y009534D02*
X005652Y009534D01*
X005652Y009375D02*
X005615Y009375D01*
X005615Y009217D02*
X005652Y009217D01*
X005652Y009058D02*
X005615Y009058D01*
X005615Y008900D02*
X005652Y008900D01*
X005652Y008741D02*
X005615Y008741D01*
X005615Y008583D02*
X005652Y008583D01*
X005662Y008424D02*
X005605Y008424D01*
X005360Y008266D02*
X005907Y008266D01*
X005907Y008107D02*
X005360Y008107D01*
X005360Y007949D02*
X005907Y007949D01*
X005907Y007790D02*
X005360Y007790D01*
X005360Y007632D02*
X005907Y007632D01*
X005907Y007473D02*
X005360Y007473D01*
X005360Y007315D02*
X005907Y007315D01*
X005907Y007156D02*
X005360Y007156D01*
X005360Y006998D02*
X005907Y006998D01*
X005907Y006839D02*
X005360Y006839D01*
X005360Y006681D02*
X005907Y006681D01*
X005907Y006522D02*
X005360Y006522D01*
X005360Y006364D02*
X005907Y006364D01*
X005907Y006205D02*
X005360Y006205D01*
X005360Y006047D02*
X005907Y006047D01*
X005907Y005888D02*
X005360Y005888D01*
X005360Y005730D02*
X005907Y005730D01*
X005907Y005571D02*
X005360Y005571D01*
X005360Y005413D02*
X005907Y005413D01*
X005907Y005254D02*
X005360Y005254D01*
X005360Y005096D02*
X005907Y005096D01*
X005907Y004937D02*
X005360Y004937D01*
X005360Y004779D02*
X005907Y004779D01*
X005907Y004620D02*
X005360Y004620D01*
X005360Y004462D02*
X005907Y004462D01*
X005907Y004303D02*
X005360Y004303D01*
X005360Y004145D02*
X005907Y004145D01*
X005907Y003986D02*
X005360Y003986D01*
X005360Y003828D02*
X005907Y003828D01*
X005907Y003669D02*
X005360Y003669D01*
X005360Y003511D02*
X005907Y003511D01*
X005907Y003352D02*
X005360Y003352D01*
X005360Y003194D02*
X005907Y003194D01*
X005907Y003035D02*
X005360Y003035D01*
X005360Y002877D02*
X005907Y002877D01*
X005766Y002718D02*
X005501Y002718D01*
X005581Y002560D02*
X005685Y002560D01*
X005670Y002401D02*
X005597Y002401D01*
X005597Y002243D02*
X005670Y002243D01*
X005670Y002084D02*
X005597Y002084D01*
X005597Y001926D02*
X005670Y001926D01*
X005670Y001767D02*
X005597Y001767D01*
X005541Y001609D02*
X005726Y001609D01*
X005864Y001450D02*
X005403Y001450D01*
X004864Y001450D02*
X004403Y001450D01*
X004541Y001609D02*
X004726Y001609D01*
X004670Y001767D02*
X004597Y001767D01*
X004597Y001926D02*
X004670Y001926D01*
X004670Y002084D02*
X004597Y002084D01*
X004597Y002243D02*
X004670Y002243D01*
X004670Y002401D02*
X004597Y002401D01*
X004581Y002560D02*
X004685Y002560D01*
X004766Y002718D02*
X004501Y002718D01*
X004360Y002877D02*
X004907Y002877D01*
X004907Y003035D02*
X004360Y003035D01*
X004360Y003194D02*
X004907Y003194D01*
X004907Y003352D02*
X004360Y003352D01*
X004360Y003511D02*
X004907Y003511D01*
X004907Y003669D02*
X004360Y003669D01*
X004360Y003828D02*
X004907Y003828D01*
X004907Y003986D02*
X004360Y003986D01*
X004360Y004145D02*
X004907Y004145D01*
X004907Y004303D02*
X004360Y004303D01*
X004360Y004462D02*
X004907Y004462D01*
X004907Y004620D02*
X004360Y004620D01*
X004360Y004779D02*
X004907Y004779D01*
X004907Y004937D02*
X004360Y004937D01*
X004360Y005096D02*
X004907Y005096D01*
X004907Y005254D02*
X004360Y005254D01*
X004360Y005413D02*
X004907Y005413D01*
X004907Y005571D02*
X004360Y005571D01*
X004360Y005730D02*
X004907Y005730D01*
X004907Y005888D02*
X004360Y005888D01*
X004360Y006047D02*
X004907Y006047D01*
X004907Y006205D02*
X004360Y006205D01*
X004360Y006364D02*
X004907Y006364D01*
X004907Y006522D02*
X004360Y006522D01*
X004360Y006681D02*
X004390Y006681D01*
X004360Y006839D02*
X004360Y006839D01*
X004360Y006998D02*
X004360Y006998D01*
X004360Y007156D02*
X004360Y007156D01*
X004360Y007315D02*
X004360Y007315D01*
X004360Y007473D02*
X004360Y007473D01*
X003907Y006681D02*
X003891Y006681D01*
X003907Y006205D02*
X000806Y006205D01*
X000806Y006047D02*
X001518Y006047D01*
X001521Y006057D02*
X001508Y006011D01*
X001508Y005691D01*
X001906Y005691D01*
X001906Y005576D01*
X001508Y005576D01*
X001508Y005255D01*
X001521Y005210D01*
X001544Y005168D01*
X001578Y005135D01*
X001619Y005111D01*
X001665Y005099D01*
X001906Y005099D01*
X001906Y005576D01*
X002022Y005576D01*
X002022Y005691D01*
X002420Y005691D01*
X002420Y006011D01*
X002407Y006057D01*
X002384Y006098D01*
X002350Y006132D01*
X002309Y006155D01*
X002263Y006168D01*
X002022Y006168D01*
X002022Y005691D01*
X001906Y005691D01*
X001906Y006168D01*
X001665Y006168D01*
X001619Y006155D01*
X001578Y006132D01*
X001544Y006098D01*
X001521Y006057D01*
X001508Y005888D02*
X000806Y005888D01*
X000806Y005730D02*
X001508Y005730D01*
X001508Y005571D02*
X000805Y005571D01*
X000805Y005413D02*
X001508Y005413D01*
X001509Y005254D02*
X000805Y005254D01*
X000805Y005096D02*
X003907Y005096D01*
X003907Y005254D02*
X003745Y005254D01*
X003907Y004937D02*
X000805Y004937D01*
X000805Y004779D02*
X003907Y004779D01*
X003907Y004620D02*
X000805Y004620D01*
X000805Y004462D02*
X003907Y004462D01*
X003907Y004303D02*
X000805Y004303D01*
X000805Y004145D02*
X003907Y004145D01*
X003907Y003986D02*
X000805Y003986D01*
X000805Y003828D02*
X003907Y003828D01*
X003907Y003669D02*
X000805Y003669D01*
X000805Y003511D02*
X001545Y003511D01*
X001526Y003497D02*
X001473Y003444D01*
X001429Y003383D01*
X001395Y003316D01*
X001371Y003245D01*
X001360Y003171D01*
X001360Y003152D01*
X002115Y003152D01*
X002115Y003610D01*
X001799Y003610D01*
X001725Y003598D01*
X001653Y003575D01*
X001587Y003541D01*
X001526Y003497D01*
X001413Y003352D02*
X000805Y003352D01*
X000805Y003194D02*
X001363Y003194D01*
X001360Y003115D02*
X001360Y003096D01*
X001371Y003022D01*
X001395Y002950D01*
X001429Y002883D01*
X001473Y002823D01*
X001526Y002770D01*
X001587Y002725D01*
X001653Y002691D01*
X001725Y002668D01*
X001799Y002656D01*
X002115Y002656D01*
X002115Y003115D01*
X002152Y003115D01*
X002152Y003152D01*
X002115Y003152D01*
X002115Y003115D01*
X001360Y003115D01*
X001369Y003035D02*
X000805Y003035D01*
X000805Y002877D02*
X001433Y002877D01*
X001601Y002718D02*
X000804Y002718D01*
X000804Y002560D02*
X001623Y002560D01*
X001653Y002575D02*
X001587Y002541D01*
X001526Y002497D01*
X001473Y002444D01*
X001429Y002383D01*
X001395Y002316D01*
X001371Y002245D01*
X001360Y002171D01*
X001360Y002152D01*
X002115Y002152D01*
X002115Y002610D01*
X001799Y002610D01*
X001725Y002598D01*
X001653Y002575D01*
X001442Y002401D02*
X000804Y002401D01*
X000804Y002243D02*
X001371Y002243D01*
X001360Y002115D02*
X001360Y002096D01*
X001371Y002022D01*
X001395Y001950D01*
X001429Y001883D01*
X001473Y001823D01*
X001526Y001770D01*
X001587Y001725D01*
X001653Y001691D01*
X001725Y001668D01*
X001799Y001656D01*
X002115Y001656D01*
X002115Y002115D01*
X002152Y002115D01*
X002152Y002152D01*
X002115Y002152D01*
X002115Y002115D01*
X001360Y002115D01*
X001361Y002084D02*
X000804Y002084D01*
X000804Y001926D02*
X001407Y001926D01*
X001529Y001767D02*
X000804Y001767D01*
X000804Y001609D02*
X003726Y001609D01*
X003670Y001767D02*
X002738Y001767D01*
X002741Y001770D02*
X002794Y001823D01*
X002838Y001883D01*
X002872Y001950D01*
X002895Y002022D01*
X002907Y002096D01*
X002907Y002115D01*
X002152Y002115D01*
X002152Y001656D01*
X002468Y001656D01*
X002542Y001668D01*
X002613Y001691D01*
X002680Y001725D01*
X002741Y001770D01*
X002860Y001926D02*
X003670Y001926D01*
X003670Y002084D02*
X002905Y002084D01*
X002907Y002152D02*
X002907Y002171D01*
X002895Y002245D01*
X002872Y002316D01*
X002838Y002383D01*
X002794Y002444D01*
X002741Y002497D01*
X002680Y002541D01*
X002613Y002575D01*
X002542Y002598D01*
X002468Y002610D01*
X002152Y002610D01*
X002152Y002152D01*
X002907Y002152D01*
X002896Y002243D02*
X003670Y002243D01*
X003670Y002401D02*
X002825Y002401D01*
X002643Y002560D02*
X003685Y002560D01*
X003766Y002718D02*
X002666Y002718D01*
X002680Y002725D02*
X002741Y002770D01*
X002794Y002823D01*
X002838Y002883D01*
X002872Y002950D01*
X002895Y003022D01*
X002907Y003096D01*
X002907Y003115D01*
X002152Y003115D01*
X002152Y002656D01*
X002468Y002656D01*
X002542Y002668D01*
X002613Y002691D01*
X002680Y002725D01*
X002833Y002877D02*
X003907Y002877D01*
X003907Y003035D02*
X002897Y003035D01*
X002907Y003152D02*
X002907Y003171D01*
X002895Y003245D01*
X002872Y003316D01*
X002838Y003383D01*
X002794Y003444D01*
X002741Y003497D01*
X002680Y003541D01*
X002613Y003575D01*
X002542Y003598D01*
X002468Y003610D01*
X002152Y003610D01*
X002152Y003152D01*
X002907Y003152D01*
X002903Y003194D02*
X003907Y003194D01*
X003907Y003352D02*
X002854Y003352D01*
X002722Y003511D02*
X003907Y003511D01*
X002350Y005135D02*
X002309Y005111D01*
X002263Y005099D01*
X002022Y005099D01*
X002022Y005576D01*
X002420Y005576D01*
X002420Y005255D01*
X002407Y005210D01*
X002384Y005168D01*
X002350Y005135D01*
X002419Y005254D02*
X002860Y005254D01*
X002860Y005413D02*
X002420Y005413D01*
X002420Y005571D02*
X002860Y005571D01*
X002860Y005730D02*
X002420Y005730D01*
X002420Y005888D02*
X002860Y005888D01*
X002860Y006047D02*
X002410Y006047D01*
X002022Y006047D02*
X001906Y006047D01*
X001906Y005888D02*
X002022Y005888D01*
X002022Y005730D02*
X001906Y005730D01*
X001906Y005571D02*
X002022Y005571D01*
X002022Y005413D02*
X001906Y005413D01*
X001906Y005254D02*
X002022Y005254D01*
X002566Y006522D02*
X002701Y006522D01*
X002701Y006681D02*
X002566Y006681D01*
X002566Y006839D02*
X002701Y006839D01*
X003745Y006047D02*
X003907Y006047D01*
X003907Y005888D02*
X003745Y005888D01*
X002181Y007949D02*
X002086Y007949D01*
X002095Y008107D02*
X002171Y008107D01*
X002171Y008266D02*
X002095Y008266D01*
X002095Y008424D02*
X002171Y008424D01*
X002171Y008583D02*
X002095Y008583D01*
X002040Y008741D02*
X002226Y008741D01*
X002186Y008900D02*
X002080Y008900D01*
X002115Y009058D02*
X002152Y009058D01*
X002152Y009217D02*
X002115Y009217D01*
X002115Y009375D02*
X002152Y009375D01*
X002152Y009534D02*
X002115Y009534D01*
X002115Y009692D02*
X002152Y009692D01*
X002152Y009851D02*
X002115Y009851D01*
X002115Y010009D02*
X002152Y010009D01*
X002152Y010168D02*
X002115Y010168D01*
X002115Y010326D02*
X002152Y010326D01*
X002633Y010007D02*
X003133Y010007D01*
X003133Y013133D01*
X003137Y013655D02*
X001380Y013655D01*
X001380Y013813D02*
X001501Y013813D01*
X001544Y013496D02*
X001380Y013496D01*
X001380Y013338D02*
X001420Y013338D01*
X001380Y013024D02*
X001444Y012871D01*
X001574Y012740D01*
X001744Y012670D01*
X001955Y012670D01*
X002035Y012637D01*
X002887Y012637D01*
X002887Y012271D01*
X002872Y012316D01*
X002838Y012383D01*
X002794Y012444D01*
X002741Y012497D01*
X002680Y012541D01*
X002613Y012575D01*
X002542Y012598D01*
X002468Y012610D01*
X002152Y012610D01*
X002152Y012152D01*
X002115Y012152D01*
X002115Y012610D01*
X001799Y012610D01*
X001725Y012598D01*
X001653Y012575D01*
X001587Y012541D01*
X001526Y012497D01*
X001473Y012444D01*
X001429Y012383D01*
X001395Y012316D01*
X001380Y012271D01*
X001380Y013024D01*
X001380Y013021D02*
X001381Y013021D01*
X001380Y012862D02*
X001452Y012862D01*
X001380Y012704D02*
X001662Y012704D01*
X001595Y012545D02*
X001380Y012545D01*
X001380Y012387D02*
X001431Y012387D01*
X001414Y011911D02*
X001380Y011911D01*
X001380Y011753D02*
X001549Y011753D01*
X001380Y011594D02*
X002887Y011594D01*
X002887Y011436D02*
X001380Y011436D01*
X001380Y011277D02*
X002887Y011277D01*
X002887Y011119D02*
X001380Y011119D01*
X001380Y010960D02*
X002887Y010960D01*
X002887Y010802D02*
X001380Y010802D01*
X001380Y010643D02*
X002887Y010643D01*
X002887Y010485D02*
X001380Y010485D01*
X000887Y010485D02*
X000807Y010485D01*
X000807Y010643D02*
X000887Y010643D01*
X000887Y010802D02*
X000807Y010802D01*
X000807Y010960D02*
X000887Y010960D01*
X000887Y011119D02*
X000808Y011119D01*
X000808Y011277D02*
X000887Y011277D01*
X000887Y011436D02*
X000808Y011436D01*
X000808Y011594D02*
X000887Y011594D01*
X000887Y011753D02*
X000808Y011753D01*
X000808Y011911D02*
X000887Y011911D01*
X000887Y012070D02*
X000808Y012070D01*
X000808Y012228D02*
X000887Y012228D01*
X000887Y012387D02*
X000808Y012387D01*
X000808Y012545D02*
X000887Y012545D01*
X000887Y012704D02*
X000808Y012704D01*
X000808Y012862D02*
X000887Y012862D01*
X000887Y013021D02*
X000808Y013021D01*
X000808Y013179D02*
X000887Y013179D01*
X000887Y013338D02*
X000808Y013338D01*
X000808Y013496D02*
X000887Y013496D01*
X000887Y013655D02*
X000808Y013655D01*
X000808Y013813D02*
X000887Y013813D01*
X000887Y013972D02*
X000809Y013972D01*
X000809Y014130D02*
X000887Y014130D01*
X000940Y014289D02*
X000809Y014289D01*
X000809Y014447D02*
X001495Y014447D01*
X001133Y014133D02*
X002133Y014133D01*
X002766Y013813D02*
X003137Y013813D01*
X003137Y013972D02*
X002865Y013972D01*
X002894Y014130D02*
X003137Y014130D01*
X003160Y014289D02*
X002867Y014289D01*
X002772Y014447D02*
X003245Y014447D01*
X001133Y014133D02*
X001133Y010007D01*
X001633Y010007D01*
X001152Y009692D02*
X000807Y009692D01*
X000807Y009534D02*
X001152Y009534D01*
X001152Y009375D02*
X000807Y009375D01*
X000807Y009217D02*
X001152Y009217D01*
X001152Y009058D02*
X000807Y009058D01*
X000807Y008900D02*
X001186Y008900D01*
X001226Y008741D02*
X000807Y008741D01*
X000807Y008583D02*
X001171Y008583D01*
X001171Y008424D02*
X000807Y008424D01*
X000806Y008266D02*
X001171Y008266D01*
X001171Y008107D02*
X000806Y008107D01*
X000806Y007949D02*
X001181Y007949D01*
X001633Y008322D02*
X001633Y009259D01*
X000941Y009851D02*
X000807Y009851D01*
X000807Y010009D02*
X000887Y010009D01*
X000887Y010168D02*
X000807Y010168D01*
X000807Y010326D02*
X000887Y010326D01*
X002115Y011753D02*
X002152Y011753D01*
X002152Y011911D02*
X002115Y011911D01*
X002115Y012070D02*
X002152Y012070D01*
X002152Y012228D02*
X002115Y012228D01*
X002115Y012387D02*
X002152Y012387D01*
X002152Y012545D02*
X002115Y012545D01*
X002672Y012545D02*
X002887Y012545D01*
X002887Y012387D02*
X002835Y012387D01*
X002852Y011911D02*
X002887Y011911D01*
X002887Y011753D02*
X002718Y011753D01*
X002633Y009259D02*
X002633Y008322D01*
X006360Y008266D02*
X006907Y008266D01*
X006907Y008107D02*
X006360Y008107D01*
X006360Y007949D02*
X006907Y007949D01*
X006907Y007790D02*
X006360Y007790D01*
X006831Y007632D02*
X006907Y007632D01*
X006906Y007473D02*
X006907Y007473D01*
X006906Y007315D02*
X006907Y007315D01*
X006906Y007156D02*
X006907Y007156D01*
X006906Y006998D02*
X006907Y006998D01*
X006906Y006839D02*
X006907Y006839D01*
X006907Y006681D02*
X006877Y006681D01*
X006907Y006522D02*
X006360Y006522D01*
X006360Y006364D02*
X006907Y006364D01*
X006907Y006205D02*
X006360Y006205D01*
X006360Y006047D02*
X006907Y006047D01*
X006907Y005888D02*
X006360Y005888D01*
X006360Y005730D02*
X006907Y005730D01*
X006907Y005571D02*
X006360Y005571D01*
X006360Y005413D02*
X006907Y005413D01*
X006907Y005254D02*
X006360Y005254D01*
X006360Y005096D02*
X006907Y005096D01*
X006907Y004937D02*
X006360Y004937D01*
X006360Y004779D02*
X006907Y004779D01*
X006907Y004620D02*
X006360Y004620D01*
X006360Y004462D02*
X006907Y004462D01*
X006907Y004303D02*
X006360Y004303D01*
X006360Y004145D02*
X006907Y004145D01*
X006907Y003986D02*
X006360Y003986D01*
X006360Y003828D02*
X006907Y003828D01*
X006907Y003669D02*
X006360Y003669D01*
X006360Y003511D02*
X006907Y003511D01*
X006907Y003352D02*
X006360Y003352D01*
X006360Y003194D02*
X006907Y003194D01*
X006907Y003035D02*
X006360Y003035D01*
X006360Y002877D02*
X006907Y002877D01*
X006766Y002718D02*
X006501Y002718D01*
X006581Y002560D02*
X006685Y002560D01*
X006670Y002401D02*
X006597Y002401D01*
X006597Y002243D02*
X006670Y002243D01*
X006670Y002084D02*
X006597Y002084D01*
X006597Y001926D02*
X006670Y001926D01*
X006670Y001767D02*
X006597Y001767D01*
X006541Y001609D02*
X006726Y001609D01*
X006864Y001450D02*
X006403Y001450D01*
X007360Y003035D02*
X009813Y003035D01*
X009815Y004462D02*
X007360Y004462D01*
X007360Y004620D02*
X009815Y004620D01*
X009815Y004779D02*
X007360Y004779D01*
X007360Y004937D02*
X009815Y004937D01*
X009815Y005096D02*
X007360Y005096D01*
X007360Y005254D02*
X007522Y005254D01*
X007522Y005888D02*
X007360Y005888D01*
X007360Y006047D02*
X007522Y006047D01*
X007360Y006205D02*
X009736Y006205D01*
X009689Y006132D02*
X009648Y006155D01*
X009602Y006168D01*
X009360Y006168D01*
X009360Y005691D01*
X009245Y005691D01*
X009245Y006168D01*
X009003Y006168D01*
X008958Y006155D01*
X008917Y006132D01*
X008883Y006098D01*
X008859Y006057D01*
X008847Y006011D01*
X008847Y005691D01*
X009245Y005691D01*
X009245Y005576D01*
X008847Y005576D01*
X008847Y005255D01*
X008859Y005210D01*
X008883Y005168D01*
X008917Y005135D01*
X008958Y005111D01*
X009003Y005099D01*
X009245Y005099D01*
X009245Y005576D01*
X009360Y005576D01*
X009360Y005099D01*
X009602Y005099D01*
X009648Y005111D01*
X009689Y005135D01*
X009722Y005168D01*
X009746Y005210D01*
X009758Y005255D01*
X009758Y005576D01*
X009360Y005576D01*
X009360Y005691D01*
X009758Y005691D01*
X009758Y006011D01*
X009746Y006057D01*
X009722Y006098D01*
X009689Y006132D01*
X009749Y006047D02*
X009990Y006047D01*
X009990Y005888D02*
X009758Y005888D01*
X009758Y005730D02*
X009990Y005730D01*
X009990Y005571D02*
X009758Y005571D01*
X009758Y005413D02*
X009990Y005413D01*
X009990Y005254D02*
X009758Y005254D01*
X009360Y005254D02*
X009245Y005254D01*
X009245Y005413D02*
X009360Y005413D01*
X009360Y005571D02*
X009245Y005571D01*
X009245Y005730D02*
X009360Y005730D01*
X009360Y005888D02*
X009245Y005888D01*
X009245Y006047D02*
X009360Y006047D01*
X009736Y006364D02*
X007360Y006364D01*
X007360Y006522D02*
X009736Y006522D01*
X009736Y006681D02*
X008229Y006681D01*
X008258Y006839D02*
X009761Y006839D01*
X009736Y006998D02*
X008258Y006998D01*
X008258Y007191D02*
X008258Y007511D01*
X008246Y007557D01*
X008222Y007598D01*
X008189Y007632D01*
X008148Y007655D01*
X008102Y007668D01*
X007860Y007668D01*
X007860Y007191D01*
X008258Y007191D01*
X008258Y007315D02*
X009736Y007315D01*
X009736Y007473D02*
X008258Y007473D01*
X008188Y007632D02*
X009805Y007632D01*
X009930Y007790D02*
X007360Y007790D01*
X007360Y007949D02*
X009930Y007949D01*
X009930Y008107D02*
X007360Y008107D01*
X007360Y008266D02*
X009930Y008266D01*
X009930Y008424D02*
X007605Y008424D01*
X007615Y008583D02*
X009873Y008583D01*
X009714Y008741D02*
X007615Y008741D01*
X007615Y008900D02*
X009617Y008900D01*
X009617Y009058D02*
X007615Y009058D01*
X006652Y009058D02*
X006615Y009058D01*
X006615Y008900D02*
X006652Y008900D01*
X006652Y008741D02*
X006615Y008741D01*
X006615Y008583D02*
X006652Y008583D01*
X006662Y008424D02*
X006605Y008424D01*
X006615Y009217D02*
X006652Y009217D01*
X006652Y009375D02*
X006615Y009375D01*
X006615Y009534D02*
X006652Y009534D01*
X006652Y009692D02*
X006615Y009692D01*
X006596Y009851D02*
X006670Y009851D01*
X006907Y010009D02*
X006360Y010009D01*
X006360Y010168D02*
X006907Y010168D01*
X006907Y010326D02*
X006360Y010326D01*
X006360Y010485D02*
X006907Y010485D01*
X006907Y010643D02*
X006360Y010643D01*
X006360Y010802D02*
X006907Y010802D01*
X006907Y010960D02*
X006360Y010960D01*
X006360Y011119D02*
X006907Y011119D01*
X006907Y011277D02*
X006360Y011277D01*
X006377Y011436D02*
X006889Y011436D01*
X006732Y011594D02*
X006535Y011594D01*
X006597Y011753D02*
X006670Y011753D01*
X006670Y011911D02*
X006597Y011911D01*
X006597Y012070D02*
X006670Y012070D01*
X006670Y012228D02*
X006597Y012228D01*
X006597Y012387D02*
X006670Y012387D01*
X006679Y012545D02*
X006587Y012545D01*
X006515Y012704D02*
X006752Y012704D01*
X010190Y009692D02*
X010437Y009692D01*
X010372Y009534D02*
X010190Y009534D01*
X010190Y009375D02*
X010339Y009375D01*
X010319Y009217D02*
X010190Y009217D01*
X010208Y009058D02*
X010319Y009058D01*
X011152Y009058D02*
X012034Y009058D01*
X012034Y008900D02*
X011152Y008900D01*
X011152Y008741D02*
X012034Y008741D01*
X012034Y008583D02*
X011152Y008583D01*
X011152Y008424D02*
X011946Y008424D01*
X011905Y008266D02*
X011216Y008266D01*
X011592Y008107D02*
X011675Y008107D01*
X012034Y009217D02*
X011152Y009217D01*
X011132Y009375D02*
X012048Y009375D01*
X012119Y009534D02*
X011099Y009534D01*
X011034Y009692D02*
X012232Y009692D01*
X013291Y010485D02*
X013617Y010485D01*
X013617Y010643D02*
X013350Y010643D01*
X013350Y010802D02*
X013617Y010802D01*
X013617Y010960D02*
X013350Y010960D01*
X013350Y011119D02*
X013617Y011119D01*
X013617Y011277D02*
X013350Y011277D01*
X013350Y011436D02*
X013617Y011436D01*
X013617Y011594D02*
X013350Y011594D01*
X013350Y011753D02*
X013617Y011753D01*
X013617Y011911D02*
X013350Y011911D01*
X013350Y012070D02*
X013617Y012070D01*
X013617Y012228D02*
X013350Y012228D01*
X013350Y012387D02*
X013617Y012387D01*
X013617Y012545D02*
X013350Y012545D01*
X013350Y012704D02*
X013617Y012704D01*
X013617Y012862D02*
X013350Y012862D01*
X013350Y013021D02*
X013617Y013021D01*
X013617Y013179D02*
X013350Y013179D01*
X013350Y013338D02*
X013617Y013338D01*
X013617Y013496D02*
X013350Y013496D01*
X013350Y013655D02*
X013617Y013655D01*
X013617Y013813D02*
X013350Y013813D01*
X013350Y013972D02*
X013617Y013972D01*
X013617Y014130D02*
X013350Y014130D01*
X013284Y014289D02*
X013617Y014289D01*
X013617Y014447D02*
X013050Y014447D01*
X013050Y014606D02*
X013617Y014606D01*
X013617Y014764D02*
X013272Y014764D01*
X013272Y014923D02*
X013617Y014923D01*
X013617Y015081D02*
X013272Y015081D01*
X013272Y015240D02*
X013617Y015240D01*
X013617Y015398D02*
X013272Y015398D01*
X013272Y015557D02*
X013657Y015557D01*
X013810Y015715D02*
X013272Y015715D01*
X013207Y015874D02*
X013969Y015874D01*
X019152Y008424D02*
X019946Y008424D01*
X019905Y008266D02*
X019216Y008266D01*
X019592Y008107D02*
X019675Y008107D01*
X016555Y005096D02*
X016459Y005096D01*
X016459Y004937D02*
X016555Y004937D01*
X016555Y004779D02*
X016459Y004779D01*
X016147Y005096D02*
X016103Y005096D01*
X016126Y003194D02*
X016140Y003194D01*
X017501Y002718D02*
X017766Y002718D01*
X017685Y002560D02*
X017581Y002560D01*
X017597Y002401D02*
X017670Y002401D01*
X017670Y002243D02*
X017597Y002243D01*
X017597Y002084D02*
X017670Y002084D01*
X017670Y001926D02*
X017597Y001926D01*
X017597Y001767D02*
X017670Y001767D01*
X017726Y001609D02*
X017541Y001609D01*
X017403Y001450D02*
X017864Y001450D01*
X018403Y001450D02*
X018864Y001450D01*
X018726Y001609D02*
X018541Y001609D01*
X018597Y001767D02*
X018670Y001767D01*
X018670Y001926D02*
X018597Y001926D01*
X018597Y002084D02*
X018670Y002084D01*
X018670Y002243D02*
X018597Y002243D01*
X020874Y003194D02*
X021801Y003194D01*
X013990Y005254D02*
X013615Y005254D01*
X013615Y005413D02*
X013990Y005413D01*
X013990Y005571D02*
X013615Y005571D01*
X013615Y005730D02*
X013990Y005730D01*
X013990Y005888D02*
X013615Y005888D01*
X013615Y006047D02*
X013990Y006047D01*
X013736Y006205D02*
X013615Y006205D01*
X013615Y006364D02*
X013736Y006364D01*
X013736Y006522D02*
X013615Y006522D01*
X013615Y006681D02*
X013736Y006681D01*
X013761Y006839D02*
X013615Y006839D01*
X013615Y006998D02*
X013736Y006998D01*
X013736Y007156D02*
X013550Y007156D01*
X013550Y007315D02*
X013736Y007315D01*
X013736Y007473D02*
X013547Y007473D01*
X013498Y007632D02*
X013805Y007632D01*
X013815Y005096D02*
X013550Y005096D01*
X013503Y004937D02*
X013815Y004937D01*
X013815Y004779D02*
X013411Y004779D01*
X012140Y003194D02*
X012126Y003194D01*
X010899Y004462D02*
X010738Y004462D01*
X010738Y004620D02*
X010741Y004620D01*
X011254Y004937D02*
X011337Y004937D01*
X011415Y005096D02*
X011254Y005096D01*
X008847Y005254D02*
X008406Y005254D01*
X008406Y005413D02*
X008847Y005413D01*
X008847Y005571D02*
X008406Y005571D01*
X008406Y005730D02*
X008847Y005730D01*
X008847Y005888D02*
X008406Y005888D01*
X008406Y006047D02*
X008857Y006047D01*
X007860Y006681D02*
X007745Y006681D01*
X007745Y006839D02*
X007860Y006839D01*
X007860Y006998D02*
X007745Y006998D01*
X007860Y007156D02*
X009736Y007156D01*
X007860Y007315D02*
X007745Y007315D01*
X007745Y007473D02*
X007860Y007473D01*
X007860Y007632D02*
X007745Y007632D01*
X007417Y007632D02*
X007383Y007598D01*
X007360Y006681D02*
X007376Y006681D01*
X002152Y003511D02*
X002115Y003511D01*
X002115Y003352D02*
X002152Y003352D01*
X002152Y003194D02*
X002115Y003194D01*
X002115Y003035D02*
X002152Y003035D01*
X002152Y002877D02*
X002115Y002877D01*
X002115Y002718D02*
X002152Y002718D01*
X002152Y002560D02*
X002115Y002560D01*
X002115Y002401D02*
X002152Y002401D01*
X002152Y002243D02*
X002115Y002243D01*
X002115Y002084D02*
X002152Y002084D01*
X002152Y001926D02*
X002115Y001926D01*
X002115Y001767D02*
X002152Y001767D01*
X000804Y001450D02*
X003864Y001450D01*
X024576Y017776D02*
X024691Y017776D01*
X024691Y017934D02*
X024576Y017934D01*
X024576Y018093D02*
X024691Y018093D01*
X024691Y018251D02*
X024576Y018251D01*
X024576Y018410D02*
X024691Y018410D01*
X024691Y018568D02*
X024576Y018568D01*
X024576Y018727D02*
X024691Y018727D01*
X024691Y018885D02*
X024576Y018885D01*
X024576Y019044D02*
X024691Y019044D01*
X024691Y019202D02*
X024576Y019202D01*
X024576Y019361D02*
X024691Y019361D01*
X024691Y019519D02*
X024576Y019519D01*
X024990Y019519D02*
X026045Y019519D01*
X026045Y019361D02*
X025137Y019361D01*
X025205Y019202D02*
X026045Y019202D01*
X026045Y019044D02*
X025226Y019044D01*
X025226Y018885D02*
X026045Y018885D01*
X026045Y018727D02*
X025226Y018727D01*
X025226Y018568D02*
X026045Y018568D01*
X026045Y018410D02*
X025226Y018410D01*
X025226Y018251D02*
X026045Y018251D01*
X026045Y018093D02*
X025213Y018093D01*
X025152Y017934D02*
X026045Y017934D01*
X026045Y017776D02*
X025026Y017776D01*
X025214Y017617D02*
X026045Y017617D01*
X026045Y017459D02*
X025286Y017459D01*
X025286Y017300D02*
X026045Y017300D01*
X026045Y017142D02*
X025286Y017142D01*
X026045Y019678D02*
X000811Y019678D01*
X000811Y019836D02*
X026045Y019836D01*
X026045Y019995D02*
X000811Y019995D01*
X000811Y020153D02*
X026045Y020153D01*
X026045Y022214D02*
X000812Y022214D01*
X000812Y022372D02*
X026045Y022372D01*
X026045Y022531D02*
X000812Y022531D01*
X000811Y021738D02*
X002786Y021738D01*
X002694Y021580D02*
X000811Y021580D01*
X000811Y021421D02*
X002670Y021421D01*
X002670Y021263D02*
X000811Y021263D01*
X000811Y021104D02*
X002670Y021104D01*
X002670Y020946D02*
X000811Y020946D01*
X000811Y020787D02*
X002670Y020787D01*
X002718Y020629D02*
X000811Y020629D01*
D28*
X009903Y015403D02*
X010519Y016019D01*
X011133Y016019D01*
X009903Y015403D02*
X009903Y008958D01*
X010217Y008644D01*
X010217Y007237D01*
X010217Y006489D02*
X010277Y006430D01*
X010277Y004775D01*
X010967Y004800D02*
X011133Y004633D01*
X011759Y004633D01*
X011759Y003633D01*
X010967Y004800D02*
X010967Y005710D01*
X011341Y006577D02*
X011341Y007552D01*
X011259Y007633D01*
X013903Y008958D02*
X013903Y015403D01*
X014519Y016019D01*
X015133Y016019D01*
X017903Y015403D02*
X018519Y016019D01*
X019133Y016019D01*
X017903Y015403D02*
X017903Y008958D01*
X018217Y008644D01*
X018217Y007237D01*
X018217Y006489D02*
X018277Y006430D01*
X018277Y004775D01*
X018967Y004800D02*
X019133Y004633D01*
X019759Y004633D01*
X019759Y003633D01*
X018967Y004800D02*
X018967Y005710D01*
X019341Y006577D02*
X019341Y007552D01*
X019259Y007633D01*
X021903Y008958D02*
X021903Y015403D01*
X022519Y016019D01*
X023133Y016019D01*
X021903Y008958D02*
X022217Y008644D01*
X022217Y007237D01*
X022217Y006489D02*
X022277Y006430D01*
X022277Y004775D01*
X022967Y004800D02*
X023133Y004633D01*
X023259Y004633D01*
X023259Y003633D01*
X022967Y004800D02*
X022967Y005710D01*
X023341Y006577D02*
X023341Y007552D01*
X023259Y007633D01*
X015759Y004633D02*
X015759Y003633D01*
X015759Y004633D02*
X015133Y004633D01*
X014967Y004800D01*
X014967Y005710D01*
X014277Y006430D02*
X014217Y006489D01*
X014277Y006430D02*
X014277Y004775D01*
X015341Y006577D02*
X015341Y007552D01*
X015259Y007633D01*
X014217Y007237D02*
X014217Y008644D01*
X013903Y008958D01*
D29*
X015133Y011133D03*
X016133Y011133D03*
X016133Y012133D03*
X015133Y012133D03*
X015133Y013133D03*
X016133Y013133D03*
X019133Y013133D03*
X020133Y013133D03*
X020133Y012133D03*
X019133Y012133D03*
X019133Y011133D03*
X020133Y011133D03*
X023133Y011133D03*
X024133Y011133D03*
X024133Y012133D03*
X023133Y012133D03*
X023133Y013133D03*
X024133Y013133D03*
X012133Y013133D03*
X012133Y012133D03*
X011133Y012133D03*
X011133Y013133D03*
X011133Y011133D03*
X012133Y011133D03*
D30*
X013133Y011180D02*
X010160Y011180D01*
X010160Y011082D02*
X013133Y011082D01*
X013133Y010983D02*
X010160Y010983D01*
X010160Y010885D02*
X013133Y010885D01*
X013133Y010786D02*
X010160Y010786D01*
X010160Y010688D02*
X013133Y010688D01*
X013133Y010633D02*
X010160Y010633D01*
X010160Y014133D01*
X013133Y014133D01*
X013133Y010633D01*
X013133Y011279D02*
X010160Y011279D01*
X010160Y011377D02*
X013133Y011377D01*
X013133Y011476D02*
X010160Y011476D01*
X010160Y011574D02*
X013133Y011574D01*
X013133Y011673D02*
X010160Y011673D01*
X010160Y011771D02*
X013133Y011771D01*
X013133Y011870D02*
X010160Y011870D01*
X010160Y011968D02*
X013133Y011968D01*
X013133Y012067D02*
X010160Y012067D01*
X010160Y012165D02*
X013133Y012165D01*
X013133Y012264D02*
X010160Y012264D01*
X010160Y012362D02*
X013133Y012362D01*
X013133Y012461D02*
X010160Y012461D01*
X010160Y012559D02*
X013133Y012559D01*
X013133Y012658D02*
X010160Y012658D01*
X010160Y012756D02*
X013133Y012756D01*
X013133Y012855D02*
X010160Y012855D01*
X010160Y012953D02*
X013133Y012953D01*
X013133Y013052D02*
X010160Y013052D01*
X010160Y013150D02*
X013133Y013150D01*
X013133Y013249D02*
X010160Y013249D01*
X010160Y013347D02*
X013133Y013347D01*
X013133Y013446D02*
X010160Y013446D01*
X010160Y013544D02*
X013133Y013544D01*
X013133Y013643D02*
X010160Y013643D01*
X010160Y013741D02*
X013133Y013741D01*
X013133Y013840D02*
X010160Y013840D01*
X010160Y013938D02*
X013133Y013938D01*
X013133Y014037D02*
X010160Y014037D01*
X014160Y014037D02*
X017133Y014037D01*
X017133Y014133D02*
X014160Y014133D01*
X014160Y010633D01*
X017133Y010633D01*
X017133Y014133D01*
X017133Y013938D02*
X014160Y013938D01*
X014160Y013840D02*
X017133Y013840D01*
X017133Y013741D02*
X014160Y013741D01*
X014160Y013643D02*
X017133Y013643D01*
X017133Y013544D02*
X014160Y013544D01*
X014160Y013446D02*
X017133Y013446D01*
X017133Y013347D02*
X014160Y013347D01*
X014160Y013249D02*
X017133Y013249D01*
X017133Y013150D02*
X014160Y013150D01*
X014160Y013052D02*
X017133Y013052D01*
X017133Y012953D02*
X014160Y012953D01*
X014160Y012855D02*
X017133Y012855D01*
X017133Y012756D02*
X014160Y012756D01*
X014160Y012658D02*
X017133Y012658D01*
X017133Y012559D02*
X014160Y012559D01*
X014160Y012461D02*
X017133Y012461D01*
X017133Y012362D02*
X014160Y012362D01*
X014160Y012264D02*
X017133Y012264D01*
X017133Y012165D02*
X014160Y012165D01*
X014160Y012067D02*
X017133Y012067D01*
X017133Y011968D02*
X014160Y011968D01*
X014160Y011870D02*
X017133Y011870D01*
X017133Y011771D02*
X014160Y011771D01*
X014160Y011673D02*
X017133Y011673D01*
X017133Y011574D02*
X014160Y011574D01*
X014160Y011476D02*
X017133Y011476D01*
X017133Y011377D02*
X014160Y011377D01*
X014160Y011279D02*
X017133Y011279D01*
X017133Y011180D02*
X014160Y011180D01*
X014160Y011082D02*
X017133Y011082D01*
X017133Y010983D02*
X014160Y010983D01*
X014160Y010885D02*
X017133Y010885D01*
X017133Y010786D02*
X014160Y010786D01*
X014160Y010688D02*
X017133Y010688D01*
X018160Y010688D02*
X021133Y010688D01*
X021133Y010633D02*
X018160Y010633D01*
X018160Y014133D01*
X021133Y014133D01*
X021133Y010633D01*
X021133Y010786D02*
X018160Y010786D01*
X018160Y010885D02*
X021133Y010885D01*
X021133Y010983D02*
X018160Y010983D01*
X018160Y011082D02*
X021133Y011082D01*
X021133Y011180D02*
X018160Y011180D01*
X018160Y011279D02*
X021133Y011279D01*
X021133Y011377D02*
X018160Y011377D01*
X018160Y011476D02*
X021133Y011476D01*
X021133Y011574D02*
X018160Y011574D01*
X018160Y011673D02*
X021133Y011673D01*
X021133Y011771D02*
X018160Y011771D01*
X018160Y011870D02*
X021133Y011870D01*
X021133Y011968D02*
X018160Y011968D01*
X018160Y012067D02*
X021133Y012067D01*
X021133Y012165D02*
X018160Y012165D01*
X018160Y012264D02*
X021133Y012264D01*
X021133Y012362D02*
X018160Y012362D01*
X018160Y012461D02*
X021133Y012461D01*
X021133Y012559D02*
X018160Y012559D01*
X018160Y012658D02*
X021133Y012658D01*
X021133Y012756D02*
X018160Y012756D01*
X018160Y012855D02*
X021133Y012855D01*
X021133Y012953D02*
X018160Y012953D01*
X018160Y013052D02*
X021133Y013052D01*
X021133Y013150D02*
X018160Y013150D01*
X018160Y013249D02*
X021133Y013249D01*
X021133Y013347D02*
X018160Y013347D01*
X018160Y013446D02*
X021133Y013446D01*
X021133Y013544D02*
X018160Y013544D01*
X018160Y013643D02*
X021133Y013643D01*
X021133Y013741D02*
X018160Y013741D01*
X018160Y013840D02*
X021133Y013840D01*
X021133Y013938D02*
X018160Y013938D01*
X018160Y014037D02*
X021133Y014037D01*
X022160Y014037D02*
X025133Y014037D01*
X025133Y014133D02*
X022160Y014133D01*
X022160Y010633D01*
X025133Y010633D01*
X025133Y014133D01*
X025133Y013938D02*
X022160Y013938D01*
X022160Y013840D02*
X025133Y013840D01*
X025133Y013741D02*
X022160Y013741D01*
X022160Y013643D02*
X025133Y013643D01*
X025133Y013544D02*
X022160Y013544D01*
X022160Y013446D02*
X025133Y013446D01*
X025133Y013347D02*
X022160Y013347D01*
X022160Y013249D02*
X025133Y013249D01*
X025133Y013150D02*
X022160Y013150D01*
X022160Y013052D02*
X025133Y013052D01*
X025133Y012953D02*
X022160Y012953D01*
X022160Y012855D02*
X025133Y012855D01*
X025133Y012756D02*
X022160Y012756D01*
X022160Y012658D02*
X025133Y012658D01*
X025133Y012559D02*
X022160Y012559D01*
X022160Y012461D02*
X025133Y012461D01*
X025133Y012362D02*
X022160Y012362D01*
X022160Y012264D02*
X025133Y012264D01*
X025133Y012165D02*
X022160Y012165D01*
X022160Y012067D02*
X025133Y012067D01*
X025133Y011968D02*
X022160Y011968D01*
X022160Y011870D02*
X025133Y011870D01*
X025133Y011771D02*
X022160Y011771D01*
X022160Y011673D02*
X025133Y011673D01*
X025133Y011574D02*
X022160Y011574D01*
X022160Y011476D02*
X025133Y011476D01*
X025133Y011377D02*
X022160Y011377D01*
X022160Y011279D02*
X025133Y011279D01*
X025133Y011180D02*
X022160Y011180D01*
X022160Y011082D02*
X025133Y011082D01*
X025133Y010983D02*
X022160Y010983D01*
X022160Y010885D02*
X025133Y010885D01*
X025133Y010786D02*
X022160Y010786D01*
X022160Y010688D02*
X025133Y010688D01*
D31*
X023133Y016019D02*
X023133Y016633D01*
X019133Y016633D02*
X019133Y016019D01*
X015133Y016019D02*
X015133Y016633D01*
X011133Y016633D02*
X011133Y016019D01*
D32*
X011133Y016633D03*
X015133Y016633D03*
X019133Y016633D03*
X023133Y016633D03*
D33*
X021133Y007383D03*
X021133Y005133D03*
X017133Y005133D03*
X017133Y007383D03*
X013133Y007383D03*
X013133Y005133D03*
X025133Y005133D03*
X025133Y007383D03*
D34*
X008133Y009633D03*
D35*
X007133Y009507D02*
X007133Y012133D01*
X006133Y012133D02*
X006133Y009507D01*
X006133Y008759D02*
X006133Y007133D01*
X006464Y007133D01*
X006133Y007133D02*
X006133Y002133D01*
X005133Y002133D02*
X005133Y007133D01*
X004803Y007133D01*
X005133Y007133D02*
X005133Y008759D01*
X005133Y009507D02*
X005133Y012133D01*
X004133Y012133D02*
X004133Y009507D01*
X004133Y008759D02*
X004133Y005633D01*
X004133Y002133D01*
X007133Y002133D02*
X007133Y005633D01*
X007964Y005633D01*
X007133Y005633D02*
X007133Y008759D01*
X004133Y005633D02*
X003303Y005633D01*
X012507Y003633D02*
X012633Y003507D01*
X012633Y002633D01*
X013133Y002133D01*
X016133Y002133D01*
X017133Y002133D02*
X017133Y003007D01*
X016507Y003633D01*
X018133Y002133D02*
X018650Y002650D01*
X018650Y002734D01*
X018903Y002987D01*
X020360Y002987D01*
X020507Y003134D01*
X020507Y003633D01*
X019133Y002133D02*
X023633Y002133D01*
X024007Y002507D01*
X024007Y003633D01*
M02*
