%
M48
M72
T01C0.0200
T02C0.0236
T03C0.0354
T04C0.0394
T05C0.0433
T06C0.0550
T07C0.0551
T08C0.1181
%
T01
X11133Y11133
X12133Y11133
X12133Y12133
X11133Y12133
X11133Y13133
X12133Y13133
X15133Y13133
X15133Y12133
X16133Y12133
X16133Y13133
X16133Y11133
X15133Y11133
X19133Y11133
X20133Y11133
X20133Y12133
X19133Y12133
X19133Y13133
X20133Y13133
X23133Y13133
X23133Y12133
X24133Y12133
X24133Y13133
X24133Y11133
X23133Y11133
T02
X21133Y7383
X21133Y5133
X17133Y5133
X17133Y7383
X13133Y7383
X13133Y5133
X25133Y5133
X25133Y7383
T03
X23133Y16633
X19133Y16633
X15133Y16633
X11133Y16633
T04
X2133Y2133
X2133Y3133
X4133Y2133
X5133Y2133
X6133Y2133
X7133Y2133
X16133Y2133
X17133Y2133
X18133Y2133
X19133Y2133
X25133Y2133
X25133Y3133
X7133Y12133
X6133Y12133
X5133Y12133
X4133Y12133
X2133Y12133
X2133Y13133
X2133Y14133
X3133Y21133
X4133Y21133
X5133Y21133
X6133Y21133
X7133Y21133
X8133Y21133
X10133Y21133
X11133Y21133
X12133Y21133
X13133Y21133
X14133Y21133
X15133Y21133
X16133Y21133
X17133Y21133
X18133Y21133
X19133Y21133
X20133Y21133
X21133Y21133
X22133Y21133
X23133Y21133
X24133Y21133
X25133Y21133
T05
X8133Y9633
T06
X10633Y18633
X12633Y18633
X14633Y18633
X16633Y18633
X18633Y18633
X20633Y18633
X22633Y18633
X24633Y18633
T07
X7287Y18716
X5633Y18716
X3980Y18716
X3980Y16551
X5633Y16551
X7287Y16551
T08
X9137Y16732
X2129Y16732
M30
