G75*
G70*
%OFA0B0*%
%FSLAX24Y24*%
%IPPOS*%
%LPD*%
%AMOC8*
5,1,8,0,0,1.08239X$1,22.5*
%
%ADD10C,0.0120*%
%ADD11C,0.0000*%
D10*
X000660Y000420D02*
X025660Y000420D01*
X025704Y000422D01*
X025747Y000428D01*
X025789Y000437D01*
X025831Y000450D01*
X025871Y000467D01*
X025910Y000487D01*
X025947Y000510D01*
X025981Y000537D01*
X026014Y000566D01*
X026043Y000599D01*
X026070Y000633D01*
X026093Y000670D01*
X026113Y000709D01*
X026130Y000749D01*
X026143Y000791D01*
X026152Y000833D01*
X026158Y000876D01*
X026160Y000920D01*
X026160Y001420D01*
X027160Y002420D01*
X027160Y015420D01*
X026160Y016420D01*
X026160Y020920D01*
X025660Y021420D01*
X000660Y021420D01*
X000616Y021418D01*
X000573Y021412D01*
X000531Y021403D01*
X000489Y021390D01*
X000449Y021373D01*
X000410Y021353D01*
X000373Y021330D01*
X000339Y021303D01*
X000306Y021274D01*
X000277Y021241D01*
X000250Y021207D01*
X000227Y021170D01*
X000207Y021131D01*
X000190Y021091D01*
X000177Y021049D01*
X000168Y021007D01*
X000162Y020964D01*
X000160Y020920D01*
X000160Y000920D01*
X000162Y000876D01*
X000168Y000833D01*
X000177Y000791D01*
X000190Y000749D01*
X000207Y000709D01*
X000227Y000670D01*
X000250Y000633D01*
X000277Y000599D01*
X000306Y000566D01*
X000339Y000537D01*
X000373Y000510D01*
X000410Y000487D01*
X000449Y000467D01*
X000489Y000450D01*
X000531Y000437D01*
X000573Y000428D01*
X000616Y000422D01*
X000660Y000420D01*
D11*
X023167Y003416D02*
X023169Y003464D01*
X023175Y003512D01*
X023185Y003559D01*
X023198Y003605D01*
X023216Y003650D01*
X023236Y003694D01*
X023261Y003736D01*
X023289Y003775D01*
X023319Y003812D01*
X023353Y003846D01*
X023390Y003878D01*
X023428Y003907D01*
X023469Y003932D01*
X023512Y003954D01*
X023557Y003972D01*
X023603Y003986D01*
X023650Y003997D01*
X023698Y004004D01*
X023746Y004007D01*
X023794Y004006D01*
X023842Y004001D01*
X023890Y003992D01*
X023936Y003980D01*
X023981Y003963D01*
X024025Y003943D01*
X024067Y003920D01*
X024107Y003893D01*
X024145Y003863D01*
X024180Y003830D01*
X024212Y003794D01*
X024242Y003756D01*
X024268Y003715D01*
X024290Y003672D01*
X024310Y003628D01*
X024325Y003583D01*
X024337Y003536D01*
X024345Y003488D01*
X024349Y003440D01*
X024349Y003392D01*
X024345Y003344D01*
X024337Y003296D01*
X024325Y003249D01*
X024310Y003204D01*
X024290Y003160D01*
X024268Y003117D01*
X024242Y003076D01*
X024212Y003038D01*
X024180Y003002D01*
X024145Y002969D01*
X024107Y002939D01*
X024067Y002912D01*
X024025Y002889D01*
X023981Y002869D01*
X023936Y002852D01*
X023890Y002840D01*
X023842Y002831D01*
X023794Y002826D01*
X023746Y002825D01*
X023698Y002828D01*
X023650Y002835D01*
X023603Y002846D01*
X023557Y002860D01*
X023512Y002878D01*
X023469Y002900D01*
X023428Y002925D01*
X023390Y002954D01*
X023353Y002986D01*
X023319Y003020D01*
X023289Y003057D01*
X023261Y003096D01*
X023236Y003138D01*
X023216Y003182D01*
X023198Y003227D01*
X023185Y003273D01*
X023175Y003320D01*
X023169Y003368D01*
X023167Y003416D01*
X023167Y010424D02*
X023169Y010472D01*
X023175Y010520D01*
X023185Y010567D01*
X023198Y010613D01*
X023216Y010658D01*
X023236Y010702D01*
X023261Y010744D01*
X023289Y010783D01*
X023319Y010820D01*
X023353Y010854D01*
X023390Y010886D01*
X023428Y010915D01*
X023469Y010940D01*
X023512Y010962D01*
X023557Y010980D01*
X023603Y010994D01*
X023650Y011005D01*
X023698Y011012D01*
X023746Y011015D01*
X023794Y011014D01*
X023842Y011009D01*
X023890Y011000D01*
X023936Y010988D01*
X023981Y010971D01*
X024025Y010951D01*
X024067Y010928D01*
X024107Y010901D01*
X024145Y010871D01*
X024180Y010838D01*
X024212Y010802D01*
X024242Y010764D01*
X024268Y010723D01*
X024290Y010680D01*
X024310Y010636D01*
X024325Y010591D01*
X024337Y010544D01*
X024345Y010496D01*
X024349Y010448D01*
X024349Y010400D01*
X024345Y010352D01*
X024337Y010304D01*
X024325Y010257D01*
X024310Y010212D01*
X024290Y010168D01*
X024268Y010125D01*
X024242Y010084D01*
X024212Y010046D01*
X024180Y010010D01*
X024145Y009977D01*
X024107Y009947D01*
X024067Y009920D01*
X024025Y009897D01*
X023981Y009877D01*
X023936Y009860D01*
X023890Y009848D01*
X023842Y009839D01*
X023794Y009834D01*
X023746Y009833D01*
X023698Y009836D01*
X023650Y009843D01*
X023603Y009854D01*
X023557Y009868D01*
X023512Y009886D01*
X023469Y009908D01*
X023428Y009933D01*
X023390Y009962D01*
X023353Y009994D01*
X023319Y010028D01*
X023289Y010065D01*
X023261Y010104D01*
X023236Y010146D01*
X023216Y010190D01*
X023198Y010235D01*
X023185Y010281D01*
X023175Y010328D01*
X023169Y010376D01*
X023167Y010424D01*
M02*
