G75*
G70*
%OFA0B0*%
%FSLAX24Y24*%
%IPPOS*%
%LPD*%
%AMOC8*
5,1,8,0,0,1.08239X$1,22.5*
%
%ADD10R,0.0815X0.1785*%
%ADD11R,0.0815X0.1085*%
%ADD12R,0.0066X0.0113*%
%ADD13R,0.0769X0.0349*%
%ADD14R,0.0122X0.0527*%
%ADD15R,0.1028X0.3236*%
%ADD16R,0.1904X0.0577*%
%ADD17R,0.0153X0.0474*%
%ADD18R,0.0083X0.0277*%
%ADD19R,0.0191X0.0173*%
%ADD20R,0.0112X0.0136*%
%ADD21R,0.0104X0.0140*%
%ADD22R,0.0106X0.0116*%
%ADD23R,0.0058X0.0050*%
%ADD24R,0.0038X0.0053*%
%ADD25R,1.2500X0.0500*%
%ADD26R,0.0726X0.5323*%
%ADD27R,0.0830X0.3167*%
%ADD28R,0.0709X0.3580*%
%ADD29R,0.5291X0.0709*%
%ADD30R,0.0737X0.7891*%
%ADD31R,0.3993X0.0731*%
%ADD32R,0.0792X0.5220*%
%ADD33R,0.5814X0.0745*%
%ADD34R,0.0715X0.1673*%
%ADD35R,0.2960X0.0706*%
%ADD36C,0.0905*%
%ADD37C,0.0674*%
%ADD38R,0.0907X0.0907*%
%ADD39C,0.1261*%
%ADD40C,0.0440*%
%ADD41R,0.0611X0.0611*%
%ADD42R,0.0476X0.0476*%
%ADD43R,0.0730X0.0730*%
D10*
X010628Y017983D03*
X014628Y017983D03*
X018628Y017983D03*
X022628Y017983D03*
D11*
G36*
X023536Y016813D02*
X022960Y016237D01*
X022194Y017003D01*
X022770Y017579D01*
X023536Y016813D01*
G37*
G36*
X019536Y016813D02*
X018960Y016237D01*
X018194Y017003D01*
X018770Y017579D01*
X019536Y016813D01*
G37*
G36*
X015536Y016813D02*
X014960Y016237D01*
X014194Y017003D01*
X014770Y017579D01*
X015536Y016813D01*
G37*
G36*
X011536Y016813D02*
X010960Y016237D01*
X010194Y017003D01*
X010770Y017579D01*
X011536Y016813D01*
G37*
D12*
X010271Y017094D03*
X014271Y017094D03*
X018271Y017094D03*
X022271Y017094D03*
D13*
X023174Y016419D03*
X019174Y016419D03*
X015174Y016419D03*
X011174Y016419D03*
D14*
X011456Y016653D03*
X015456Y016653D03*
X019456Y016653D03*
X023456Y016653D03*
D15*
X022632Y020054D03*
X018632Y020054D03*
X014632Y020054D03*
X010632Y020054D03*
D16*
X010655Y021135D03*
X014655Y021135D03*
X018655Y021135D03*
X022655Y021135D03*
D17*
X021730Y021126D03*
X017730Y021126D03*
X013730Y021126D03*
X009730Y021126D03*
D18*
X009669Y021140D03*
X013669Y021140D03*
X017669Y021140D03*
X021669Y021140D03*
D19*
X021823Y021432D03*
X017823Y021432D03*
X013823Y021432D03*
X009823Y021432D03*
D20*
X009789Y020813D03*
X013789Y020813D03*
X017789Y020813D03*
X021789Y020813D03*
D21*
X023499Y020817D03*
X019499Y020817D03*
X015499Y020817D03*
X011499Y020817D03*
D22*
X011488Y021462D03*
X015488Y021462D03*
X019488Y021462D03*
X023488Y021462D03*
D23*
X022191Y018433D03*
X018191Y018433D03*
X014191Y018433D03*
X010191Y018433D03*
D24*
X011082Y018440D03*
X015082Y018440D03*
X019082Y018440D03*
X023082Y018440D03*
D25*
X019133Y007383D03*
X019133Y005133D03*
D26*
X005638Y018835D03*
D27*
X003650Y019929D03*
D28*
X003969Y016578D03*
D29*
X006848Y015142D03*
D30*
X009130Y010980D03*
D31*
X011391Y007383D03*
D32*
X008119Y007379D03*
D33*
X010821Y005133D03*
D34*
X002132Y014619D03*
D35*
X003539Y015130D03*
D36*
X010633Y018221D02*
X010633Y019046D01*
X012633Y019046D02*
X012633Y018221D01*
X014633Y018221D02*
X014633Y019046D01*
X016633Y019046D02*
X016633Y018221D01*
X018633Y018221D02*
X018633Y019046D01*
X020633Y019046D02*
X020633Y018221D01*
X022633Y018221D02*
X022633Y019046D01*
X024633Y019046D02*
X024633Y018221D01*
D37*
X002430Y002133D02*
X001836Y002133D01*
X001836Y003133D02*
X002430Y003133D01*
X004133Y002430D02*
X004133Y001836D01*
X005133Y001836D02*
X005133Y002430D01*
X006133Y002430D02*
X006133Y001836D01*
X007133Y001836D02*
X007133Y002430D01*
X016133Y002430D02*
X016133Y001836D01*
X017133Y001836D02*
X017133Y002430D01*
X018133Y002430D02*
X018133Y001836D01*
X019133Y001836D02*
X019133Y002430D01*
X024836Y002133D02*
X025430Y002133D01*
X025430Y003133D02*
X024836Y003133D01*
X007133Y011836D02*
X007133Y012430D01*
X006133Y012430D02*
X006133Y011836D01*
X005133Y011836D02*
X005133Y012430D01*
X004133Y012430D02*
X004133Y011836D01*
X002430Y012133D02*
X001836Y012133D01*
X001836Y013133D02*
X002430Y013133D01*
X002430Y014133D02*
X001836Y014133D01*
X003133Y020836D02*
X003133Y021430D01*
X004133Y021430D02*
X004133Y020836D01*
X005133Y020836D02*
X005133Y021430D01*
X006133Y021430D02*
X006133Y020836D01*
X007133Y020836D02*
X007133Y021430D01*
X008133Y021430D02*
X008133Y020836D01*
X010133Y020836D02*
X010133Y021430D01*
X011133Y021430D02*
X011133Y020836D01*
X012133Y020836D02*
X012133Y021430D01*
X013133Y021430D02*
X013133Y020836D01*
X014133Y020836D02*
X014133Y021430D01*
X015133Y021430D02*
X015133Y020836D01*
X016133Y020836D02*
X016133Y021430D01*
X017133Y021430D02*
X017133Y020836D01*
X018133Y020836D02*
X018133Y021430D01*
X019133Y021430D02*
X019133Y020836D01*
X020133Y020836D02*
X020133Y021430D01*
X021133Y021430D02*
X021133Y020836D01*
X022133Y020836D02*
X022133Y021430D01*
X023133Y021430D02*
X023133Y020836D01*
X024133Y020836D02*
X024133Y021430D01*
X025133Y021430D02*
X025133Y020836D01*
D38*
X007287Y018716D03*
X005633Y018716D03*
X003980Y018716D03*
X003980Y016551D03*
X005633Y016551D03*
X007287Y016551D03*
D39*
X009137Y016732D03*
X002129Y016732D03*
D40*
X011133Y013133D03*
X011133Y012133D03*
X012133Y012133D03*
X012133Y013133D03*
X012133Y011133D03*
X011133Y011133D03*
X015133Y011133D03*
X016133Y011133D03*
X016133Y012133D03*
X015133Y012133D03*
X015133Y013133D03*
X016133Y013133D03*
X019133Y013133D03*
X020133Y013133D03*
X020133Y012133D03*
X019133Y012133D03*
X019133Y011133D03*
X020133Y011133D03*
X023133Y011133D03*
X024133Y011133D03*
X024133Y012133D03*
X023133Y012133D03*
X023133Y013133D03*
X024133Y013133D03*
D41*
X023133Y016633D03*
X019133Y016633D03*
X015133Y016633D03*
X011133Y016633D03*
D42*
X013133Y007383D03*
X013133Y005133D03*
X017133Y005133D03*
X017133Y007383D03*
X021133Y007383D03*
X021133Y005133D03*
X025133Y005133D03*
X025133Y007383D03*
D43*
X008133Y009633D03*
M02*
