G75*
G70*
%OFA0B0*%
%FSLAX24Y24*%
%IPPOS*%
%LPD*%
%AMOC8*
5,1,8,0,0,1.08239X$1,22.5*
%
%ADD10C,0.0130*%
%ADD11R,0.2441X0.2126*%
%ADD12R,0.0630X0.0394*%
%ADD13R,0.0551X0.0394*%
%ADD14R,0.0630X0.0512*%
%ADD15R,0.0591X0.1417*%
%ADD16R,0.0512X0.0630*%
%ADD17R,0.0591X0.0591*%
%ADD18R,0.0945X0.0945*%
%ADD19R,0.0460X0.0630*%
%ADD20C,0.0825*%
%ADD21R,0.0827X0.0827*%
%ADD22C,0.0594*%
%ADD23R,0.0709X0.0551*%
%ADD24C,0.0520*%
%ADD25C,0.0660*%
%ADD26C,0.0500*%
%ADD27C,0.0560*%
%ADD28C,0.0160*%
%ADD29C,0.0240*%
%ADD30C,0.0360*%
%ADD31C,0.0100*%
%ADD32R,0.0396X0.0396*%
%ADD33C,0.0120*%
%ADD34C,0.0317*%
D10*
X007377Y002981D02*
X007465Y002893D01*
X007731Y002893D01*
X007731Y002804D02*
X007731Y003246D01*
X007465Y003246D01*
X007377Y003158D01*
X007377Y002981D01*
X007554Y002716D02*
X007642Y002716D01*
X007731Y002804D01*
X007985Y002981D02*
X008073Y002893D01*
X008250Y002893D01*
X008338Y002981D01*
X008338Y003158D01*
X008250Y003246D01*
X008073Y003246D01*
X007985Y003158D01*
X007985Y002981D01*
X008592Y002893D02*
X008592Y003246D01*
X008592Y003070D02*
X008769Y003246D01*
X008858Y003246D01*
X009099Y003158D02*
X009099Y002981D01*
X009187Y002893D01*
X009364Y002893D01*
X009452Y002981D01*
X009452Y003158D01*
X009364Y003246D01*
X009187Y003246D01*
X009099Y003158D01*
X009707Y003246D02*
X009707Y002893D01*
X010060Y002893D02*
X010060Y003158D01*
X009972Y003246D01*
X009707Y003246D01*
X010314Y002981D02*
X010403Y002981D01*
X010403Y002893D01*
X010314Y002893D01*
X010314Y002981D01*
X010618Y002981D02*
X010618Y003158D01*
X010707Y003246D01*
X010972Y003246D01*
X010972Y003423D02*
X010972Y002893D01*
X010707Y002893D01*
X010618Y002981D01*
X011226Y002981D02*
X011226Y003158D01*
X011314Y003246D01*
X011491Y003246D01*
X011579Y003158D01*
X011579Y003070D01*
X011226Y003070D01*
X011226Y002981D02*
X011314Y002893D01*
X011491Y002893D01*
X011834Y002893D02*
X011834Y003423D01*
X012099Y003246D02*
X011834Y003070D01*
X012099Y002893D01*
X012340Y002981D02*
X012428Y003070D01*
X012694Y003070D01*
X012694Y003158D02*
X012694Y002893D01*
X012428Y002893D01*
X012340Y002981D01*
X012605Y003246D02*
X012694Y003158D01*
X012605Y003246D02*
X012428Y003246D01*
X012948Y003246D02*
X012948Y002893D01*
X012948Y003070D02*
X013125Y003246D01*
X013213Y003246D01*
X013454Y003335D02*
X013543Y003423D01*
X013719Y003423D01*
X013808Y003335D01*
X013808Y003158D01*
X013719Y003070D01*
X013719Y003246D01*
X013543Y003246D01*
X013543Y003070D01*
X013719Y003070D01*
X013808Y002981D02*
X013719Y002893D01*
X013543Y002893D01*
X013454Y002981D01*
X013454Y003335D01*
X014062Y003158D02*
X014062Y002981D01*
X014150Y002893D01*
X014415Y002893D01*
X014415Y002804D02*
X014327Y002716D01*
X014239Y002716D01*
X014415Y002804D02*
X014415Y003246D01*
X014150Y003246D01*
X014062Y003158D01*
X014670Y003246D02*
X014670Y002893D01*
X014846Y002893D02*
X014846Y003158D01*
X014935Y003246D01*
X015023Y003158D01*
X015023Y002893D01*
X015277Y002981D02*
X015366Y003070D01*
X015631Y003070D01*
X015631Y003158D02*
X015631Y002893D01*
X015366Y002893D01*
X015277Y002981D01*
X015543Y003246D02*
X015631Y003158D01*
X015543Y003246D02*
X015366Y003246D01*
X015885Y003246D02*
X015973Y003246D01*
X015973Y002893D01*
X015885Y002893D02*
X016062Y002893D01*
X016290Y002893D02*
X016467Y002893D01*
X016379Y002893D02*
X016379Y003423D01*
X016290Y003423D01*
X015973Y003423D02*
X015973Y003512D01*
X016695Y002981D02*
X016784Y002981D01*
X016784Y002893D01*
X016695Y002893D01*
X016695Y002981D01*
X016999Y002981D02*
X016999Y003158D01*
X017088Y003246D01*
X017353Y003246D01*
X017607Y003158D02*
X017607Y002981D01*
X017695Y002893D01*
X017872Y002893D01*
X017961Y002981D01*
X017961Y003158D01*
X017872Y003246D01*
X017695Y003246D01*
X017607Y003158D01*
X017353Y002893D02*
X017088Y002893D01*
X016999Y002981D01*
X018215Y002893D02*
X018215Y003246D01*
X018303Y003246D01*
X018391Y003158D01*
X018480Y003246D01*
X018568Y003158D01*
X018568Y002893D01*
X018391Y002893D02*
X018391Y003158D01*
X014846Y003158D02*
X014758Y003246D01*
X014670Y003246D01*
D11*
X011676Y005920D03*
X011676Y009920D03*
X011676Y013920D03*
X011676Y017920D03*
D12*
X014550Y017022D03*
X014550Y018818D03*
X014550Y014818D03*
X014550Y013022D03*
X014550Y010818D03*
X014550Y009022D03*
X014550Y006818D03*
X014550Y005022D03*
D13*
X017217Y005628D03*
X018083Y006002D03*
X018083Y005254D03*
X018083Y009254D03*
X017217Y009628D03*
X018083Y010002D03*
X018083Y013254D03*
X018083Y014002D03*
X017217Y013628D03*
X018083Y017004D03*
X017217Y017378D03*
X018083Y017752D03*
D14*
X019160Y018044D03*
X019160Y017296D03*
X020160Y017296D03*
X020160Y018044D03*
X021671Y017637D03*
X021671Y016889D03*
X022671Y016889D03*
X022671Y017637D03*
X020160Y014794D03*
X020160Y014046D03*
X019160Y014046D03*
X019160Y014794D03*
X016160Y014294D03*
X016160Y013546D03*
X019160Y010794D03*
X020160Y010794D03*
X020160Y010046D03*
X019160Y010046D03*
X016160Y010294D03*
X016160Y009546D03*
X019160Y006794D03*
X019160Y006046D03*
X020160Y006046D03*
X020160Y006794D03*
X016160Y006294D03*
X016160Y005546D03*
X016160Y017296D03*
X016160Y018044D03*
D15*
X009546Y017420D03*
X007774Y017420D03*
X007774Y013420D03*
X009546Y013420D03*
X009546Y009420D03*
X007774Y009420D03*
X007774Y005420D03*
X009546Y005420D03*
D16*
X006034Y004920D03*
X005286Y004920D03*
X005286Y003920D03*
X006034Y003920D03*
X006034Y002920D03*
X005286Y002920D03*
X005286Y001920D03*
X006034Y001920D03*
X016556Y004504D03*
X017304Y004504D03*
X017304Y008504D03*
X016556Y008504D03*
X016556Y012504D03*
X017304Y012504D03*
X015554Y016004D03*
X014806Y016004D03*
D17*
X019018Y016313D03*
X020396Y016313D03*
X021671Y015952D03*
X022671Y015952D03*
X022671Y014574D03*
X021671Y014574D03*
X020396Y012563D03*
X019018Y012563D03*
X019018Y008563D03*
X020396Y008563D03*
X020396Y004563D03*
X019018Y004563D03*
D18*
X008526Y006920D03*
X006794Y006920D03*
X006794Y010920D03*
X008526Y010920D03*
X008526Y014920D03*
X006794Y014920D03*
X006794Y018920D03*
X008526Y018920D03*
D19*
X017060Y019170D03*
X017660Y019170D03*
X018260Y019170D03*
X018260Y015420D03*
X017660Y015420D03*
X017060Y015420D03*
X017060Y011420D03*
X017660Y011420D03*
X018260Y011420D03*
X018260Y007420D03*
X017660Y007420D03*
X017060Y007420D03*
D20*
X004573Y007920D02*
X003748Y007920D01*
X003748Y005920D02*
X004573Y005920D01*
X004573Y009920D02*
X003748Y009920D01*
X003748Y011920D02*
X004573Y011920D01*
X004573Y013920D02*
X003748Y013920D01*
X003748Y015920D02*
X004573Y015920D01*
X004573Y017920D02*
X003748Y017920D01*
X003748Y019920D02*
X004573Y019920D01*
D21*
X023577Y008574D03*
X023577Y006920D03*
X025743Y006920D03*
X025743Y008574D03*
X025743Y005266D03*
X023577Y005266D03*
D22*
X004160Y002217D02*
X004160Y001623D01*
X003160Y001623D02*
X003160Y002217D01*
X002160Y002217D02*
X002160Y001623D01*
X001160Y001623D02*
X001160Y002217D01*
D23*
X019418Y002436D03*
X020418Y002436D03*
X021418Y002436D03*
X022418Y002436D03*
X022418Y003774D03*
X021418Y003774D03*
X020418Y003774D03*
X019418Y003774D03*
D24*
X020160Y001680D02*
X020160Y001160D01*
X021160Y001160D02*
X021160Y001680D01*
X022160Y001680D02*
X022160Y001160D01*
X023160Y001160D02*
X023160Y001680D01*
X024160Y001680D02*
X024160Y001160D01*
X025160Y001160D02*
X025160Y001680D01*
X018160Y001680D02*
X018160Y001160D01*
X017160Y001160D02*
X017160Y001680D01*
X016160Y001680D02*
X016160Y001160D01*
X015160Y001160D02*
X015160Y001680D01*
X014160Y001680D02*
X014160Y001160D01*
X013160Y001160D02*
X013160Y001680D01*
X012160Y001680D02*
X012160Y001160D01*
X011160Y001160D02*
X011160Y001680D01*
X011560Y020160D02*
X011560Y020680D01*
X010560Y020680D02*
X010560Y020160D01*
X009560Y020160D02*
X009560Y020680D01*
X008560Y020680D02*
X008560Y020160D01*
X007560Y020160D02*
X007560Y020680D01*
X012560Y020680D02*
X012560Y020160D01*
X013560Y020160D02*
X013560Y020680D01*
X014560Y020680D02*
X014560Y020160D01*
X015560Y020160D02*
X015560Y020680D01*
X016560Y020680D02*
X016560Y020160D01*
X018160Y020160D02*
X018160Y020680D01*
X019160Y020680D02*
X019160Y020160D01*
X020160Y020160D02*
X020160Y020680D01*
X021160Y020680D02*
X021160Y020160D01*
X022160Y020160D02*
X022160Y020680D01*
X023160Y020680D02*
X023160Y020160D01*
X024160Y020160D02*
X024160Y020680D01*
X025160Y020680D02*
X025160Y020160D01*
D25*
X015558Y018818D02*
X014550Y018818D01*
X014550Y014818D02*
X015558Y014818D01*
X015558Y010818D02*
X014550Y010818D01*
X014550Y006818D02*
X015558Y006818D01*
X023660Y006920D02*
X025660Y006920D01*
D26*
X025743Y006920D01*
X023660Y006920D02*
X023577Y006920D01*
X022695Y006920D01*
X022677Y006937D01*
X022455Y007160D01*
X018900Y007660D02*
X018660Y007420D01*
X018260Y007420D01*
X017660Y007420D02*
X017660Y006759D01*
X017060Y007420D02*
X016410Y007420D01*
X016160Y006294D02*
X016081Y006294D01*
X016160Y005546D02*
X015636Y005022D01*
X014550Y005022D01*
X010160Y005920D02*
X009546Y005420D01*
X009546Y006920D01*
X008526Y006920D01*
X007786Y005920D02*
X004160Y005920D01*
X007786Y005920D02*
X007774Y005420D01*
X007774Y009420D02*
X007786Y009920D01*
X004160Y009920D01*
X008526Y010920D02*
X009546Y010920D01*
X009546Y009420D01*
X010160Y009920D01*
X014550Y009022D02*
X015636Y009022D01*
X016160Y009546D01*
X016160Y010294D02*
X016081Y010294D01*
X016410Y011420D02*
X017060Y011420D01*
X017660Y011420D02*
X017660Y010759D01*
X018260Y011420D02*
X018660Y011420D01*
X016160Y013546D02*
X015636Y013022D01*
X014550Y013022D01*
X016081Y014294D02*
X016160Y014294D01*
X016410Y015420D02*
X017060Y015420D01*
X017660Y015420D02*
X017660Y014759D01*
X018260Y015420D02*
X018660Y015420D01*
X016160Y017296D02*
X015636Y017022D01*
X014550Y017022D01*
X016081Y018044D02*
X016160Y018044D01*
X016410Y019170D02*
X017060Y019170D01*
X017660Y019170D02*
X017660Y018759D01*
X018260Y019170D02*
X018660Y019170D01*
X010160Y017920D02*
X009546Y017420D01*
X009546Y018920D01*
X008526Y018920D01*
X007786Y017920D02*
X004160Y017920D01*
X007786Y017920D02*
X007774Y017420D01*
X008526Y014920D02*
X009546Y014920D01*
X009546Y013420D01*
X010160Y013920D01*
X007786Y013920D02*
X007774Y013420D01*
X007786Y013920D02*
X004160Y013920D01*
D27*
X015558Y014638D02*
X016160Y014638D01*
X016834Y014638D01*
X016830Y014642D01*
X016834Y014638D02*
X017539Y014638D01*
X017660Y014759D01*
X015558Y014818D02*
X015558Y014638D01*
X015558Y010818D02*
X015558Y010638D01*
X016160Y010638D01*
X016834Y010638D01*
X016830Y010642D01*
X016834Y010638D02*
X017539Y010638D01*
X017660Y010759D01*
X018900Y007660D02*
X021955Y007660D01*
X022677Y006937D01*
X017660Y006759D02*
X017539Y006638D01*
X016834Y006638D01*
X016160Y006638D01*
X015558Y006638D01*
X015558Y006818D01*
X016830Y006642D02*
X016834Y006638D01*
X016834Y018388D02*
X016160Y018388D01*
X015558Y018388D01*
X015558Y018818D01*
X016830Y018392D02*
X016834Y018388D01*
X017539Y018388D01*
X017660Y018759D01*
D28*
X016160Y018388D02*
X016160Y018044D01*
X015560Y020420D02*
X015553Y020427D01*
X015553Y020813D01*
X015910Y021170D01*
X020410Y021170D01*
X020660Y020920D01*
X020660Y018544D01*
X020160Y018044D01*
X021671Y017931D02*
X021671Y017637D01*
X021671Y017931D02*
X022160Y018420D01*
X024160Y018420D01*
X024160Y013420D01*
X025160Y012420D01*
X025160Y009156D01*
X025743Y008574D01*
X022677Y006937D02*
X022660Y006955D01*
X022660Y011420D01*
X023660Y012420D01*
X023660Y017637D01*
X022671Y017637D01*
X022671Y016889D02*
X022671Y015952D01*
X021671Y015952D02*
X021671Y016889D01*
X020910Y015420D02*
X020284Y014794D01*
X020160Y014794D01*
X016160Y014638D02*
X016160Y014294D01*
X020160Y010794D02*
X021534Y010794D01*
X021660Y010920D01*
X021160Y006920D02*
X021034Y006794D01*
X020160Y006794D01*
X016160Y006638D02*
X016160Y006294D01*
X016160Y010294D02*
X016160Y010638D01*
X019418Y002436D02*
X019418Y002162D01*
X020160Y001420D01*
X020418Y002162D02*
X021160Y001420D01*
X021418Y002162D02*
X022160Y001420D01*
X022418Y002162D02*
X023160Y001420D01*
X022418Y002162D02*
X022418Y002436D01*
X021418Y002436D02*
X021418Y002162D01*
X020418Y002162D02*
X020418Y002436D01*
D29*
X019018Y004563D02*
X017363Y004563D01*
X017304Y004504D01*
X016556Y004504D02*
X015149Y004504D01*
X014836Y004190D01*
X008390Y004190D01*
X007774Y004806D01*
X007774Y005420D01*
X008390Y008190D02*
X007774Y008806D01*
X007774Y009420D01*
X008390Y008190D02*
X014836Y008190D01*
X015149Y008504D01*
X016556Y008504D01*
X017304Y008504D02*
X017363Y008563D01*
X019018Y008563D01*
X018994Y009254D02*
X018083Y009254D01*
X018994Y009254D02*
X019160Y009420D01*
X019160Y010046D01*
X020160Y010046D01*
X017217Y009628D02*
X016242Y009628D01*
X016160Y009546D01*
X014836Y012190D02*
X008390Y012190D01*
X007774Y012806D01*
X007774Y013420D01*
X008576Y016004D02*
X014806Y016004D01*
X015554Y016004D02*
X015863Y016313D01*
X019018Y016313D01*
X018994Y017004D02*
X018083Y017004D01*
X018994Y017004D02*
X019160Y017170D01*
X019160Y017296D01*
X020160Y017296D01*
X017217Y017378D02*
X016242Y017378D01*
X016160Y017296D01*
X019160Y014046D02*
X020160Y014046D01*
X019160Y014046D02*
X019160Y013420D01*
X018994Y013254D01*
X018083Y013254D01*
X017217Y013628D02*
X016242Y013628D01*
X016160Y013546D01*
X017304Y012504D02*
X017363Y012563D01*
X019018Y012563D01*
X016556Y012504D02*
X015149Y012504D01*
X014836Y012190D01*
X008576Y016004D02*
X007774Y016806D01*
X007774Y017420D01*
X019160Y006046D02*
X020160Y006046D01*
X019160Y006046D02*
X019160Y005420D01*
X018994Y005254D01*
X018083Y005254D01*
X017217Y005628D02*
X016242Y005628D01*
X016160Y005546D01*
D30*
X012660Y005420D03*
X011660Y005420D03*
X011660Y006420D03*
X012660Y006420D03*
X010660Y006420D03*
X010660Y005420D03*
X010660Y009420D03*
X011660Y009420D03*
X012660Y009420D03*
X012660Y010420D03*
X011660Y010420D03*
X010660Y010420D03*
X010660Y013420D03*
X010660Y014420D03*
X011660Y014420D03*
X012660Y014420D03*
X012660Y013420D03*
X011660Y013420D03*
X011660Y017420D03*
X012660Y017420D03*
X012660Y018420D03*
X011660Y018420D03*
X010660Y018420D03*
X010660Y017420D03*
D31*
X000603Y000634D02*
X000498Y000678D01*
X000418Y000758D01*
X000374Y000863D01*
X000368Y000920D01*
X000368Y020920D01*
X000374Y020977D01*
X000418Y021082D01*
X000498Y021162D01*
X000603Y021206D01*
X000660Y021212D01*
X015645Y021212D01*
X015510Y021077D01*
X015481Y021077D01*
X015335Y021016D01*
X015224Y020905D01*
X015163Y020759D01*
X015163Y020081D01*
X015224Y019935D01*
X015335Y019824D01*
X015481Y019763D01*
X015639Y019763D01*
X015785Y019824D01*
X015896Y019935D01*
X015957Y020081D01*
X015957Y020759D01*
X015912Y020866D01*
X016000Y020953D01*
X016272Y020953D01*
X016224Y020905D01*
X016163Y020759D01*
X016163Y020081D01*
X016224Y019935D01*
X016335Y019824D01*
X016481Y019763D01*
X016639Y019763D01*
X016785Y019824D01*
X016896Y019935D01*
X016957Y020081D01*
X016957Y020759D01*
X016896Y020905D01*
X016848Y020953D01*
X017872Y020953D01*
X017824Y020905D01*
X017763Y020759D01*
X017763Y020081D01*
X017824Y019935D01*
X017935Y019824D01*
X018081Y019763D01*
X018239Y019763D01*
X018385Y019824D01*
X018496Y019935D01*
X018557Y020081D01*
X018557Y020759D01*
X018496Y020905D01*
X018448Y020953D01*
X018872Y020953D01*
X018824Y020905D01*
X018763Y020759D01*
X018763Y020081D01*
X018824Y019935D01*
X018935Y019824D01*
X019081Y019763D01*
X019239Y019763D01*
X019385Y019824D01*
X019496Y019935D01*
X019557Y020081D01*
X019557Y020759D01*
X019496Y020905D01*
X019448Y020953D01*
X019872Y020953D01*
X019824Y020905D01*
X019763Y020759D01*
X019763Y020081D01*
X019824Y019935D01*
X019935Y019824D01*
X020081Y019763D01*
X020239Y019763D01*
X020385Y019824D01*
X020443Y019882D01*
X020443Y018634D01*
X020246Y018437D01*
X019788Y018437D01*
X019708Y018357D01*
X019708Y017732D01*
X019770Y017670D01*
X019708Y017608D01*
X019708Y017553D01*
X019612Y017553D01*
X019612Y017608D01*
X019557Y017663D01*
X019567Y017668D01*
X019595Y017696D01*
X019615Y017730D01*
X019625Y017768D01*
X019625Y017994D01*
X019210Y017994D01*
X019210Y018094D01*
X019625Y018094D01*
X019625Y018320D01*
X019615Y018358D01*
X019595Y018392D01*
X019567Y018420D01*
X019533Y018440D01*
X019495Y018450D01*
X019210Y018450D01*
X019210Y018094D01*
X019110Y018094D01*
X019110Y017994D01*
X018695Y017994D01*
X018695Y017768D01*
X018705Y017730D01*
X018725Y017696D01*
X018753Y017668D01*
X018763Y017663D01*
X018708Y017608D01*
X018708Y017260D01*
X018492Y017260D01*
X018415Y017337D01*
X017751Y017337D01*
X017671Y017257D01*
X017671Y016750D01*
X017751Y016670D01*
X018415Y016670D01*
X018492Y016747D01*
X019045Y016747D01*
X019139Y016786D01*
X019256Y016903D01*
X019532Y016903D01*
X019612Y016983D01*
X019612Y017039D01*
X019708Y017039D01*
X019708Y016983D01*
X019788Y016903D01*
X020532Y016903D01*
X020612Y016983D01*
X020612Y017608D01*
X020550Y017670D01*
X020612Y017732D01*
X020612Y018189D01*
X020877Y018454D01*
X020877Y019882D01*
X020935Y019824D01*
X021081Y019763D01*
X021239Y019763D01*
X021385Y019824D01*
X021496Y019935D01*
X021557Y020081D01*
X021557Y020759D01*
X021496Y020905D01*
X021385Y021016D01*
X021239Y021077D01*
X021081Y021077D01*
X020935Y021016D01*
X020877Y020958D01*
X020877Y021010D01*
X020750Y021137D01*
X020675Y021212D01*
X025574Y021212D01*
X025952Y020834D01*
X025952Y016334D01*
X026074Y016212D01*
X026952Y015334D01*
X026952Y002506D01*
X025952Y001506D01*
X025952Y000920D01*
X025946Y000863D01*
X025902Y000758D01*
X025822Y000678D01*
X025717Y000634D01*
X025660Y000628D01*
X000660Y000628D01*
X000603Y000634D01*
X000460Y000716D02*
X025860Y000716D01*
X025926Y000814D02*
X025361Y000814D01*
X025385Y000824D02*
X025496Y000935D01*
X025557Y001081D01*
X025557Y001759D01*
X025496Y001905D01*
X025385Y002016D01*
X025239Y002077D01*
X025081Y002077D01*
X024935Y002016D01*
X024824Y001905D01*
X024763Y001759D01*
X024763Y001081D01*
X024824Y000935D01*
X024935Y000824D01*
X025081Y000763D01*
X025239Y000763D01*
X025385Y000824D01*
X025473Y000913D02*
X025951Y000913D01*
X025952Y001011D02*
X025528Y001011D01*
X025557Y001110D02*
X025952Y001110D01*
X025952Y001208D02*
X025557Y001208D01*
X025557Y001307D02*
X025952Y001307D01*
X025952Y001405D02*
X025557Y001405D01*
X025557Y001504D02*
X025952Y001504D01*
X026047Y001602D02*
X025557Y001602D01*
X025557Y001701D02*
X026146Y001701D01*
X026244Y001799D02*
X025540Y001799D01*
X025499Y001898D02*
X026343Y001898D01*
X026441Y001996D02*
X025405Y001996D01*
X024915Y001996D02*
X024405Y001996D01*
X024385Y002016D02*
X024496Y001905D01*
X024557Y001759D01*
X024557Y001081D01*
X024496Y000935D01*
X024385Y000824D01*
X024239Y000763D01*
X024081Y000763D01*
X023935Y000824D01*
X023824Y000935D01*
X023763Y001081D01*
X023763Y001759D01*
X023824Y001905D01*
X023935Y002016D01*
X024081Y002077D01*
X024239Y002077D01*
X024385Y002016D01*
X024499Y001898D02*
X024821Y001898D01*
X024780Y001799D02*
X024540Y001799D01*
X024557Y001701D02*
X024763Y001701D01*
X024763Y001602D02*
X024557Y001602D01*
X024557Y001504D02*
X024763Y001504D01*
X024763Y001405D02*
X024557Y001405D01*
X024557Y001307D02*
X024763Y001307D01*
X024763Y001208D02*
X024557Y001208D01*
X024557Y001110D02*
X024763Y001110D01*
X024792Y001011D02*
X024528Y001011D01*
X024473Y000913D02*
X024847Y000913D01*
X024959Y000814D02*
X024361Y000814D01*
X023959Y000814D02*
X023361Y000814D01*
X023385Y000824D02*
X023496Y000935D01*
X023557Y001081D01*
X023557Y001759D01*
X023496Y001905D01*
X023385Y002016D01*
X023239Y002077D01*
X023081Y002077D01*
X022935Y002016D01*
X022903Y001984D01*
X022846Y002041D01*
X022909Y002104D01*
X022909Y002768D01*
X022829Y002848D01*
X022007Y002848D01*
X021927Y002768D01*
X021927Y002104D01*
X021991Y002039D01*
X021935Y002016D01*
X021903Y001984D01*
X021846Y002041D01*
X021909Y002104D01*
X021909Y002768D01*
X021829Y002848D01*
X021007Y002848D01*
X020927Y002768D01*
X020927Y002104D01*
X020991Y002039D01*
X020935Y002016D01*
X020903Y001984D01*
X020846Y002041D01*
X020909Y002104D01*
X020909Y002768D01*
X020829Y002848D01*
X020007Y002848D01*
X019927Y002768D01*
X019927Y002104D01*
X019991Y002039D01*
X019935Y002016D01*
X019903Y001984D01*
X019846Y002041D01*
X019909Y002104D01*
X019909Y002768D01*
X019829Y002848D01*
X019007Y002848D01*
X018927Y002768D01*
X018927Y002104D01*
X019007Y002024D01*
X019250Y002024D01*
X019763Y001510D01*
X019763Y001081D01*
X019824Y000935D01*
X019935Y000824D01*
X020081Y000763D01*
X020239Y000763D01*
X020385Y000824D01*
X020496Y000935D01*
X020557Y001081D01*
X020557Y001717D01*
X020763Y001510D01*
X020763Y001081D01*
X020824Y000935D01*
X020935Y000824D01*
X021081Y000763D01*
X021239Y000763D01*
X021385Y000824D01*
X021496Y000935D01*
X021557Y001081D01*
X021557Y001717D01*
X021763Y001510D01*
X021763Y001081D01*
X021824Y000935D01*
X021935Y000824D01*
X022081Y000763D01*
X022239Y000763D01*
X022385Y000824D01*
X022496Y000935D01*
X022557Y001081D01*
X022557Y001717D01*
X022763Y001510D01*
X022763Y001081D01*
X022824Y000935D01*
X022935Y000824D01*
X023081Y000763D01*
X023239Y000763D01*
X023385Y000824D01*
X023473Y000913D02*
X023847Y000913D01*
X023792Y001011D02*
X023528Y001011D01*
X023557Y001110D02*
X023763Y001110D01*
X023763Y001208D02*
X023557Y001208D01*
X023557Y001307D02*
X023763Y001307D01*
X023763Y001405D02*
X023557Y001405D01*
X023557Y001504D02*
X023763Y001504D01*
X023763Y001602D02*
X023557Y001602D01*
X023557Y001701D02*
X023763Y001701D01*
X023780Y001799D02*
X023540Y001799D01*
X023499Y001898D02*
X023821Y001898D01*
X023915Y001996D02*
X023405Y001996D01*
X022915Y001996D02*
X022890Y001996D01*
X022900Y002095D02*
X026540Y002095D01*
X026638Y002193D02*
X022909Y002193D01*
X022909Y002292D02*
X026737Y002292D01*
X026835Y002390D02*
X022909Y002390D01*
X022909Y002489D02*
X026934Y002489D01*
X026952Y002587D02*
X022909Y002587D01*
X022909Y002686D02*
X023591Y002686D01*
X023611Y002677D02*
X023905Y002677D01*
X024177Y002790D01*
X024385Y002997D01*
X024497Y003269D01*
X024497Y003563D01*
X024385Y003835D01*
X024177Y004043D01*
X023905Y004155D01*
X023611Y004155D01*
X023340Y004043D01*
X023132Y003835D01*
X023019Y003563D01*
X023019Y003269D01*
X023132Y002997D01*
X023340Y002790D01*
X023611Y002677D01*
X023353Y002784D02*
X022893Y002784D01*
X023148Y002981D02*
X018770Y002981D01*
X018770Y002883D02*
X023247Y002883D01*
X023098Y003080D02*
X018770Y003080D01*
X018770Y003178D02*
X023057Y003178D01*
X023019Y003277D02*
X018735Y003277D01*
X018770Y003241D02*
X018652Y003360D01*
X018563Y003448D01*
X018396Y003448D01*
X018391Y003443D01*
X018387Y003448D01*
X018131Y003448D01*
X018043Y003360D01*
X017956Y003448D01*
X017612Y003448D01*
X017559Y003396D01*
X017524Y003360D01*
X017436Y003448D01*
X017004Y003448D01*
X016979Y003423D01*
X016886Y003330D01*
X016886Y003330D01*
X016798Y003241D01*
X016798Y003183D01*
X016612Y003183D01*
X016580Y003151D01*
X016580Y003507D01*
X016462Y003625D01*
X016207Y003625D01*
X016175Y003593D01*
X016175Y003595D01*
X016057Y003713D01*
X015890Y003713D01*
X015772Y003595D01*
X015772Y003418D01*
X015714Y003360D01*
X015626Y003448D01*
X015282Y003448D01*
X015164Y003330D01*
X015164Y003302D01*
X015107Y003360D01*
X015018Y003448D01*
X014851Y003448D01*
X014846Y003443D01*
X014841Y003448D01*
X014586Y003448D01*
X014543Y003404D01*
X014499Y003448D01*
X014067Y003448D01*
X014014Y003396D01*
X014009Y003391D01*
X014009Y003418D01*
X013891Y003536D01*
X013803Y003625D01*
X013459Y003625D01*
X013408Y003574D01*
X013341Y003507D01*
X013341Y003507D01*
X013282Y003448D01*
X013041Y003448D01*
X013036Y003443D01*
X013031Y003448D01*
X012864Y003448D01*
X012776Y003360D01*
X012689Y003448D01*
X012345Y003448D01*
X012262Y003365D01*
X012220Y003428D01*
X012056Y003460D01*
X012035Y003446D01*
X012035Y003507D01*
X011917Y003625D01*
X011750Y003625D01*
X011632Y003507D01*
X011632Y003391D01*
X011575Y003448D01*
X011231Y003448D01*
X011180Y003397D01*
X011173Y003391D01*
X011173Y003507D01*
X011055Y003625D01*
X010888Y003625D01*
X010770Y003507D01*
X010770Y003448D01*
X010623Y003448D01*
X010572Y003397D01*
X010505Y003330D01*
X010505Y003330D01*
X010416Y003241D01*
X010416Y003183D01*
X010262Y003183D01*
X010262Y003241D01*
X010144Y003360D01*
X010055Y003448D01*
X009623Y003448D01*
X009535Y003360D01*
X009448Y003448D01*
X009104Y003448D01*
X009051Y003396D01*
X009022Y003367D01*
X008941Y003448D01*
X008686Y003448D01*
X008681Y003443D01*
X008676Y003448D01*
X008509Y003448D01*
X008421Y003360D01*
X008333Y003448D01*
X007990Y003448D01*
X007937Y003396D01*
X007902Y003360D01*
X007814Y003448D01*
X007382Y003448D01*
X007329Y003396D01*
X007264Y003330D01*
X007264Y003330D01*
X007175Y003241D01*
X007175Y002898D01*
X007264Y002809D01*
X007352Y002721D01*
X007352Y002632D01*
X007470Y002514D01*
X007726Y002514D01*
X007814Y002603D01*
X007932Y002721D01*
X007932Y002748D01*
X007990Y002691D01*
X008333Y002691D01*
X008421Y002779D01*
X008509Y002691D01*
X008676Y002691D01*
X008794Y002809D01*
X008794Y002986D01*
X008853Y003045D01*
X008897Y003045D01*
X008897Y002898D01*
X009104Y002691D01*
X009448Y002691D01*
X009535Y002779D01*
X009623Y002691D01*
X009790Y002691D01*
X009883Y002784D01*
X009884Y002784D01*
X009883Y002784D02*
X009977Y002691D01*
X010144Y002691D01*
X010187Y002735D01*
X010231Y002691D01*
X010486Y002691D01*
X010555Y002760D01*
X010623Y002691D01*
X011055Y002691D01*
X011143Y002779D01*
X011231Y002691D01*
X011575Y002691D01*
X011662Y002779D01*
X011750Y002691D01*
X011917Y002691D01*
X011965Y002739D01*
X012056Y002679D01*
X012220Y002711D01*
X012262Y002774D01*
X012345Y002691D01*
X012777Y002691D01*
X012821Y002735D01*
X012864Y002691D01*
X013031Y002691D01*
X013149Y002809D01*
X013149Y002986D01*
X013208Y003045D01*
X013253Y003045D01*
X013253Y002898D01*
X013371Y002780D01*
X013459Y002691D01*
X013803Y002691D01*
X013907Y002795D01*
X013935Y002823D01*
X013949Y002809D01*
X014037Y002721D01*
X014037Y002632D01*
X014155Y002514D01*
X014411Y002514D01*
X014499Y002603D01*
X014587Y002691D01*
X014753Y002691D01*
X014758Y002696D01*
X014763Y002691D01*
X014930Y002691D01*
X014935Y002696D01*
X014940Y002691D01*
X015107Y002691D01*
X015194Y002779D01*
X015282Y002691D01*
X015714Y002691D01*
X015758Y002735D01*
X015801Y002691D01*
X016145Y002691D01*
X016176Y002722D01*
X016207Y002691D01*
X016550Y002691D01*
X016581Y002722D01*
X016612Y002691D01*
X016867Y002691D01*
X016936Y002760D01*
X017004Y002691D01*
X017436Y002691D01*
X017524Y002779D01*
X017612Y002691D01*
X017956Y002691D01*
X018043Y002779D01*
X018131Y002691D01*
X018298Y002691D01*
X018303Y002696D01*
X018308Y002691D01*
X018475Y002691D01*
X018480Y002696D01*
X018485Y002691D01*
X018652Y002691D01*
X018770Y002809D01*
X018770Y003241D01*
X018636Y003375D02*
X018978Y003375D01*
X018971Y003379D02*
X019006Y003359D01*
X019044Y003349D01*
X019368Y003349D01*
X019368Y003724D01*
X019468Y003724D01*
X019468Y003349D01*
X019792Y003349D01*
X019830Y003359D01*
X019864Y003379D01*
X019892Y003407D01*
X019912Y003441D01*
X019918Y003463D01*
X019924Y003441D01*
X019944Y003407D01*
X019971Y003379D01*
X020006Y003359D01*
X020044Y003349D01*
X020368Y003349D01*
X020368Y003724D01*
X020468Y003724D01*
X020468Y003349D01*
X020792Y003349D01*
X020830Y003359D01*
X020864Y003379D01*
X020892Y003407D01*
X020912Y003441D01*
X020918Y003463D01*
X020924Y003441D01*
X020944Y003407D01*
X020971Y003379D01*
X021006Y003359D01*
X021044Y003349D01*
X021368Y003349D01*
X021368Y003724D01*
X021468Y003724D01*
X021468Y003349D01*
X021792Y003349D01*
X021830Y003359D01*
X021864Y003379D01*
X021892Y003407D01*
X021912Y003441D01*
X021918Y003463D01*
X021924Y003441D01*
X021944Y003407D01*
X021971Y003379D01*
X022006Y003359D01*
X022044Y003349D01*
X022368Y003349D01*
X022368Y003724D01*
X022468Y003724D01*
X022468Y003349D01*
X022792Y003349D01*
X022830Y003359D01*
X022864Y003379D01*
X022892Y003407D01*
X022912Y003441D01*
X022922Y003479D01*
X022922Y003724D01*
X022468Y003724D01*
X022468Y003824D01*
X022922Y003824D01*
X022922Y004070D01*
X022912Y004108D01*
X022892Y004142D01*
X022864Y004170D01*
X022830Y004190D01*
X022792Y004200D01*
X022468Y004200D01*
X022468Y003824D01*
X022368Y003824D01*
X022368Y003724D01*
X021468Y003724D01*
X021468Y003824D01*
X021922Y003824D01*
X022368Y003824D01*
X022368Y004200D01*
X022044Y004200D01*
X022006Y004190D01*
X021971Y004170D01*
X021944Y004142D01*
X021924Y004108D01*
X021918Y004086D01*
X021912Y004108D01*
X021892Y004142D01*
X021864Y004170D01*
X021830Y004190D01*
X021792Y004200D01*
X021468Y004200D01*
X021468Y003824D01*
X021368Y003824D01*
X021368Y003724D01*
X020468Y003724D01*
X020468Y003824D01*
X020922Y003824D01*
X021368Y003824D01*
X021368Y004200D01*
X021044Y004200D01*
X021006Y004190D01*
X020971Y004170D01*
X020944Y004142D01*
X020924Y004108D01*
X020918Y004086D01*
X020912Y004108D01*
X020892Y004142D01*
X020864Y004170D01*
X020830Y004190D01*
X020821Y004192D01*
X020831Y004210D01*
X020841Y004248D01*
X020841Y004513D01*
X020446Y004513D01*
X020446Y004118D01*
X020468Y004118D01*
X020468Y003824D01*
X020368Y003824D01*
X020368Y003724D01*
X019468Y003724D01*
X019468Y003824D01*
X019922Y003824D01*
X020368Y003824D01*
X020368Y004200D01*
X020346Y004200D01*
X020346Y004513D01*
X020446Y004513D01*
X020446Y004613D01*
X020841Y004613D01*
X020841Y004878D01*
X020831Y004916D01*
X020811Y004951D01*
X023014Y004951D01*
X023014Y004853D02*
X020841Y004853D01*
X020841Y004754D02*
X023051Y004754D01*
X023044Y004761D02*
X023072Y004733D01*
X023106Y004713D01*
X023144Y004703D01*
X023527Y004703D01*
X023527Y005216D01*
X023627Y005216D01*
X023627Y004703D01*
X024010Y004703D01*
X024049Y004713D01*
X024083Y004733D01*
X024111Y004761D01*
X024130Y004795D01*
X024141Y004833D01*
X024141Y005216D01*
X023627Y005216D01*
X023627Y005316D01*
X024141Y005316D01*
X024141Y005700D01*
X024130Y005738D01*
X024111Y005772D01*
X024083Y005800D01*
X024049Y005820D01*
X024010Y005830D01*
X023627Y005830D01*
X023627Y005316D01*
X023527Y005316D01*
X023527Y005216D01*
X023014Y005216D01*
X023014Y004833D01*
X023024Y004795D01*
X023044Y004761D01*
X023014Y005050D02*
X019152Y005050D01*
X019139Y005036D02*
X019378Y005275D01*
X019417Y005369D01*
X019417Y005653D01*
X019532Y005653D01*
X019612Y005733D01*
X019612Y005789D01*
X019708Y005789D01*
X019708Y005733D01*
X019788Y005653D01*
X020532Y005653D01*
X020612Y005733D01*
X020612Y006358D01*
X020550Y006420D01*
X020612Y006482D01*
X020612Y006577D01*
X021124Y006577D01*
X021171Y006625D01*
X021219Y006625D01*
X021327Y006670D01*
X021410Y006753D01*
X021455Y006861D01*
X021455Y006979D01*
X021410Y007087D01*
X021327Y007170D01*
X021219Y007215D01*
X021101Y007215D01*
X020993Y007170D01*
X020910Y007087D01*
X020878Y007011D01*
X020612Y007011D01*
X020612Y007107D01*
X020532Y007187D01*
X019788Y007187D01*
X019708Y007107D01*
X019708Y006482D01*
X019770Y006420D01*
X019708Y006358D01*
X019708Y006303D01*
X019612Y006303D01*
X019612Y006358D01*
X019557Y006413D01*
X019567Y006418D01*
X019595Y006446D01*
X019615Y006480D01*
X019625Y006518D01*
X019625Y006744D01*
X019210Y006744D01*
X019210Y006844D01*
X019625Y006844D01*
X019625Y007070D01*
X019615Y007108D01*
X019595Y007142D01*
X019567Y007170D01*
X019533Y007190D01*
X019495Y007200D01*
X019210Y007200D01*
X019210Y006844D01*
X019110Y006844D01*
X019110Y006744D01*
X018695Y006744D01*
X018695Y006518D01*
X018705Y006480D01*
X018725Y006446D01*
X018753Y006418D01*
X018763Y006413D01*
X018708Y006358D01*
X018708Y005733D01*
X018788Y005653D01*
X018903Y005653D01*
X018903Y005526D01*
X018887Y005510D01*
X018492Y005510D01*
X018415Y005587D01*
X017751Y005587D01*
X017671Y005507D01*
X017671Y005000D01*
X017751Y004920D01*
X018415Y004920D01*
X018492Y004997D01*
X019045Y004997D01*
X019139Y005036D01*
X019251Y005148D02*
X023014Y005148D01*
X023014Y005316D02*
X023014Y005700D01*
X023024Y005738D01*
X023044Y005772D01*
X023072Y005800D01*
X023106Y005820D01*
X023144Y005830D01*
X023527Y005830D01*
X023527Y005316D01*
X023014Y005316D01*
X023014Y005345D02*
X019407Y005345D01*
X019417Y005444D02*
X023014Y005444D01*
X023014Y005542D02*
X019417Y005542D01*
X019417Y005641D02*
X023014Y005641D01*
X023025Y005739D02*
X020612Y005739D01*
X020612Y005838D02*
X026952Y005838D01*
X026952Y005936D02*
X020612Y005936D01*
X020612Y006035D02*
X026952Y006035D01*
X026952Y006133D02*
X020612Y006133D01*
X020612Y006232D02*
X026952Y006232D01*
X026952Y006330D02*
X020612Y006330D01*
X020559Y006429D02*
X023049Y006429D01*
X023027Y006450D02*
X023107Y006370D01*
X024047Y006370D01*
X024127Y006450D01*
X024127Y006453D01*
X025193Y006453D01*
X025193Y006450D01*
X025273Y006370D01*
X026213Y006370D01*
X026293Y006450D01*
X026293Y007390D01*
X026213Y007470D01*
X025273Y007470D01*
X025193Y007390D01*
X025193Y007387D01*
X024127Y007387D01*
X024127Y007390D01*
X024047Y007470D01*
X023107Y007470D01*
X023027Y007390D01*
X023027Y007307D01*
X022897Y007307D01*
X022877Y007327D01*
X022877Y011330D01*
X023750Y012203D01*
X023877Y012330D01*
X023877Y017727D01*
X023750Y017853D01*
X023123Y017853D01*
X023123Y017949D01*
X023043Y018029D01*
X022299Y018029D01*
X022219Y017949D01*
X022219Y017324D01*
X022281Y017263D01*
X022219Y017201D01*
X022219Y016576D01*
X022299Y016496D01*
X022454Y016496D01*
X022454Y016384D01*
X022319Y016384D01*
X022239Y016304D01*
X022239Y015600D01*
X022319Y015520D01*
X023023Y015520D01*
X023103Y015600D01*
X023103Y016304D01*
X023023Y016384D01*
X022888Y016384D01*
X022888Y016496D01*
X023043Y016496D01*
X023123Y016576D01*
X023123Y017201D01*
X023061Y017263D01*
X023123Y017324D01*
X023123Y017420D01*
X023443Y017420D01*
X023443Y012510D01*
X022570Y011637D01*
X022443Y011510D01*
X022443Y007761D01*
X022191Y008013D01*
X022038Y008077D01*
X018817Y008077D01*
X018664Y008013D01*
X018547Y007896D01*
X018537Y007872D01*
X017973Y007872D01*
X017960Y007858D01*
X017947Y007872D01*
X017373Y007872D01*
X017360Y007858D01*
X017347Y007872D01*
X016773Y007872D01*
X016708Y007807D01*
X016333Y007807D01*
X016208Y007755D01*
X016155Y007755D01*
X016075Y007675D01*
X016075Y007622D01*
X016023Y007497D01*
X016023Y007343D01*
X016075Y007218D01*
X016075Y007165D01*
X016155Y007085D01*
X016208Y007085D01*
X016282Y007054D01*
X015965Y007054D01*
X015953Y007082D01*
X015822Y007213D01*
X015650Y007284D01*
X014457Y007284D01*
X014285Y007213D01*
X014223Y007151D01*
X014178Y007151D01*
X014098Y007071D01*
X014098Y006947D01*
X014083Y006910D01*
X014083Y006725D01*
X014098Y006689D01*
X014098Y006564D01*
X014178Y006484D01*
X014223Y006484D01*
X014285Y006422D01*
X014457Y006351D01*
X015255Y006351D01*
X015322Y006285D01*
X015475Y006221D01*
X015695Y006221D01*
X015695Y006217D01*
X015708Y006184D01*
X015708Y005982D01*
X015770Y005920D01*
X015708Y005858D01*
X015708Y005641D01*
X015476Y005409D01*
X014473Y005409D01*
X014345Y005356D01*
X014178Y005356D01*
X014098Y005276D01*
X014098Y004769D01*
X014178Y004689D01*
X014345Y004689D01*
X014473Y004636D01*
X014919Y004636D01*
X014729Y004446D01*
X013347Y004446D01*
X013347Y007497D01*
X013237Y007607D01*
X009583Y007607D01*
X009473Y007497D01*
X009473Y007307D01*
X009135Y007307D01*
X009135Y007449D01*
X009055Y007529D01*
X007997Y007529D01*
X007917Y007449D01*
X007917Y006391D01*
X007997Y006311D01*
X009055Y006311D01*
X009135Y006391D01*
X009135Y006533D01*
X009159Y006533D01*
X009159Y006231D01*
X009114Y006185D01*
X009114Y004655D01*
X009194Y004575D01*
X009473Y004575D01*
X009473Y004446D01*
X008496Y004446D01*
X008206Y004737D01*
X008206Y006185D01*
X008126Y006265D01*
X007963Y006265D01*
X007938Y006275D01*
X007872Y006305D01*
X007867Y006305D01*
X007863Y006307D01*
X007791Y006307D01*
X007718Y006308D01*
X007714Y006307D01*
X007320Y006307D01*
X007324Y006308D01*
X007358Y006328D01*
X007386Y006355D01*
X007406Y006390D01*
X007416Y006428D01*
X007416Y006870D01*
X006844Y006870D01*
X006844Y006970D01*
X007416Y006970D01*
X007416Y007412D01*
X007406Y007450D01*
X007386Y007485D01*
X007358Y007512D01*
X007324Y007532D01*
X007286Y007542D01*
X006844Y007542D01*
X006844Y006970D01*
X006744Y006970D01*
X006744Y007542D01*
X006302Y007542D01*
X006264Y007532D01*
X006229Y007512D01*
X004960Y007512D01*
X004939Y007491D02*
X005002Y007554D01*
X005054Y007625D01*
X005094Y007704D01*
X005121Y007788D01*
X005134Y007870D01*
X004210Y007870D01*
X004210Y007970D01*
X004110Y007970D01*
X004110Y008482D01*
X003703Y008482D01*
X003616Y008469D01*
X003532Y008441D01*
X003453Y008401D01*
X003381Y008349D01*
X003318Y008286D01*
X003266Y008215D01*
X003226Y008136D01*
X003199Y008052D01*
X003186Y007970D01*
X004110Y007970D01*
X004110Y007870D01*
X004210Y007870D01*
X004210Y007358D01*
X004617Y007358D01*
X004704Y007371D01*
X004788Y007399D01*
X004867Y007439D01*
X004939Y007491D01*
X004817Y007414D02*
X006172Y007414D01*
X006171Y007412D02*
X006171Y006970D01*
X006744Y006970D01*
X006744Y006870D01*
X006171Y006870D01*
X006171Y006428D01*
X006182Y006390D01*
X006201Y006355D01*
X006229Y006328D01*
X006264Y006308D01*
X006268Y006307D01*
X004962Y006307D01*
X004884Y006386D01*
X004682Y006469D01*
X003638Y006469D01*
X003436Y006386D01*
X003282Y006231D01*
X003198Y006029D01*
X003198Y005811D01*
X003282Y005609D01*
X003436Y005454D01*
X003638Y005371D01*
X004682Y005371D01*
X004884Y005454D01*
X004962Y005533D01*
X007342Y005533D01*
X007342Y004655D01*
X007422Y004575D01*
X007642Y004575D01*
X008245Y003972D01*
X008339Y003933D01*
X014887Y003933D01*
X014981Y003972D01*
X015053Y004045D01*
X015256Y004247D01*
X016163Y004247D01*
X016163Y004132D01*
X016243Y004052D01*
X016868Y004052D01*
X016930Y004114D01*
X016991Y004052D01*
X017616Y004052D01*
X017696Y004132D01*
X017696Y004307D01*
X018586Y004307D01*
X018586Y004211D01*
X018666Y004131D01*
X018937Y004131D01*
X018924Y004108D01*
X018914Y004070D01*
X018914Y003824D01*
X019368Y003824D01*
X019368Y003724D01*
X018914Y003724D01*
X018914Y003479D01*
X018924Y003441D01*
X018944Y003407D01*
X018971Y003379D01*
X018915Y003474D02*
X016580Y003474D01*
X016580Y003375D02*
X016931Y003375D01*
X016833Y003277D02*
X016580Y003277D01*
X016580Y003178D02*
X016607Y003178D01*
X016515Y003572D02*
X018914Y003572D01*
X018914Y003671D02*
X016100Y003671D01*
X015847Y003671D02*
X006828Y003671D01*
X006827Y003670D02*
X006910Y003753D01*
X006955Y003861D01*
X006955Y003979D01*
X006910Y004087D01*
X006827Y004170D01*
X006719Y004215D01*
X006601Y004215D01*
X006493Y004170D01*
X006439Y004117D01*
X006427Y004117D01*
X006427Y004292D01*
X006347Y004372D01*
X005722Y004372D01*
X005660Y004310D01*
X005598Y004372D01*
X004973Y004372D01*
X004893Y004292D01*
X004893Y004117D01*
X002579Y004117D01*
X002463Y004001D01*
X001963Y003501D01*
X001963Y002605D01*
X001914Y002584D01*
X001793Y002462D01*
X001727Y002303D01*
X001727Y001537D01*
X001793Y001378D01*
X001914Y001256D01*
X002074Y001190D01*
X002246Y001190D01*
X002406Y001256D01*
X002527Y001378D01*
X002593Y001537D01*
X002593Y002303D01*
X002527Y002462D01*
X002406Y002584D01*
X002357Y002605D01*
X002357Y003339D01*
X002741Y003723D01*
X004893Y003723D01*
X004893Y003548D01*
X004973Y003468D01*
X005598Y003468D01*
X005660Y003530D01*
X005722Y003468D01*
X006347Y003468D01*
X006427Y003548D01*
X006427Y003723D01*
X006439Y003723D01*
X006493Y003670D01*
X006601Y003625D01*
X006719Y003625D01*
X006827Y003670D01*
X006917Y003769D02*
X019368Y003769D01*
X019368Y003824D02*
X019368Y004131D01*
X019370Y004131D01*
X019450Y004211D01*
X019450Y004915D01*
X019370Y004995D01*
X018666Y004995D01*
X018586Y004915D01*
X018586Y004820D01*
X017696Y004820D01*
X017696Y004875D01*
X017616Y004955D01*
X016991Y004955D01*
X016930Y004894D01*
X016868Y004955D01*
X016243Y004955D01*
X016163Y004875D01*
X016163Y004760D01*
X015921Y004760D01*
X016314Y005153D01*
X016532Y005153D01*
X016612Y005233D01*
X016612Y005371D01*
X016808Y005371D01*
X016885Y005294D01*
X017549Y005294D01*
X017629Y005374D01*
X017629Y005881D01*
X017549Y005961D01*
X016885Y005961D01*
X016808Y005884D01*
X016586Y005884D01*
X016550Y005920D01*
X016612Y005982D01*
X016612Y006221D01*
X017622Y006221D01*
X017663Y006238D01*
X017657Y006218D01*
X017657Y006050D01*
X018035Y006050D01*
X018035Y006349D01*
X017838Y006349D01*
X017892Y006402D01*
X018013Y006523D01*
X018077Y006676D01*
X018077Y006842D01*
X018047Y006915D01*
X018047Y006968D01*
X018547Y006968D01*
X018612Y007033D01*
X018695Y007033D01*
X018695Y006844D01*
X019110Y006844D01*
X019110Y007200D01*
X018995Y007200D01*
X018995Y007208D01*
X019030Y007243D01*
X021782Y007243D01*
X022441Y006584D01*
X022595Y006521D01*
X022760Y006521D01*
X022791Y006533D01*
X023027Y006533D01*
X023027Y006450D01*
X023027Y006527D02*
X022775Y006527D01*
X022580Y006527D02*
X020612Y006527D01*
X020612Y007020D02*
X020882Y007020D01*
X020940Y007118D02*
X020600Y007118D01*
X021221Y006626D02*
X022400Y006626D01*
X022302Y006724D02*
X021382Y006724D01*
X021439Y006823D02*
X022203Y006823D01*
X022105Y006921D02*
X021455Y006921D01*
X021438Y007020D02*
X022006Y007020D01*
X021908Y007118D02*
X021380Y007118D01*
X021809Y007217D02*
X019003Y007217D01*
X019110Y007118D02*
X019210Y007118D01*
X019210Y007020D02*
X019110Y007020D01*
X019110Y006921D02*
X019210Y006921D01*
X019210Y006823D02*
X019708Y006823D01*
X019708Y006921D02*
X019625Y006921D01*
X019625Y007020D02*
X019708Y007020D01*
X019720Y007118D02*
X019609Y007118D01*
X019625Y006724D02*
X019708Y006724D01*
X019708Y006626D02*
X019625Y006626D01*
X019625Y006527D02*
X019708Y006527D01*
X019761Y006429D02*
X019577Y006429D01*
X019612Y006330D02*
X019708Y006330D01*
X019708Y005739D02*
X019612Y005739D01*
X019349Y005247D02*
X023527Y005247D01*
X023527Y005345D02*
X023627Y005345D01*
X023627Y005247D02*
X025693Y005247D01*
X025693Y005216D02*
X025179Y005216D01*
X025179Y004833D01*
X025190Y004795D01*
X025209Y004761D01*
X025237Y004733D01*
X025271Y004713D01*
X025310Y004703D01*
X025693Y004703D01*
X025693Y005216D01*
X025793Y005216D01*
X025793Y005316D01*
X026306Y005316D01*
X026306Y005700D01*
X026296Y005738D01*
X026276Y005772D01*
X026248Y005800D01*
X026214Y005820D01*
X026176Y005830D01*
X025793Y005830D01*
X025793Y005316D01*
X025693Y005316D01*
X025693Y005216D01*
X025693Y005148D02*
X025793Y005148D01*
X025793Y005216D02*
X025793Y004703D01*
X026176Y004703D01*
X026214Y004713D01*
X026248Y004733D01*
X026276Y004761D01*
X026296Y004795D01*
X026306Y004833D01*
X026306Y005216D01*
X025793Y005216D01*
X025793Y005247D02*
X026952Y005247D01*
X026952Y005345D02*
X026306Y005345D01*
X026306Y005444D02*
X026952Y005444D01*
X026952Y005542D02*
X026306Y005542D01*
X026306Y005641D02*
X026952Y005641D01*
X026952Y005739D02*
X026295Y005739D01*
X025793Y005739D02*
X025693Y005739D01*
X025693Y005830D02*
X025310Y005830D01*
X025271Y005820D01*
X025237Y005800D01*
X025209Y005772D01*
X025190Y005738D01*
X025179Y005700D01*
X025179Y005316D01*
X025693Y005316D01*
X025693Y005830D01*
X025693Y005641D02*
X025793Y005641D01*
X025793Y005542D02*
X025693Y005542D01*
X025693Y005444D02*
X025793Y005444D01*
X025793Y005345D02*
X025693Y005345D01*
X025693Y005050D02*
X025793Y005050D01*
X025793Y004951D02*
X025693Y004951D01*
X025693Y004853D02*
X025793Y004853D01*
X025793Y004754D02*
X025693Y004754D01*
X025216Y004754D02*
X024104Y004754D01*
X024141Y004853D02*
X025179Y004853D01*
X025179Y004951D02*
X024141Y004951D01*
X024141Y005050D02*
X025179Y005050D01*
X025179Y005148D02*
X024141Y005148D01*
X024141Y005345D02*
X025179Y005345D01*
X025179Y005444D02*
X024141Y005444D01*
X024141Y005542D02*
X025179Y005542D01*
X025179Y005641D02*
X024141Y005641D01*
X024130Y005739D02*
X025190Y005739D01*
X025214Y006429D02*
X024106Y006429D01*
X023627Y005739D02*
X023527Y005739D01*
X023527Y005641D02*
X023627Y005641D01*
X023627Y005542D02*
X023527Y005542D01*
X023527Y005444D02*
X023627Y005444D01*
X023627Y005148D02*
X023527Y005148D01*
X023527Y005050D02*
X023627Y005050D01*
X023627Y004951D02*
X023527Y004951D01*
X023527Y004853D02*
X023627Y004853D01*
X023627Y004754D02*
X023527Y004754D01*
X022871Y004163D02*
X026952Y004163D01*
X026952Y004065D02*
X024124Y004065D01*
X024254Y003966D02*
X026952Y003966D01*
X026952Y003868D02*
X024352Y003868D01*
X024412Y003769D02*
X026952Y003769D01*
X026952Y003671D02*
X024453Y003671D01*
X024494Y003572D02*
X026952Y003572D01*
X026952Y003474D02*
X024497Y003474D01*
X024497Y003375D02*
X026952Y003375D01*
X026952Y003277D02*
X024497Y003277D01*
X024460Y003178D02*
X026952Y003178D01*
X026952Y003080D02*
X024419Y003080D01*
X024368Y002981D02*
X026952Y002981D01*
X026952Y002883D02*
X024270Y002883D01*
X024164Y002784D02*
X026952Y002784D01*
X026952Y002686D02*
X023926Y002686D01*
X023019Y003375D02*
X022858Y003375D01*
X022921Y003474D02*
X023019Y003474D01*
X023023Y003572D02*
X022922Y003572D01*
X022922Y003671D02*
X023064Y003671D01*
X023105Y003769D02*
X022468Y003769D01*
X022468Y003671D02*
X022368Y003671D01*
X022368Y003769D02*
X021468Y003769D01*
X021468Y003671D02*
X021368Y003671D01*
X021368Y003769D02*
X020468Y003769D01*
X020468Y003671D02*
X020368Y003671D01*
X020368Y003769D02*
X019468Y003769D01*
X019468Y003824D02*
X019368Y003824D01*
X019368Y003868D02*
X019468Y003868D01*
X019468Y003824D02*
X019468Y004200D01*
X019792Y004200D01*
X019830Y004190D01*
X019864Y004170D01*
X019892Y004142D01*
X019912Y004108D01*
X019918Y004086D01*
X019924Y004108D01*
X019944Y004142D01*
X019971Y004170D01*
X019981Y004176D01*
X019981Y004176D01*
X019961Y004210D01*
X019951Y004248D01*
X019951Y004513D01*
X020346Y004513D01*
X020346Y004613D01*
X019951Y004613D01*
X019951Y004878D01*
X019961Y004916D01*
X019981Y004951D01*
X019414Y004951D01*
X019450Y004853D02*
X019951Y004853D01*
X019951Y004754D02*
X019450Y004754D01*
X019450Y004656D02*
X019951Y004656D01*
X019951Y004459D02*
X019450Y004459D01*
X019450Y004557D02*
X020346Y004557D01*
X020346Y004613D02*
X020346Y005008D01*
X020081Y005008D01*
X020043Y004998D01*
X020009Y004978D01*
X019981Y004951D01*
X020346Y004951D02*
X020446Y004951D01*
X020446Y005008D02*
X020446Y004613D01*
X020346Y004613D01*
X020346Y004656D02*
X020446Y004656D01*
X020446Y004754D02*
X020346Y004754D01*
X020346Y004853D02*
X020446Y004853D01*
X020446Y005008D02*
X020711Y005008D01*
X020749Y004998D01*
X020783Y004978D01*
X020811Y004951D01*
X020841Y004656D02*
X026952Y004656D01*
X026952Y004754D02*
X026269Y004754D01*
X026306Y004853D02*
X026952Y004853D01*
X026952Y004951D02*
X026306Y004951D01*
X026306Y005050D02*
X026952Y005050D01*
X026952Y005148D02*
X026306Y005148D01*
X026952Y004557D02*
X020446Y004557D01*
X020446Y004459D02*
X020346Y004459D01*
X020346Y004360D02*
X020446Y004360D01*
X020446Y004262D02*
X020346Y004262D01*
X020368Y004163D02*
X020446Y004163D01*
X020468Y004065D02*
X020368Y004065D01*
X020368Y003966D02*
X020468Y003966D01*
X020468Y003868D02*
X020368Y003868D01*
X020368Y003572D02*
X020468Y003572D01*
X020468Y003474D02*
X020368Y003474D01*
X020368Y003375D02*
X020468Y003375D01*
X019978Y003375D02*
X019858Y003375D01*
X019468Y003375D02*
X019368Y003375D01*
X019368Y003474D02*
X019468Y003474D01*
X019468Y003572D02*
X019368Y003572D01*
X019368Y003671D02*
X019468Y003671D01*
X019468Y003966D02*
X019368Y003966D01*
X019368Y004065D02*
X019468Y004065D01*
X019468Y004163D02*
X019402Y004163D01*
X019450Y004262D02*
X019951Y004262D01*
X019951Y004360D02*
X019450Y004360D01*
X019871Y004163D02*
X019964Y004163D01*
X020841Y004262D02*
X026952Y004262D01*
X026952Y004360D02*
X020841Y004360D01*
X020841Y004459D02*
X026952Y004459D01*
X026952Y006429D02*
X026271Y006429D01*
X026293Y006527D02*
X026952Y006527D01*
X026952Y006626D02*
X026293Y006626D01*
X026293Y006724D02*
X026952Y006724D01*
X026952Y006823D02*
X026293Y006823D01*
X026293Y006921D02*
X026952Y006921D01*
X026952Y007020D02*
X026293Y007020D01*
X026293Y007118D02*
X026952Y007118D01*
X026952Y007217D02*
X026293Y007217D01*
X026293Y007315D02*
X026952Y007315D01*
X026952Y007414D02*
X026269Y007414D01*
X026213Y008024D02*
X025273Y008024D01*
X025193Y008104D01*
X025193Y008817D01*
X024943Y009066D01*
X024943Y012330D01*
X023943Y013330D01*
X023943Y018203D01*
X022250Y018203D01*
X022059Y018013D01*
X022123Y017949D01*
X022123Y017324D01*
X022061Y017263D01*
X022123Y017201D01*
X022123Y016576D01*
X022043Y016496D01*
X021888Y016496D01*
X021888Y016384D01*
X022023Y016384D01*
X022103Y016304D01*
X022103Y015600D01*
X022023Y015520D01*
X021319Y015520D01*
X021239Y015600D01*
X021239Y016304D01*
X021319Y016384D01*
X021454Y016384D01*
X021454Y016496D01*
X021299Y016496D01*
X021219Y016576D01*
X021219Y017201D01*
X021281Y017263D01*
X021219Y017324D01*
X021219Y017949D01*
X021299Y018029D01*
X021463Y018029D01*
X021943Y018510D01*
X022070Y018637D01*
X024250Y018637D01*
X024377Y018510D01*
X024377Y013510D01*
X025250Y012637D01*
X025377Y012510D01*
X025377Y009246D01*
X025499Y009124D01*
X026213Y009124D01*
X026293Y009044D01*
X026293Y008104D01*
X026213Y008024D01*
X026292Y008103D02*
X026952Y008103D01*
X026952Y008005D02*
X022877Y008005D01*
X022877Y008103D02*
X023028Y008103D01*
X023027Y008104D02*
X023107Y008024D01*
X024047Y008024D01*
X024127Y008104D01*
X024127Y009044D01*
X024047Y009124D01*
X023107Y009124D01*
X023027Y009044D01*
X023027Y008104D01*
X023027Y008202D02*
X022877Y008202D01*
X022877Y008300D02*
X023027Y008300D01*
X023027Y008399D02*
X022877Y008399D01*
X022877Y008497D02*
X023027Y008497D01*
X023027Y008596D02*
X022877Y008596D01*
X022877Y008694D02*
X023027Y008694D01*
X023027Y008793D02*
X022877Y008793D01*
X022877Y008891D02*
X023027Y008891D01*
X023027Y008990D02*
X022877Y008990D01*
X022877Y009088D02*
X023072Y009088D01*
X022877Y009187D02*
X024943Y009187D01*
X024943Y009285D02*
X022877Y009285D01*
X022877Y009384D02*
X024943Y009384D01*
X024943Y009482D02*
X022877Y009482D01*
X022877Y009581D02*
X024943Y009581D01*
X024943Y009679D02*
X022877Y009679D01*
X022877Y009778D02*
X023388Y009778D01*
X023340Y009797D02*
X023611Y009685D01*
X023905Y009685D01*
X024177Y009797D01*
X024385Y010005D01*
X024497Y010277D01*
X024497Y010571D01*
X024385Y010843D01*
X024177Y011050D01*
X023905Y011163D01*
X023611Y011163D01*
X023340Y011050D01*
X023132Y010843D01*
X023019Y010571D01*
X023019Y010277D01*
X023132Y010005D01*
X023340Y009797D01*
X023261Y009876D02*
X022877Y009876D01*
X022877Y009975D02*
X023163Y009975D01*
X023104Y010073D02*
X022877Y010073D01*
X022877Y010172D02*
X023063Y010172D01*
X023022Y010270D02*
X022877Y010270D01*
X022877Y010369D02*
X023019Y010369D01*
X023019Y010467D02*
X022877Y010467D01*
X022877Y010566D02*
X023019Y010566D01*
X023058Y010664D02*
X022877Y010664D01*
X022877Y010763D02*
X023099Y010763D01*
X023150Y010861D02*
X022877Y010861D01*
X022877Y010960D02*
X023249Y010960D01*
X023358Y011058D02*
X022877Y011058D01*
X022877Y011157D02*
X023596Y011157D01*
X023921Y011157D02*
X024943Y011157D01*
X024943Y011255D02*
X022877Y011255D01*
X022900Y011354D02*
X024943Y011354D01*
X024943Y011452D02*
X022998Y011452D01*
X023097Y011551D02*
X024943Y011551D01*
X024943Y011649D02*
X023195Y011649D01*
X023294Y011748D02*
X024943Y011748D01*
X024943Y011846D02*
X023392Y011846D01*
X023491Y011945D02*
X024943Y011945D01*
X024943Y012043D02*
X023589Y012043D01*
X023688Y012142D02*
X024943Y012142D01*
X024943Y012240D02*
X023786Y012240D01*
X023750Y012203D02*
X023750Y012203D01*
X023877Y012339D02*
X024935Y012339D01*
X024837Y012437D02*
X023877Y012437D01*
X023877Y012536D02*
X024738Y012536D01*
X024640Y012634D02*
X023877Y012634D01*
X023877Y012733D02*
X024541Y012733D01*
X024443Y012831D02*
X023877Y012831D01*
X023877Y012930D02*
X024344Y012930D01*
X024246Y013028D02*
X023877Y013028D01*
X023877Y013127D02*
X024147Y013127D01*
X024049Y013225D02*
X023877Y013225D01*
X023877Y013324D02*
X023950Y013324D01*
X023943Y013422D02*
X023877Y013422D01*
X023877Y013521D02*
X023943Y013521D01*
X023943Y013619D02*
X023877Y013619D01*
X023877Y013718D02*
X023943Y013718D01*
X023943Y013816D02*
X023877Y013816D01*
X023877Y013915D02*
X023943Y013915D01*
X023943Y014013D02*
X023877Y014013D01*
X023877Y014112D02*
X023943Y014112D01*
X023943Y014210D02*
X023877Y014210D01*
X023877Y014309D02*
X023943Y014309D01*
X023943Y014407D02*
X023877Y014407D01*
X023877Y014506D02*
X023943Y014506D01*
X023943Y014604D02*
X023877Y014604D01*
X023877Y014703D02*
X023943Y014703D01*
X023943Y014801D02*
X023877Y014801D01*
X023877Y014900D02*
X023943Y014900D01*
X023943Y014998D02*
X023877Y014998D01*
X023877Y015097D02*
X023943Y015097D01*
X023943Y015195D02*
X023877Y015195D01*
X023877Y015294D02*
X023943Y015294D01*
X023943Y015392D02*
X023877Y015392D01*
X023877Y015491D02*
X023943Y015491D01*
X023943Y015589D02*
X023877Y015589D01*
X023877Y015688D02*
X023943Y015688D01*
X023943Y015786D02*
X023877Y015786D01*
X023877Y015885D02*
X023943Y015885D01*
X023943Y015983D02*
X023877Y015983D01*
X023877Y016082D02*
X023943Y016082D01*
X023943Y016180D02*
X023877Y016180D01*
X023877Y016279D02*
X023943Y016279D01*
X023943Y016377D02*
X023877Y016377D01*
X023877Y016476D02*
X023943Y016476D01*
X023943Y016574D02*
X023877Y016574D01*
X023877Y016673D02*
X023943Y016673D01*
X023943Y016771D02*
X023877Y016771D01*
X023877Y016870D02*
X023943Y016870D01*
X023943Y016968D02*
X023877Y016968D01*
X023877Y017067D02*
X023943Y017067D01*
X023943Y017165D02*
X023877Y017165D01*
X023877Y017264D02*
X023943Y017264D01*
X023943Y017362D02*
X023877Y017362D01*
X023877Y017461D02*
X023943Y017461D01*
X023943Y017559D02*
X023877Y017559D01*
X023877Y017658D02*
X023943Y017658D01*
X023943Y017756D02*
X023847Y017756D01*
X023943Y017855D02*
X023123Y017855D01*
X023119Y017953D02*
X023943Y017953D01*
X023943Y018052D02*
X022098Y018052D01*
X022119Y017953D02*
X022223Y017953D01*
X022219Y017855D02*
X022123Y017855D01*
X022123Y017756D02*
X022219Y017756D01*
X022219Y017658D02*
X022123Y017658D01*
X022123Y017559D02*
X022219Y017559D01*
X022219Y017461D02*
X022123Y017461D01*
X022123Y017362D02*
X022219Y017362D01*
X022280Y017264D02*
X022062Y017264D01*
X022123Y017165D02*
X022219Y017165D01*
X022219Y017067D02*
X022123Y017067D01*
X022123Y016968D02*
X022219Y016968D01*
X022219Y016870D02*
X022123Y016870D01*
X022123Y016771D02*
X022219Y016771D01*
X022219Y016673D02*
X022123Y016673D01*
X022120Y016574D02*
X022222Y016574D01*
X022312Y016377D02*
X022030Y016377D01*
X022103Y016279D02*
X022239Y016279D01*
X022239Y016180D02*
X022103Y016180D01*
X022103Y016082D02*
X022239Y016082D01*
X022239Y015983D02*
X022103Y015983D01*
X022103Y015885D02*
X022239Y015885D01*
X022239Y015786D02*
X022103Y015786D01*
X022103Y015688D02*
X022239Y015688D01*
X022250Y015589D02*
X022092Y015589D01*
X021986Y015019D02*
X021721Y015019D01*
X021721Y014624D01*
X021621Y014624D01*
X021621Y015019D01*
X021356Y015019D01*
X021318Y015009D01*
X021284Y014989D01*
X021256Y014961D01*
X021236Y014927D01*
X021226Y014889D01*
X021226Y014624D01*
X021621Y014624D01*
X021621Y014524D01*
X021226Y014524D01*
X021226Y014259D01*
X021236Y014221D01*
X021256Y014187D01*
X021284Y014159D01*
X021318Y014139D01*
X021356Y014129D01*
X021621Y014129D01*
X021621Y014524D01*
X021721Y014524D01*
X021721Y014624D01*
X022116Y014624D01*
X022116Y014889D01*
X022106Y014927D01*
X022086Y014961D01*
X022058Y014989D01*
X022024Y015009D01*
X021986Y015019D01*
X022043Y014998D02*
X022299Y014998D01*
X022284Y014989D02*
X022256Y014961D01*
X022236Y014927D01*
X022226Y014889D01*
X022226Y014624D01*
X022621Y014624D01*
X022621Y015019D01*
X022356Y015019D01*
X022318Y015009D01*
X022284Y014989D01*
X022229Y014900D02*
X022113Y014900D01*
X022116Y014801D02*
X022226Y014801D01*
X022226Y014703D02*
X022116Y014703D01*
X022116Y014524D02*
X021721Y014524D01*
X021721Y014129D01*
X021986Y014129D01*
X022024Y014139D01*
X022058Y014159D01*
X022086Y014187D01*
X022106Y014221D01*
X022116Y014259D01*
X022116Y014524D01*
X022116Y014506D02*
X022226Y014506D01*
X022226Y014524D02*
X022226Y014259D01*
X022236Y014221D01*
X022256Y014187D01*
X022284Y014159D01*
X022318Y014139D01*
X022356Y014129D01*
X022621Y014129D01*
X022621Y014524D01*
X022226Y014524D01*
X022226Y014407D02*
X022116Y014407D01*
X022116Y014309D02*
X022226Y014309D01*
X022242Y014210D02*
X022100Y014210D01*
X021721Y014210D02*
X021621Y014210D01*
X021621Y014309D02*
X021721Y014309D01*
X021721Y014407D02*
X021621Y014407D01*
X021621Y014506D02*
X021721Y014506D01*
X021721Y014604D02*
X022621Y014604D01*
X022621Y014624D02*
X022621Y014524D01*
X022721Y014524D01*
X022721Y014624D01*
X022621Y014624D01*
X022621Y014703D02*
X022721Y014703D01*
X022721Y014624D02*
X022721Y015019D01*
X022986Y015019D01*
X023024Y015009D01*
X023058Y014989D01*
X023086Y014961D01*
X023106Y014927D01*
X023116Y014889D01*
X023116Y014624D01*
X022721Y014624D01*
X022721Y014604D02*
X023443Y014604D01*
X023443Y014506D02*
X023116Y014506D01*
X023116Y014524D02*
X022721Y014524D01*
X022721Y014129D01*
X022986Y014129D01*
X023024Y014139D01*
X023058Y014159D01*
X023086Y014187D01*
X023106Y014221D01*
X023116Y014259D01*
X023116Y014524D01*
X023116Y014407D02*
X023443Y014407D01*
X023443Y014309D02*
X023116Y014309D01*
X023100Y014210D02*
X023443Y014210D01*
X023443Y014112D02*
X020612Y014112D01*
X020612Y014210D02*
X021242Y014210D01*
X021226Y014309D02*
X020612Y014309D01*
X020612Y014358D02*
X020550Y014420D01*
X020612Y014482D01*
X020612Y014815D01*
X020921Y015125D01*
X020969Y015125D01*
X021077Y015170D01*
X021160Y015253D01*
X021205Y015361D01*
X021205Y015479D01*
X021160Y015587D01*
X021077Y015670D01*
X020969Y015715D01*
X020851Y015715D01*
X020743Y015670D01*
X020660Y015587D01*
X020615Y015479D01*
X020615Y015431D01*
X020370Y015187D01*
X019788Y015187D01*
X019708Y015107D01*
X019708Y014482D01*
X019770Y014420D01*
X019708Y014358D01*
X019708Y014303D01*
X019612Y014303D01*
X019612Y014358D01*
X019557Y014413D01*
X019567Y014418D01*
X019595Y014446D01*
X019615Y014480D01*
X019625Y014518D01*
X019625Y014744D01*
X019210Y014744D01*
X019210Y014844D01*
X019625Y014844D01*
X019625Y015070D01*
X019615Y015108D01*
X019595Y015142D01*
X019567Y015170D01*
X019533Y015190D01*
X019495Y015200D01*
X019210Y015200D01*
X019210Y014844D01*
X019110Y014844D01*
X019110Y014744D01*
X018695Y014744D01*
X018695Y014518D01*
X018705Y014480D01*
X018725Y014446D01*
X018753Y014418D01*
X018763Y014413D01*
X018708Y014358D01*
X018708Y013733D01*
X018788Y013653D01*
X018903Y013653D01*
X018903Y013526D01*
X018887Y013510D01*
X018492Y013510D01*
X018415Y013587D01*
X017751Y013587D01*
X017671Y013507D01*
X017671Y013000D01*
X017751Y012920D01*
X018415Y012920D01*
X018492Y012997D01*
X019045Y012997D01*
X019139Y013036D01*
X019378Y013275D01*
X019417Y013369D01*
X019417Y013653D01*
X019532Y013653D01*
X019612Y013733D01*
X019612Y013789D01*
X019708Y013789D01*
X019708Y013733D01*
X019788Y013653D01*
X020532Y013653D01*
X020612Y013733D01*
X020612Y014358D01*
X020563Y014407D02*
X021226Y014407D01*
X021226Y014506D02*
X020612Y014506D01*
X020612Y014604D02*
X021621Y014604D01*
X021621Y014703D02*
X021721Y014703D01*
X021721Y014801D02*
X021621Y014801D01*
X021621Y014900D02*
X021721Y014900D01*
X021721Y014998D02*
X021621Y014998D01*
X021299Y014998D02*
X020794Y014998D01*
X020696Y014900D02*
X021229Y014900D01*
X021226Y014801D02*
X020612Y014801D01*
X020612Y014703D02*
X021226Y014703D01*
X020893Y015097D02*
X023443Y015097D01*
X023443Y015195D02*
X021103Y015195D01*
X021177Y015294D02*
X023443Y015294D01*
X023443Y015392D02*
X021205Y015392D01*
X021200Y015491D02*
X023443Y015491D01*
X023443Y015589D02*
X023092Y015589D01*
X023103Y015688D02*
X023443Y015688D01*
X023443Y015786D02*
X023103Y015786D01*
X023103Y015885D02*
X023443Y015885D01*
X023443Y015983D02*
X023103Y015983D01*
X023103Y016082D02*
X023443Y016082D01*
X023443Y016180D02*
X023103Y016180D01*
X023103Y016279D02*
X023443Y016279D01*
X023443Y016377D02*
X023030Y016377D01*
X022888Y016476D02*
X023443Y016476D01*
X023443Y016574D02*
X023120Y016574D01*
X023123Y016673D02*
X023443Y016673D01*
X023443Y016771D02*
X023123Y016771D01*
X023123Y016870D02*
X023443Y016870D01*
X023443Y016968D02*
X023123Y016968D01*
X023123Y017067D02*
X023443Y017067D01*
X023443Y017165D02*
X023123Y017165D01*
X023062Y017264D02*
X023443Y017264D01*
X023443Y017362D02*
X023123Y017362D01*
X022454Y016476D02*
X021888Y016476D01*
X021454Y016476D02*
X020841Y016476D01*
X020841Y016574D02*
X021222Y016574D01*
X021219Y016673D02*
X020827Y016673D01*
X020831Y016666D02*
X020811Y016701D01*
X020783Y016728D01*
X020749Y016748D01*
X020711Y016758D01*
X020446Y016758D01*
X020446Y016363D01*
X020841Y016363D01*
X020841Y016628D01*
X020831Y016666D01*
X020596Y016968D02*
X021219Y016968D01*
X021219Y016870D02*
X019222Y016870D01*
X019103Y016771D02*
X021219Y016771D01*
X021219Y017067D02*
X020612Y017067D01*
X020612Y017165D02*
X021219Y017165D01*
X021280Y017264D02*
X020612Y017264D01*
X020612Y017362D02*
X021219Y017362D01*
X021219Y017461D02*
X020612Y017461D01*
X020612Y017559D02*
X021219Y017559D01*
X021219Y017658D02*
X020563Y017658D01*
X020612Y017756D02*
X021219Y017756D01*
X021219Y017855D02*
X020612Y017855D01*
X020612Y017953D02*
X021223Y017953D01*
X021485Y018052D02*
X020612Y018052D01*
X020612Y018150D02*
X021584Y018150D01*
X021682Y018249D02*
X020671Y018249D01*
X020769Y018347D02*
X021781Y018347D01*
X021879Y018446D02*
X020868Y018446D01*
X020877Y018544D02*
X021978Y018544D01*
X022196Y018150D02*
X023943Y018150D01*
X024377Y018150D02*
X025952Y018150D01*
X025952Y018052D02*
X024377Y018052D01*
X024377Y017953D02*
X025952Y017953D01*
X025952Y017855D02*
X024377Y017855D01*
X024377Y017756D02*
X025952Y017756D01*
X025952Y017658D02*
X024377Y017658D01*
X024377Y017559D02*
X025952Y017559D01*
X025952Y017461D02*
X024377Y017461D01*
X024377Y017362D02*
X025952Y017362D01*
X025952Y017264D02*
X024377Y017264D01*
X024377Y017165D02*
X025952Y017165D01*
X025952Y017067D02*
X024377Y017067D01*
X024377Y016968D02*
X025952Y016968D01*
X025952Y016870D02*
X024377Y016870D01*
X024377Y016771D02*
X025952Y016771D01*
X025952Y016673D02*
X024377Y016673D01*
X024377Y016574D02*
X025952Y016574D01*
X025952Y016476D02*
X024377Y016476D01*
X024377Y016377D02*
X025952Y016377D01*
X026007Y016279D02*
X024377Y016279D01*
X024377Y016180D02*
X026105Y016180D01*
X026204Y016082D02*
X024377Y016082D01*
X024377Y015983D02*
X026302Y015983D01*
X026401Y015885D02*
X024377Y015885D01*
X024377Y015786D02*
X026499Y015786D01*
X026598Y015688D02*
X024377Y015688D01*
X024377Y015589D02*
X026696Y015589D01*
X026795Y015491D02*
X024377Y015491D01*
X024377Y015392D02*
X026893Y015392D01*
X026952Y015294D02*
X024377Y015294D01*
X024377Y015195D02*
X026952Y015195D01*
X026952Y015097D02*
X024377Y015097D01*
X024377Y014998D02*
X026952Y014998D01*
X026952Y014900D02*
X024377Y014900D01*
X024377Y014801D02*
X026952Y014801D01*
X026952Y014703D02*
X024377Y014703D01*
X024377Y014604D02*
X026952Y014604D01*
X026952Y014506D02*
X024377Y014506D01*
X024377Y014407D02*
X026952Y014407D01*
X026952Y014309D02*
X024377Y014309D01*
X024377Y014210D02*
X026952Y014210D01*
X026952Y014112D02*
X024377Y014112D01*
X024377Y014013D02*
X026952Y014013D01*
X026952Y013915D02*
X024377Y013915D01*
X024377Y013816D02*
X026952Y013816D01*
X026952Y013718D02*
X024377Y013718D01*
X024377Y013619D02*
X026952Y013619D01*
X026952Y013521D02*
X024377Y013521D01*
X024464Y013422D02*
X026952Y013422D01*
X026952Y013324D02*
X024563Y013324D01*
X024661Y013225D02*
X026952Y013225D01*
X026952Y013127D02*
X024760Y013127D01*
X024858Y013028D02*
X026952Y013028D01*
X026952Y012930D02*
X024957Y012930D01*
X025055Y012831D02*
X026952Y012831D01*
X026952Y012733D02*
X025154Y012733D01*
X025252Y012634D02*
X026952Y012634D01*
X026952Y012536D02*
X025351Y012536D01*
X025377Y012437D02*
X026952Y012437D01*
X026952Y012339D02*
X025377Y012339D01*
X025377Y012240D02*
X026952Y012240D01*
X026952Y012142D02*
X025377Y012142D01*
X025377Y012043D02*
X026952Y012043D01*
X026952Y011945D02*
X025377Y011945D01*
X025377Y011846D02*
X026952Y011846D01*
X026952Y011748D02*
X025377Y011748D01*
X025377Y011649D02*
X026952Y011649D01*
X026952Y011551D02*
X025377Y011551D01*
X025377Y011452D02*
X026952Y011452D01*
X026952Y011354D02*
X025377Y011354D01*
X025377Y011255D02*
X026952Y011255D01*
X026952Y011157D02*
X025377Y011157D01*
X025377Y011058D02*
X026952Y011058D01*
X026952Y010960D02*
X025377Y010960D01*
X025377Y010861D02*
X026952Y010861D01*
X026952Y010763D02*
X025377Y010763D01*
X025377Y010664D02*
X026952Y010664D01*
X026952Y010566D02*
X025377Y010566D01*
X025377Y010467D02*
X026952Y010467D01*
X026952Y010369D02*
X025377Y010369D01*
X025377Y010270D02*
X026952Y010270D01*
X026952Y010172D02*
X025377Y010172D01*
X025377Y010073D02*
X026952Y010073D01*
X026952Y009975D02*
X025377Y009975D01*
X025377Y009876D02*
X026952Y009876D01*
X026952Y009778D02*
X025377Y009778D01*
X025377Y009679D02*
X026952Y009679D01*
X026952Y009581D02*
X025377Y009581D01*
X025377Y009482D02*
X026952Y009482D01*
X026952Y009384D02*
X025377Y009384D01*
X025377Y009285D02*
X026952Y009285D01*
X026952Y009187D02*
X025436Y009187D01*
X025119Y008891D02*
X024127Y008891D01*
X024127Y008793D02*
X025193Y008793D01*
X025193Y008694D02*
X024127Y008694D01*
X024127Y008596D02*
X025193Y008596D01*
X025193Y008497D02*
X024127Y008497D01*
X024127Y008399D02*
X025193Y008399D01*
X025193Y008300D02*
X024127Y008300D01*
X024127Y008202D02*
X025193Y008202D01*
X025193Y008103D02*
X024127Y008103D01*
X024104Y007414D02*
X025216Y007414D01*
X026293Y008202D02*
X026952Y008202D01*
X026952Y008300D02*
X026293Y008300D01*
X026293Y008399D02*
X026952Y008399D01*
X026952Y008497D02*
X026293Y008497D01*
X026293Y008596D02*
X026952Y008596D01*
X026952Y008694D02*
X026293Y008694D01*
X026293Y008793D02*
X026952Y008793D01*
X026952Y008891D02*
X026293Y008891D01*
X026293Y008990D02*
X026952Y008990D01*
X026952Y009088D02*
X026248Y009088D01*
X025020Y008990D02*
X024127Y008990D01*
X024083Y009088D02*
X024943Y009088D01*
X024943Y009778D02*
X024129Y009778D01*
X024256Y009876D02*
X024943Y009876D01*
X024943Y009975D02*
X024354Y009975D01*
X024413Y010073D02*
X024943Y010073D01*
X024943Y010172D02*
X024454Y010172D01*
X024495Y010270D02*
X024943Y010270D01*
X024943Y010369D02*
X024497Y010369D01*
X024497Y010467D02*
X024943Y010467D01*
X024943Y010566D02*
X024497Y010566D01*
X024459Y010664D02*
X024943Y010664D01*
X024943Y010763D02*
X024418Y010763D01*
X024366Y010861D02*
X024943Y010861D01*
X024943Y010960D02*
X024268Y010960D01*
X024159Y011058D02*
X024943Y011058D01*
X023371Y012437D02*
X020841Y012437D01*
X020841Y012513D02*
X020841Y012248D01*
X020831Y012210D01*
X020811Y012176D01*
X020783Y012148D01*
X020749Y012128D01*
X020711Y012118D01*
X020446Y012118D01*
X020446Y012513D01*
X020346Y012513D01*
X020346Y012118D01*
X020081Y012118D01*
X020043Y012128D01*
X020009Y012148D01*
X019981Y012176D01*
X019961Y012210D01*
X019951Y012248D01*
X019951Y012513D01*
X020346Y012513D01*
X020346Y012613D01*
X019951Y012613D01*
X019951Y012878D01*
X019961Y012916D01*
X019981Y012951D01*
X020009Y012978D01*
X020043Y012998D01*
X020081Y013008D01*
X020346Y013008D01*
X020346Y012613D01*
X020446Y012613D01*
X020841Y012613D01*
X020841Y012878D01*
X020831Y012916D01*
X020811Y012951D01*
X020783Y012978D01*
X020749Y012998D01*
X020711Y013008D01*
X020446Y013008D01*
X020446Y012613D01*
X020446Y012513D01*
X020841Y012513D01*
X020841Y012634D02*
X023443Y012634D01*
X023443Y012536D02*
X020446Y012536D01*
X020446Y012634D02*
X020346Y012634D01*
X020346Y012536D02*
X019450Y012536D01*
X019450Y012634D02*
X019951Y012634D01*
X019951Y012733D02*
X019450Y012733D01*
X019450Y012831D02*
X019951Y012831D01*
X019969Y012930D02*
X019435Y012930D01*
X019450Y012915D02*
X019370Y012995D01*
X018666Y012995D01*
X018586Y012915D01*
X018586Y012820D01*
X017696Y012820D01*
X017696Y012875D01*
X017616Y012955D01*
X016991Y012955D01*
X016930Y012894D01*
X016868Y012955D01*
X016243Y012955D01*
X016163Y012875D01*
X016163Y012760D01*
X015921Y012760D01*
X016314Y013153D01*
X016532Y013153D01*
X016612Y013233D01*
X016612Y013371D01*
X016808Y013371D01*
X016885Y013294D01*
X017549Y013294D01*
X017629Y013374D01*
X017629Y013881D01*
X017549Y013961D01*
X016885Y013961D01*
X016808Y013884D01*
X016586Y013884D01*
X016550Y013920D01*
X016612Y013982D01*
X016612Y014221D01*
X017622Y014221D01*
X017663Y014238D01*
X017657Y014218D01*
X017657Y014050D01*
X018035Y014050D01*
X018035Y014349D01*
X017838Y014349D01*
X017892Y014402D01*
X018013Y014523D01*
X018077Y014676D01*
X018077Y014842D01*
X018047Y014915D01*
X018047Y014968D01*
X018547Y014968D01*
X018612Y015033D01*
X018695Y015033D01*
X018695Y014844D01*
X019110Y014844D01*
X019110Y015200D01*
X018995Y015200D01*
X018995Y015218D01*
X019047Y015343D01*
X019047Y015497D01*
X018995Y015622D01*
X018995Y015675D01*
X018915Y015755D01*
X018862Y015755D01*
X018737Y015807D01*
X018612Y015807D01*
X018547Y015872D01*
X017973Y015872D01*
X017960Y015858D01*
X017947Y015872D01*
X017373Y015872D01*
X017360Y015858D01*
X017347Y015872D01*
X016773Y015872D01*
X016708Y015807D01*
X016333Y015807D01*
X016208Y015755D01*
X016155Y015755D01*
X016075Y015675D01*
X016075Y015622D01*
X016023Y015497D01*
X016023Y015343D01*
X016075Y015218D01*
X016075Y015165D01*
X016155Y015085D01*
X016208Y015085D01*
X016282Y015054D01*
X015965Y015054D01*
X015953Y015082D01*
X015822Y015213D01*
X015650Y015284D01*
X014457Y015284D01*
X014285Y015213D01*
X014223Y015151D01*
X014178Y015151D01*
X014098Y015071D01*
X014098Y014947D01*
X014083Y014910D01*
X014083Y014725D01*
X014098Y014689D01*
X014098Y014564D01*
X014178Y014484D01*
X014223Y014484D01*
X014285Y014422D01*
X014457Y014351D01*
X015255Y014351D01*
X015322Y014285D01*
X015475Y014221D01*
X015695Y014221D01*
X015695Y014217D01*
X015708Y014184D01*
X015708Y013982D01*
X015770Y013920D01*
X015708Y013858D01*
X015708Y013641D01*
X015476Y013409D01*
X014473Y013409D01*
X014345Y013356D01*
X014178Y013356D01*
X014098Y013276D01*
X014098Y012769D01*
X014178Y012689D01*
X014345Y012689D01*
X014473Y012636D01*
X014919Y012636D01*
X014729Y012446D01*
X013347Y012446D01*
X013347Y015497D01*
X013237Y015607D01*
X009583Y015607D01*
X009473Y015497D01*
X009473Y015307D01*
X009135Y015307D01*
X009135Y015449D01*
X009055Y015529D01*
X007997Y015529D01*
X007917Y015449D01*
X007917Y014391D01*
X007997Y014311D01*
X009055Y014311D01*
X009135Y014391D01*
X009135Y014533D01*
X009159Y014533D01*
X009159Y014231D01*
X009114Y014185D01*
X009114Y012655D01*
X009194Y012575D01*
X009473Y012575D01*
X009473Y012446D01*
X008496Y012446D01*
X008206Y012737D01*
X008206Y014185D01*
X008126Y014265D01*
X007963Y014265D01*
X007938Y014275D01*
X007872Y014305D01*
X007867Y014305D01*
X007863Y014307D01*
X007791Y014307D01*
X007718Y014308D01*
X007714Y014307D01*
X007320Y014307D01*
X007324Y014308D01*
X007358Y014328D01*
X007386Y014355D01*
X007406Y014390D01*
X007416Y014428D01*
X007416Y014870D01*
X006844Y014870D01*
X006844Y014970D01*
X007416Y014970D01*
X007416Y015412D01*
X007406Y015450D01*
X007386Y015485D01*
X007358Y015512D01*
X007324Y015532D01*
X007286Y015542D01*
X006844Y015542D01*
X006844Y014970D01*
X006744Y014970D01*
X006744Y015542D01*
X006302Y015542D01*
X006264Y015532D01*
X006229Y015512D01*
X006201Y015485D01*
X006182Y015450D01*
X006171Y015412D01*
X006171Y014970D01*
X006744Y014970D01*
X006744Y014870D01*
X006171Y014870D01*
X006171Y014428D01*
X006182Y014390D01*
X006201Y014355D01*
X006229Y014328D01*
X006264Y014308D01*
X006268Y014307D01*
X004962Y014307D01*
X004884Y014386D01*
X004682Y014469D01*
X003638Y014469D01*
X003436Y014386D01*
X003282Y014231D01*
X003198Y014029D01*
X003198Y013811D01*
X003282Y013609D01*
X003436Y013454D01*
X003638Y013371D01*
X004682Y013371D01*
X004884Y013454D01*
X004962Y013533D01*
X007342Y013533D01*
X007342Y012655D01*
X007422Y012575D01*
X007642Y012575D01*
X008245Y011972D01*
X008339Y011933D01*
X014887Y011933D01*
X014981Y011972D01*
X015053Y012045D01*
X015256Y012247D01*
X016163Y012247D01*
X016163Y012132D01*
X016243Y012052D01*
X016868Y012052D01*
X016930Y012114D01*
X016991Y012052D01*
X017616Y012052D01*
X017696Y012132D01*
X017696Y012307D01*
X018586Y012307D01*
X018586Y012211D01*
X018666Y012131D01*
X019370Y012131D01*
X019450Y012211D01*
X019450Y012915D01*
X019229Y013127D02*
X023443Y013127D01*
X023443Y013225D02*
X019328Y013225D01*
X019398Y013324D02*
X023443Y013324D01*
X023443Y013422D02*
X019417Y013422D01*
X019417Y013521D02*
X023443Y013521D01*
X023443Y013619D02*
X019417Y013619D01*
X019596Y013718D02*
X019724Y013718D01*
X019708Y014309D02*
X019612Y014309D01*
X019563Y014407D02*
X019757Y014407D01*
X019708Y014506D02*
X019622Y014506D01*
X019625Y014604D02*
X019708Y014604D01*
X019708Y014703D02*
X019625Y014703D01*
X019708Y014801D02*
X019210Y014801D01*
X019210Y014900D02*
X019110Y014900D01*
X019110Y014998D02*
X019210Y014998D01*
X019210Y015097D02*
X019110Y015097D01*
X019110Y015195D02*
X019210Y015195D01*
X019026Y015294D02*
X020477Y015294D01*
X020576Y015392D02*
X019047Y015392D01*
X019047Y015491D02*
X020620Y015491D01*
X020661Y015589D02*
X019008Y015589D01*
X018982Y015688D02*
X020784Y015688D01*
X020749Y015878D02*
X020783Y015898D01*
X020811Y015926D01*
X020831Y015960D01*
X020841Y015998D01*
X020841Y016263D01*
X020446Y016263D01*
X020446Y015868D01*
X020711Y015868D01*
X020749Y015878D01*
X020760Y015885D02*
X021239Y015885D01*
X021239Y015983D02*
X020837Y015983D01*
X020841Y016082D02*
X021239Y016082D01*
X021239Y016180D02*
X020841Y016180D01*
X020841Y016377D02*
X021312Y016377D01*
X021239Y016279D02*
X020446Y016279D01*
X020446Y016263D02*
X020446Y016363D01*
X020346Y016363D01*
X020346Y016263D01*
X020446Y016263D01*
X020446Y016180D02*
X020346Y016180D01*
X020346Y016263D02*
X020346Y015868D01*
X020081Y015868D01*
X020043Y015878D01*
X020009Y015898D01*
X019981Y015926D01*
X019961Y015960D01*
X019951Y015998D01*
X019951Y016263D01*
X020346Y016263D01*
X020346Y016279D02*
X019450Y016279D01*
X019450Y016377D02*
X019951Y016377D01*
X019951Y016363D02*
X020346Y016363D01*
X020346Y016758D01*
X020081Y016758D01*
X020043Y016748D01*
X020009Y016728D01*
X019981Y016701D01*
X019961Y016666D01*
X019951Y016628D01*
X019951Y016363D01*
X019951Y016476D02*
X019450Y016476D01*
X019450Y016574D02*
X019951Y016574D01*
X019965Y016673D02*
X019442Y016673D01*
X019450Y016665D02*
X019370Y016745D01*
X018666Y016745D01*
X018586Y016665D01*
X018586Y016570D01*
X015812Y016570D01*
X015718Y016531D01*
X015643Y016455D01*
X015241Y016455D01*
X015180Y016394D01*
X015118Y016455D01*
X014493Y016455D01*
X014413Y016375D01*
X014413Y016260D01*
X013264Y016260D01*
X013347Y016343D01*
X013347Y019497D01*
X013237Y019607D01*
X009583Y019607D01*
X009473Y019497D01*
X009473Y019307D01*
X009135Y019307D01*
X009135Y019449D01*
X009055Y019529D01*
X007997Y019529D01*
X007330Y019529D01*
X007324Y019532D02*
X007286Y019542D01*
X006844Y019542D01*
X006844Y018970D01*
X007416Y018970D01*
X007416Y019412D01*
X007406Y019450D01*
X007386Y019485D01*
X007358Y019512D01*
X007324Y019532D01*
X007411Y019431D02*
X007917Y019431D01*
X007917Y019449D02*
X007917Y018391D01*
X007997Y018311D01*
X009055Y018311D01*
X009135Y018391D01*
X009135Y018533D01*
X009159Y018533D01*
X009159Y018231D01*
X009114Y018185D01*
X009114Y016655D01*
X009194Y016575D01*
X009473Y016575D01*
X009473Y016343D01*
X009556Y016260D01*
X008683Y016260D01*
X008206Y016737D01*
X008206Y018185D01*
X008126Y018265D01*
X007963Y018265D01*
X007938Y018275D01*
X007872Y018305D01*
X007867Y018305D01*
X007863Y018307D01*
X007791Y018307D01*
X007718Y018308D01*
X007714Y018307D01*
X007320Y018307D01*
X007324Y018308D01*
X007358Y018328D01*
X007386Y018355D01*
X007406Y018390D01*
X007416Y018428D01*
X007416Y018870D01*
X006844Y018870D01*
X006844Y018970D01*
X006744Y018970D01*
X006744Y019542D01*
X006302Y019542D01*
X006264Y019532D01*
X006229Y019512D01*
X006201Y019485D01*
X006182Y019450D01*
X006171Y019412D01*
X006171Y018970D01*
X006744Y018970D01*
X006744Y018870D01*
X006171Y018870D01*
X006171Y018428D01*
X006182Y018390D01*
X006201Y018355D01*
X006229Y018328D01*
X006264Y018308D01*
X006268Y018307D01*
X004962Y018307D01*
X004884Y018386D01*
X004682Y018469D01*
X003638Y018469D01*
X003436Y018386D01*
X003282Y018231D01*
X003198Y018029D01*
X003198Y017811D01*
X003282Y017609D01*
X003436Y017454D01*
X003638Y017371D01*
X004682Y017371D01*
X004884Y017454D01*
X004962Y017533D01*
X007342Y017533D01*
X007342Y016655D01*
X007422Y016575D01*
X007642Y016575D01*
X008359Y015858D01*
X008431Y015786D01*
X008525Y015747D01*
X014413Y015747D01*
X014413Y015632D01*
X014493Y015552D01*
X015118Y015552D01*
X015180Y015614D01*
X015241Y015552D01*
X015866Y015552D01*
X015946Y015632D01*
X015946Y016033D01*
X015970Y016057D01*
X018586Y016057D01*
X018586Y015961D01*
X018666Y015881D01*
X019370Y015881D01*
X019450Y015961D01*
X019450Y016665D01*
X019596Y016968D02*
X019724Y016968D01*
X020346Y016673D02*
X020446Y016673D01*
X020446Y016574D02*
X020346Y016574D01*
X020346Y016476D02*
X020446Y016476D01*
X020446Y016377D02*
X020346Y016377D01*
X020346Y016082D02*
X020446Y016082D01*
X020446Y015983D02*
X020346Y015983D01*
X020346Y015885D02*
X020446Y015885D01*
X020032Y015885D02*
X019373Y015885D01*
X019450Y015983D02*
X019955Y015983D01*
X019951Y016082D02*
X019450Y016082D01*
X019450Y016180D02*
X019951Y016180D01*
X020379Y015195D02*
X019513Y015195D01*
X019618Y015097D02*
X019708Y015097D01*
X019708Y014998D02*
X019625Y014998D01*
X019625Y014900D02*
X019708Y014900D01*
X019110Y014801D02*
X018077Y014801D01*
X018077Y014703D02*
X018695Y014703D01*
X018695Y014604D02*
X018047Y014604D01*
X017995Y014506D02*
X018698Y014506D01*
X018757Y014407D02*
X017897Y014407D01*
X018035Y014309D02*
X018131Y014309D01*
X018131Y014349D02*
X018131Y014050D01*
X018035Y014050D01*
X018035Y013953D01*
X018131Y013953D01*
X018131Y013655D01*
X018378Y013655D01*
X018416Y013665D01*
X018451Y013685D01*
X018479Y013713D01*
X018498Y013747D01*
X018509Y013785D01*
X018509Y013953D01*
X018131Y013953D01*
X018131Y014050D01*
X018509Y014050D01*
X018509Y014218D01*
X018498Y014256D01*
X018479Y014291D01*
X018451Y014319D01*
X018416Y014338D01*
X018378Y014349D01*
X018131Y014349D01*
X018131Y014210D02*
X018035Y014210D01*
X018035Y014112D02*
X018131Y014112D01*
X018131Y014013D02*
X018708Y014013D01*
X018708Y013915D02*
X018509Y013915D01*
X018509Y013816D02*
X018708Y013816D01*
X018724Y013718D02*
X018481Y013718D01*
X018482Y013521D02*
X018898Y013521D01*
X018903Y013619D02*
X017629Y013619D01*
X017629Y013521D02*
X017684Y013521D01*
X017671Y013422D02*
X017629Y013422D01*
X017671Y013324D02*
X017578Y013324D01*
X017671Y013225D02*
X016603Y013225D01*
X016612Y013324D02*
X016855Y013324D01*
X016894Y012930D02*
X016966Y012930D01*
X017642Y012930D02*
X017741Y012930D01*
X017696Y012831D02*
X018586Y012831D01*
X018601Y012930D02*
X018424Y012930D01*
X019120Y013028D02*
X023443Y013028D01*
X023443Y012930D02*
X020823Y012930D01*
X020841Y012831D02*
X023443Y012831D01*
X023443Y012733D02*
X020841Y012733D01*
X020841Y012339D02*
X023272Y012339D01*
X023174Y012240D02*
X020839Y012240D01*
X020772Y012142D02*
X023075Y012142D01*
X022977Y012043D02*
X015052Y012043D01*
X015150Y012142D02*
X016163Y012142D01*
X016163Y012240D02*
X015249Y012240D01*
X014914Y011945D02*
X022878Y011945D01*
X022780Y011846D02*
X018572Y011846D01*
X018547Y011872D02*
X018612Y011807D01*
X018737Y011807D01*
X018862Y011755D01*
X018915Y011755D01*
X018995Y011675D01*
X018995Y011622D01*
X019047Y011497D01*
X019047Y011343D01*
X018995Y011218D01*
X018995Y011200D01*
X019110Y011200D01*
X019110Y010844D01*
X019110Y010744D01*
X018695Y010744D01*
X018695Y010518D01*
X018705Y010480D01*
X018725Y010446D01*
X018753Y010418D01*
X018763Y010413D01*
X018708Y010358D01*
X018708Y009733D01*
X018788Y009653D01*
X018903Y009653D01*
X018903Y009526D01*
X018887Y009510D01*
X018492Y009510D01*
X018415Y009587D01*
X017751Y009587D01*
X017671Y009507D01*
X017671Y009000D01*
X017751Y008920D01*
X018415Y008920D01*
X018492Y008997D01*
X019045Y008997D01*
X019139Y009036D01*
X019378Y009275D01*
X019417Y009369D01*
X019417Y009653D01*
X019532Y009653D01*
X019612Y009733D01*
X019612Y009789D01*
X019708Y009789D01*
X019708Y009733D01*
X019788Y009653D01*
X020532Y009653D01*
X020612Y009733D01*
X020612Y010358D01*
X020550Y010420D01*
X020612Y010482D01*
X020612Y010577D01*
X021624Y010577D01*
X021671Y010625D01*
X021719Y010625D01*
X021827Y010670D01*
X021910Y010753D01*
X021955Y010861D01*
X022443Y010861D01*
X022443Y010763D02*
X021914Y010763D01*
X021955Y010861D02*
X021955Y010979D01*
X021910Y011087D01*
X021827Y011170D01*
X021719Y011215D01*
X021601Y011215D01*
X021493Y011170D01*
X021410Y011087D01*
X021378Y011011D01*
X020612Y011011D01*
X020612Y011107D01*
X020532Y011187D01*
X019788Y011187D01*
X019708Y011107D01*
X019708Y010482D01*
X019770Y010420D01*
X019708Y010358D01*
X019708Y010303D01*
X019612Y010303D01*
X019612Y010358D01*
X019557Y010413D01*
X019567Y010418D01*
X019595Y010446D01*
X019615Y010480D01*
X019625Y010518D01*
X019625Y010744D01*
X019210Y010744D01*
X019210Y010844D01*
X019625Y010844D01*
X019625Y011070D01*
X019615Y011108D01*
X019595Y011142D01*
X019567Y011170D01*
X019533Y011190D01*
X019495Y011200D01*
X019210Y011200D01*
X019210Y010844D01*
X019110Y010844D01*
X018695Y010844D01*
X018695Y011033D01*
X018612Y011033D01*
X018547Y010968D01*
X018047Y010968D01*
X018047Y010915D01*
X018077Y010842D01*
X018077Y010676D01*
X018013Y010523D01*
X017892Y010402D01*
X017838Y010349D01*
X018035Y010349D01*
X018035Y010050D01*
X018131Y010050D01*
X018131Y010349D01*
X018378Y010349D01*
X018416Y010338D01*
X018451Y010319D01*
X018479Y010291D01*
X018498Y010256D01*
X018509Y010218D01*
X018509Y010050D01*
X018131Y010050D01*
X018131Y009953D01*
X018131Y009655D01*
X018378Y009655D01*
X018416Y009665D01*
X018451Y009685D01*
X018479Y009713D01*
X018498Y009747D01*
X018509Y009785D01*
X018509Y009953D01*
X018131Y009953D01*
X018035Y009953D01*
X018035Y009655D01*
X017788Y009655D01*
X017749Y009665D01*
X017715Y009685D01*
X017687Y009713D01*
X017668Y009747D01*
X017657Y009785D01*
X017657Y009953D01*
X018035Y009953D01*
X018035Y010050D01*
X017657Y010050D01*
X017657Y010218D01*
X017663Y010238D01*
X017622Y010221D01*
X016612Y010221D01*
X016612Y009982D01*
X016550Y009920D01*
X016586Y009884D01*
X016808Y009884D01*
X016885Y009961D01*
X017549Y009961D01*
X017629Y009881D01*
X017629Y009374D01*
X017549Y009294D01*
X016885Y009294D01*
X016808Y009371D01*
X016612Y009371D01*
X016612Y009233D01*
X016532Y009153D01*
X016314Y009153D01*
X015921Y008760D01*
X016163Y008760D01*
X016163Y008875D01*
X016243Y008955D01*
X016868Y008955D01*
X016930Y008894D01*
X016991Y008955D01*
X017616Y008955D01*
X017696Y008875D01*
X017696Y008820D01*
X018586Y008820D01*
X018586Y008915D01*
X018666Y008995D01*
X019370Y008995D01*
X019450Y008915D01*
X019450Y008211D01*
X019370Y008131D01*
X018666Y008131D01*
X018586Y008211D01*
X018586Y008307D01*
X017696Y008307D01*
X017696Y008132D01*
X017616Y008052D01*
X016991Y008052D01*
X016930Y008114D01*
X016868Y008052D01*
X016243Y008052D01*
X016163Y008132D01*
X016163Y008247D01*
X015256Y008247D01*
X015053Y008045D01*
X014981Y007972D01*
X014887Y007933D01*
X008339Y007933D01*
X008245Y007972D01*
X007642Y008575D01*
X007422Y008575D01*
X007342Y008655D01*
X007342Y009533D01*
X004962Y009533D01*
X004884Y009454D01*
X004682Y009371D01*
X003638Y009371D01*
X003436Y009454D01*
X003282Y009609D01*
X003198Y009811D01*
X003198Y010029D01*
X003282Y010231D01*
X003436Y010386D01*
X003638Y010469D01*
X004682Y010469D01*
X004884Y010386D01*
X004962Y010307D01*
X006268Y010307D01*
X006264Y010308D01*
X006229Y010328D01*
X006201Y010355D01*
X006182Y010390D01*
X006171Y010428D01*
X006171Y010870D01*
X006744Y010870D01*
X006744Y010970D01*
X006744Y011542D01*
X006302Y011542D01*
X006264Y011532D01*
X006229Y011512D01*
X006201Y011485D01*
X006182Y011450D01*
X006171Y011412D01*
X006171Y010970D01*
X006744Y010970D01*
X006844Y010970D01*
X007416Y010970D01*
X007416Y011412D01*
X007406Y011450D01*
X007386Y011485D01*
X007358Y011512D01*
X007324Y011532D01*
X007286Y011542D01*
X006844Y011542D01*
X006844Y010970D01*
X006844Y010870D01*
X007416Y010870D01*
X007416Y010428D01*
X007406Y010390D01*
X007386Y010355D01*
X007358Y010328D01*
X007324Y010308D01*
X007320Y010307D01*
X007714Y010307D01*
X007718Y010308D01*
X007791Y010307D01*
X007863Y010307D01*
X007867Y010305D01*
X007872Y010305D01*
X007938Y010275D01*
X007963Y010265D01*
X008126Y010265D01*
X008206Y010185D01*
X008206Y008737D01*
X008496Y008446D01*
X009473Y008446D01*
X009473Y008575D01*
X009194Y008575D01*
X009114Y008655D01*
X009114Y010185D01*
X009159Y010231D01*
X009159Y010533D01*
X009135Y010533D01*
X009135Y010391D01*
X009055Y010311D01*
X007997Y010311D01*
X007917Y010391D01*
X007917Y011449D01*
X007997Y011529D01*
X009055Y011529D01*
X009135Y011449D01*
X009135Y011307D01*
X009473Y011307D01*
X009473Y011497D01*
X009583Y011607D01*
X013237Y011607D01*
X013347Y011497D01*
X013347Y008446D01*
X014729Y008446D01*
X014919Y008636D01*
X014473Y008636D01*
X014345Y008689D01*
X014178Y008689D01*
X014098Y008769D01*
X014098Y009276D01*
X014178Y009356D01*
X014345Y009356D01*
X014473Y009409D01*
X015476Y009409D01*
X015708Y009641D01*
X015708Y009858D01*
X015770Y009920D01*
X015708Y009982D01*
X015708Y010184D01*
X015695Y010217D01*
X015695Y010221D01*
X015475Y010221D01*
X015322Y010285D01*
X015255Y010351D01*
X014457Y010351D01*
X014285Y010422D01*
X014223Y010484D01*
X014178Y010484D01*
X014098Y010564D01*
X014098Y010689D01*
X014083Y010725D01*
X014083Y010910D01*
X014098Y010947D01*
X014098Y011071D01*
X014178Y011151D01*
X014223Y011151D01*
X014285Y011213D01*
X014457Y011284D01*
X015650Y011284D01*
X015822Y011213D01*
X015953Y011082D01*
X015965Y011054D01*
X016282Y011054D01*
X016208Y011085D01*
X016155Y011085D01*
X016075Y011165D01*
X016075Y011218D01*
X016023Y011343D01*
X016023Y011497D01*
X016075Y011622D01*
X016075Y011675D01*
X016155Y011755D01*
X016208Y011755D01*
X016333Y011807D01*
X016708Y011807D01*
X016773Y011872D01*
X017347Y011872D01*
X017360Y011858D01*
X017373Y011872D01*
X017947Y011872D01*
X017960Y011858D01*
X017973Y011872D01*
X018547Y011872D01*
X018656Y012142D02*
X017696Y012142D01*
X017696Y012240D02*
X018586Y012240D01*
X018922Y011748D02*
X022681Y011748D01*
X022583Y011649D02*
X018995Y011649D01*
X019024Y011551D02*
X022484Y011551D01*
X022443Y011452D02*
X019047Y011452D01*
X019047Y011354D02*
X022443Y011354D01*
X022443Y011255D02*
X019010Y011255D01*
X019110Y011157D02*
X019210Y011157D01*
X019210Y011058D02*
X019110Y011058D01*
X019110Y010960D02*
X019210Y010960D01*
X019210Y010861D02*
X019110Y010861D01*
X019110Y010763D02*
X018077Y010763D01*
X018069Y010861D02*
X018695Y010861D01*
X018695Y010960D02*
X018047Y010960D01*
X018072Y010664D02*
X018695Y010664D01*
X018695Y010566D02*
X018031Y010566D01*
X017957Y010467D02*
X018713Y010467D01*
X018718Y010369D02*
X017858Y010369D01*
X018035Y010270D02*
X018131Y010270D01*
X018131Y010172D02*
X018035Y010172D01*
X018035Y010073D02*
X018131Y010073D01*
X018131Y009975D02*
X018708Y009975D01*
X018708Y010073D02*
X018509Y010073D01*
X018509Y010172D02*
X018708Y010172D01*
X018708Y010270D02*
X018490Y010270D01*
X018035Y009975D02*
X016605Y009975D01*
X016612Y010073D02*
X017657Y010073D01*
X017657Y010172D02*
X016612Y010172D01*
X015708Y010172D02*
X013347Y010172D01*
X013347Y010270D02*
X015357Y010270D01*
X015708Y010073D02*
X013347Y010073D01*
X013347Y009975D02*
X015715Y009975D01*
X015726Y009876D02*
X013347Y009876D01*
X013347Y009778D02*
X015708Y009778D01*
X015708Y009679D02*
X013347Y009679D01*
X013347Y009581D02*
X015648Y009581D01*
X015549Y009482D02*
X013347Y009482D01*
X013347Y009384D02*
X014411Y009384D01*
X014107Y009285D02*
X013347Y009285D01*
X013347Y009187D02*
X014098Y009187D01*
X014098Y009088D02*
X013347Y009088D01*
X013347Y008990D02*
X014098Y008990D01*
X014098Y008891D02*
X013347Y008891D01*
X013347Y008793D02*
X014098Y008793D01*
X014173Y008694D02*
X013347Y008694D01*
X013347Y008596D02*
X014878Y008596D01*
X014780Y008497D02*
X013347Y008497D01*
X013160Y008497D02*
X009660Y008497D01*
X009660Y008446D02*
X009660Y011420D01*
X013160Y011420D01*
X013160Y008446D01*
X009660Y008446D01*
X009660Y008596D02*
X013160Y008596D01*
X013160Y008694D02*
X009660Y008694D01*
X009660Y008793D02*
X013160Y008793D01*
X013160Y008891D02*
X009660Y008891D01*
X009660Y008990D02*
X013160Y008990D01*
X013160Y009088D02*
X009660Y009088D01*
X009660Y009187D02*
X013160Y009187D01*
X013160Y009285D02*
X009660Y009285D01*
X009660Y009384D02*
X013160Y009384D01*
X013160Y009482D02*
X009660Y009482D01*
X009660Y009581D02*
X013160Y009581D01*
X013160Y009679D02*
X009660Y009679D01*
X009660Y009778D02*
X013160Y009778D01*
X013160Y009876D02*
X009660Y009876D01*
X009660Y009975D02*
X013160Y009975D01*
X013160Y010073D02*
X009660Y010073D01*
X009660Y010172D02*
X013160Y010172D01*
X013160Y010270D02*
X009660Y010270D01*
X009660Y010369D02*
X013160Y010369D01*
X013160Y010467D02*
X009660Y010467D01*
X009660Y010566D02*
X013160Y010566D01*
X013160Y010664D02*
X009660Y010664D01*
X009660Y010763D02*
X013160Y010763D01*
X013160Y010861D02*
X009660Y010861D01*
X009660Y010960D02*
X013160Y010960D01*
X013160Y011058D02*
X009660Y011058D01*
X009660Y011157D02*
X013160Y011157D01*
X013160Y011255D02*
X009660Y011255D01*
X009660Y011354D02*
X013160Y011354D01*
X013347Y011354D02*
X016023Y011354D01*
X016023Y011452D02*
X013347Y011452D01*
X013293Y011551D02*
X016046Y011551D01*
X016075Y011649D02*
X005066Y011649D01*
X005054Y011625D02*
X005094Y011704D01*
X005121Y011788D01*
X005134Y011870D01*
X004210Y011870D01*
X004210Y011970D01*
X004110Y011970D01*
X004110Y012482D01*
X003703Y012482D01*
X003616Y012469D01*
X003532Y012441D01*
X003453Y012401D01*
X003381Y012349D01*
X003318Y012286D01*
X003266Y012215D01*
X003226Y012136D01*
X003199Y012052D01*
X003186Y011970D01*
X004110Y011970D01*
X004110Y011870D01*
X004210Y011870D01*
X004210Y011358D01*
X004617Y011358D01*
X004704Y011371D01*
X004788Y011399D01*
X004867Y011439D01*
X004939Y011491D01*
X005002Y011554D01*
X005054Y011625D01*
X004999Y011551D02*
X009527Y011551D01*
X009473Y011452D02*
X009132Y011452D01*
X009135Y011354D02*
X009473Y011354D01*
X009159Y010467D02*
X009135Y010467D01*
X009113Y010369D02*
X009159Y010369D01*
X009159Y010270D02*
X007951Y010270D01*
X007940Y010369D02*
X007394Y010369D01*
X007416Y010467D02*
X007917Y010467D01*
X007917Y010566D02*
X007416Y010566D01*
X007416Y010664D02*
X007917Y010664D01*
X007917Y010763D02*
X007416Y010763D01*
X007416Y010861D02*
X007917Y010861D01*
X007917Y010960D02*
X006844Y010960D01*
X006844Y011058D02*
X006744Y011058D01*
X006744Y010960D02*
X000368Y010960D01*
X000368Y011058D02*
X006171Y011058D01*
X006171Y011157D02*
X000368Y011157D01*
X000368Y011255D02*
X006171Y011255D01*
X006171Y011354D02*
X000368Y011354D01*
X000368Y011452D02*
X003435Y011452D01*
X003453Y011439D02*
X003532Y011399D01*
X003616Y011371D01*
X003703Y011358D01*
X004110Y011358D01*
X004110Y011870D01*
X003186Y011870D01*
X003199Y011788D01*
X003226Y011704D01*
X003266Y011625D01*
X003318Y011554D01*
X003381Y011491D01*
X003453Y011439D01*
X003321Y011551D02*
X000368Y011551D01*
X000368Y011649D02*
X003254Y011649D01*
X003212Y011748D02*
X000368Y011748D01*
X000368Y011846D02*
X003190Y011846D01*
X003197Y012043D02*
X000368Y012043D01*
X000368Y011945D02*
X004110Y011945D01*
X004110Y012043D02*
X004210Y012043D01*
X004210Y011970D02*
X004210Y012482D01*
X004617Y012482D01*
X004704Y012469D01*
X004788Y012441D01*
X004867Y012401D01*
X004939Y012349D01*
X005002Y012286D01*
X005054Y012215D01*
X005094Y012136D01*
X005121Y012052D01*
X005134Y011970D01*
X004210Y011970D01*
X004210Y011945D02*
X008312Y011945D01*
X008174Y012043D02*
X005123Y012043D01*
X005091Y012142D02*
X008076Y012142D01*
X007977Y012240D02*
X005035Y012240D01*
X004949Y012339D02*
X007879Y012339D01*
X007780Y012437D02*
X004797Y012437D01*
X004210Y012437D02*
X004110Y012437D01*
X004110Y012339D02*
X004210Y012339D01*
X004210Y012240D02*
X004110Y012240D01*
X004110Y012142D02*
X004210Y012142D01*
X004210Y011846D02*
X004110Y011846D01*
X004110Y011748D02*
X004210Y011748D01*
X004210Y011649D02*
X004110Y011649D01*
X004110Y011551D02*
X004210Y011551D01*
X004210Y011452D02*
X004110Y011452D01*
X004885Y011452D02*
X006183Y011452D01*
X006744Y011452D02*
X006844Y011452D01*
X006844Y011354D02*
X006744Y011354D01*
X006744Y011255D02*
X006844Y011255D01*
X006844Y011157D02*
X006744Y011157D01*
X006171Y010861D02*
X000368Y010861D01*
X000368Y010763D02*
X006171Y010763D01*
X006171Y010664D02*
X000368Y010664D01*
X000368Y010566D02*
X006171Y010566D01*
X006171Y010467D02*
X004687Y010467D01*
X004901Y010369D02*
X006194Y010369D01*
X007416Y011058D02*
X007917Y011058D01*
X007917Y011157D02*
X007416Y011157D01*
X007416Y011255D02*
X007917Y011255D01*
X007917Y011354D02*
X007416Y011354D01*
X007405Y011452D02*
X007920Y011452D01*
X007682Y012536D02*
X000368Y012536D01*
X000368Y012634D02*
X007363Y012634D01*
X007342Y012733D02*
X000368Y012733D01*
X000368Y012831D02*
X007342Y012831D01*
X007342Y012930D02*
X000368Y012930D01*
X000368Y013028D02*
X007342Y013028D01*
X007342Y013127D02*
X000368Y013127D01*
X000368Y013225D02*
X007342Y013225D01*
X007342Y013324D02*
X000368Y013324D01*
X000368Y013422D02*
X003515Y013422D01*
X003370Y013521D02*
X000368Y013521D01*
X000368Y013619D02*
X003278Y013619D01*
X003237Y013718D02*
X000368Y013718D01*
X000368Y013816D02*
X003198Y013816D01*
X003198Y013915D02*
X000368Y013915D01*
X000368Y014013D02*
X003198Y014013D01*
X003232Y014112D02*
X000368Y014112D01*
X000368Y014210D02*
X003273Y014210D01*
X003359Y014309D02*
X000368Y014309D01*
X000368Y014407D02*
X003488Y014407D01*
X003616Y015371D02*
X003532Y015399D01*
X003453Y015439D01*
X003381Y015491D01*
X003318Y015554D01*
X003266Y015625D01*
X003226Y015704D01*
X003199Y015788D01*
X003186Y015870D01*
X004110Y015870D01*
X004210Y015870D01*
X004210Y015970D01*
X004110Y015970D01*
X004110Y016482D01*
X003703Y016482D01*
X003616Y016469D01*
X003532Y016441D01*
X003453Y016401D01*
X003381Y016349D01*
X003318Y016286D01*
X003266Y016215D01*
X003226Y016136D01*
X003199Y016052D01*
X003186Y015970D01*
X004110Y015970D01*
X004110Y015870D01*
X004110Y015358D01*
X003703Y015358D01*
X003616Y015371D01*
X003552Y015392D02*
X000368Y015392D01*
X000368Y015294D02*
X006171Y015294D01*
X006171Y015392D02*
X004768Y015392D01*
X004788Y015399D02*
X004867Y015439D01*
X004939Y015491D01*
X005002Y015554D01*
X005054Y015625D01*
X005094Y015704D01*
X005121Y015788D01*
X005134Y015870D01*
X004210Y015870D01*
X004210Y015358D01*
X004617Y015358D01*
X004704Y015371D01*
X004788Y015399D01*
X004938Y015491D02*
X006207Y015491D01*
X006171Y015195D02*
X000368Y015195D01*
X000368Y015097D02*
X006171Y015097D01*
X006171Y014998D02*
X000368Y014998D01*
X000368Y014900D02*
X006744Y014900D01*
X006744Y014998D02*
X006844Y014998D01*
X006844Y014900D02*
X007917Y014900D01*
X007917Y014998D02*
X007416Y014998D01*
X007416Y015097D02*
X007917Y015097D01*
X007917Y015195D02*
X007416Y015195D01*
X007416Y015294D02*
X007917Y015294D01*
X007917Y015392D02*
X007416Y015392D01*
X007380Y015491D02*
X007959Y015491D01*
X008333Y015885D02*
X004210Y015885D01*
X004210Y015970D02*
X005134Y015970D01*
X005121Y016052D01*
X005094Y016136D01*
X005054Y016215D01*
X005002Y016286D01*
X004939Y016349D01*
X004867Y016401D01*
X004788Y016441D01*
X004704Y016469D01*
X004617Y016482D01*
X004210Y016482D01*
X004210Y015970D01*
X004210Y015983D02*
X004110Y015983D01*
X004110Y015885D02*
X000368Y015885D01*
X000368Y015983D02*
X003188Y015983D01*
X003209Y016082D02*
X000368Y016082D01*
X000368Y016180D02*
X003249Y016180D01*
X003313Y016279D02*
X000368Y016279D01*
X000368Y016377D02*
X003420Y016377D01*
X003659Y016476D02*
X000368Y016476D01*
X000368Y016574D02*
X007643Y016574D01*
X007742Y016476D02*
X004661Y016476D01*
X004900Y016377D02*
X007840Y016377D01*
X007939Y016279D02*
X005007Y016279D01*
X005071Y016180D02*
X008037Y016180D01*
X008136Y016082D02*
X005111Y016082D01*
X005132Y015983D02*
X008234Y015983D01*
X008431Y015786D02*
X005120Y015786D01*
X005085Y015688D02*
X014413Y015688D01*
X014457Y015589D02*
X013255Y015589D01*
X013347Y015491D02*
X016023Y015491D01*
X016023Y015392D02*
X013347Y015392D01*
X013347Y015294D02*
X016044Y015294D01*
X016075Y015195D02*
X015840Y015195D01*
X015939Y015097D02*
X016144Y015097D01*
X016062Y015589D02*
X015903Y015589D01*
X015946Y015688D02*
X016088Y015688D01*
X015946Y015786D02*
X016283Y015786D01*
X015946Y015885D02*
X018663Y015885D01*
X018586Y015983D02*
X015946Y015983D01*
X015663Y016476D02*
X013347Y016476D01*
X013347Y016574D02*
X018586Y016574D01*
X018594Y016673D02*
X018418Y016673D01*
X018489Y017264D02*
X018708Y017264D01*
X018708Y017362D02*
X017629Y017362D01*
X017629Y017264D02*
X017677Y017264D01*
X017671Y017165D02*
X017629Y017165D01*
X017629Y017124D02*
X017629Y017631D01*
X017549Y017711D01*
X016885Y017711D01*
X016808Y017634D01*
X016586Y017634D01*
X016550Y017670D01*
X016612Y017732D01*
X016612Y017971D01*
X017472Y017971D01*
X017488Y017966D01*
X017555Y017971D01*
X017622Y017971D01*
X017637Y017978D01*
X017653Y017979D01*
X017661Y017983D01*
X017657Y017968D01*
X017657Y017800D01*
X018035Y017800D01*
X018035Y018099D01*
X017839Y018099D01*
X017845Y018105D01*
X017892Y018152D01*
X017898Y018167D01*
X017909Y018180D01*
X017930Y018243D01*
X017955Y018305D01*
X017955Y018322D01*
X018082Y018709D01*
X018081Y018718D01*
X018547Y018718D01*
X018612Y018783D01*
X018737Y018783D01*
X018862Y018835D01*
X018915Y018835D01*
X018995Y018915D01*
X018995Y018968D01*
X019047Y019093D01*
X019047Y019247D01*
X018995Y019372D01*
X018995Y019425D01*
X018915Y019505D01*
X018862Y019505D01*
X018737Y019557D01*
X018612Y019557D01*
X018547Y019622D01*
X017973Y019622D01*
X017960Y019608D01*
X017947Y019622D01*
X017373Y019622D01*
X017360Y019608D01*
X017347Y019622D01*
X016773Y019622D01*
X016708Y019557D01*
X016333Y019557D01*
X016208Y019505D01*
X016155Y019505D01*
X016075Y019425D01*
X016075Y019372D01*
X016023Y019247D01*
X016023Y019093D01*
X016075Y018968D01*
X016075Y018915D01*
X016155Y018835D01*
X016208Y018835D01*
X016282Y018804D01*
X016024Y018804D01*
X016024Y018910D01*
X015953Y019082D01*
X015822Y019213D01*
X015650Y019284D01*
X014457Y019284D01*
X014285Y019213D01*
X014223Y019151D01*
X014178Y019151D01*
X014098Y019071D01*
X014098Y018947D01*
X014083Y018910D01*
X014083Y018725D01*
X014098Y018689D01*
X014098Y018564D01*
X014178Y018484D01*
X014223Y018484D01*
X014285Y018422D01*
X014457Y018351D01*
X015141Y018351D01*
X015141Y018305D01*
X015204Y018152D01*
X015322Y018035D01*
X015475Y017971D01*
X015695Y017971D01*
X015695Y017967D01*
X015708Y017934D01*
X015708Y017732D01*
X015770Y017670D01*
X015708Y017608D01*
X015708Y017496D01*
X015541Y017409D01*
X014473Y017409D01*
X014345Y017356D01*
X014178Y017356D01*
X014098Y017276D01*
X014098Y016769D01*
X014178Y016689D01*
X014345Y016689D01*
X014473Y016636D01*
X015577Y016636D01*
X015594Y016630D01*
X015654Y016636D01*
X015713Y016636D01*
X015730Y016643D01*
X015747Y016644D01*
X015800Y016672D01*
X015855Y016695D01*
X015868Y016707D01*
X016244Y016903D01*
X016532Y016903D01*
X016612Y016983D01*
X016612Y017121D01*
X016808Y017121D01*
X016885Y017044D01*
X017549Y017044D01*
X017629Y017124D01*
X017671Y017067D02*
X017571Y017067D01*
X017671Y016968D02*
X016596Y016968D01*
X016612Y017067D02*
X016862Y017067D01*
X016831Y017658D02*
X016563Y017658D01*
X016612Y017756D02*
X018035Y017756D01*
X018035Y017800D02*
X018035Y017703D01*
X018131Y017703D01*
X018131Y017405D01*
X018378Y017405D01*
X018416Y017415D01*
X018451Y017435D01*
X018479Y017463D01*
X018498Y017497D01*
X018509Y017535D01*
X018509Y017703D01*
X018131Y017703D01*
X018131Y017800D01*
X018035Y017800D01*
X018035Y017855D02*
X018131Y017855D01*
X018131Y017800D02*
X018131Y018099D01*
X018378Y018099D01*
X018416Y018088D01*
X018451Y018069D01*
X018479Y018041D01*
X018498Y018006D01*
X018509Y017968D01*
X018509Y017800D01*
X018131Y017800D01*
X018131Y017756D02*
X018698Y017756D01*
X018695Y017855D02*
X018509Y017855D01*
X018509Y017953D02*
X018695Y017953D01*
X018695Y018094D02*
X019110Y018094D01*
X019110Y018450D01*
X018825Y018450D01*
X018787Y018440D01*
X018753Y018420D01*
X018725Y018392D01*
X018705Y018358D01*
X018695Y018320D01*
X018695Y018094D01*
X018695Y018150D02*
X017890Y018150D01*
X017932Y018249D02*
X018695Y018249D01*
X018702Y018347D02*
X017964Y018347D01*
X017996Y018446D02*
X018809Y018446D01*
X019110Y018446D02*
X019210Y018446D01*
X019210Y018347D02*
X019110Y018347D01*
X019110Y018249D02*
X019210Y018249D01*
X019210Y018150D02*
X019110Y018150D01*
X019110Y018052D02*
X018468Y018052D01*
X018131Y018052D02*
X018035Y018052D01*
X018035Y017953D02*
X018131Y017953D01*
X018035Y017703D02*
X017657Y017703D01*
X017657Y017535D01*
X017668Y017497D01*
X017687Y017463D01*
X017715Y017435D01*
X017749Y017415D01*
X017788Y017405D01*
X018035Y017405D01*
X018035Y017703D01*
X018035Y017658D02*
X018131Y017658D01*
X018131Y017559D02*
X018035Y017559D01*
X018035Y017461D02*
X018131Y017461D01*
X018476Y017461D02*
X018708Y017461D01*
X018708Y017559D02*
X018509Y017559D01*
X018509Y017658D02*
X018757Y017658D01*
X019210Y018052D02*
X019708Y018052D01*
X019708Y018150D02*
X019625Y018150D01*
X019625Y018249D02*
X019708Y018249D01*
X019708Y018347D02*
X019618Y018347D01*
X019511Y018446D02*
X020255Y018446D01*
X020354Y018544D02*
X018028Y018544D01*
X018060Y018643D02*
X020443Y018643D01*
X020443Y018741D02*
X018569Y018741D01*
X018919Y018840D02*
X020443Y018840D01*
X020443Y018938D02*
X018995Y018938D01*
X019023Y019037D02*
X020443Y019037D01*
X020443Y019135D02*
X019047Y019135D01*
X019047Y019234D02*
X020443Y019234D01*
X020443Y019332D02*
X019011Y019332D01*
X018989Y019431D02*
X020443Y019431D01*
X020443Y019529D02*
X018803Y019529D01*
X018935Y019825D02*
X018385Y019825D01*
X018484Y019923D02*
X018836Y019923D01*
X018788Y020022D02*
X018532Y020022D01*
X018557Y020120D02*
X018763Y020120D01*
X018763Y020219D02*
X018557Y020219D01*
X018557Y020317D02*
X018763Y020317D01*
X018763Y020416D02*
X018557Y020416D01*
X018557Y020514D02*
X018763Y020514D01*
X018763Y020613D02*
X018557Y020613D01*
X018557Y020711D02*
X018763Y020711D01*
X018784Y020810D02*
X018536Y020810D01*
X018493Y020908D02*
X018827Y020908D01*
X019493Y020908D02*
X019827Y020908D01*
X019784Y020810D02*
X019536Y020810D01*
X019557Y020711D02*
X019763Y020711D01*
X019763Y020613D02*
X019557Y020613D01*
X019557Y020514D02*
X019763Y020514D01*
X019763Y020416D02*
X019557Y020416D01*
X019557Y020317D02*
X019763Y020317D01*
X019763Y020219D02*
X019557Y020219D01*
X019557Y020120D02*
X019763Y020120D01*
X019788Y020022D02*
X019532Y020022D01*
X019484Y019923D02*
X019836Y019923D01*
X019935Y019825D02*
X019385Y019825D01*
X020385Y019825D02*
X020443Y019825D01*
X020443Y019726D02*
X005101Y019726D01*
X005094Y019704D02*
X005121Y019788D01*
X005134Y019870D01*
X004210Y019870D01*
X004210Y019970D01*
X004110Y019970D01*
X004110Y020482D01*
X003703Y020482D01*
X003616Y020469D01*
X003532Y020441D01*
X003453Y020401D01*
X003381Y020349D01*
X003318Y020286D01*
X003266Y020215D01*
X003226Y020136D01*
X003199Y020052D01*
X003186Y019970D01*
X004110Y019970D01*
X004110Y019870D01*
X004210Y019870D01*
X004210Y019358D01*
X004617Y019358D01*
X004704Y019371D01*
X004788Y019399D01*
X004867Y019439D01*
X004939Y019491D01*
X005002Y019554D01*
X005054Y019625D01*
X005094Y019704D01*
X005055Y019628D02*
X020443Y019628D01*
X020877Y019628D02*
X025952Y019628D01*
X025952Y019726D02*
X020877Y019726D01*
X020877Y019825D02*
X020935Y019825D01*
X020877Y019529D02*
X025952Y019529D01*
X025952Y019431D02*
X020877Y019431D01*
X020877Y019332D02*
X025952Y019332D01*
X025952Y019234D02*
X020877Y019234D01*
X020877Y019135D02*
X025952Y019135D01*
X025952Y019037D02*
X020877Y019037D01*
X020877Y018938D02*
X025952Y018938D01*
X025952Y018840D02*
X020877Y018840D01*
X020877Y018741D02*
X025952Y018741D01*
X025952Y018643D02*
X020877Y018643D01*
X019708Y017953D02*
X019625Y017953D01*
X019625Y017855D02*
X019708Y017855D01*
X019708Y017756D02*
X019622Y017756D01*
X019563Y017658D02*
X019757Y017658D01*
X019708Y017559D02*
X019612Y017559D01*
X017748Y016673D02*
X015802Y016673D01*
X015990Y016771D02*
X017671Y016771D01*
X017671Y016870D02*
X016179Y016870D01*
X015640Y017461D02*
X013347Y017461D01*
X013347Y017559D02*
X015708Y017559D01*
X015757Y017658D02*
X013347Y017658D01*
X013347Y017756D02*
X015708Y017756D01*
X015708Y017855D02*
X013347Y017855D01*
X013347Y017953D02*
X015700Y017953D01*
X015305Y018052D02*
X013347Y018052D01*
X013347Y018150D02*
X015206Y018150D01*
X015164Y018249D02*
X013347Y018249D01*
X013347Y018347D02*
X015141Y018347D01*
X014262Y018446D02*
X013347Y018446D01*
X013347Y018544D02*
X014118Y018544D01*
X014098Y018643D02*
X013347Y018643D01*
X013347Y018741D02*
X014083Y018741D01*
X014083Y018840D02*
X013347Y018840D01*
X013347Y018938D02*
X014095Y018938D01*
X014098Y019037D02*
X013347Y019037D01*
X013347Y019135D02*
X014162Y019135D01*
X014335Y019234D02*
X013347Y019234D01*
X013347Y019332D02*
X016059Y019332D01*
X016081Y019431D02*
X013347Y019431D01*
X013315Y019529D02*
X016267Y019529D01*
X016335Y019825D02*
X015785Y019825D01*
X015884Y019923D02*
X016236Y019923D01*
X016188Y020022D02*
X015932Y020022D01*
X015957Y020120D02*
X016163Y020120D01*
X016163Y020219D02*
X015957Y020219D01*
X015957Y020317D02*
X016163Y020317D01*
X016163Y020416D02*
X015957Y020416D01*
X015957Y020514D02*
X016163Y020514D01*
X016163Y020613D02*
X015957Y020613D01*
X015957Y020711D02*
X016163Y020711D01*
X016184Y020810D02*
X015936Y020810D01*
X015954Y020908D02*
X016227Y020908D01*
X015637Y021204D02*
X000597Y021204D01*
X000441Y021105D02*
X015539Y021105D01*
X015326Y021007D02*
X014794Y021007D01*
X014785Y021016D02*
X014639Y021077D01*
X014481Y021077D01*
X014335Y021016D01*
X014224Y020905D01*
X014163Y020759D01*
X014163Y020081D01*
X014224Y019935D01*
X014335Y019824D01*
X014481Y019763D01*
X014639Y019763D01*
X014785Y019824D01*
X014896Y019935D01*
X014957Y020081D01*
X014957Y020759D01*
X014896Y020905D01*
X014785Y021016D01*
X014893Y020908D02*
X015227Y020908D01*
X015184Y020810D02*
X014936Y020810D01*
X014957Y020711D02*
X015163Y020711D01*
X015163Y020613D02*
X014957Y020613D01*
X014957Y020514D02*
X015163Y020514D01*
X015163Y020416D02*
X014957Y020416D01*
X014957Y020317D02*
X015163Y020317D01*
X015163Y020219D02*
X014957Y020219D01*
X014957Y020120D02*
X015163Y020120D01*
X015188Y020022D02*
X014932Y020022D01*
X014884Y019923D02*
X015236Y019923D01*
X015335Y019825D02*
X014785Y019825D01*
X014335Y019825D02*
X013785Y019825D01*
X013785Y019824D02*
X013896Y019935D01*
X013957Y020081D01*
X013957Y020759D01*
X013896Y020905D01*
X013785Y021016D01*
X013639Y021077D01*
X013481Y021077D01*
X013335Y021016D01*
X013224Y020905D01*
X013163Y020759D01*
X013163Y020081D01*
X013224Y019935D01*
X013335Y019824D01*
X013481Y019763D01*
X013639Y019763D01*
X013785Y019824D01*
X013884Y019923D02*
X014236Y019923D01*
X014188Y020022D02*
X013932Y020022D01*
X013957Y020120D02*
X014163Y020120D01*
X014163Y020219D02*
X013957Y020219D01*
X013957Y020317D02*
X014163Y020317D01*
X014163Y020416D02*
X013957Y020416D01*
X013957Y020514D02*
X014163Y020514D01*
X014163Y020613D02*
X013957Y020613D01*
X013957Y020711D02*
X014163Y020711D01*
X014184Y020810D02*
X013936Y020810D01*
X013893Y020908D02*
X014227Y020908D01*
X014326Y021007D02*
X013794Y021007D01*
X013326Y021007D02*
X012794Y021007D01*
X012785Y021016D02*
X012639Y021077D01*
X012481Y021077D01*
X012335Y021016D01*
X012224Y020905D01*
X012163Y020759D01*
X012163Y020081D01*
X012224Y019935D01*
X012335Y019824D01*
X012481Y019763D01*
X012639Y019763D01*
X012785Y019824D01*
X012896Y019935D01*
X012957Y020081D01*
X012957Y020759D01*
X012896Y020905D01*
X012785Y021016D01*
X012893Y020908D02*
X013227Y020908D01*
X013184Y020810D02*
X012936Y020810D01*
X012957Y020711D02*
X013163Y020711D01*
X013163Y020613D02*
X012957Y020613D01*
X012957Y020514D02*
X013163Y020514D01*
X013163Y020416D02*
X012957Y020416D01*
X012957Y020317D02*
X013163Y020317D01*
X013163Y020219D02*
X012957Y020219D01*
X012957Y020120D02*
X013163Y020120D01*
X013188Y020022D02*
X012932Y020022D01*
X012884Y019923D02*
X013236Y019923D01*
X013335Y019825D02*
X012785Y019825D01*
X012335Y019825D02*
X011785Y019825D01*
X011785Y019824D02*
X011896Y019935D01*
X011957Y020081D01*
X011957Y020759D01*
X011896Y020905D01*
X011785Y021016D01*
X011639Y021077D01*
X011481Y021077D01*
X011335Y021016D01*
X011224Y020905D01*
X011163Y020759D01*
X011163Y020081D01*
X011224Y019935D01*
X011335Y019824D01*
X011481Y019763D01*
X011639Y019763D01*
X011785Y019824D01*
X011884Y019923D02*
X012236Y019923D01*
X012188Y020022D02*
X011932Y020022D01*
X011957Y020120D02*
X012163Y020120D01*
X012163Y020219D02*
X011957Y020219D01*
X011957Y020317D02*
X012163Y020317D01*
X012163Y020416D02*
X011957Y020416D01*
X011957Y020514D02*
X012163Y020514D01*
X012163Y020613D02*
X011957Y020613D01*
X011957Y020711D02*
X012163Y020711D01*
X012184Y020810D02*
X011936Y020810D01*
X011893Y020908D02*
X012227Y020908D01*
X012326Y021007D02*
X011794Y021007D01*
X011326Y021007D02*
X010808Y021007D01*
X010827Y020993D02*
X010775Y021031D01*
X010717Y021060D01*
X010656Y021080D01*
X010592Y021090D01*
X010590Y021090D01*
X010590Y020450D01*
X010530Y020450D01*
X010530Y021090D01*
X010528Y021090D01*
X010464Y021080D01*
X010403Y021060D01*
X010345Y021031D01*
X010293Y020993D01*
X010247Y020947D01*
X010209Y020895D01*
X010180Y020837D01*
X010160Y020776D01*
X010150Y020712D01*
X010150Y020450D01*
X010530Y020450D01*
X010530Y020390D01*
X010150Y020390D01*
X010150Y020128D01*
X010160Y020064D01*
X010180Y020003D01*
X010209Y019945D01*
X010247Y019893D01*
X010293Y019847D01*
X010345Y019809D01*
X010403Y019780D01*
X010464Y019760D01*
X010528Y019750D01*
X010530Y019750D01*
X010530Y020390D01*
X010590Y020390D01*
X010590Y020450D01*
X010970Y020450D01*
X010970Y020712D01*
X010960Y020776D01*
X010940Y020837D01*
X010911Y020895D01*
X010873Y020947D01*
X010827Y020993D01*
X010901Y020908D02*
X011227Y020908D01*
X011184Y020810D02*
X010949Y020810D01*
X010970Y020711D02*
X011163Y020711D01*
X011163Y020613D02*
X010970Y020613D01*
X010970Y020514D02*
X011163Y020514D01*
X011163Y020416D02*
X010590Y020416D01*
X010590Y020390D02*
X010970Y020390D01*
X010970Y020128D01*
X010960Y020064D01*
X010940Y020003D01*
X010911Y019945D01*
X010873Y019893D01*
X010827Y019847D01*
X010775Y019809D01*
X010717Y019780D01*
X010656Y019760D01*
X010592Y019750D01*
X010590Y019750D01*
X010590Y020390D01*
X010530Y020416D02*
X009957Y020416D01*
X009957Y020514D02*
X010150Y020514D01*
X010150Y020613D02*
X009957Y020613D01*
X009957Y020711D02*
X010150Y020711D01*
X010171Y020810D02*
X009936Y020810D01*
X009957Y020759D02*
X009896Y020905D01*
X009785Y021016D01*
X009639Y021077D01*
X009481Y021077D01*
X009335Y021016D01*
X009224Y020905D01*
X009163Y020759D01*
X009163Y020081D01*
X009224Y019935D01*
X009335Y019824D01*
X009481Y019763D01*
X009639Y019763D01*
X009785Y019824D01*
X009896Y019935D01*
X009957Y020081D01*
X009957Y020759D01*
X009893Y020908D02*
X010219Y020908D01*
X010312Y021007D02*
X009794Y021007D01*
X009326Y021007D02*
X008794Y021007D01*
X008785Y021016D02*
X008639Y021077D01*
X008481Y021077D01*
X008335Y021016D01*
X008224Y020905D01*
X008163Y020759D01*
X008163Y020081D01*
X008224Y019935D01*
X008335Y019824D01*
X008481Y019763D01*
X008639Y019763D01*
X008785Y019824D01*
X008896Y019935D01*
X008957Y020081D01*
X008957Y020759D01*
X008896Y020905D01*
X008785Y021016D01*
X008893Y020908D02*
X009227Y020908D01*
X009184Y020810D02*
X008936Y020810D01*
X008957Y020711D02*
X009163Y020711D01*
X009163Y020613D02*
X008957Y020613D01*
X008957Y020514D02*
X009163Y020514D01*
X009163Y020416D02*
X008957Y020416D01*
X008957Y020317D02*
X009163Y020317D01*
X009163Y020219D02*
X008957Y020219D01*
X008957Y020120D02*
X009163Y020120D01*
X009188Y020022D02*
X008932Y020022D01*
X008884Y019923D02*
X009236Y019923D01*
X009335Y019825D02*
X008785Y019825D01*
X009055Y019529D02*
X009505Y019529D01*
X009473Y019431D02*
X009135Y019431D01*
X009135Y019332D02*
X009473Y019332D01*
X009660Y019332D02*
X013160Y019332D01*
X013160Y019420D02*
X013160Y016420D01*
X009660Y016420D01*
X009660Y019420D01*
X013160Y019420D01*
X013160Y019234D02*
X009660Y019234D01*
X009660Y019135D02*
X013160Y019135D01*
X013160Y019037D02*
X009660Y019037D01*
X009660Y018938D02*
X013160Y018938D01*
X013160Y018840D02*
X009660Y018840D01*
X009660Y018741D02*
X013160Y018741D01*
X013160Y018643D02*
X009660Y018643D01*
X009660Y018544D02*
X013160Y018544D01*
X013160Y018446D02*
X009660Y018446D01*
X009660Y018347D02*
X013160Y018347D01*
X013160Y018249D02*
X009660Y018249D01*
X009660Y018150D02*
X013160Y018150D01*
X013160Y018052D02*
X009660Y018052D01*
X009660Y017953D02*
X013160Y017953D01*
X013160Y017855D02*
X009660Y017855D01*
X009660Y017756D02*
X013160Y017756D01*
X013160Y017658D02*
X009660Y017658D01*
X009660Y017559D02*
X013160Y017559D01*
X013160Y017461D02*
X009660Y017461D01*
X009660Y017362D02*
X013160Y017362D01*
X013160Y017264D02*
X009660Y017264D01*
X009660Y017165D02*
X013160Y017165D01*
X013160Y017067D02*
X009660Y017067D01*
X009660Y016968D02*
X013160Y016968D01*
X013160Y016870D02*
X009660Y016870D01*
X009660Y016771D02*
X013160Y016771D01*
X013160Y016673D02*
X009660Y016673D01*
X009660Y016574D02*
X013160Y016574D01*
X013160Y016476D02*
X009660Y016476D01*
X009473Y016476D02*
X008467Y016476D01*
X008369Y016574D02*
X009473Y016574D01*
X009473Y016377D02*
X008566Y016377D01*
X008664Y016279D02*
X009538Y016279D01*
X009114Y016673D02*
X008270Y016673D01*
X008206Y016771D02*
X009114Y016771D01*
X009114Y016870D02*
X008206Y016870D01*
X008206Y016968D02*
X009114Y016968D01*
X009114Y017067D02*
X008206Y017067D01*
X008206Y017165D02*
X009114Y017165D01*
X009114Y017264D02*
X008206Y017264D01*
X008206Y017362D02*
X009114Y017362D01*
X009114Y017461D02*
X008206Y017461D01*
X008206Y017559D02*
X009114Y017559D01*
X009114Y017658D02*
X008206Y017658D01*
X008206Y017756D02*
X009114Y017756D01*
X009114Y017855D02*
X008206Y017855D01*
X008206Y017953D02*
X009114Y017953D01*
X009114Y018052D02*
X008206Y018052D01*
X008206Y018150D02*
X009114Y018150D01*
X009159Y018249D02*
X008143Y018249D01*
X007961Y018347D02*
X007378Y018347D01*
X007416Y018446D02*
X007917Y018446D01*
X007917Y018544D02*
X007416Y018544D01*
X007416Y018643D02*
X007917Y018643D01*
X007917Y018741D02*
X007416Y018741D01*
X007416Y018840D02*
X007917Y018840D01*
X007917Y018938D02*
X006844Y018938D01*
X006844Y019037D02*
X006744Y019037D01*
X006744Y019135D02*
X006844Y019135D01*
X006844Y019234D02*
X006744Y019234D01*
X006744Y019332D02*
X006844Y019332D01*
X006844Y019431D02*
X006744Y019431D01*
X006744Y019529D02*
X006844Y019529D01*
X007236Y019923D02*
X004210Y019923D01*
X004210Y019970D02*
X005134Y019970D01*
X005121Y020052D01*
X005094Y020136D01*
X005054Y020215D01*
X005002Y020286D01*
X004939Y020349D01*
X004867Y020401D01*
X004788Y020441D01*
X004704Y020469D01*
X004617Y020482D01*
X004210Y020482D01*
X004210Y019970D01*
X004210Y020022D02*
X004110Y020022D01*
X004110Y020120D02*
X004210Y020120D01*
X004210Y020219D02*
X004110Y020219D01*
X004110Y020317D02*
X004210Y020317D01*
X004210Y020416D02*
X004110Y020416D01*
X004110Y019923D02*
X000368Y019923D01*
X000368Y019825D02*
X003193Y019825D01*
X003199Y019788D02*
X003226Y019704D01*
X003266Y019625D01*
X003318Y019554D01*
X003381Y019491D01*
X003453Y019439D01*
X003532Y019399D01*
X003616Y019371D01*
X003703Y019358D01*
X004110Y019358D01*
X004110Y019870D01*
X003186Y019870D01*
X003199Y019788D01*
X003219Y019726D02*
X000368Y019726D01*
X000368Y019628D02*
X003265Y019628D01*
X003343Y019529D02*
X000368Y019529D01*
X000368Y019431D02*
X003469Y019431D01*
X004110Y019431D02*
X004210Y019431D01*
X004210Y019529D02*
X004110Y019529D01*
X004110Y019628D02*
X004210Y019628D01*
X004210Y019726D02*
X004110Y019726D01*
X004110Y019825D02*
X004210Y019825D01*
X004851Y019431D02*
X006176Y019431D01*
X006171Y019332D02*
X000368Y019332D01*
X000368Y019234D02*
X006171Y019234D01*
X006171Y019135D02*
X000368Y019135D01*
X000368Y019037D02*
X006171Y019037D01*
X006171Y018840D02*
X000368Y018840D01*
X000368Y018938D02*
X006744Y018938D01*
X006171Y018741D02*
X000368Y018741D01*
X000368Y018643D02*
X006171Y018643D01*
X006171Y018544D02*
X000368Y018544D01*
X000368Y018446D02*
X003581Y018446D01*
X003398Y018347D02*
X000368Y018347D01*
X000368Y018249D02*
X003299Y018249D01*
X003248Y018150D02*
X000368Y018150D01*
X000368Y018052D02*
X003208Y018052D01*
X003198Y017953D02*
X000368Y017953D01*
X000368Y017855D02*
X003198Y017855D01*
X003221Y017756D02*
X000368Y017756D01*
X000368Y017658D02*
X003262Y017658D01*
X003332Y017559D02*
X000368Y017559D01*
X000368Y017461D02*
X003430Y017461D01*
X004110Y016476D02*
X004210Y016476D01*
X004210Y016377D02*
X004110Y016377D01*
X004110Y016279D02*
X004210Y016279D01*
X004210Y016180D02*
X004110Y016180D01*
X004110Y016082D02*
X004210Y016082D01*
X004210Y015786D02*
X004110Y015786D01*
X004110Y015688D02*
X004210Y015688D01*
X004210Y015589D02*
X004110Y015589D01*
X004110Y015491D02*
X004210Y015491D01*
X004210Y015392D02*
X004110Y015392D01*
X003382Y015491D02*
X000368Y015491D01*
X000368Y015589D02*
X003293Y015589D01*
X003235Y015688D02*
X000368Y015688D01*
X000368Y015786D02*
X003200Y015786D01*
X005027Y015589D02*
X009565Y015589D01*
X009473Y015491D02*
X009094Y015491D01*
X009135Y015392D02*
X009473Y015392D01*
X009660Y015392D02*
X013160Y015392D01*
X013160Y015420D02*
X013160Y012446D01*
X009660Y012446D01*
X009660Y015420D01*
X013160Y015420D01*
X013160Y015294D02*
X009660Y015294D01*
X009660Y015195D02*
X013160Y015195D01*
X013160Y015097D02*
X009660Y015097D01*
X009660Y014998D02*
X013160Y014998D01*
X013160Y014900D02*
X009660Y014900D01*
X009660Y014801D02*
X013160Y014801D01*
X013160Y014703D02*
X009660Y014703D01*
X009660Y014604D02*
X013160Y014604D01*
X013160Y014506D02*
X009660Y014506D01*
X009660Y014407D02*
X013160Y014407D01*
X013160Y014309D02*
X009660Y014309D01*
X009660Y014210D02*
X013160Y014210D01*
X013160Y014112D02*
X009660Y014112D01*
X009660Y014013D02*
X013160Y014013D01*
X013160Y013915D02*
X009660Y013915D01*
X009660Y013816D02*
X013160Y013816D01*
X013160Y013718D02*
X009660Y013718D01*
X009660Y013619D02*
X013160Y013619D01*
X013160Y013521D02*
X009660Y013521D01*
X009660Y013422D02*
X013160Y013422D01*
X013160Y013324D02*
X009660Y013324D01*
X009660Y013225D02*
X013160Y013225D01*
X013160Y013127D02*
X009660Y013127D01*
X009660Y013028D02*
X013160Y013028D01*
X013160Y012930D02*
X009660Y012930D01*
X009660Y012831D02*
X013160Y012831D01*
X013160Y012733D02*
X009660Y012733D01*
X009660Y012634D02*
X013160Y012634D01*
X013160Y012536D02*
X009660Y012536D01*
X009473Y012536D02*
X008407Y012536D01*
X008309Y012634D02*
X009135Y012634D01*
X009114Y012733D02*
X008210Y012733D01*
X008206Y012831D02*
X009114Y012831D01*
X009114Y012930D02*
X008206Y012930D01*
X008206Y013028D02*
X009114Y013028D01*
X009114Y013127D02*
X008206Y013127D01*
X008206Y013225D02*
X009114Y013225D01*
X009114Y013324D02*
X008206Y013324D01*
X008206Y013422D02*
X009114Y013422D01*
X009114Y013521D02*
X008206Y013521D01*
X008206Y013619D02*
X009114Y013619D01*
X009114Y013718D02*
X008206Y013718D01*
X008206Y013816D02*
X009114Y013816D01*
X009114Y013915D02*
X008206Y013915D01*
X008206Y014013D02*
X009114Y014013D01*
X009114Y014112D02*
X008206Y014112D01*
X008181Y014210D02*
X009139Y014210D01*
X009159Y014309D02*
X007326Y014309D01*
X007411Y014407D02*
X007917Y014407D01*
X007917Y014506D02*
X007416Y014506D01*
X007416Y014604D02*
X007917Y014604D01*
X007917Y014703D02*
X007416Y014703D01*
X007416Y014801D02*
X007917Y014801D01*
X006844Y015097D02*
X006744Y015097D01*
X006744Y015195D02*
X006844Y015195D01*
X006844Y015294D02*
X006744Y015294D01*
X006744Y015392D02*
X006844Y015392D01*
X006844Y015491D02*
X006744Y015491D01*
X006171Y014801D02*
X000368Y014801D01*
X000368Y014703D02*
X006171Y014703D01*
X006171Y014604D02*
X000368Y014604D01*
X000368Y014506D02*
X006171Y014506D01*
X006177Y014407D02*
X004832Y014407D01*
X004961Y014309D02*
X006262Y014309D01*
X007342Y013521D02*
X004950Y013521D01*
X004805Y013422D02*
X007342Y013422D01*
X009135Y014407D02*
X009159Y014407D01*
X009159Y014506D02*
X009135Y014506D01*
X007342Y016673D02*
X000368Y016673D01*
X000368Y016771D02*
X007342Y016771D01*
X007342Y016870D02*
X000368Y016870D01*
X000368Y016968D02*
X007342Y016968D01*
X007342Y017067D02*
X000368Y017067D01*
X000368Y017165D02*
X007342Y017165D01*
X007342Y017264D02*
X000368Y017264D01*
X000368Y017362D02*
X007342Y017362D01*
X007342Y017461D02*
X004890Y017461D01*
X004922Y018347D02*
X006210Y018347D01*
X006171Y018446D02*
X004739Y018446D01*
X004977Y019529D02*
X006258Y019529D01*
X007224Y019935D02*
X007163Y020081D01*
X007163Y020759D01*
X007224Y020905D01*
X007335Y021016D01*
X007481Y021077D01*
X007639Y021077D01*
X007785Y021016D01*
X007896Y020905D01*
X007957Y020759D01*
X007957Y020081D01*
X007896Y019935D01*
X007785Y019824D01*
X007639Y019763D01*
X007481Y019763D01*
X007335Y019824D01*
X007224Y019935D01*
X007188Y020022D02*
X005126Y020022D01*
X005099Y020120D02*
X007163Y020120D01*
X007163Y020219D02*
X005051Y020219D01*
X004971Y020317D02*
X007163Y020317D01*
X007163Y020416D02*
X004839Y020416D01*
X005127Y019825D02*
X007335Y019825D01*
X007785Y019825D02*
X008335Y019825D01*
X008236Y019923D02*
X007884Y019923D01*
X007932Y020022D02*
X008188Y020022D01*
X008163Y020120D02*
X007957Y020120D01*
X007957Y020219D02*
X008163Y020219D01*
X008163Y020317D02*
X007957Y020317D01*
X007957Y020416D02*
X008163Y020416D01*
X008163Y020514D02*
X007957Y020514D01*
X007957Y020613D02*
X008163Y020613D01*
X008163Y020711D02*
X007957Y020711D01*
X007936Y020810D02*
X008184Y020810D01*
X008227Y020908D02*
X007893Y020908D01*
X007794Y021007D02*
X008326Y021007D01*
X007326Y021007D02*
X000386Y021007D01*
X000368Y020908D02*
X007227Y020908D01*
X007184Y020810D02*
X000368Y020810D01*
X000368Y020711D02*
X007163Y020711D01*
X007163Y020613D02*
X000368Y020613D01*
X000368Y020514D02*
X007163Y020514D01*
X007997Y019529D02*
X007917Y019449D01*
X007917Y019332D02*
X007416Y019332D01*
X007416Y019234D02*
X007917Y019234D01*
X007917Y019135D02*
X007416Y019135D01*
X007416Y019037D02*
X007917Y019037D01*
X009135Y018446D02*
X009159Y018446D01*
X009159Y018347D02*
X009091Y018347D01*
X009785Y019825D02*
X010324Y019825D01*
X010225Y019923D02*
X009884Y019923D01*
X009932Y020022D02*
X010174Y020022D01*
X010151Y020120D02*
X009957Y020120D01*
X009957Y020219D02*
X010150Y020219D01*
X010150Y020317D02*
X009957Y020317D01*
X010530Y020317D02*
X010590Y020317D01*
X010590Y020219D02*
X010530Y020219D01*
X010530Y020120D02*
X010590Y020120D01*
X010590Y020022D02*
X010530Y020022D01*
X010530Y019923D02*
X010590Y019923D01*
X010590Y019825D02*
X010530Y019825D01*
X010796Y019825D02*
X011335Y019825D01*
X011236Y019923D02*
X010895Y019923D01*
X010946Y020022D02*
X011188Y020022D01*
X011163Y020120D02*
X010969Y020120D01*
X010970Y020219D02*
X011163Y020219D01*
X011163Y020317D02*
X010970Y020317D01*
X010590Y020514D02*
X010530Y020514D01*
X010530Y020613D02*
X010590Y020613D01*
X010590Y020711D02*
X010530Y020711D01*
X010530Y020810D02*
X010590Y020810D01*
X010590Y020908D02*
X010530Y020908D01*
X010530Y021007D02*
X010590Y021007D01*
X013347Y017362D02*
X014360Y017362D01*
X014098Y017264D02*
X013347Y017264D01*
X013347Y017165D02*
X014098Y017165D01*
X014098Y017067D02*
X013347Y017067D01*
X013347Y016968D02*
X014098Y016968D01*
X014098Y016870D02*
X013347Y016870D01*
X013347Y016771D02*
X014098Y016771D01*
X014384Y016673D02*
X013347Y016673D01*
X013347Y016377D02*
X014415Y016377D01*
X014413Y016279D02*
X013282Y016279D01*
X013347Y015195D02*
X014267Y015195D01*
X014124Y015097D02*
X013347Y015097D01*
X013347Y014998D02*
X014098Y014998D01*
X014083Y014900D02*
X013347Y014900D01*
X013347Y014801D02*
X014083Y014801D01*
X014092Y014703D02*
X013347Y014703D01*
X013347Y014604D02*
X014098Y014604D01*
X014157Y014506D02*
X013347Y014506D01*
X013347Y014407D02*
X014322Y014407D01*
X013347Y014309D02*
X015298Y014309D01*
X015698Y014210D02*
X013347Y014210D01*
X013347Y014112D02*
X015708Y014112D01*
X015708Y014013D02*
X013347Y014013D01*
X013347Y013915D02*
X015764Y013915D01*
X015708Y013816D02*
X013347Y013816D01*
X013347Y013718D02*
X015708Y013718D01*
X015686Y013619D02*
X013347Y013619D01*
X013347Y013521D02*
X015588Y013521D01*
X015489Y013422D02*
X013347Y013422D01*
X013347Y013324D02*
X014146Y013324D01*
X014098Y013225D02*
X013347Y013225D01*
X013347Y013127D02*
X014098Y013127D01*
X014098Y013028D02*
X013347Y013028D01*
X013347Y012930D02*
X014098Y012930D01*
X014098Y012831D02*
X013347Y012831D01*
X013347Y012733D02*
X014135Y012733D01*
X014818Y012536D02*
X013347Y012536D01*
X013347Y012634D02*
X014917Y012634D01*
X015992Y012831D02*
X016163Y012831D01*
X016218Y012930D02*
X016090Y012930D01*
X016189Y013028D02*
X017671Y013028D01*
X017671Y013127D02*
X016287Y013127D01*
X016556Y013915D02*
X016838Y013915D01*
X016612Y014013D02*
X018035Y014013D01*
X018035Y013953D02*
X017657Y013953D01*
X017657Y013785D01*
X017668Y013747D01*
X017687Y013713D01*
X017715Y013685D01*
X017749Y013665D01*
X017788Y013655D01*
X018035Y013655D01*
X018035Y013953D01*
X018035Y013915D02*
X018131Y013915D01*
X018131Y013816D02*
X018035Y013816D01*
X018035Y013718D02*
X018131Y013718D01*
X017685Y013718D02*
X017629Y013718D01*
X017629Y013816D02*
X017657Y013816D01*
X017657Y013915D02*
X017596Y013915D01*
X017657Y014112D02*
X016612Y014112D01*
X016612Y014210D02*
X017657Y014210D01*
X018461Y014309D02*
X018708Y014309D01*
X018708Y014210D02*
X018509Y014210D01*
X018509Y014112D02*
X018708Y014112D01*
X018695Y014900D02*
X018053Y014900D01*
X018576Y014998D02*
X018695Y014998D01*
X018787Y015786D02*
X021239Y015786D01*
X021239Y015688D02*
X021036Y015688D01*
X021159Y015589D02*
X021250Y015589D01*
X022621Y014998D02*
X022721Y014998D01*
X022721Y014900D02*
X022621Y014900D01*
X022621Y014801D02*
X022721Y014801D01*
X022721Y014506D02*
X022621Y014506D01*
X022621Y014407D02*
X022721Y014407D01*
X022721Y014309D02*
X022621Y014309D01*
X022621Y014210D02*
X022721Y014210D01*
X023116Y014703D02*
X023443Y014703D01*
X023443Y014801D02*
X023116Y014801D01*
X023113Y014900D02*
X023443Y014900D01*
X023443Y014998D02*
X023043Y014998D01*
X023443Y014013D02*
X020612Y014013D01*
X020612Y013915D02*
X023443Y013915D01*
X023443Y013816D02*
X020612Y013816D01*
X020596Y013718D02*
X023443Y013718D01*
X022570Y011637D02*
X022570Y011637D01*
X022443Y011157D02*
X021841Y011157D01*
X021923Y011058D02*
X022443Y011058D01*
X022443Y010960D02*
X021955Y010960D01*
X021814Y010664D02*
X022443Y010664D01*
X022443Y010566D02*
X020612Y010566D01*
X020597Y010467D02*
X022443Y010467D01*
X022443Y010369D02*
X020602Y010369D01*
X020612Y010270D02*
X022443Y010270D01*
X022443Y010172D02*
X020612Y010172D01*
X020612Y010073D02*
X022443Y010073D01*
X022443Y009975D02*
X020612Y009975D01*
X020612Y009876D02*
X022443Y009876D01*
X022443Y009778D02*
X020612Y009778D01*
X020557Y009679D02*
X022443Y009679D01*
X022443Y009581D02*
X019417Y009581D01*
X019417Y009482D02*
X022443Y009482D01*
X022443Y009384D02*
X019417Y009384D01*
X019382Y009285D02*
X022443Y009285D01*
X022443Y009187D02*
X019289Y009187D01*
X019191Y009088D02*
X022443Y009088D01*
X022443Y008990D02*
X020764Y008990D01*
X020749Y008998D02*
X020711Y009008D01*
X020446Y009008D01*
X020446Y008613D01*
X020841Y008613D01*
X020841Y008878D01*
X020831Y008916D01*
X020811Y008951D01*
X020783Y008978D01*
X020749Y008998D01*
X020838Y008891D02*
X022443Y008891D01*
X022443Y008793D02*
X020841Y008793D01*
X020841Y008694D02*
X022443Y008694D01*
X022443Y008596D02*
X020446Y008596D01*
X020446Y008613D02*
X020446Y008513D01*
X020446Y008118D01*
X020711Y008118D01*
X020749Y008128D01*
X020783Y008148D01*
X020811Y008176D01*
X020831Y008210D01*
X020841Y008248D01*
X020841Y008513D01*
X020446Y008513D01*
X020346Y008513D01*
X020346Y008118D01*
X020081Y008118D01*
X020043Y008128D01*
X020009Y008148D01*
X019981Y008176D01*
X019961Y008210D01*
X019951Y008248D01*
X019951Y008513D01*
X020346Y008513D01*
X020346Y008613D01*
X019951Y008613D01*
X019951Y008878D01*
X019961Y008916D01*
X019981Y008951D01*
X020009Y008978D01*
X020043Y008998D01*
X020081Y009008D01*
X020346Y009008D01*
X020346Y008613D01*
X020446Y008613D01*
X020446Y008694D02*
X020346Y008694D01*
X020346Y008596D02*
X019450Y008596D01*
X019450Y008694D02*
X019951Y008694D01*
X019951Y008793D02*
X019450Y008793D01*
X019450Y008891D02*
X019954Y008891D01*
X020028Y008990D02*
X019375Y008990D01*
X019450Y008497D02*
X019951Y008497D01*
X019951Y008399D02*
X019450Y008399D01*
X019450Y008300D02*
X019951Y008300D01*
X019966Y008202D02*
X019440Y008202D01*
X018655Y008005D02*
X015013Y008005D01*
X015112Y008103D02*
X016193Y008103D01*
X016163Y008202D02*
X015210Y008202D01*
X015953Y008793D02*
X016163Y008793D01*
X016179Y008891D02*
X016052Y008891D01*
X016150Y008990D02*
X017681Y008990D01*
X017671Y009088D02*
X016249Y009088D01*
X016565Y009187D02*
X017671Y009187D01*
X017671Y009285D02*
X016612Y009285D01*
X017629Y009384D02*
X017671Y009384D01*
X017671Y009482D02*
X017629Y009482D01*
X017629Y009581D02*
X017744Y009581D01*
X017725Y009679D02*
X017629Y009679D01*
X017629Y009778D02*
X017659Y009778D01*
X017657Y009876D02*
X017629Y009876D01*
X018035Y009876D02*
X018131Y009876D01*
X018131Y009778D02*
X018035Y009778D01*
X018035Y009679D02*
X018131Y009679D01*
X018422Y009581D02*
X018903Y009581D01*
X018763Y009679D02*
X018441Y009679D01*
X018507Y009778D02*
X018708Y009778D01*
X018708Y009876D02*
X018509Y009876D01*
X018484Y008990D02*
X018661Y008990D01*
X018586Y008891D02*
X017681Y008891D01*
X017696Y008300D02*
X018586Y008300D01*
X018596Y008202D02*
X017696Y008202D01*
X017667Y008103D02*
X022443Y008103D01*
X022443Y008005D02*
X022200Y008005D01*
X022298Y007906D02*
X022443Y007906D01*
X022443Y007808D02*
X022397Y007808D01*
X022443Y008202D02*
X020826Y008202D01*
X020841Y008300D02*
X022443Y008300D01*
X022443Y008399D02*
X020841Y008399D01*
X020841Y008497D02*
X022443Y008497D01*
X022877Y007906D02*
X026952Y007906D01*
X026952Y007808D02*
X022877Y007808D01*
X022877Y007709D02*
X026952Y007709D01*
X026952Y007611D02*
X022877Y007611D01*
X022877Y007512D02*
X026952Y007512D01*
X023051Y007414D02*
X022877Y007414D01*
X022889Y007315D02*
X023027Y007315D01*
X020446Y008202D02*
X020346Y008202D01*
X020346Y008300D02*
X020446Y008300D01*
X020446Y008399D02*
X020346Y008399D01*
X020346Y008497D02*
X020446Y008497D01*
X020446Y008793D02*
X020346Y008793D01*
X020346Y008891D02*
X020446Y008891D01*
X020446Y008990D02*
X020346Y008990D01*
X019763Y009679D02*
X019557Y009679D01*
X019612Y009778D02*
X019708Y009778D01*
X019718Y010369D02*
X019602Y010369D01*
X019607Y010467D02*
X019723Y010467D01*
X019708Y010566D02*
X019625Y010566D01*
X019625Y010664D02*
X019708Y010664D01*
X019708Y010763D02*
X019210Y010763D01*
X019625Y010861D02*
X019708Y010861D01*
X019708Y010960D02*
X019625Y010960D01*
X019625Y011058D02*
X019708Y011058D01*
X019758Y011157D02*
X019580Y011157D01*
X020562Y011157D02*
X021479Y011157D01*
X021397Y011058D02*
X020612Y011058D01*
X020446Y012142D02*
X020346Y012142D01*
X020346Y012240D02*
X020446Y012240D01*
X020446Y012339D02*
X020346Y012339D01*
X020346Y012437D02*
X020446Y012437D01*
X020020Y012142D02*
X019380Y012142D01*
X019450Y012240D02*
X019953Y012240D01*
X019951Y012339D02*
X019450Y012339D01*
X019450Y012437D02*
X019951Y012437D01*
X020346Y012733D02*
X020446Y012733D01*
X020446Y012831D02*
X020346Y012831D01*
X020346Y012930D02*
X020446Y012930D01*
X016748Y011846D02*
X005130Y011846D01*
X005108Y011748D02*
X016148Y011748D01*
X016060Y011255D02*
X015721Y011255D01*
X015879Y011157D02*
X016084Y011157D01*
X015963Y011058D02*
X016274Y011058D01*
X014415Y010369D02*
X013347Y010369D01*
X013347Y010467D02*
X014240Y010467D01*
X014098Y010566D02*
X013347Y010566D01*
X013347Y010664D02*
X014098Y010664D01*
X014083Y010763D02*
X013347Y010763D01*
X013347Y010861D02*
X014083Y010861D01*
X014098Y010960D02*
X013347Y010960D01*
X013347Y011058D02*
X014098Y011058D01*
X014229Y011157D02*
X013347Y011157D01*
X013347Y011255D02*
X014386Y011255D01*
X016919Y008103D02*
X016941Y008103D01*
X016709Y007808D02*
X005124Y007808D01*
X005095Y007709D02*
X016110Y007709D01*
X016070Y007611D02*
X005043Y007611D01*
X005134Y007970D02*
X005121Y008052D01*
X005094Y008136D01*
X005054Y008215D01*
X005002Y008286D01*
X004939Y008349D01*
X004867Y008401D01*
X004788Y008441D01*
X004704Y008469D01*
X004617Y008482D01*
X004210Y008482D01*
X004210Y007970D01*
X005134Y007970D01*
X005129Y008005D02*
X008213Y008005D01*
X008114Y008103D02*
X005104Y008103D01*
X005060Y008202D02*
X008016Y008202D01*
X007917Y008300D02*
X004988Y008300D01*
X004871Y008399D02*
X007819Y008399D01*
X007720Y008497D02*
X000368Y008497D01*
X000368Y008399D02*
X003449Y008399D01*
X003332Y008300D02*
X000368Y008300D01*
X000368Y008202D02*
X003260Y008202D01*
X003216Y008103D02*
X000368Y008103D01*
X000368Y008005D02*
X003191Y008005D01*
X003186Y007870D02*
X003199Y007788D01*
X003226Y007704D01*
X003266Y007625D01*
X003318Y007554D01*
X003381Y007491D01*
X003453Y007439D01*
X003532Y007399D01*
X003616Y007371D01*
X003703Y007358D01*
X004110Y007358D01*
X004110Y007870D01*
X003186Y007870D01*
X003196Y007808D02*
X000368Y007808D01*
X000368Y007906D02*
X004110Y007906D01*
X004110Y007808D02*
X004210Y007808D01*
X004210Y007906D02*
X018557Y007906D01*
X018598Y007020D02*
X018695Y007020D01*
X018695Y006921D02*
X018047Y006921D01*
X018077Y006823D02*
X019110Y006823D01*
X018695Y006724D02*
X018077Y006724D01*
X018056Y006626D02*
X018695Y006626D01*
X018695Y006527D02*
X018015Y006527D01*
X017918Y006429D02*
X018743Y006429D01*
X018708Y006330D02*
X018431Y006330D01*
X018416Y006338D02*
X018378Y006349D01*
X018131Y006349D01*
X018131Y006050D01*
X018035Y006050D01*
X018035Y005953D01*
X018131Y005953D01*
X018131Y005655D01*
X018378Y005655D01*
X018416Y005665D01*
X018451Y005685D01*
X018479Y005713D01*
X018498Y005747D01*
X018509Y005785D01*
X018509Y005953D01*
X018131Y005953D01*
X018131Y006050D01*
X018509Y006050D01*
X018509Y006218D01*
X018498Y006256D01*
X018479Y006291D01*
X018451Y006319D01*
X018416Y006338D01*
X018505Y006232D02*
X018708Y006232D01*
X018708Y006133D02*
X018509Y006133D01*
X018509Y005936D02*
X018708Y005936D01*
X018708Y005838D02*
X018509Y005838D01*
X018494Y005739D02*
X018708Y005739D01*
X018903Y005641D02*
X017629Y005641D01*
X017687Y005713D02*
X017715Y005685D01*
X017749Y005665D01*
X017788Y005655D01*
X018035Y005655D01*
X018035Y005953D01*
X017657Y005953D01*
X017657Y005785D01*
X017668Y005747D01*
X017687Y005713D01*
X017672Y005739D02*
X017629Y005739D01*
X017629Y005838D02*
X017657Y005838D01*
X017657Y005936D02*
X017574Y005936D01*
X017657Y006133D02*
X016612Y006133D01*
X016612Y006035D02*
X018035Y006035D01*
X018131Y006035D02*
X018708Y006035D01*
X018903Y005542D02*
X018460Y005542D01*
X018131Y005739D02*
X018035Y005739D01*
X018035Y005838D02*
X018131Y005838D01*
X018131Y005936D02*
X018035Y005936D01*
X018035Y006133D02*
X018131Y006133D01*
X018131Y006232D02*
X018035Y006232D01*
X018035Y006330D02*
X018131Y006330D01*
X017661Y006232D02*
X017646Y006232D01*
X017629Y005542D02*
X017706Y005542D01*
X017671Y005444D02*
X017629Y005444D01*
X017600Y005345D02*
X017671Y005345D01*
X017671Y005247D02*
X016612Y005247D01*
X016612Y005345D02*
X016834Y005345D01*
X016873Y004951D02*
X016987Y004951D01*
X017621Y004951D02*
X017720Y004951D01*
X017696Y004853D02*
X018586Y004853D01*
X018622Y004951D02*
X018446Y004951D01*
X018586Y004262D02*
X017696Y004262D01*
X017696Y004163D02*
X018634Y004163D01*
X018914Y004065D02*
X017629Y004065D01*
X016979Y004065D02*
X016881Y004065D01*
X016231Y004065D02*
X015073Y004065D01*
X015172Y004163D02*
X016163Y004163D01*
X016163Y004853D02*
X016013Y004853D01*
X016112Y004951D02*
X016239Y004951D01*
X016210Y005050D02*
X017671Y005050D01*
X017671Y005148D02*
X016309Y005148D01*
X015609Y005542D02*
X013347Y005542D01*
X013347Y005444D02*
X015511Y005444D01*
X015708Y005641D02*
X013347Y005641D01*
X013347Y005739D02*
X015708Y005739D01*
X015708Y005838D02*
X013347Y005838D01*
X013347Y005936D02*
X015754Y005936D01*
X015708Y006035D02*
X013347Y006035D01*
X013347Y006133D02*
X015708Y006133D01*
X015450Y006232D02*
X013347Y006232D01*
X013347Y006330D02*
X015276Y006330D01*
X015917Y007118D02*
X016123Y007118D01*
X016075Y007217D02*
X015814Y007217D01*
X016035Y007315D02*
X013347Y007315D01*
X013347Y007217D02*
X014293Y007217D01*
X014145Y007118D02*
X013347Y007118D01*
X013347Y007020D02*
X014098Y007020D01*
X014088Y006921D02*
X013347Y006921D01*
X013347Y006823D02*
X014083Y006823D01*
X014083Y006724D02*
X013347Y006724D01*
X013347Y006626D02*
X014098Y006626D01*
X014135Y006527D02*
X013347Y006527D01*
X013347Y006429D02*
X014279Y006429D01*
X013160Y006429D02*
X009660Y006429D01*
X009660Y006527D02*
X013160Y006527D01*
X013160Y006626D02*
X009660Y006626D01*
X009660Y006724D02*
X013160Y006724D01*
X013160Y006823D02*
X009660Y006823D01*
X009660Y006921D02*
X013160Y006921D01*
X013160Y007020D02*
X009660Y007020D01*
X009660Y007118D02*
X013160Y007118D01*
X013160Y007217D02*
X009660Y007217D01*
X009660Y007315D02*
X013160Y007315D01*
X013160Y007414D02*
X009660Y007414D01*
X009660Y007420D02*
X009660Y004446D01*
X013160Y004446D01*
X013160Y007420D01*
X009660Y007420D01*
X009473Y007414D02*
X009135Y007414D01*
X009135Y007315D02*
X009473Y007315D01*
X009488Y007512D02*
X009072Y007512D01*
X009135Y006527D02*
X009159Y006527D01*
X009159Y006429D02*
X009135Y006429D01*
X009159Y006330D02*
X009074Y006330D01*
X009159Y006232D02*
X008160Y006232D01*
X008206Y006133D02*
X009114Y006133D01*
X009114Y006035D02*
X008206Y006035D01*
X008206Y005936D02*
X009114Y005936D01*
X009114Y005838D02*
X008206Y005838D01*
X008206Y005739D02*
X009114Y005739D01*
X009114Y005641D02*
X008206Y005641D01*
X008206Y005542D02*
X009114Y005542D01*
X009114Y005444D02*
X008206Y005444D01*
X008206Y005345D02*
X009114Y005345D01*
X009114Y005247D02*
X008206Y005247D01*
X008206Y005148D02*
X009114Y005148D01*
X009114Y005050D02*
X008206Y005050D01*
X008206Y004951D02*
X009114Y004951D01*
X009114Y004853D02*
X008206Y004853D01*
X008206Y004754D02*
X009114Y004754D01*
X009114Y004656D02*
X008287Y004656D01*
X008386Y004557D02*
X009473Y004557D01*
X009473Y004459D02*
X008484Y004459D01*
X008054Y004163D02*
X006835Y004163D01*
X006920Y004065D02*
X008153Y004065D01*
X008260Y003966D02*
X006955Y003966D01*
X006955Y003868D02*
X018914Y003868D01*
X018914Y003966D02*
X014966Y003966D01*
X014741Y004459D02*
X013347Y004459D01*
X013347Y004557D02*
X014840Y004557D01*
X014425Y004656D02*
X013347Y004656D01*
X013347Y004754D02*
X014113Y004754D01*
X014098Y004853D02*
X013347Y004853D01*
X013347Y004951D02*
X014098Y004951D01*
X014098Y005050D02*
X013347Y005050D01*
X013347Y005148D02*
X014098Y005148D01*
X014098Y005247D02*
X013347Y005247D01*
X013347Y005345D02*
X014167Y005345D01*
X013160Y005345D02*
X009660Y005345D01*
X009660Y005247D02*
X013160Y005247D01*
X013160Y005148D02*
X009660Y005148D01*
X009660Y005050D02*
X013160Y005050D01*
X013160Y004951D02*
X009660Y004951D01*
X009660Y004853D02*
X013160Y004853D01*
X013160Y004754D02*
X009660Y004754D01*
X009660Y004656D02*
X013160Y004656D01*
X013160Y004557D02*
X009660Y004557D01*
X009660Y004459D02*
X013160Y004459D01*
X013406Y003572D02*
X011970Y003572D01*
X012035Y003474D02*
X013308Y003474D01*
X012791Y003375D02*
X012762Y003375D01*
X012272Y003375D02*
X012255Y003375D01*
X011697Y003572D02*
X011108Y003572D01*
X011173Y003474D02*
X011632Y003474D01*
X010835Y003572D02*
X006427Y003572D01*
X006427Y003671D02*
X006492Y003671D01*
X006352Y003474D02*
X010770Y003474D01*
X010550Y003375D02*
X010128Y003375D01*
X010227Y003277D02*
X010452Y003277D01*
X009550Y003375D02*
X009521Y003375D01*
X009031Y003375D02*
X009014Y003375D01*
X008897Y002981D02*
X008794Y002981D01*
X008794Y002883D02*
X008912Y002883D01*
X009011Y002784D02*
X008769Y002784D01*
X008436Y003375D02*
X008406Y003375D01*
X007917Y003375D02*
X007887Y003375D01*
X007309Y003375D02*
X002393Y003375D01*
X002357Y003277D02*
X004893Y003277D01*
X004893Y003292D02*
X004893Y003117D01*
X003579Y003117D01*
X003463Y003001D01*
X003112Y002650D01*
X003074Y002650D01*
X002914Y002584D01*
X002793Y002462D01*
X002727Y002303D01*
X002727Y001537D01*
X002793Y001378D01*
X002914Y001256D01*
X003074Y001190D01*
X003246Y001190D01*
X003406Y001256D01*
X003527Y001378D01*
X003593Y001537D01*
X003593Y002303D01*
X003527Y002462D01*
X003504Y002486D01*
X003741Y002723D01*
X004893Y002723D01*
X004893Y002548D01*
X004973Y002468D01*
X005598Y002468D01*
X005660Y002530D01*
X005722Y002468D01*
X006347Y002468D01*
X006427Y002548D01*
X006427Y002723D01*
X006439Y002723D01*
X006493Y002670D01*
X006601Y002625D01*
X006719Y002625D01*
X006827Y002670D01*
X006910Y002753D01*
X006955Y002861D01*
X006955Y002979D01*
X006910Y003087D01*
X006827Y003170D01*
X006719Y003215D01*
X006601Y003215D01*
X006493Y003170D01*
X006439Y003117D01*
X006427Y003117D01*
X006427Y003292D01*
X006347Y003372D01*
X005722Y003372D01*
X005660Y003310D01*
X005598Y003372D01*
X004973Y003372D01*
X004893Y003292D01*
X004893Y003178D02*
X002357Y003178D01*
X002357Y003080D02*
X003541Y003080D01*
X003443Y002981D02*
X002357Y002981D01*
X002357Y002883D02*
X003344Y002883D01*
X003246Y002784D02*
X002357Y002784D01*
X002357Y002686D02*
X003147Y002686D01*
X002921Y002587D02*
X002399Y002587D01*
X002501Y002489D02*
X002819Y002489D01*
X002763Y002390D02*
X002557Y002390D01*
X002593Y002292D02*
X002727Y002292D01*
X002727Y002193D02*
X002593Y002193D01*
X002593Y002095D02*
X002727Y002095D01*
X002727Y001996D02*
X002593Y001996D01*
X002593Y001898D02*
X002727Y001898D01*
X002727Y001799D02*
X002593Y001799D01*
X002593Y001701D02*
X002727Y001701D01*
X002727Y001602D02*
X002593Y001602D01*
X002580Y001504D02*
X002740Y001504D01*
X002781Y001405D02*
X002539Y001405D01*
X002456Y001307D02*
X002864Y001307D01*
X003030Y001208D02*
X002290Y001208D01*
X002030Y001208D02*
X001290Y001208D01*
X001246Y001190D02*
X001406Y001256D01*
X001527Y001378D01*
X001593Y001537D01*
X001593Y002303D01*
X001527Y002462D01*
X001406Y002584D01*
X001357Y002605D01*
X001357Y003839D01*
X002241Y004723D01*
X004893Y004723D01*
X004893Y004548D01*
X004973Y004468D01*
X005598Y004468D01*
X005660Y004530D01*
X005722Y004468D01*
X006347Y004468D01*
X006427Y004548D01*
X006427Y004723D01*
X006439Y004723D01*
X006493Y004670D01*
X006601Y004625D01*
X006719Y004625D01*
X006827Y004670D01*
X006910Y004753D01*
X006955Y004861D01*
X006955Y004979D01*
X006910Y005087D01*
X006827Y005170D01*
X006719Y005215D01*
X006601Y005215D01*
X006493Y005170D01*
X006439Y005117D01*
X006427Y005117D01*
X006427Y005292D01*
X006347Y005372D01*
X005722Y005372D01*
X005660Y005310D01*
X005598Y005372D01*
X004973Y005372D01*
X004893Y005292D01*
X004893Y005117D01*
X002079Y005117D01*
X001963Y005001D01*
X000963Y004001D01*
X000963Y002605D01*
X000914Y002584D01*
X000793Y002462D01*
X000727Y002303D01*
X000727Y001537D01*
X000793Y001378D01*
X000914Y001256D01*
X001074Y001190D01*
X001246Y001190D01*
X001030Y001208D02*
X000368Y001208D01*
X000368Y001110D02*
X010763Y001110D01*
X010763Y001081D02*
X010824Y000935D01*
X010935Y000824D01*
X011081Y000763D01*
X011239Y000763D01*
X011385Y000824D01*
X011496Y000935D01*
X011557Y001081D01*
X011557Y001759D01*
X011496Y001905D01*
X011385Y002016D01*
X011239Y002077D01*
X011081Y002077D01*
X010935Y002016D01*
X010824Y001905D01*
X010763Y001759D01*
X010763Y001081D01*
X010792Y001011D02*
X000368Y001011D01*
X000369Y000913D02*
X010847Y000913D01*
X010959Y000814D02*
X000394Y000814D01*
X000368Y001307D02*
X000864Y001307D01*
X000781Y001405D02*
X000368Y001405D01*
X000368Y001504D02*
X000740Y001504D01*
X000727Y001602D02*
X000368Y001602D01*
X000368Y001701D02*
X000727Y001701D01*
X000727Y001799D02*
X000368Y001799D01*
X000368Y001898D02*
X000727Y001898D01*
X000727Y001996D02*
X000368Y001996D01*
X000368Y002095D02*
X000727Y002095D01*
X000727Y002193D02*
X000368Y002193D01*
X000368Y002292D02*
X000727Y002292D01*
X000763Y002390D02*
X000368Y002390D01*
X000368Y002489D02*
X000819Y002489D01*
X000921Y002587D02*
X000368Y002587D01*
X000368Y002686D02*
X000963Y002686D01*
X000963Y002784D02*
X000368Y002784D01*
X000368Y002883D02*
X000963Y002883D01*
X000963Y002981D02*
X000368Y002981D01*
X000368Y003080D02*
X000963Y003080D01*
X000963Y003178D02*
X000368Y003178D01*
X000368Y003277D02*
X000963Y003277D01*
X000963Y003375D02*
X000368Y003375D01*
X000368Y003474D02*
X000963Y003474D01*
X000963Y003572D02*
X000368Y003572D01*
X000368Y003671D02*
X000963Y003671D01*
X000963Y003769D02*
X000368Y003769D01*
X000368Y003868D02*
X000963Y003868D01*
X000963Y003966D02*
X000368Y003966D01*
X000368Y004065D02*
X001026Y004065D01*
X001125Y004163D02*
X000368Y004163D01*
X000368Y004262D02*
X001223Y004262D01*
X001322Y004360D02*
X000368Y004360D01*
X000368Y004459D02*
X001420Y004459D01*
X001519Y004557D02*
X000368Y004557D01*
X000368Y004656D02*
X001617Y004656D01*
X001716Y004754D02*
X000368Y004754D01*
X000368Y004853D02*
X001814Y004853D01*
X001913Y004951D02*
X000368Y004951D01*
X000368Y005050D02*
X002011Y005050D01*
X001963Y005001D02*
X001963Y005001D01*
X002174Y004656D02*
X004893Y004656D01*
X004893Y004557D02*
X002075Y004557D01*
X001977Y004459D02*
X007759Y004459D01*
X007660Y004557D02*
X006427Y004557D01*
X006427Y004656D02*
X006527Y004656D01*
X006793Y004656D02*
X007342Y004656D01*
X007342Y004754D02*
X006911Y004754D01*
X006952Y004853D02*
X007342Y004853D01*
X007342Y004951D02*
X006955Y004951D01*
X006926Y005050D02*
X007342Y005050D01*
X007342Y005148D02*
X006850Y005148D01*
X006470Y005148D02*
X006427Y005148D01*
X006427Y005247D02*
X007342Y005247D01*
X007342Y005345D02*
X006373Y005345D01*
X005695Y005345D02*
X005625Y005345D01*
X004947Y005345D02*
X000368Y005345D01*
X000368Y005247D02*
X004893Y005247D01*
X004893Y005148D02*
X000368Y005148D01*
X000368Y005444D02*
X003463Y005444D01*
X003349Y005542D02*
X000368Y005542D01*
X000368Y005641D02*
X003269Y005641D01*
X003228Y005739D02*
X000368Y005739D01*
X000368Y005838D02*
X003198Y005838D01*
X003198Y005936D02*
X000368Y005936D01*
X000368Y006035D02*
X003201Y006035D01*
X003241Y006133D02*
X000368Y006133D01*
X000368Y006232D02*
X003282Y006232D01*
X003381Y006330D02*
X000368Y006330D01*
X000368Y006429D02*
X003540Y006429D01*
X003503Y007414D02*
X000368Y007414D01*
X000368Y007512D02*
X003360Y007512D01*
X003277Y007611D02*
X000368Y007611D01*
X000368Y007709D02*
X003225Y007709D01*
X004110Y007709D02*
X004210Y007709D01*
X004210Y007611D02*
X004110Y007611D01*
X004110Y007512D02*
X004210Y007512D01*
X004210Y007414D02*
X004110Y007414D01*
X004110Y008005D02*
X004210Y008005D01*
X004210Y008103D02*
X004110Y008103D01*
X004110Y008202D02*
X004210Y008202D01*
X004210Y008300D02*
X004110Y008300D01*
X004110Y008399D02*
X004210Y008399D01*
X004712Y009384D02*
X007342Y009384D01*
X007342Y009482D02*
X004911Y009482D01*
X003608Y009384D02*
X000368Y009384D01*
X000368Y009482D02*
X003409Y009482D01*
X003310Y009581D02*
X000368Y009581D01*
X000368Y009679D02*
X003253Y009679D01*
X003212Y009778D02*
X000368Y009778D01*
X000368Y009876D02*
X003198Y009876D01*
X003198Y009975D02*
X000368Y009975D01*
X000368Y010073D02*
X003217Y010073D01*
X003257Y010172D02*
X000368Y010172D01*
X000368Y010270D02*
X003321Y010270D01*
X003419Y010369D02*
X000368Y010369D01*
X000368Y010467D02*
X003633Y010467D01*
X003229Y012142D02*
X000368Y012142D01*
X000368Y012240D02*
X003285Y012240D01*
X003371Y012339D02*
X000368Y012339D01*
X000368Y012437D02*
X003523Y012437D01*
X000368Y009285D02*
X007342Y009285D01*
X007342Y009187D02*
X000368Y009187D01*
X000368Y009088D02*
X007342Y009088D01*
X007342Y008990D02*
X000368Y008990D01*
X000368Y008891D02*
X007342Y008891D01*
X007342Y008793D02*
X000368Y008793D01*
X000368Y008694D02*
X007342Y008694D01*
X007402Y008596D02*
X000368Y008596D01*
X000368Y007315D02*
X006171Y007315D01*
X006171Y007412D02*
X006182Y007450D01*
X006201Y007485D01*
X006229Y007512D01*
X006171Y007217D02*
X000368Y007217D01*
X000368Y007118D02*
X006171Y007118D01*
X006171Y007020D02*
X000368Y007020D01*
X000368Y006921D02*
X006744Y006921D01*
X006744Y007020D02*
X006844Y007020D01*
X006844Y007118D02*
X006744Y007118D01*
X006744Y007217D02*
X006844Y007217D01*
X006844Y007315D02*
X006744Y007315D01*
X006744Y007414D02*
X006844Y007414D01*
X006844Y007512D02*
X006744Y007512D01*
X006844Y006921D02*
X007917Y006921D01*
X007917Y006823D02*
X007416Y006823D01*
X007416Y006724D02*
X007917Y006724D01*
X007917Y006626D02*
X007416Y006626D01*
X007416Y006527D02*
X007917Y006527D01*
X007917Y006429D02*
X007416Y006429D01*
X007361Y006330D02*
X007978Y006330D01*
X007917Y007020D02*
X007416Y007020D01*
X007416Y007118D02*
X007917Y007118D01*
X007917Y007217D02*
X007416Y007217D01*
X007416Y007315D02*
X007917Y007315D01*
X007917Y007414D02*
X007416Y007414D01*
X007359Y007512D02*
X007980Y007512D01*
X008446Y008497D02*
X009473Y008497D01*
X009173Y008596D02*
X008347Y008596D01*
X008249Y008694D02*
X009114Y008694D01*
X009114Y008793D02*
X008206Y008793D01*
X008206Y008891D02*
X009114Y008891D01*
X009114Y008990D02*
X008206Y008990D01*
X008206Y009088D02*
X009114Y009088D01*
X009114Y009187D02*
X008206Y009187D01*
X008206Y009285D02*
X009114Y009285D01*
X009114Y009384D02*
X008206Y009384D01*
X008206Y009482D02*
X009114Y009482D01*
X009114Y009581D02*
X008206Y009581D01*
X008206Y009679D02*
X009114Y009679D01*
X009114Y009778D02*
X008206Y009778D01*
X008206Y009876D02*
X009114Y009876D01*
X009114Y009975D02*
X008206Y009975D01*
X008206Y010073D02*
X009114Y010073D01*
X009114Y010172D02*
X008206Y010172D01*
X006171Y006823D02*
X000368Y006823D01*
X000368Y006724D02*
X006171Y006724D01*
X006171Y006626D02*
X000368Y006626D01*
X000368Y006527D02*
X006171Y006527D01*
X006171Y006429D02*
X004780Y006429D01*
X004939Y006330D02*
X006227Y006330D01*
X007342Y005444D02*
X004857Y005444D01*
X004962Y004360D02*
X001878Y004360D01*
X001780Y004262D02*
X004893Y004262D01*
X004893Y004163D02*
X001681Y004163D01*
X001583Y004065D02*
X002526Y004065D01*
X002428Y003966D02*
X001484Y003966D01*
X001386Y003868D02*
X002329Y003868D01*
X002231Y003769D02*
X001357Y003769D01*
X001357Y003671D02*
X002132Y003671D01*
X002034Y003572D02*
X001357Y003572D01*
X001357Y003474D02*
X001963Y003474D01*
X001963Y003375D02*
X001357Y003375D01*
X001357Y003277D02*
X001963Y003277D01*
X001963Y003178D02*
X001357Y003178D01*
X001357Y003080D02*
X001963Y003080D01*
X001963Y002981D02*
X001357Y002981D01*
X001357Y002883D02*
X001963Y002883D01*
X001963Y002784D02*
X001357Y002784D01*
X001357Y002686D02*
X001963Y002686D01*
X001921Y002587D02*
X001399Y002587D01*
X001501Y002489D02*
X001819Y002489D01*
X001763Y002390D02*
X001557Y002390D01*
X001593Y002292D02*
X001727Y002292D01*
X001727Y002193D02*
X001593Y002193D01*
X001593Y002095D02*
X001727Y002095D01*
X001727Y001996D02*
X001593Y001996D01*
X001593Y001898D02*
X001727Y001898D01*
X001727Y001799D02*
X001593Y001799D01*
X001593Y001701D02*
X001727Y001701D01*
X001727Y001602D02*
X001593Y001602D01*
X001580Y001504D02*
X001740Y001504D01*
X001781Y001405D02*
X001539Y001405D01*
X001456Y001307D02*
X001864Y001307D01*
X003290Y001208D02*
X004030Y001208D01*
X004074Y001190D02*
X004246Y001190D01*
X004406Y001256D01*
X004527Y001378D01*
X004593Y001537D01*
X004593Y001723D01*
X004893Y001723D01*
X004893Y001548D01*
X004973Y001468D01*
X005598Y001468D01*
X005660Y001530D01*
X005722Y001468D01*
X006347Y001468D01*
X006427Y001548D01*
X006427Y001723D01*
X006439Y001723D01*
X006493Y001670D01*
X006601Y001625D01*
X006719Y001625D01*
X006827Y001670D01*
X006910Y001753D01*
X006955Y001861D01*
X006955Y001979D01*
X006910Y002087D01*
X006827Y002170D01*
X006719Y002215D01*
X006601Y002215D01*
X006493Y002170D01*
X006439Y002117D01*
X006427Y002117D01*
X006427Y002292D01*
X006347Y002372D01*
X005722Y002372D01*
X005660Y002310D01*
X005598Y002372D01*
X004973Y002372D01*
X004893Y002292D01*
X004893Y002117D01*
X004593Y002117D01*
X004593Y002303D01*
X004527Y002462D01*
X004406Y002584D01*
X004246Y002650D01*
X004074Y002650D01*
X003914Y002584D01*
X003793Y002462D01*
X003727Y002303D01*
X003727Y001537D01*
X003793Y001378D01*
X003914Y001256D01*
X004074Y001190D01*
X004290Y001208D02*
X010763Y001208D01*
X010763Y001307D02*
X004456Y001307D01*
X004539Y001405D02*
X010763Y001405D01*
X010763Y001504D02*
X006382Y001504D01*
X006427Y001602D02*
X010763Y001602D01*
X010763Y001701D02*
X006858Y001701D01*
X006930Y001799D02*
X010780Y001799D01*
X010821Y001898D02*
X006955Y001898D01*
X006948Y001996D02*
X010915Y001996D01*
X011405Y001996D02*
X011897Y001996D01*
X011893Y001993D02*
X011847Y001947D01*
X011809Y001895D01*
X011780Y001837D01*
X011760Y001776D01*
X011750Y001712D01*
X011750Y001450D01*
X012130Y001450D01*
X012130Y002090D01*
X012128Y002090D01*
X012064Y002080D01*
X012003Y002060D01*
X011945Y002031D01*
X011893Y001993D01*
X011811Y001898D02*
X011499Y001898D01*
X011540Y001799D02*
X011768Y001799D01*
X011750Y001701D02*
X011557Y001701D01*
X011557Y001602D02*
X011750Y001602D01*
X011750Y001504D02*
X011557Y001504D01*
X011557Y001405D02*
X012130Y001405D01*
X012130Y001390D02*
X011750Y001390D01*
X011750Y001128D01*
X011760Y001064D01*
X011780Y001003D01*
X011809Y000945D01*
X011847Y000893D01*
X011893Y000847D01*
X011945Y000809D01*
X012003Y000780D01*
X012064Y000760D01*
X012128Y000750D01*
X012130Y000750D01*
X012130Y001390D01*
X012190Y001390D01*
X012190Y001450D01*
X012570Y001450D01*
X012570Y001712D01*
X012560Y001776D01*
X012540Y001837D01*
X012511Y001895D01*
X012473Y001947D01*
X012427Y001993D01*
X012375Y002031D01*
X012317Y002060D01*
X012256Y002080D01*
X012192Y002090D01*
X012190Y002090D01*
X012190Y001450D01*
X012130Y001450D01*
X012130Y001390D01*
X012190Y001390D02*
X012190Y000750D01*
X012192Y000750D01*
X012256Y000760D01*
X012317Y000780D01*
X012375Y000809D01*
X012427Y000847D01*
X012473Y000893D01*
X012511Y000945D01*
X012540Y001003D01*
X012560Y001064D01*
X012570Y001128D01*
X012570Y001390D01*
X012190Y001390D01*
X012190Y001405D02*
X013130Y001405D01*
X013130Y001390D02*
X012750Y001390D01*
X012750Y001128D01*
X012760Y001064D01*
X012780Y001003D01*
X012809Y000945D01*
X012847Y000893D01*
X012893Y000847D01*
X012945Y000809D01*
X013003Y000780D01*
X013064Y000760D01*
X013128Y000750D01*
X013130Y000750D01*
X013130Y001390D01*
X013190Y001390D01*
X013190Y001450D01*
X013570Y001450D01*
X013570Y001712D01*
X013560Y001776D01*
X013540Y001837D01*
X013511Y001895D01*
X013473Y001947D01*
X013427Y001993D01*
X013375Y002031D01*
X013317Y002060D01*
X013256Y002080D01*
X013192Y002090D01*
X013190Y002090D01*
X013190Y001450D01*
X013130Y001450D01*
X013130Y002090D01*
X013128Y002090D01*
X013064Y002080D01*
X013003Y002060D01*
X012945Y002031D01*
X012893Y001993D01*
X012847Y001947D01*
X012809Y001895D01*
X012780Y001837D01*
X012760Y001776D01*
X012750Y001712D01*
X012750Y001450D01*
X013130Y001450D01*
X013130Y001390D01*
X013190Y001390D02*
X013190Y000750D01*
X013192Y000750D01*
X013256Y000760D01*
X013317Y000780D01*
X013375Y000809D01*
X013427Y000847D01*
X013473Y000893D01*
X013511Y000945D01*
X013540Y001003D01*
X013560Y001064D01*
X013570Y001128D01*
X013570Y001390D01*
X013190Y001390D01*
X013190Y001405D02*
X013763Y001405D01*
X013763Y001307D02*
X013570Y001307D01*
X013570Y001208D02*
X013763Y001208D01*
X013763Y001110D02*
X013567Y001110D01*
X013543Y001011D02*
X013792Y001011D01*
X013763Y001081D02*
X013824Y000935D01*
X013935Y000824D01*
X014081Y000763D01*
X014239Y000763D01*
X014385Y000824D01*
X014496Y000935D01*
X014557Y001081D01*
X014557Y001759D01*
X014496Y001905D01*
X014385Y002016D01*
X014239Y002077D01*
X014081Y002077D01*
X013935Y002016D01*
X013824Y001905D01*
X013763Y001759D01*
X013763Y001081D01*
X013847Y000913D02*
X013487Y000913D01*
X013381Y000814D02*
X013959Y000814D01*
X014361Y000814D02*
X014959Y000814D01*
X014935Y000824D02*
X015081Y000763D01*
X015239Y000763D01*
X015385Y000824D01*
X015496Y000935D01*
X015557Y001081D01*
X015557Y001759D01*
X015496Y001905D01*
X015385Y002016D01*
X015239Y002077D01*
X015081Y002077D01*
X014935Y002016D01*
X014824Y001905D01*
X014763Y001759D01*
X014763Y001081D01*
X014824Y000935D01*
X014935Y000824D01*
X014847Y000913D02*
X014473Y000913D01*
X014528Y001011D02*
X014792Y001011D01*
X014763Y001110D02*
X014557Y001110D01*
X014557Y001208D02*
X014763Y001208D01*
X014763Y001307D02*
X014557Y001307D01*
X014557Y001405D02*
X014763Y001405D01*
X014763Y001504D02*
X014557Y001504D01*
X014557Y001602D02*
X014763Y001602D01*
X014763Y001701D02*
X014557Y001701D01*
X014540Y001799D02*
X014780Y001799D01*
X014821Y001898D02*
X014499Y001898D01*
X014405Y001996D02*
X014915Y001996D01*
X015405Y001996D02*
X015915Y001996D01*
X015935Y002016D02*
X015824Y001905D01*
X015763Y001759D01*
X015763Y001081D01*
X015824Y000935D01*
X015935Y000824D01*
X016081Y000763D01*
X016239Y000763D01*
X016385Y000824D01*
X016496Y000935D01*
X016557Y001081D01*
X016557Y001759D01*
X016496Y001905D01*
X016385Y002016D01*
X016239Y002077D01*
X016081Y002077D01*
X015935Y002016D01*
X015821Y001898D02*
X015499Y001898D01*
X015540Y001799D02*
X015780Y001799D01*
X015763Y001701D02*
X015557Y001701D01*
X015557Y001602D02*
X015763Y001602D01*
X015763Y001504D02*
X015557Y001504D01*
X015557Y001405D02*
X015763Y001405D01*
X015763Y001307D02*
X015557Y001307D01*
X015557Y001208D02*
X015763Y001208D01*
X015763Y001110D02*
X015557Y001110D01*
X015528Y001011D02*
X015792Y001011D01*
X015847Y000913D02*
X015473Y000913D01*
X015361Y000814D02*
X015959Y000814D01*
X016361Y000814D02*
X016959Y000814D01*
X016935Y000824D02*
X017081Y000763D01*
X017239Y000763D01*
X017385Y000824D01*
X017496Y000935D01*
X017557Y001081D01*
X017557Y001759D01*
X017496Y001905D01*
X017385Y002016D01*
X017239Y002077D01*
X017081Y002077D01*
X016935Y002016D01*
X016824Y001905D01*
X016763Y001759D01*
X016763Y001081D01*
X016824Y000935D01*
X016935Y000824D01*
X016847Y000913D02*
X016473Y000913D01*
X016528Y001011D02*
X016792Y001011D01*
X016763Y001110D02*
X016557Y001110D01*
X016557Y001208D02*
X016763Y001208D01*
X016763Y001307D02*
X016557Y001307D01*
X016557Y001405D02*
X016763Y001405D01*
X016763Y001504D02*
X016557Y001504D01*
X016557Y001602D02*
X016763Y001602D01*
X016763Y001701D02*
X016557Y001701D01*
X016540Y001799D02*
X016780Y001799D01*
X016821Y001898D02*
X016499Y001898D01*
X016405Y001996D02*
X016915Y001996D01*
X017405Y001996D02*
X017915Y001996D01*
X017935Y002016D02*
X017824Y001905D01*
X017763Y001759D01*
X017763Y001081D01*
X017824Y000935D01*
X017935Y000824D01*
X018081Y000763D01*
X018239Y000763D01*
X018385Y000824D01*
X018496Y000935D01*
X018557Y001081D01*
X018557Y001759D01*
X018496Y001905D01*
X018385Y002016D01*
X018239Y002077D01*
X018081Y002077D01*
X017935Y002016D01*
X017821Y001898D02*
X017499Y001898D01*
X017540Y001799D02*
X017780Y001799D01*
X017763Y001701D02*
X017557Y001701D01*
X017557Y001602D02*
X017763Y001602D01*
X017763Y001504D02*
X017557Y001504D01*
X017557Y001405D02*
X017763Y001405D01*
X017763Y001307D02*
X017557Y001307D01*
X017557Y001208D02*
X017763Y001208D01*
X017763Y001110D02*
X017557Y001110D01*
X017528Y001011D02*
X017792Y001011D01*
X017847Y000913D02*
X017473Y000913D01*
X017361Y000814D02*
X017959Y000814D01*
X018361Y000814D02*
X019959Y000814D01*
X019847Y000913D02*
X018473Y000913D01*
X018528Y001011D02*
X019792Y001011D01*
X019763Y001110D02*
X018557Y001110D01*
X018557Y001208D02*
X019763Y001208D01*
X019763Y001307D02*
X018557Y001307D01*
X018557Y001405D02*
X019763Y001405D01*
X019763Y001504D02*
X018557Y001504D01*
X018557Y001602D02*
X019672Y001602D01*
X019573Y001701D02*
X018557Y001701D01*
X018540Y001799D02*
X019475Y001799D01*
X019376Y001898D02*
X018499Y001898D01*
X018405Y001996D02*
X019278Y001996D01*
X018936Y002095D02*
X006903Y002095D01*
X006773Y002193D02*
X018927Y002193D01*
X018927Y002292D02*
X006427Y002292D01*
X006427Y002193D02*
X006547Y002193D01*
X006367Y002489D02*
X018927Y002489D01*
X018927Y002587D02*
X014483Y002587D01*
X014582Y002686D02*
X018927Y002686D01*
X018943Y002784D02*
X018745Y002784D01*
X018927Y002390D02*
X004557Y002390D01*
X004593Y002292D02*
X004893Y002292D01*
X004893Y002193D02*
X004593Y002193D01*
X004501Y002489D02*
X004953Y002489D01*
X004893Y002587D02*
X004399Y002587D01*
X003921Y002587D02*
X003605Y002587D01*
X003507Y002489D02*
X003819Y002489D01*
X003763Y002390D02*
X003557Y002390D01*
X003593Y002292D02*
X003727Y002292D01*
X003727Y002193D02*
X003593Y002193D01*
X003593Y002095D02*
X003727Y002095D01*
X003727Y001996D02*
X003593Y001996D01*
X003593Y001898D02*
X003727Y001898D01*
X003727Y001799D02*
X003593Y001799D01*
X003593Y001701D02*
X003727Y001701D01*
X003727Y001602D02*
X003593Y001602D01*
X003580Y001504D02*
X003740Y001504D01*
X003781Y001405D02*
X003539Y001405D01*
X003456Y001307D02*
X003864Y001307D01*
X004580Y001504D02*
X004938Y001504D01*
X004893Y001602D02*
X004593Y001602D01*
X004593Y001701D02*
X004893Y001701D01*
X005634Y001504D02*
X005686Y001504D01*
X006427Y001701D02*
X006462Y001701D01*
X006427Y002587D02*
X007398Y002587D01*
X007352Y002686D02*
X006843Y002686D01*
X006923Y002784D02*
X007289Y002784D01*
X007190Y002883D02*
X006955Y002883D01*
X006954Y002981D02*
X007175Y002981D01*
X007175Y003080D02*
X006914Y003080D01*
X006809Y003178D02*
X007175Y003178D01*
X007210Y003277D02*
X006427Y003277D01*
X006427Y003178D02*
X006511Y003178D01*
X006477Y002686D02*
X006427Y002686D01*
X005701Y002489D02*
X005619Y002489D01*
X004893Y002686D02*
X003704Y002686D01*
X002590Y003572D02*
X004893Y003572D01*
X004893Y003671D02*
X002689Y003671D01*
X002492Y003474D02*
X004968Y003474D01*
X005604Y003474D02*
X005716Y003474D01*
X006427Y004163D02*
X006485Y004163D01*
X006427Y004262D02*
X007956Y004262D01*
X007857Y004360D02*
X006358Y004360D01*
X005710Y004360D02*
X005610Y004360D01*
X007814Y002603D02*
X007814Y002603D01*
X007798Y002587D02*
X014082Y002587D01*
X014037Y002686D02*
X012091Y002686D01*
X012046Y002686D02*
X007897Y002686D01*
X009660Y005444D02*
X013160Y005444D01*
X013160Y005542D02*
X009660Y005542D01*
X009660Y005641D02*
X013160Y005641D01*
X013160Y005739D02*
X009660Y005739D01*
X009660Y005838D02*
X013160Y005838D01*
X013160Y005936D02*
X009660Y005936D01*
X009660Y006035D02*
X013160Y006035D01*
X013160Y006133D02*
X009660Y006133D01*
X009660Y006232D02*
X013160Y006232D01*
X013160Y006330D02*
X009660Y006330D01*
X013347Y007414D02*
X016023Y007414D01*
X016030Y007512D02*
X013332Y007512D01*
X016566Y005936D02*
X016860Y005936D01*
X015772Y003572D02*
X013856Y003572D01*
X013954Y003474D02*
X015772Y003474D01*
X015729Y003375D02*
X015699Y003375D01*
X015209Y003375D02*
X015091Y003375D01*
X013974Y002784D02*
X013896Y002784D01*
X013366Y002784D02*
X013124Y002784D01*
X013149Y002883D02*
X013268Y002883D01*
X013253Y002981D02*
X013149Y002981D01*
X013130Y001996D02*
X013190Y001996D01*
X013190Y001898D02*
X013130Y001898D01*
X013130Y001799D02*
X013190Y001799D01*
X013190Y001701D02*
X013130Y001701D01*
X013130Y001602D02*
X013190Y001602D01*
X013190Y001504D02*
X013130Y001504D01*
X013130Y001307D02*
X013190Y001307D01*
X013190Y001208D02*
X013130Y001208D01*
X013130Y001110D02*
X013190Y001110D01*
X013190Y001011D02*
X013130Y001011D01*
X013130Y000913D02*
X013190Y000913D01*
X013190Y000814D02*
X013130Y000814D01*
X012939Y000814D02*
X012381Y000814D01*
X012487Y000913D02*
X012833Y000913D01*
X012777Y001011D02*
X012543Y001011D01*
X012567Y001110D02*
X012753Y001110D01*
X012750Y001208D02*
X012570Y001208D01*
X012570Y001307D02*
X012750Y001307D01*
X012750Y001504D02*
X012570Y001504D01*
X012570Y001602D02*
X012750Y001602D01*
X012750Y001701D02*
X012570Y001701D01*
X012552Y001799D02*
X012768Y001799D01*
X012811Y001898D02*
X012509Y001898D01*
X012423Y001996D02*
X012897Y001996D01*
X013423Y001996D02*
X013915Y001996D01*
X013821Y001898D02*
X013509Y001898D01*
X013552Y001799D02*
X013780Y001799D01*
X013763Y001701D02*
X013570Y001701D01*
X013570Y001602D02*
X013763Y001602D01*
X013763Y001504D02*
X013570Y001504D01*
X012190Y001504D02*
X012130Y001504D01*
X012130Y001602D02*
X012190Y001602D01*
X012190Y001701D02*
X012130Y001701D01*
X012130Y001799D02*
X012190Y001799D01*
X012190Y001898D02*
X012130Y001898D01*
X012130Y001996D02*
X012190Y001996D01*
X012190Y001307D02*
X012130Y001307D01*
X012130Y001208D02*
X012190Y001208D01*
X012190Y001110D02*
X012130Y001110D01*
X012130Y001011D02*
X012190Y001011D01*
X012190Y000913D02*
X012130Y000913D01*
X012130Y000814D02*
X012190Y000814D01*
X011939Y000814D02*
X011361Y000814D01*
X011473Y000913D02*
X011833Y000913D01*
X011777Y001011D02*
X011528Y001011D01*
X011557Y001110D02*
X011753Y001110D01*
X011750Y001208D02*
X011557Y001208D01*
X011557Y001307D02*
X011750Y001307D01*
X017509Y003375D02*
X017539Y003375D01*
X018029Y003375D02*
X018058Y003375D01*
X019893Y002784D02*
X019943Y002784D01*
X019927Y002686D02*
X019909Y002686D01*
X019909Y002587D02*
X019927Y002587D01*
X019927Y002489D02*
X019909Y002489D01*
X019909Y002390D02*
X019927Y002390D01*
X019927Y002292D02*
X019909Y002292D01*
X019909Y002193D02*
X019927Y002193D01*
X019936Y002095D02*
X019900Y002095D01*
X019890Y001996D02*
X019915Y001996D01*
X020557Y001701D02*
X020573Y001701D01*
X020557Y001602D02*
X020672Y001602D01*
X020763Y001504D02*
X020557Y001504D01*
X020557Y001405D02*
X020763Y001405D01*
X020763Y001307D02*
X020557Y001307D01*
X020557Y001208D02*
X020763Y001208D01*
X020763Y001110D02*
X020557Y001110D01*
X020528Y001011D02*
X020792Y001011D01*
X020847Y000913D02*
X020473Y000913D01*
X020361Y000814D02*
X020959Y000814D01*
X021361Y000814D02*
X021959Y000814D01*
X021847Y000913D02*
X021473Y000913D01*
X021528Y001011D02*
X021792Y001011D01*
X021763Y001110D02*
X021557Y001110D01*
X021557Y001208D02*
X021763Y001208D01*
X021763Y001307D02*
X021557Y001307D01*
X021557Y001405D02*
X021763Y001405D01*
X021763Y001504D02*
X021557Y001504D01*
X021557Y001602D02*
X021672Y001602D01*
X021573Y001701D02*
X021557Y001701D01*
X021890Y001996D02*
X021915Y001996D01*
X021900Y002095D02*
X021936Y002095D01*
X021927Y002193D02*
X021909Y002193D01*
X021909Y002292D02*
X021927Y002292D01*
X021927Y002390D02*
X021909Y002390D01*
X021909Y002489D02*
X021927Y002489D01*
X021927Y002587D02*
X021909Y002587D01*
X021909Y002686D02*
X021927Y002686D01*
X021943Y002784D02*
X021893Y002784D01*
X021858Y003375D02*
X021978Y003375D01*
X022368Y003375D02*
X022468Y003375D01*
X022468Y003474D02*
X022368Y003474D01*
X022368Y003572D02*
X022468Y003572D01*
X022468Y003868D02*
X022368Y003868D01*
X022368Y003966D02*
X022468Y003966D01*
X022468Y004065D02*
X022368Y004065D01*
X022368Y004163D02*
X022468Y004163D01*
X022922Y004065D02*
X023393Y004065D01*
X023263Y003966D02*
X022922Y003966D01*
X022922Y003868D02*
X023165Y003868D01*
X021964Y004163D02*
X021871Y004163D01*
X021468Y004163D02*
X021368Y004163D01*
X021368Y004065D02*
X021468Y004065D01*
X021468Y003966D02*
X021368Y003966D01*
X021368Y003868D02*
X021468Y003868D01*
X021468Y003572D02*
X021368Y003572D01*
X021368Y003474D02*
X021468Y003474D01*
X021468Y003375D02*
X021368Y003375D01*
X020978Y003375D02*
X020858Y003375D01*
X020893Y002784D02*
X020943Y002784D01*
X020927Y002686D02*
X020909Y002686D01*
X020909Y002587D02*
X020927Y002587D01*
X020927Y002489D02*
X020909Y002489D01*
X020909Y002390D02*
X020927Y002390D01*
X020927Y002292D02*
X020909Y002292D01*
X020909Y002193D02*
X020927Y002193D01*
X020936Y002095D02*
X020900Y002095D01*
X020890Y001996D02*
X020915Y001996D01*
X022557Y001701D02*
X022573Y001701D01*
X022557Y001602D02*
X022672Y001602D01*
X022763Y001504D02*
X022557Y001504D01*
X022557Y001405D02*
X022763Y001405D01*
X022763Y001307D02*
X022557Y001307D01*
X022557Y001208D02*
X022763Y001208D01*
X022763Y001110D02*
X022557Y001110D01*
X022528Y001011D02*
X022792Y001011D01*
X022847Y000913D02*
X022473Y000913D01*
X022361Y000814D02*
X022959Y000814D01*
X020964Y004163D02*
X020871Y004163D01*
X015205Y015589D02*
X015155Y015589D01*
X017629Y017461D02*
X017689Y017461D01*
X017657Y017559D02*
X017629Y017559D01*
X017603Y017658D02*
X017657Y017658D01*
X017657Y017855D02*
X016612Y017855D01*
X016612Y017953D02*
X017657Y017953D01*
X016151Y018840D02*
X016024Y018840D01*
X016013Y018938D02*
X016075Y018938D01*
X016047Y019037D02*
X015972Y019037D01*
X016023Y019135D02*
X015900Y019135D01*
X016023Y019234D02*
X015773Y019234D01*
X016785Y019825D02*
X017935Y019825D01*
X017836Y019923D02*
X016884Y019923D01*
X016932Y020022D02*
X017788Y020022D01*
X017763Y020120D02*
X016957Y020120D01*
X016957Y020219D02*
X017763Y020219D01*
X017763Y020317D02*
X016957Y020317D01*
X016957Y020416D02*
X017763Y020416D01*
X017763Y020514D02*
X016957Y020514D01*
X016957Y020613D02*
X017763Y020613D01*
X017763Y020711D02*
X016957Y020711D01*
X016936Y020810D02*
X017784Y020810D01*
X017827Y020908D02*
X016893Y020908D01*
X020683Y021204D02*
X025582Y021204D01*
X025680Y021105D02*
X020781Y021105D01*
X020877Y021007D02*
X020926Y021007D01*
X021394Y021007D02*
X021926Y021007D01*
X021935Y021016D02*
X021824Y020905D01*
X021763Y020759D01*
X021763Y020081D01*
X021824Y019935D01*
X021935Y019824D01*
X022081Y019763D01*
X022239Y019763D01*
X022385Y019824D01*
X022496Y019935D01*
X022557Y020081D01*
X022557Y020759D01*
X022496Y020905D01*
X022385Y021016D01*
X022239Y021077D01*
X022081Y021077D01*
X021935Y021016D01*
X021827Y020908D02*
X021493Y020908D01*
X021536Y020810D02*
X021784Y020810D01*
X021763Y020711D02*
X021557Y020711D01*
X021557Y020613D02*
X021763Y020613D01*
X021763Y020514D02*
X021557Y020514D01*
X021557Y020416D02*
X021763Y020416D01*
X021763Y020317D02*
X021557Y020317D01*
X021557Y020219D02*
X021763Y020219D01*
X021763Y020120D02*
X021557Y020120D01*
X021532Y020022D02*
X021788Y020022D01*
X021836Y019923D02*
X021484Y019923D01*
X021385Y019825D02*
X021935Y019825D01*
X022385Y019825D02*
X022935Y019825D01*
X022935Y019824D02*
X023081Y019763D01*
X023239Y019763D01*
X023385Y019824D01*
X023496Y019935D01*
X023557Y020081D01*
X023557Y020759D01*
X023496Y020905D01*
X023385Y021016D01*
X023239Y021077D01*
X023081Y021077D01*
X022935Y021016D01*
X022824Y020905D01*
X022763Y020759D01*
X022763Y020081D01*
X022824Y019935D01*
X022935Y019824D01*
X022836Y019923D02*
X022484Y019923D01*
X022532Y020022D02*
X022788Y020022D01*
X022763Y020120D02*
X022557Y020120D01*
X022557Y020219D02*
X022763Y020219D01*
X022763Y020317D02*
X022557Y020317D01*
X022557Y020416D02*
X022763Y020416D01*
X022763Y020514D02*
X022557Y020514D01*
X022557Y020613D02*
X022763Y020613D01*
X022763Y020711D02*
X022557Y020711D01*
X022536Y020810D02*
X022784Y020810D01*
X022827Y020908D02*
X022493Y020908D01*
X022394Y021007D02*
X022926Y021007D01*
X023394Y021007D02*
X023926Y021007D01*
X023935Y021016D02*
X023824Y020905D01*
X023763Y020759D01*
X023763Y020081D01*
X023824Y019935D01*
X023935Y019824D01*
X024081Y019763D01*
X024239Y019763D01*
X024385Y019824D01*
X024496Y019935D01*
X024557Y020081D01*
X024557Y020759D01*
X024496Y020905D01*
X024385Y021016D01*
X024239Y021077D01*
X024081Y021077D01*
X023935Y021016D01*
X023827Y020908D02*
X023493Y020908D01*
X023536Y020810D02*
X023784Y020810D01*
X023763Y020711D02*
X023557Y020711D01*
X023557Y020613D02*
X023763Y020613D01*
X023763Y020514D02*
X023557Y020514D01*
X023557Y020416D02*
X023763Y020416D01*
X023763Y020317D02*
X023557Y020317D01*
X023557Y020219D02*
X023763Y020219D01*
X023763Y020120D02*
X023557Y020120D01*
X023532Y020022D02*
X023788Y020022D01*
X023836Y019923D02*
X023484Y019923D01*
X023385Y019825D02*
X023935Y019825D01*
X024385Y019825D02*
X024935Y019825D01*
X024935Y019824D02*
X025081Y019763D01*
X025239Y019763D01*
X025385Y019824D01*
X025496Y019935D01*
X025557Y020081D01*
X025557Y020759D01*
X025496Y020905D01*
X025385Y021016D01*
X025239Y021077D01*
X025081Y021077D01*
X024935Y021016D01*
X024824Y020905D01*
X024763Y020759D01*
X024763Y020081D01*
X024824Y019935D01*
X024935Y019824D01*
X024836Y019923D02*
X024484Y019923D01*
X024532Y020022D02*
X024788Y020022D01*
X024763Y020120D02*
X024557Y020120D01*
X024557Y020219D02*
X024763Y020219D01*
X024763Y020317D02*
X024557Y020317D01*
X024557Y020416D02*
X024763Y020416D01*
X024763Y020514D02*
X024557Y020514D01*
X024557Y020613D02*
X024763Y020613D01*
X024763Y020711D02*
X024557Y020711D01*
X024536Y020810D02*
X024784Y020810D01*
X024827Y020908D02*
X024493Y020908D01*
X024394Y021007D02*
X024926Y021007D01*
X025394Y021007D02*
X025779Y021007D01*
X025877Y020908D02*
X025493Y020908D01*
X025536Y020810D02*
X025952Y020810D01*
X025952Y020711D02*
X025557Y020711D01*
X025557Y020613D02*
X025952Y020613D01*
X025952Y020514D02*
X025557Y020514D01*
X025557Y020416D02*
X025952Y020416D01*
X025952Y020317D02*
X025557Y020317D01*
X025557Y020219D02*
X025952Y020219D01*
X025952Y020120D02*
X025557Y020120D01*
X025532Y020022D02*
X025952Y020022D01*
X025952Y019923D02*
X025484Y019923D01*
X025385Y019825D02*
X025952Y019825D01*
X025952Y018544D02*
X024342Y018544D01*
X024377Y018446D02*
X025952Y018446D01*
X025952Y018347D02*
X024377Y018347D01*
X024377Y018249D02*
X025952Y018249D01*
X003481Y020416D02*
X000368Y020416D01*
X000368Y020317D02*
X003349Y020317D01*
X003269Y020219D02*
X000368Y020219D01*
X000368Y020120D02*
X003221Y020120D01*
X003194Y020022D02*
X000368Y020022D01*
D32*
X016410Y019170D03*
X018660Y019170D03*
X018660Y015420D03*
X016410Y015420D03*
X016410Y011420D03*
X018660Y011420D03*
X018660Y007420D03*
X016410Y007420D03*
D33*
X006660Y004920D02*
X006034Y004920D01*
X005286Y004920D02*
X002160Y004920D01*
X001160Y003920D01*
X001160Y001920D01*
X002160Y001920D02*
X002160Y003420D01*
X002660Y003920D01*
X005286Y003920D01*
X006034Y003920D02*
X006660Y003920D01*
X006660Y002920D02*
X006034Y002920D01*
X005286Y002920D02*
X003660Y002920D01*
X003160Y002420D01*
X003160Y001920D01*
X004160Y001920D02*
X005286Y001920D01*
X006034Y001920D02*
X006660Y001920D01*
D34*
X006660Y001920D03*
X006660Y002920D03*
X006660Y003920D03*
X006660Y004920D03*
X020910Y015420D03*
X021660Y010920D03*
X021160Y006920D03*
M02*
