%
M48
M72
T01C0.0157
T02C0.0200
T03C0.0236
T04C0.0320
T05C0.0394
T06C0.0550
T07C0.0551
T08C0.1181
%
T01
X6660Y1920
X6660Y2920
X6660Y3920
X6660Y4920
X20910Y15420
X21660Y10920
X21160Y6920
T02
X12660Y6420
X11660Y6420
X11660Y5420
X12660Y5420
X10660Y5420
X10660Y6420
X10660Y9420
X11660Y9420
X12660Y9420
X12660Y10420
X11660Y10420
X10660Y10420
X10660Y13420
X10660Y14420
X11660Y14420
X12660Y14420
X12660Y13420
X11660Y13420
X11660Y17420
X12660Y17420
X12660Y18420
X11660Y18420
X10660Y18420
X10660Y17420
T03
X16410Y19170
X18660Y19170
X18660Y15420
X16410Y15420
X16410Y11420
X18660Y11420
X18660Y7420
X16410Y7420
T04
X16160Y1420
X17160Y1420
X18160Y1420
X20160Y1420
X21160Y1420
X22160Y1420
X23160Y1420
X24160Y1420
X25160Y1420
X15160Y1420
X14160Y1420
X13160Y1420
X12160Y1420
X11160Y1420
X11560Y20420
X10560Y20420
X9560Y20420
X8560Y20420
X7560Y20420
X12560Y20420
X13560Y20420
X14560Y20420
X15560Y20420
X16560Y20420
X18160Y20420
X19160Y20420
X20160Y20420
X21160Y20420
X22160Y20420
X23160Y20420
X24160Y20420
X25160Y20420
T05
X1160Y1920
X2160Y1920
X3160Y1920
X4160Y1920
T06
X4160Y5920
X4160Y7920
X4160Y9920
X4160Y11920
X4160Y13920
X4160Y15920
X4160Y17920
X4160Y19920
T07
X23577Y8574
X23577Y6920
X25743Y6920
X25743Y8574
X25743Y5266
X23577Y5266
T08
X23758Y3416
X23758Y10424
M30
