G75*
G70*
%OFA0B0*%
%FSLAX24Y24*%
%IPPOS*%
%LPD*%
%AMOC8*
5,1,8,0,0,1.08239X$1,22.5*
%
%ADD10C,0.0140*%
%ADD11R,0.2126X0.2441*%
%ADD12R,0.0394X0.0630*%
%ADD13R,0.0394X0.0551*%
%ADD14R,0.0512X0.0630*%
%ADD15R,0.1417X0.0591*%
%ADD16R,0.0630X0.0512*%
%ADD17R,0.0591X0.0591*%
%ADD18R,0.0945X0.0945*%
%ADD19R,0.0630X0.0460*%
%ADD20C,0.0825*%
%ADD21C,0.0594*%
%ADD22R,0.0827X0.0827*%
%ADD23R,0.0551X0.0709*%
%ADD24C,0.0660*%
%ADD25C,0.0500*%
%ADD26C,0.0560*%
%ADD27C,0.0160*%
%ADD28C,0.0240*%
%ADD29C,0.0360*%
%ADD30C,0.0100*%
%ADD31C,0.0760*%
%ADD32R,0.0531X0.0531*%
%ADD33R,0.0396X0.0396*%
%ADD34R,0.0650X0.0650*%
%ADD35C,0.0120*%
D10*
X008319Y001785D02*
X008319Y002159D01*
X008319Y001972D02*
X008506Y002159D01*
X008599Y002159D01*
X008856Y002065D02*
X008949Y002159D01*
X009136Y002159D01*
X009230Y002065D01*
X009230Y001972D01*
X008856Y001972D01*
X008856Y002065D02*
X008856Y001878D01*
X008949Y001785D01*
X009136Y001785D01*
X009500Y002159D02*
X009687Y001785D01*
X009874Y002159D01*
X010790Y002159D02*
X010976Y002345D01*
X010976Y001785D01*
X010790Y001785D02*
X011163Y001785D01*
X011434Y001785D02*
X011434Y001878D01*
X011528Y001878D01*
X011528Y001785D01*
X011434Y001785D01*
X011756Y001878D02*
X011756Y002252D01*
X011850Y002345D01*
X012037Y002345D01*
X012130Y002252D01*
X011756Y001878D01*
X011850Y001785D01*
X012037Y001785D01*
X012130Y001878D01*
X012130Y002252D01*
D11*
X011633Y012118D03*
X015633Y012118D03*
X019633Y012118D03*
X023633Y012118D03*
D12*
X022736Y009244D03*
X024531Y009244D03*
X020531Y009244D03*
X018736Y009244D03*
X016531Y009244D03*
X014736Y009244D03*
X012531Y009244D03*
X010736Y009244D03*
D13*
X011341Y006577D03*
X011715Y005710D03*
X010967Y005710D03*
X014967Y005710D03*
X015715Y005710D03*
X015341Y006577D03*
X018967Y005710D03*
X019715Y005710D03*
X019341Y006577D03*
X022967Y005710D03*
X023715Y005710D03*
X023341Y006577D03*
D14*
X023259Y007633D03*
X024007Y007633D03*
X024007Y004633D03*
X023259Y004633D03*
X023259Y003633D03*
X024007Y003633D03*
X020507Y003633D03*
X019759Y003633D03*
X019759Y004633D03*
X020507Y004633D03*
X020007Y007633D03*
X019259Y007633D03*
X016007Y007633D03*
X015259Y007633D03*
X012007Y007633D03*
X011259Y007633D03*
X011759Y004633D03*
X012507Y004633D03*
X012507Y003633D03*
X011759Y003633D03*
X015759Y003633D03*
X016507Y003633D03*
X016507Y004633D03*
X015759Y004633D03*
D15*
X015133Y014248D03*
X015133Y016019D03*
X011133Y016019D03*
X011133Y014248D03*
X019133Y014248D03*
X019133Y016019D03*
X023133Y016019D03*
X023133Y014248D03*
D16*
X022217Y007237D03*
X022217Y006489D03*
X018217Y006489D03*
X018217Y007237D03*
X014217Y007237D03*
X014217Y006489D03*
X010217Y006489D03*
X010217Y007237D03*
X007133Y008759D03*
X007133Y009507D03*
X006133Y009507D03*
X006133Y008759D03*
X005133Y008759D03*
X005133Y009507D03*
X004133Y009507D03*
X004133Y008759D03*
X002633Y009259D03*
X002633Y010007D03*
X001633Y010007D03*
X001633Y009259D03*
D17*
X001633Y008322D03*
X002633Y008322D03*
X002633Y006944D03*
X001633Y006944D03*
X010277Y004775D03*
X010277Y003397D03*
X014277Y003397D03*
X014277Y004775D03*
X018277Y004775D03*
X018277Y003397D03*
X022277Y003397D03*
X022277Y004775D03*
D18*
X020633Y015267D03*
X020633Y016999D03*
X016633Y016999D03*
X016633Y015267D03*
X012633Y015267D03*
X012633Y016999D03*
X024633Y016999D03*
X024633Y015267D03*
D19*
X025133Y006733D03*
X025133Y006133D03*
X025133Y005533D03*
X021133Y005533D03*
X021133Y006133D03*
X021133Y006733D03*
X017133Y006733D03*
X017133Y006133D03*
X017133Y005533D03*
X013133Y005533D03*
X013133Y006133D03*
X013133Y006733D03*
D20*
X012633Y018221D02*
X012633Y019046D01*
X014633Y019046D02*
X014633Y018221D01*
X016633Y018221D02*
X016633Y019046D01*
X018633Y019046D02*
X018633Y018221D01*
X020633Y018221D02*
X020633Y019046D01*
X022633Y019046D02*
X022633Y018221D01*
X024633Y018221D02*
X024633Y019046D01*
X010633Y019046D02*
X010633Y018221D01*
D21*
X010133Y020836D02*
X010133Y021430D01*
X011133Y021430D02*
X011133Y020836D01*
X012133Y020836D02*
X012133Y021430D01*
X013133Y021430D02*
X013133Y020836D01*
X014133Y020836D02*
X014133Y021430D01*
X015133Y021430D02*
X015133Y020836D01*
X016133Y020836D02*
X016133Y021430D01*
X017133Y021430D02*
X017133Y020836D01*
X018133Y020836D02*
X018133Y021430D01*
X019133Y021430D02*
X019133Y020836D01*
X020133Y020836D02*
X020133Y021430D01*
X021133Y021430D02*
X021133Y020836D01*
X022133Y020836D02*
X022133Y021430D01*
X023133Y021430D02*
X023133Y020836D01*
X024133Y020836D02*
X024133Y021430D01*
X025133Y021430D02*
X025133Y020836D01*
X008133Y020836D02*
X008133Y021430D01*
X007133Y021430D02*
X007133Y020836D01*
X006133Y020836D02*
X006133Y021430D01*
X005133Y021430D02*
X005133Y020836D01*
X004133Y020836D02*
X004133Y021430D01*
X003133Y021430D02*
X003133Y020836D01*
X002430Y014133D02*
X001836Y014133D01*
X001836Y013133D02*
X002430Y013133D01*
X002430Y012133D02*
X001836Y012133D01*
X004133Y011836D02*
X004133Y012430D01*
X005133Y012430D02*
X005133Y011836D01*
X006133Y011836D02*
X006133Y012430D01*
X007133Y012430D02*
X007133Y011836D01*
X002430Y003133D02*
X001836Y003133D01*
X001836Y002133D02*
X002430Y002133D01*
X004133Y002430D02*
X004133Y001836D01*
X005133Y001836D02*
X005133Y002430D01*
X006133Y002430D02*
X006133Y001836D01*
X007133Y001836D02*
X007133Y002430D01*
X016133Y002430D02*
X016133Y001836D01*
X017133Y001836D02*
X017133Y002430D01*
X018133Y002430D02*
X018133Y001836D01*
X019133Y001836D02*
X019133Y002430D01*
X024836Y002133D02*
X025430Y002133D01*
X025430Y003133D02*
X024836Y003133D01*
D22*
X007287Y016551D03*
X005633Y016551D03*
X003980Y016551D03*
X003980Y018716D03*
X005633Y018716D03*
X007287Y018716D03*
D23*
X007803Y007133D03*
X006464Y007133D03*
X004803Y007133D03*
X003464Y007133D03*
X003303Y005633D03*
X001964Y005633D03*
X007964Y005633D03*
X009303Y005633D03*
D24*
X012531Y008236D02*
X012531Y009244D01*
X016531Y009244D02*
X016531Y008236D01*
X020531Y008236D02*
X020531Y009244D01*
X024531Y009244D02*
X024531Y008236D01*
X008133Y009633D02*
X008133Y014133D01*
X005633Y014133D01*
X003633Y014133D01*
X003633Y013133D01*
X003133Y013133D01*
X002133Y013133D01*
X005633Y014133D02*
X005633Y016551D01*
D25*
X011133Y016019D02*
X011633Y016007D01*
X012633Y015267D02*
X012633Y014248D01*
X011133Y014248D01*
X011633Y013633D01*
X015133Y014248D02*
X016633Y014248D01*
X016633Y015267D01*
X015633Y016007D02*
X015133Y016019D01*
X015133Y014248D02*
X015633Y013633D01*
X019133Y014248D02*
X020633Y014248D01*
X020633Y015267D01*
X019633Y016007D02*
X019133Y016019D01*
X019133Y014248D02*
X019633Y013633D01*
X023133Y014248D02*
X024633Y014248D01*
X024633Y015267D01*
X023633Y016007D02*
X023133Y016019D01*
X023133Y014248D02*
X023633Y013633D01*
X022736Y009244D02*
X022736Y008157D01*
X023259Y007633D01*
X024007Y007633D02*
X024007Y007712D01*
X025133Y007383D02*
X025133Y006733D01*
X025133Y006133D02*
X024473Y006133D01*
X025133Y005533D02*
X025133Y005133D01*
X021133Y005133D02*
X021133Y005533D01*
X021133Y006133D02*
X020473Y006133D01*
X021133Y006733D02*
X021133Y007383D01*
X020007Y007633D02*
X020007Y007712D01*
X019259Y007633D02*
X018736Y008157D01*
X018736Y009244D01*
X017133Y007383D02*
X017133Y006733D01*
X017133Y006133D02*
X016473Y006133D01*
X017133Y005533D02*
X017133Y005133D01*
X016007Y007633D02*
X016007Y007712D01*
X015259Y007633D02*
X014736Y008157D01*
X014736Y009244D01*
X013133Y007383D02*
X013133Y006733D01*
X013133Y006133D02*
X012473Y006133D01*
X013133Y005533D02*
X013133Y005133D01*
X012007Y007633D02*
X012007Y007712D01*
X011259Y007633D02*
X010736Y008157D01*
X010736Y009244D01*
D26*
X012351Y008236D02*
X012351Y007633D01*
X012351Y006960D01*
X012355Y006964D01*
X012351Y006960D02*
X012351Y006255D01*
X012473Y006133D01*
X012531Y008236D02*
X012351Y008236D01*
X016351Y008236D02*
X016351Y007633D01*
X016351Y006960D01*
X016355Y006964D01*
X016351Y006960D02*
X016351Y006255D01*
X016473Y006133D01*
X016531Y008236D02*
X016351Y008236D01*
X020351Y008236D02*
X020351Y007633D01*
X020351Y006960D01*
X020355Y006964D01*
X020351Y006960D02*
X020351Y006255D01*
X020473Y006133D01*
X020531Y008236D02*
X020351Y008236D01*
X024351Y008236D02*
X024351Y007633D01*
X024351Y006960D01*
X024355Y006964D01*
X024351Y006960D02*
X024351Y006255D01*
X024473Y006133D01*
X024531Y008236D02*
X024351Y008236D01*
D27*
X026045Y001312D02*
X000804Y001312D01*
X000812Y022608D01*
X026045Y022608D01*
X026045Y001312D01*
X026045Y001450D02*
X019391Y001450D01*
X019520Y001578D01*
X019589Y001746D01*
X019589Y001915D01*
X023724Y001915D01*
X024098Y002289D01*
X024226Y002417D01*
X024226Y003160D01*
X024329Y003160D01*
X024363Y003194D01*
X024363Y003194D01*
X024360Y003171D01*
X024360Y003152D01*
X025115Y003152D01*
X025115Y003610D01*
X024799Y003610D01*
X024725Y003598D01*
X024653Y003575D01*
X024587Y003541D01*
X024526Y003497D01*
X024473Y003444D01*
X024429Y003383D01*
X024422Y003370D01*
X024422Y004014D01*
X024329Y004107D01*
X023686Y004107D01*
X023633Y004055D01*
X023581Y004107D01*
X023538Y004107D01*
X023538Y004160D01*
X023581Y004160D01*
X023618Y004197D01*
X023641Y004174D01*
X023682Y004151D01*
X023728Y004138D01*
X023959Y004138D01*
X023959Y004585D01*
X024055Y004585D01*
X024055Y004138D01*
X024287Y004138D01*
X024333Y004151D01*
X024374Y004174D01*
X024407Y004208D01*
X024431Y004249D01*
X024443Y004295D01*
X024443Y004585D01*
X024055Y004585D01*
X024055Y004681D01*
X023959Y004681D01*
X023959Y005128D01*
X023728Y005128D01*
X023682Y005116D01*
X023641Y005092D01*
X023618Y005070D01*
X023581Y005107D01*
X023246Y005107D01*
X023246Y005292D01*
X023323Y005369D01*
X023323Y006052D01*
X023232Y006142D01*
X023429Y006142D01*
X023408Y006130D01*
X023374Y006097D01*
X023350Y006055D01*
X023338Y006010D01*
X023338Y005729D01*
X023697Y005729D01*
X023697Y006166D01*
X023627Y006166D01*
X023697Y006235D01*
X023697Y006918D01*
X023620Y006995D01*
X023620Y007198D01*
X023633Y007212D01*
X023686Y007160D01*
X023912Y007160D01*
X023912Y006167D01*
X023913Y006166D01*
X023733Y006166D01*
X023733Y005729D01*
X023697Y005729D01*
X023697Y005692D01*
X023733Y005692D01*
X023733Y005255D01*
X023936Y005255D01*
X023981Y005267D01*
X024022Y005291D01*
X024056Y005324D01*
X024080Y005365D01*
X024092Y005411D01*
X024092Y005692D01*
X023733Y005692D01*
X023733Y005729D01*
X024092Y005729D01*
X024092Y005894D01*
X024103Y005883D01*
X024224Y005761D01*
X024385Y005695D01*
X024560Y005695D01*
X024632Y005725D01*
X024660Y005725D01*
X024660Y005238D01*
X024725Y005173D01*
X024725Y005052D01*
X024776Y004927D01*
X024776Y004869D01*
X024869Y004776D01*
X024927Y004776D01*
X025052Y004725D01*
X025215Y004725D01*
X025340Y004776D01*
X025397Y004776D01*
X025490Y004869D01*
X025490Y004927D01*
X025542Y005052D01*
X025542Y005173D01*
X025607Y005238D01*
X025607Y005829D01*
X025603Y005833D01*
X025607Y005838D01*
X025607Y006429D01*
X025603Y006433D01*
X025607Y006438D01*
X025607Y007029D01*
X025542Y007094D01*
X025542Y007465D01*
X025490Y007590D01*
X025490Y007647D01*
X025397Y007740D01*
X025340Y007740D01*
X025215Y007792D01*
X025052Y007792D01*
X024927Y007740D01*
X024869Y007740D01*
X024790Y007661D01*
X024790Y007814D01*
X024808Y007821D01*
X024945Y007959D01*
X025020Y008138D01*
X025020Y009341D01*
X024945Y009520D01*
X024887Y009579D01*
X024887Y009624D01*
X024794Y009717D01*
X024664Y009717D01*
X024628Y009732D01*
X024434Y009732D01*
X024397Y009717D01*
X024268Y009717D01*
X024175Y009624D01*
X024175Y009579D01*
X024117Y009520D01*
X024042Y009341D01*
X024042Y008547D01*
X023979Y008484D01*
X023912Y008323D01*
X023912Y008115D01*
X023893Y008107D01*
X023686Y008107D01*
X023633Y008055D01*
X023581Y008107D01*
X023364Y008107D01*
X023144Y008326D01*
X023144Y009325D01*
X023091Y009453D01*
X023091Y009624D01*
X022998Y009717D01*
X022473Y009717D01*
X022380Y009624D01*
X022380Y009453D01*
X022327Y009325D01*
X022327Y008928D01*
X022182Y009073D01*
X022182Y010425D01*
X025220Y010425D01*
X025342Y010547D01*
X025342Y014220D01*
X025220Y014342D01*
X025042Y014342D01*
X025042Y014636D01*
X025172Y014636D01*
X025265Y014729D01*
X025265Y015805D01*
X025172Y015898D01*
X024095Y015898D01*
X024002Y015805D01*
X024002Y014729D01*
X024075Y014656D01*
X023953Y014656D01*
X023908Y014702D01*
X022359Y014702D01*
X022266Y014609D01*
X022266Y014342D01*
X022182Y014342D01*
X022182Y015288D01*
X022459Y015565D01*
X022825Y015565D01*
X022828Y015562D01*
X023026Y015480D01*
X023240Y015480D01*
X023439Y015562D01*
X023441Y015565D01*
X023908Y015565D01*
X024001Y015658D01*
X024001Y015828D01*
X024040Y015916D01*
X024044Y016079D01*
X024001Y016191D01*
X026045Y016191D01*
X026045Y016349D02*
X025138Y016349D01*
X025129Y016347D02*
X025175Y016359D01*
X025216Y016383D01*
X025250Y016417D01*
X025274Y016458D01*
X025286Y016503D01*
X025286Y016919D01*
X024713Y016919D01*
X024713Y016347D01*
X025129Y016347D01*
X025286Y016508D02*
X026045Y016508D01*
X026045Y016666D02*
X025286Y016666D01*
X025286Y016825D02*
X026045Y016825D01*
X026045Y016983D02*
X024713Y016983D01*
X024713Y016919D02*
X024713Y017079D01*
X025286Y017079D01*
X025286Y017496D01*
X025274Y017541D01*
X025250Y017582D01*
X025216Y017616D01*
X025175Y017640D01*
X025129Y017652D01*
X024800Y017652D01*
X024861Y017672D01*
X024944Y017714D01*
X025019Y017769D01*
X025085Y017835D01*
X025140Y017910D01*
X025182Y017993D01*
X025211Y018082D01*
X025226Y018174D01*
X025226Y018576D01*
X024691Y018576D01*
X024691Y018691D01*
X025226Y018691D01*
X025226Y019092D01*
X025211Y019185D01*
X025182Y019273D01*
X025140Y019356D01*
X025085Y019432D01*
X025019Y019498D01*
X024944Y019553D01*
X024861Y019595D01*
X024772Y019624D01*
X024691Y019637D01*
X024691Y018691D01*
X024576Y018691D01*
X024576Y019637D01*
X024495Y019624D01*
X024406Y019595D01*
X024323Y019553D01*
X024247Y019498D01*
X024181Y019432D01*
X024127Y019356D01*
X024084Y019273D01*
X024055Y019185D01*
X024041Y019092D01*
X024041Y018691D01*
X024576Y018691D01*
X024576Y018576D01*
X024041Y018576D01*
X024041Y018174D01*
X024055Y018082D01*
X024084Y017993D01*
X024127Y017910D01*
X024181Y017835D01*
X024247Y017769D01*
X024323Y017714D01*
X024406Y017672D01*
X024467Y017652D01*
X024137Y017652D01*
X024091Y017640D01*
X024050Y017616D01*
X024017Y017582D01*
X023993Y017541D01*
X023981Y017496D01*
X023981Y017079D01*
X024553Y017079D01*
X024553Y016919D01*
X024713Y016919D01*
X024713Y016825D02*
X024553Y016825D01*
X024553Y016919D02*
X024553Y016347D01*
X024137Y016347D01*
X024091Y016359D01*
X024050Y016383D01*
X024017Y016417D01*
X023993Y016458D01*
X023981Y016503D01*
X023981Y016919D01*
X024553Y016919D01*
X024553Y016983D02*
X023545Y016983D01*
X023590Y016939D02*
X023439Y017090D01*
X023240Y017172D01*
X023026Y017172D01*
X022828Y017090D01*
X022677Y016939D01*
X022595Y016740D01*
X022595Y016473D01*
X022359Y016473D01*
X022266Y016380D01*
X022266Y016160D01*
X021667Y015561D01*
X021624Y015459D01*
X021624Y008902D01*
X021667Y008800D01*
X021745Y008721D01*
X021938Y008528D01*
X021938Y007652D01*
X021836Y007652D01*
X021743Y007559D01*
X021743Y006916D01*
X021796Y006863D01*
X021743Y006811D01*
X021743Y006168D01*
X021836Y006075D01*
X021998Y006075D01*
X021998Y005229D01*
X021915Y005229D01*
X021822Y005136D01*
X021822Y004414D01*
X021915Y004321D01*
X022638Y004321D01*
X022731Y004414D01*
X022731Y004642D01*
X022845Y004528D01*
X022845Y004253D01*
X022938Y004160D01*
X022981Y004160D01*
X022981Y004107D01*
X022938Y004107D01*
X022845Y004014D01*
X022845Y003253D01*
X022938Y003160D01*
X023581Y003160D01*
X023633Y003212D01*
X023686Y003160D01*
X023789Y003160D01*
X023789Y002598D01*
X023543Y002352D01*
X019589Y002352D01*
X019589Y002521D01*
X019520Y002688D01*
X019440Y002768D01*
X020451Y002768D01*
X020579Y002896D01*
X020579Y002896D01*
X020726Y003043D01*
X020726Y003160D01*
X020829Y003160D01*
X020922Y003253D01*
X020922Y004014D01*
X020829Y004107D01*
X020186Y004107D01*
X020133Y004055D01*
X020081Y004107D01*
X020038Y004107D01*
X020038Y004160D01*
X020081Y004160D01*
X020118Y004197D01*
X020141Y004174D01*
X020182Y004151D01*
X020228Y004138D01*
X020459Y004138D01*
X020459Y004585D01*
X020555Y004585D01*
X020555Y004138D01*
X020787Y004138D01*
X020833Y004151D01*
X020874Y004174D01*
X020907Y004208D01*
X020931Y004249D01*
X020943Y004295D01*
X020943Y004585D01*
X020555Y004585D01*
X020555Y004681D01*
X020943Y004681D01*
X020943Y004770D01*
X021052Y004725D01*
X021215Y004725D01*
X021340Y004776D01*
X021397Y004776D01*
X021490Y004869D01*
X021490Y004927D01*
X021542Y005052D01*
X021542Y005173D01*
X021607Y005238D01*
X021607Y005829D01*
X021603Y005833D01*
X021607Y005838D01*
X021607Y006429D01*
X021603Y006433D01*
X021607Y006438D01*
X021607Y007029D01*
X021542Y007094D01*
X021542Y007465D01*
X021490Y007590D01*
X021490Y007647D01*
X021397Y007740D01*
X021340Y007740D01*
X021215Y007792D01*
X021052Y007792D01*
X020927Y007740D01*
X020869Y007740D01*
X020790Y007661D01*
X020790Y007814D01*
X020808Y007821D01*
X020945Y007959D01*
X021020Y008138D01*
X021020Y009341D01*
X020945Y009520D01*
X020887Y009579D01*
X020887Y009624D01*
X020794Y009717D01*
X020664Y009717D01*
X020628Y009732D01*
X020434Y009732D01*
X020397Y009717D01*
X020268Y009717D01*
X020175Y009624D01*
X020175Y009579D01*
X020117Y009520D01*
X020042Y009341D01*
X020042Y008547D01*
X019979Y008484D01*
X019912Y008323D01*
X019912Y008115D01*
X019893Y008107D01*
X019686Y008107D01*
X019633Y008055D01*
X019581Y008107D01*
X019364Y008107D01*
X019144Y008326D01*
X019144Y009325D01*
X019091Y009453D01*
X019091Y009624D01*
X018998Y009717D01*
X018473Y009717D01*
X018380Y009624D01*
X018380Y009453D01*
X018327Y009325D01*
X018327Y008928D01*
X018182Y009073D01*
X018182Y010425D01*
X021220Y010425D01*
X021342Y010547D01*
X021342Y014220D01*
X021220Y014342D01*
X021042Y014342D01*
X021042Y014636D01*
X021172Y014636D01*
X021265Y014729D01*
X021265Y015805D01*
X021172Y015898D01*
X020095Y015898D01*
X020002Y015805D01*
X020002Y014729D01*
X020075Y014656D01*
X019953Y014656D01*
X019908Y014702D01*
X018359Y014702D01*
X018266Y014609D01*
X018266Y014342D01*
X018182Y014342D01*
X018182Y015288D01*
X018459Y015565D01*
X018825Y015565D01*
X018828Y015562D01*
X019026Y015480D01*
X019240Y015480D01*
X019439Y015562D01*
X019441Y015565D01*
X019908Y015565D01*
X020001Y015658D01*
X020001Y015828D01*
X020040Y015916D01*
X020044Y016079D01*
X020001Y016191D01*
X022266Y016191D01*
X022266Y016349D02*
X021138Y016349D01*
X021129Y016347D02*
X021175Y016359D01*
X021216Y016383D01*
X021250Y016417D01*
X021274Y016458D01*
X021286Y016503D01*
X021286Y016919D01*
X020713Y016919D01*
X020713Y016347D01*
X021129Y016347D01*
X021286Y016508D02*
X022595Y016508D01*
X022595Y016666D02*
X021286Y016666D01*
X021286Y016825D02*
X022630Y016825D01*
X022721Y016983D02*
X020713Y016983D01*
X020713Y016919D02*
X020713Y017079D01*
X021286Y017079D01*
X021286Y017496D01*
X021274Y017541D01*
X021250Y017582D01*
X021216Y017616D01*
X021175Y017640D01*
X021129Y017652D01*
X020800Y017652D01*
X020861Y017672D01*
X020944Y017714D01*
X021019Y017769D01*
X021085Y017835D01*
X021140Y017910D01*
X021182Y017993D01*
X021211Y018082D01*
X021226Y018174D01*
X021226Y018576D01*
X020691Y018576D01*
X020691Y018691D01*
X021226Y018691D01*
X021226Y019092D01*
X021211Y019185D01*
X021182Y019273D01*
X021140Y019356D01*
X021085Y019432D01*
X021019Y019498D01*
X020944Y019553D01*
X020861Y019595D01*
X020772Y019624D01*
X020691Y019637D01*
X020691Y018691D01*
X020576Y018691D01*
X020576Y019637D01*
X020495Y019624D01*
X020406Y019595D01*
X020323Y019553D01*
X020247Y019498D01*
X020181Y019432D01*
X020127Y019356D01*
X020084Y019273D01*
X020055Y019185D01*
X020041Y019092D01*
X020041Y018691D01*
X020576Y018691D01*
X020576Y018576D01*
X020041Y018576D01*
X020041Y018174D01*
X020055Y018082D01*
X020084Y017993D01*
X020127Y017910D01*
X020181Y017835D01*
X020247Y017769D01*
X020323Y017714D01*
X020406Y017672D01*
X020467Y017652D01*
X020137Y017652D01*
X020091Y017640D01*
X020050Y017616D01*
X020017Y017582D01*
X019993Y017541D01*
X019981Y017496D01*
X019981Y017079D01*
X020553Y017079D01*
X020553Y016919D01*
X020713Y016919D01*
X020713Y016825D02*
X020553Y016825D01*
X020553Y016919D02*
X020553Y016347D01*
X020137Y016347D01*
X020091Y016359D01*
X020050Y016383D01*
X020017Y016417D01*
X019993Y016458D01*
X019981Y016503D01*
X019981Y016919D01*
X020553Y016919D01*
X020553Y016983D02*
X019545Y016983D01*
X019590Y016939D02*
X019439Y017090D01*
X019240Y017172D01*
X019026Y017172D01*
X018828Y017090D01*
X018677Y016939D01*
X018595Y016740D01*
X018595Y016473D01*
X018359Y016473D01*
X018266Y016380D01*
X018266Y016160D01*
X017667Y015561D01*
X017624Y015459D01*
X017624Y008902D01*
X017667Y008800D01*
X017745Y008721D01*
X017938Y008528D01*
X017938Y007652D01*
X017836Y007652D01*
X017743Y007559D01*
X017743Y006916D01*
X017796Y006863D01*
X017743Y006811D01*
X017743Y006168D01*
X017836Y006075D01*
X017998Y006075D01*
X017998Y005229D01*
X017915Y005229D01*
X017822Y005136D01*
X017822Y004414D01*
X017915Y004321D01*
X018638Y004321D01*
X018731Y004414D01*
X018731Y004642D01*
X018809Y004563D01*
X018897Y004475D01*
X018975Y004397D01*
X019078Y004355D01*
X019345Y004355D01*
X019345Y004253D01*
X019438Y004160D01*
X019481Y004160D01*
X019481Y004107D01*
X019438Y004107D01*
X019345Y004014D01*
X019345Y003253D01*
X019392Y003206D01*
X018812Y003206D01*
X018752Y003145D01*
X018752Y003330D01*
X018344Y003330D01*
X018344Y003465D01*
X018209Y003465D01*
X018209Y003873D01*
X017958Y003873D01*
X017912Y003860D01*
X017871Y003837D01*
X017837Y003803D01*
X017814Y003762D01*
X017801Y003716D01*
X017801Y003465D01*
X018209Y003465D01*
X018209Y003330D01*
X017801Y003330D01*
X017801Y003078D01*
X017814Y003033D01*
X017837Y002992D01*
X017871Y002958D01*
X017912Y002934D01*
X017958Y002922D01*
X018209Y002922D01*
X018209Y003330D01*
X018344Y003330D01*
X018344Y002922D01*
X018529Y002922D01*
X018431Y002824D01*
X018431Y002777D01*
X018391Y002816D01*
X018224Y002886D01*
X018043Y002886D01*
X017875Y002816D01*
X017747Y002688D01*
X017678Y002521D01*
X017678Y001746D01*
X017747Y001578D01*
X017875Y001450D01*
X018043Y001381D01*
X018224Y001381D01*
X018391Y001450D01*
X018520Y001578D01*
X018589Y001746D01*
X018589Y002280D01*
X018678Y002368D01*
X018678Y001746D01*
X018747Y001578D01*
X018875Y001450D01*
X019043Y001381D01*
X019224Y001381D01*
X019391Y001450D01*
X019532Y001609D02*
X026045Y001609D01*
X026045Y001767D02*
X025738Y001767D01*
X025741Y001770D02*
X025794Y001823D01*
X025838Y001883D01*
X025872Y001950D01*
X025895Y002022D01*
X025907Y002096D01*
X025907Y002115D01*
X025152Y002115D01*
X025152Y002152D01*
X025115Y002152D01*
X025115Y002610D01*
X024799Y002610D01*
X024725Y002598D01*
X024653Y002575D01*
X024587Y002541D01*
X024526Y002497D01*
X024473Y002444D01*
X024429Y002383D01*
X024395Y002316D01*
X024371Y002245D01*
X024360Y002171D01*
X024360Y002152D01*
X025115Y002152D01*
X025115Y002115D01*
X025152Y002115D01*
X025152Y001656D01*
X025468Y001656D01*
X025542Y001668D01*
X025613Y001691D01*
X025680Y001725D01*
X025741Y001770D01*
X025860Y001926D02*
X026045Y001926D01*
X026045Y002084D02*
X025905Y002084D01*
X025907Y002152D02*
X025907Y002171D01*
X025895Y002245D01*
X025872Y002316D01*
X025838Y002383D01*
X025794Y002444D01*
X025741Y002497D01*
X025680Y002541D01*
X025613Y002575D01*
X025542Y002598D01*
X025468Y002610D01*
X025152Y002610D01*
X025152Y002152D01*
X025907Y002152D01*
X025896Y002243D02*
X026045Y002243D01*
X026045Y002401D02*
X025825Y002401D01*
X025643Y002560D02*
X026045Y002560D01*
X026045Y002718D02*
X025666Y002718D01*
X025680Y002725D02*
X025741Y002770D01*
X025794Y002823D01*
X025838Y002883D01*
X025872Y002950D01*
X025895Y003022D01*
X025907Y003096D01*
X025907Y003115D01*
X025152Y003115D01*
X025152Y003152D01*
X025115Y003152D01*
X025115Y003115D01*
X025152Y003115D01*
X025152Y002656D01*
X025468Y002656D01*
X025542Y002668D01*
X025613Y002691D01*
X025680Y002725D01*
X025833Y002877D02*
X026045Y002877D01*
X026045Y003035D02*
X025897Y003035D01*
X025907Y003152D02*
X025907Y003171D01*
X025895Y003245D01*
X025872Y003316D01*
X025838Y003383D01*
X025794Y003444D01*
X025741Y003497D01*
X025680Y003541D01*
X025613Y003575D01*
X025542Y003598D01*
X025468Y003610D01*
X025152Y003610D01*
X025152Y003152D01*
X025907Y003152D01*
X025903Y003194D02*
X026045Y003194D01*
X026045Y003352D02*
X025854Y003352D01*
X025722Y003511D02*
X026045Y003511D01*
X026045Y003669D02*
X024422Y003669D01*
X024422Y003511D02*
X024545Y003511D01*
X024422Y003828D02*
X026045Y003828D01*
X026045Y003986D02*
X024422Y003986D01*
X024311Y004145D02*
X026045Y004145D01*
X026045Y004303D02*
X024443Y004303D01*
X024443Y004462D02*
X026045Y004462D01*
X026045Y004620D02*
X024055Y004620D01*
X024055Y004681D02*
X024443Y004681D01*
X024443Y004972D01*
X024431Y005018D01*
X024407Y005059D01*
X024374Y005092D01*
X024333Y005116D01*
X024287Y005128D01*
X024055Y005128D01*
X024055Y004681D01*
X024055Y004779D02*
X023959Y004779D01*
X023959Y004937D02*
X024055Y004937D01*
X024055Y005096D02*
X023959Y005096D01*
X023697Y005255D02*
X023697Y005692D01*
X023338Y005692D01*
X023338Y005411D01*
X023350Y005365D01*
X023374Y005324D01*
X023408Y005291D01*
X023449Y005267D01*
X023494Y005255D01*
X023697Y005255D01*
X023697Y005413D02*
X023733Y005413D01*
X023733Y005571D02*
X023697Y005571D01*
X023697Y005730D02*
X023733Y005730D01*
X023733Y005888D02*
X023697Y005888D01*
X023697Y006047D02*
X023733Y006047D01*
X023667Y006205D02*
X023912Y006205D01*
X023912Y006364D02*
X023697Y006364D01*
X023697Y006522D02*
X023912Y006522D01*
X023912Y006681D02*
X023697Y006681D01*
X023697Y006839D02*
X023912Y006839D01*
X023912Y006998D02*
X023620Y006998D01*
X023620Y007156D02*
X023912Y007156D01*
X024007Y007633D02*
X024351Y007633D01*
X024790Y007790D02*
X025048Y007790D01*
X025219Y007790D02*
X026045Y007790D01*
X026045Y007632D02*
X025490Y007632D01*
X025538Y007473D02*
X026045Y007473D01*
X026045Y007315D02*
X025542Y007315D01*
X025542Y007156D02*
X026045Y007156D01*
X026045Y006998D02*
X025607Y006998D01*
X025607Y006839D02*
X026045Y006839D01*
X026045Y006681D02*
X025607Y006681D01*
X025607Y006522D02*
X026045Y006522D01*
X026045Y006364D02*
X025607Y006364D01*
X025607Y006205D02*
X026045Y006205D01*
X026045Y006047D02*
X025607Y006047D01*
X025607Y005888D02*
X026045Y005888D01*
X026045Y005730D02*
X025607Y005730D01*
X025607Y005571D02*
X026045Y005571D01*
X026045Y005413D02*
X025607Y005413D01*
X025607Y005254D02*
X026045Y005254D01*
X026045Y005096D02*
X025542Y005096D01*
X025495Y004937D02*
X026045Y004937D01*
X026045Y004779D02*
X025400Y004779D01*
X024867Y004779D02*
X024443Y004779D01*
X024443Y004937D02*
X024772Y004937D01*
X024725Y005096D02*
X024368Y005096D01*
X024660Y005254D02*
X023246Y005254D01*
X023323Y005413D02*
X023338Y005413D01*
X023323Y005571D02*
X023338Y005571D01*
X023323Y005730D02*
X023338Y005730D01*
X023323Y005888D02*
X023338Y005888D01*
X023323Y006047D02*
X023348Y006047D01*
X024092Y005888D02*
X024097Y005888D01*
X024092Y005730D02*
X024300Y005730D01*
X024092Y005571D02*
X024660Y005571D01*
X024660Y005413D02*
X024092Y005413D01*
X023647Y005096D02*
X023592Y005096D01*
X023959Y004462D02*
X024055Y004462D01*
X024055Y004303D02*
X023959Y004303D01*
X023959Y004145D02*
X024055Y004145D01*
X023704Y004145D02*
X023538Y004145D01*
X022981Y004145D02*
X020811Y004145D01*
X020922Y003986D02*
X022845Y003986D01*
X022845Y003828D02*
X022691Y003828D01*
X022682Y003837D02*
X022641Y003860D01*
X022595Y003873D01*
X022344Y003873D01*
X022344Y003465D01*
X022209Y003465D01*
X022209Y003873D01*
X021958Y003873D01*
X021912Y003860D01*
X021871Y003837D01*
X021837Y003803D01*
X021814Y003762D01*
X021801Y003716D01*
X021801Y003465D01*
X022209Y003465D01*
X022209Y003330D01*
X021801Y003330D01*
X021801Y003078D01*
X021814Y003033D01*
X021837Y002992D01*
X021871Y002958D01*
X021912Y002934D01*
X021958Y002922D01*
X022209Y002922D01*
X022209Y003330D01*
X022344Y003330D01*
X022344Y003465D01*
X022752Y003465D01*
X022752Y003716D01*
X022740Y003762D01*
X022716Y003803D01*
X022682Y003837D01*
X022752Y003669D02*
X022845Y003669D01*
X022845Y003511D02*
X022752Y003511D01*
X022752Y003330D02*
X022344Y003330D01*
X022344Y002922D01*
X022595Y002922D01*
X022641Y002934D01*
X022682Y002958D01*
X022716Y002992D01*
X022740Y003033D01*
X022752Y003078D01*
X022752Y003330D01*
X022845Y003352D02*
X022344Y003352D01*
X022209Y003352D02*
X020922Y003352D01*
X020922Y003511D02*
X021801Y003511D01*
X021801Y003669D02*
X020922Y003669D01*
X020922Y003828D02*
X021862Y003828D01*
X022209Y003828D02*
X022344Y003828D01*
X022344Y003669D02*
X022209Y003669D01*
X022209Y003511D02*
X022344Y003511D01*
X022344Y003194D02*
X022209Y003194D01*
X022209Y003035D02*
X022344Y003035D01*
X022740Y003035D02*
X023789Y003035D01*
X023789Y002877D02*
X020560Y002877D01*
X020718Y003035D02*
X021813Y003035D01*
X021801Y003194D02*
X020863Y003194D01*
X020555Y004145D02*
X020459Y004145D01*
X020459Y004303D02*
X020555Y004303D01*
X020555Y004462D02*
X020459Y004462D01*
X020555Y004620D02*
X021822Y004620D01*
X021822Y004462D02*
X020943Y004462D01*
X020943Y004303D02*
X022845Y004303D01*
X022845Y004462D02*
X022731Y004462D01*
X022731Y004620D02*
X022752Y004620D01*
X022731Y004642D02*
X022731Y004642D01*
X021822Y004779D02*
X021400Y004779D01*
X021495Y004937D02*
X021822Y004937D01*
X021822Y005096D02*
X021542Y005096D01*
X021607Y005254D02*
X021998Y005254D01*
X021998Y005413D02*
X021607Y005413D01*
X021607Y005571D02*
X021998Y005571D01*
X021998Y005730D02*
X021607Y005730D01*
X021607Y005888D02*
X021998Y005888D01*
X021998Y006047D02*
X021607Y006047D01*
X021607Y006205D02*
X021743Y006205D01*
X021743Y006364D02*
X021607Y006364D01*
X021607Y006522D02*
X021743Y006522D01*
X021743Y006681D02*
X021607Y006681D01*
X021607Y006839D02*
X021772Y006839D01*
X021743Y006998D02*
X021607Y006998D01*
X021542Y007156D02*
X021743Y007156D01*
X021743Y007315D02*
X021542Y007315D01*
X021538Y007473D02*
X021743Y007473D01*
X021816Y007632D02*
X021490Y007632D01*
X021219Y007790D02*
X021938Y007790D01*
X021938Y007949D02*
X020935Y007949D01*
X021007Y008107D02*
X021938Y008107D01*
X021938Y008266D02*
X021020Y008266D01*
X021020Y008424D02*
X021938Y008424D01*
X021884Y008583D02*
X021020Y008583D01*
X021020Y008741D02*
X021725Y008741D01*
X021625Y008900D02*
X021020Y008900D01*
X021020Y009058D02*
X021624Y009058D01*
X021624Y009217D02*
X021020Y009217D01*
X021005Y009375D02*
X021624Y009375D01*
X021624Y009534D02*
X020932Y009534D01*
X020818Y009692D02*
X021624Y009692D01*
X021624Y009851D02*
X018182Y009851D01*
X018182Y010009D02*
X021624Y010009D01*
X021624Y010168D02*
X018182Y010168D01*
X018182Y010326D02*
X021624Y010326D01*
X021624Y010485D02*
X021280Y010485D01*
X021342Y010643D02*
X021624Y010643D01*
X021624Y010802D02*
X021342Y010802D01*
X021342Y010960D02*
X021624Y010960D01*
X021624Y011119D02*
X021342Y011119D01*
X021342Y011277D02*
X021624Y011277D01*
X021624Y011436D02*
X021342Y011436D01*
X021342Y011594D02*
X021624Y011594D01*
X021624Y011753D02*
X021342Y011753D01*
X021342Y011911D02*
X021624Y011911D01*
X021624Y012070D02*
X021342Y012070D01*
X021342Y012228D02*
X021624Y012228D01*
X021624Y012387D02*
X021342Y012387D01*
X021342Y012545D02*
X021624Y012545D01*
X021624Y012704D02*
X021342Y012704D01*
X021342Y012862D02*
X021624Y012862D01*
X021624Y013021D02*
X021342Y013021D01*
X021342Y013179D02*
X021624Y013179D01*
X021624Y013338D02*
X021342Y013338D01*
X021342Y013496D02*
X021624Y013496D01*
X021624Y013655D02*
X021342Y013655D01*
X021342Y013813D02*
X021624Y013813D01*
X021624Y013972D02*
X021342Y013972D01*
X021342Y014130D02*
X021624Y014130D01*
X021624Y014289D02*
X021273Y014289D01*
X021042Y014447D02*
X021624Y014447D01*
X021624Y014606D02*
X021042Y014606D01*
X021265Y014764D02*
X021624Y014764D01*
X021624Y014923D02*
X021265Y014923D01*
X021265Y015081D02*
X021624Y015081D01*
X021624Y015240D02*
X021265Y015240D01*
X021265Y015398D02*
X021624Y015398D01*
X021665Y015557D02*
X021265Y015557D01*
X021265Y015715D02*
X021821Y015715D01*
X021980Y015874D02*
X021196Y015874D01*
X020713Y016349D02*
X020553Y016349D01*
X020553Y016508D02*
X020713Y016508D01*
X020713Y016666D02*
X020553Y016666D01*
X020553Y017079D02*
X020553Y017634D01*
X020576Y017630D01*
X020576Y018576D01*
X020691Y018576D01*
X020691Y017630D01*
X020713Y017634D01*
X020713Y017079D01*
X020553Y017079D01*
X020553Y017142D02*
X020713Y017142D01*
X020713Y017300D02*
X020553Y017300D01*
X020553Y017459D02*
X020713Y017459D01*
X020713Y017617D02*
X020553Y017617D01*
X020576Y017776D02*
X020691Y017776D01*
X020691Y017934D02*
X020576Y017934D01*
X020576Y018093D02*
X020691Y018093D01*
X020691Y018251D02*
X020576Y018251D01*
X020576Y018410D02*
X020691Y018410D01*
X020691Y018568D02*
X020576Y018568D01*
X020576Y018727D02*
X020691Y018727D01*
X020691Y018885D02*
X020576Y018885D01*
X020576Y019044D02*
X020691Y019044D01*
X020691Y019202D02*
X020576Y019202D01*
X020576Y019361D02*
X020691Y019361D01*
X020691Y019519D02*
X020576Y019519D01*
X020277Y019519D02*
X018968Y019519D01*
X018957Y019530D02*
X018747Y019617D01*
X018520Y019617D01*
X018310Y019530D01*
X018149Y019369D01*
X018062Y019159D01*
X018062Y018107D01*
X018149Y017897D01*
X018310Y017737D01*
X018520Y017650D01*
X018747Y017650D01*
X018957Y017737D01*
X019118Y017897D01*
X019205Y018107D01*
X019205Y019159D01*
X019118Y019369D01*
X018957Y019530D01*
X019121Y019361D02*
X020130Y019361D01*
X020061Y019202D02*
X019187Y019202D01*
X019205Y019044D02*
X020041Y019044D01*
X020041Y018885D02*
X019205Y018885D01*
X019205Y018727D02*
X020041Y018727D01*
X020041Y018568D02*
X019205Y018568D01*
X019205Y018410D02*
X020041Y018410D01*
X020041Y018251D02*
X019205Y018251D01*
X019199Y018093D02*
X020054Y018093D01*
X020114Y017934D02*
X019133Y017934D01*
X018996Y017776D02*
X020240Y017776D01*
X020053Y017617D02*
X017214Y017617D01*
X017216Y017616D02*
X017175Y017640D01*
X017129Y017652D01*
X016800Y017652D01*
X016861Y017672D01*
X016944Y017714D01*
X017019Y017769D01*
X017085Y017835D01*
X017140Y017910D01*
X017182Y017993D01*
X017211Y018082D01*
X017226Y018174D01*
X017226Y018576D01*
X016691Y018576D01*
X016691Y018691D01*
X017226Y018691D01*
X017226Y019092D01*
X017211Y019185D01*
X017182Y019273D01*
X017140Y019356D01*
X017085Y019432D01*
X017019Y019498D01*
X016944Y019553D01*
X016861Y019595D01*
X016772Y019624D01*
X016691Y019637D01*
X016691Y018691D01*
X016576Y018691D01*
X016576Y019637D01*
X016495Y019624D01*
X016406Y019595D01*
X016323Y019553D01*
X016247Y019498D01*
X016181Y019432D01*
X016127Y019356D01*
X016084Y019273D01*
X016055Y019185D01*
X016041Y019092D01*
X016041Y018691D01*
X016576Y018691D01*
X016576Y018576D01*
X016041Y018576D01*
X016041Y018174D01*
X016055Y018082D01*
X016084Y017993D01*
X016127Y017910D01*
X016181Y017835D01*
X016247Y017769D01*
X016323Y017714D01*
X016406Y017672D01*
X016467Y017652D01*
X016137Y017652D01*
X016091Y017640D01*
X016050Y017616D01*
X016017Y017582D01*
X015993Y017541D01*
X015981Y017496D01*
X015981Y017079D01*
X016553Y017079D01*
X016553Y016919D01*
X016713Y016919D01*
X016713Y016347D01*
X017129Y016347D01*
X017175Y016359D01*
X017216Y016383D01*
X017250Y016417D01*
X017274Y016458D01*
X017286Y016503D01*
X017286Y016919D01*
X016713Y016919D01*
X016713Y017079D01*
X017286Y017079D01*
X017286Y017496D01*
X017274Y017541D01*
X017250Y017582D01*
X017216Y017616D01*
X017286Y017459D02*
X019981Y017459D01*
X019981Y017300D02*
X017286Y017300D01*
X017286Y017142D02*
X018953Y017142D01*
X018721Y016983D02*
X016713Y016983D01*
X016713Y017079D02*
X016553Y017079D01*
X016553Y017634D01*
X016576Y017630D01*
X016576Y018576D01*
X016691Y018576D01*
X016691Y017630D01*
X016713Y017634D01*
X016713Y017079D01*
X016713Y017142D02*
X016553Y017142D01*
X016553Y017300D02*
X016713Y017300D01*
X016713Y017459D02*
X016553Y017459D01*
X016553Y017617D02*
X016713Y017617D01*
X016691Y017776D02*
X016576Y017776D01*
X016576Y017934D02*
X016691Y017934D01*
X016691Y018093D02*
X016576Y018093D01*
X016576Y018251D02*
X016691Y018251D01*
X016691Y018410D02*
X016576Y018410D01*
X016576Y018568D02*
X016691Y018568D01*
X016691Y018727D02*
X016576Y018727D01*
X016576Y018885D02*
X016691Y018885D01*
X016691Y019044D02*
X016576Y019044D01*
X016576Y019202D02*
X016691Y019202D01*
X016691Y019361D02*
X016576Y019361D01*
X016576Y019519D02*
X016691Y019519D01*
X016990Y019519D02*
X018299Y019519D01*
X018146Y019361D02*
X017137Y019361D01*
X017205Y019202D02*
X018080Y019202D01*
X018062Y019044D02*
X017226Y019044D01*
X017226Y018885D02*
X018062Y018885D01*
X018062Y018727D02*
X017226Y018727D01*
X017226Y018568D02*
X018062Y018568D01*
X018062Y018410D02*
X017226Y018410D01*
X017226Y018251D02*
X018062Y018251D01*
X018068Y018093D02*
X017213Y018093D01*
X017152Y017934D02*
X018134Y017934D01*
X018270Y017776D02*
X017026Y017776D01*
X016240Y017776D02*
X014996Y017776D01*
X014957Y017737D02*
X015118Y017897D01*
X015205Y018107D01*
X015205Y019159D01*
X015118Y019369D01*
X014957Y019530D01*
X014747Y019617D01*
X014520Y019617D01*
X014310Y019530D01*
X014149Y019369D01*
X014062Y019159D01*
X014062Y018107D01*
X014149Y017897D01*
X014310Y017737D01*
X014520Y017650D01*
X014747Y017650D01*
X014957Y017737D01*
X015133Y017934D02*
X016114Y017934D01*
X016054Y018093D02*
X015199Y018093D01*
X015205Y018251D02*
X016041Y018251D01*
X016041Y018410D02*
X015205Y018410D01*
X015205Y018568D02*
X016041Y018568D01*
X016041Y018727D02*
X015205Y018727D01*
X015205Y018885D02*
X016041Y018885D01*
X016041Y019044D02*
X015205Y019044D01*
X015187Y019202D02*
X016061Y019202D01*
X016130Y019361D02*
X015121Y019361D01*
X014968Y019519D02*
X016277Y019519D01*
X016171Y020360D02*
X016245Y020371D01*
X016316Y020395D01*
X016383Y020429D01*
X016444Y020473D01*
X016497Y020526D01*
X016541Y020587D01*
X016575Y020653D01*
X016598Y020725D01*
X016610Y020799D01*
X016610Y021115D01*
X016152Y021115D01*
X016152Y021152D01*
X016610Y021152D01*
X016610Y021468D01*
X016598Y021542D01*
X016575Y021613D01*
X016541Y021680D01*
X016497Y021741D01*
X016444Y021794D01*
X016383Y021838D01*
X016316Y021872D01*
X016245Y021895D01*
X016171Y021907D01*
X016152Y021907D01*
X016152Y021152D01*
X016115Y021152D01*
X016115Y021907D01*
X016096Y021907D01*
X016022Y021895D01*
X015950Y021872D01*
X015883Y021838D01*
X015823Y021794D01*
X015770Y021741D01*
X015725Y021680D01*
X015691Y021613D01*
X015668Y021542D01*
X015656Y021468D01*
X015656Y021152D01*
X016115Y021152D01*
X016115Y021115D01*
X016152Y021115D01*
X016152Y020360D01*
X016171Y020360D01*
X016115Y020360D02*
X016115Y021115D01*
X015656Y021115D01*
X015656Y020799D01*
X015668Y020725D01*
X015691Y020653D01*
X015725Y020587D01*
X015770Y020526D01*
X015823Y020473D01*
X015883Y020429D01*
X015950Y020395D01*
X016022Y020371D01*
X016096Y020360D01*
X016115Y020360D01*
X016115Y020470D02*
X016152Y020470D01*
X016152Y020629D02*
X016115Y020629D01*
X016115Y020787D02*
X016152Y020787D01*
X016152Y020946D02*
X016115Y020946D01*
X016115Y021104D02*
X016152Y021104D01*
X016152Y021263D02*
X016115Y021263D01*
X016115Y021421D02*
X016152Y021421D01*
X016152Y021580D02*
X016115Y021580D01*
X016115Y021738D02*
X016152Y021738D01*
X016152Y021897D02*
X016115Y021897D01*
X016032Y021897D02*
X013235Y021897D01*
X013245Y021895D02*
X013171Y021907D01*
X013152Y021907D01*
X013152Y021152D01*
X013610Y021152D01*
X013610Y021468D01*
X013598Y021542D01*
X013575Y021613D01*
X013541Y021680D01*
X013497Y021741D01*
X013444Y021794D01*
X013383Y021838D01*
X013316Y021872D01*
X013245Y021895D01*
X013152Y021897D02*
X013115Y021897D01*
X013115Y021907D02*
X013096Y021907D01*
X013022Y021895D01*
X012950Y021872D01*
X012883Y021838D01*
X012823Y021794D01*
X012770Y021741D01*
X012725Y021680D01*
X012691Y021613D01*
X012668Y021542D01*
X012656Y021468D01*
X012656Y021152D01*
X013115Y021152D01*
X013115Y021907D01*
X013032Y021897D02*
X012235Y021897D01*
X012245Y021895D02*
X012171Y021907D01*
X012152Y021907D01*
X012152Y021152D01*
X012610Y021152D01*
X012610Y021468D01*
X012598Y021542D01*
X012575Y021613D01*
X012541Y021680D01*
X012497Y021741D01*
X012444Y021794D01*
X012383Y021838D01*
X012316Y021872D01*
X012245Y021895D01*
X012152Y021897D02*
X012115Y021897D01*
X012115Y021907D02*
X012096Y021907D01*
X012022Y021895D01*
X011950Y021872D01*
X011883Y021838D01*
X011823Y021794D01*
X011770Y021741D01*
X011725Y021680D01*
X011691Y021613D01*
X011668Y021542D01*
X011656Y021468D01*
X011656Y021152D01*
X012115Y021152D01*
X012115Y021907D01*
X012032Y021897D02*
X008235Y021897D01*
X008245Y021895D02*
X008171Y021907D01*
X008152Y021907D01*
X008152Y021152D01*
X008610Y021152D01*
X008610Y021468D01*
X008598Y021542D01*
X008575Y021613D01*
X008541Y021680D01*
X008497Y021741D01*
X008444Y021794D01*
X008383Y021838D01*
X008316Y021872D01*
X008245Y021895D01*
X008152Y021897D02*
X008115Y021897D01*
X008115Y021907D02*
X008096Y021907D01*
X008022Y021895D01*
X007950Y021872D01*
X007883Y021838D01*
X007823Y021794D01*
X007770Y021741D01*
X007725Y021680D01*
X007691Y021613D01*
X007668Y021542D01*
X007656Y021468D01*
X007656Y021152D01*
X008115Y021152D01*
X008115Y021907D01*
X008032Y021897D02*
X007235Y021897D01*
X007245Y021895D02*
X007171Y021907D01*
X007152Y021907D01*
X007152Y021152D01*
X007610Y021152D01*
X007610Y021468D01*
X007598Y021542D01*
X007575Y021613D01*
X007541Y021680D01*
X007497Y021741D01*
X007444Y021794D01*
X007383Y021838D01*
X007316Y021872D01*
X007245Y021895D01*
X007152Y021897D02*
X007115Y021897D01*
X007115Y021907D02*
X007096Y021907D01*
X007022Y021895D01*
X006950Y021872D01*
X006883Y021838D01*
X006823Y021794D01*
X006770Y021741D01*
X006725Y021680D01*
X006691Y021613D01*
X006668Y021542D01*
X006656Y021468D01*
X006656Y021152D01*
X007115Y021152D01*
X007115Y021907D01*
X007032Y021897D02*
X000811Y021897D01*
X000811Y022055D02*
X026045Y022055D01*
X026045Y021897D02*
X025235Y021897D01*
X025245Y021895D02*
X025171Y021907D01*
X025152Y021907D01*
X025152Y021152D01*
X025610Y021152D01*
X025610Y021468D01*
X025598Y021542D01*
X025575Y021613D01*
X025541Y021680D01*
X025497Y021741D01*
X025444Y021794D01*
X025383Y021838D01*
X025316Y021872D01*
X025245Y021895D01*
X025152Y021897D02*
X025115Y021897D01*
X025115Y021907D02*
X025096Y021907D01*
X025022Y021895D01*
X024950Y021872D01*
X024883Y021838D01*
X024823Y021794D01*
X024770Y021741D01*
X024725Y021680D01*
X024691Y021613D01*
X024668Y021542D01*
X024656Y021468D01*
X024656Y021152D01*
X025115Y021152D01*
X025115Y021907D01*
X025032Y021897D02*
X024235Y021897D01*
X024245Y021895D02*
X024171Y021907D01*
X024152Y021907D01*
X024152Y021152D01*
X024610Y021152D01*
X024610Y021468D01*
X024598Y021542D01*
X024575Y021613D01*
X024541Y021680D01*
X024497Y021741D01*
X024444Y021794D01*
X024383Y021838D01*
X024316Y021872D01*
X024245Y021895D01*
X024152Y021897D02*
X024115Y021897D01*
X024115Y021907D02*
X024096Y021907D01*
X024022Y021895D01*
X023950Y021872D01*
X023883Y021838D01*
X023823Y021794D01*
X023770Y021741D01*
X023725Y021680D01*
X023691Y021613D01*
X023668Y021542D01*
X023656Y021468D01*
X023656Y021152D01*
X024115Y021152D01*
X024115Y021907D01*
X024032Y021897D02*
X021235Y021897D01*
X021245Y021895D02*
X021171Y021907D01*
X021152Y021907D01*
X021152Y021152D01*
X021610Y021152D01*
X021610Y021468D01*
X021598Y021542D01*
X021575Y021613D01*
X021541Y021680D01*
X021497Y021741D01*
X021444Y021794D01*
X021383Y021838D01*
X021316Y021872D01*
X021245Y021895D01*
X021152Y021897D02*
X021115Y021897D01*
X021115Y021907D02*
X021096Y021907D01*
X021022Y021895D01*
X020950Y021872D01*
X020883Y021838D01*
X020823Y021794D01*
X020770Y021741D01*
X020725Y021680D01*
X020691Y021613D01*
X020668Y021542D01*
X020656Y021468D01*
X020656Y021152D01*
X021115Y021152D01*
X021115Y021907D01*
X021032Y021897D02*
X020235Y021897D01*
X020245Y021895D02*
X020171Y021907D01*
X020152Y021907D01*
X020152Y021152D01*
X020610Y021152D01*
X020610Y021468D01*
X020598Y021542D01*
X020575Y021613D01*
X020541Y021680D01*
X020497Y021741D01*
X020444Y021794D01*
X020383Y021838D01*
X020316Y021872D01*
X020245Y021895D01*
X020152Y021897D02*
X020115Y021897D01*
X020115Y021907D02*
X020096Y021907D01*
X020022Y021895D01*
X019950Y021872D01*
X019883Y021838D01*
X019823Y021794D01*
X019770Y021741D01*
X019725Y021680D01*
X019691Y021613D01*
X019668Y021542D01*
X019656Y021468D01*
X019656Y021152D01*
X020115Y021152D01*
X020115Y021907D01*
X020032Y021897D02*
X017235Y021897D01*
X017245Y021895D02*
X017171Y021907D01*
X017152Y021907D01*
X017152Y021152D01*
X017610Y021152D01*
X017610Y021468D01*
X017598Y021542D01*
X017575Y021613D01*
X017541Y021680D01*
X017497Y021741D01*
X017444Y021794D01*
X017383Y021838D01*
X017316Y021872D01*
X017245Y021895D01*
X017152Y021897D02*
X017115Y021897D01*
X017115Y021907D02*
X017096Y021907D01*
X017022Y021895D01*
X016950Y021872D01*
X016883Y021838D01*
X016823Y021794D01*
X016770Y021741D01*
X016725Y021680D01*
X016691Y021613D01*
X016668Y021542D01*
X016656Y021468D01*
X016656Y021152D01*
X017115Y021152D01*
X017115Y021907D01*
X017032Y021897D02*
X016235Y021897D01*
X016499Y021738D02*
X016768Y021738D01*
X016681Y021580D02*
X016586Y021580D01*
X016610Y021421D02*
X016656Y021421D01*
X016656Y021263D02*
X016610Y021263D01*
X016656Y021115D02*
X016656Y020799D01*
X016668Y020725D01*
X016691Y020653D01*
X016725Y020587D01*
X016770Y020526D01*
X016823Y020473D01*
X016883Y020429D01*
X016950Y020395D01*
X017022Y020371D01*
X017096Y020360D01*
X017115Y020360D01*
X017115Y021115D01*
X017152Y021115D01*
X017152Y021152D01*
X017115Y021152D01*
X017115Y021115D01*
X016656Y021115D01*
X016656Y021104D02*
X016610Y021104D01*
X016610Y020946D02*
X016656Y020946D01*
X016658Y020787D02*
X016608Y020787D01*
X016563Y020629D02*
X016704Y020629D01*
X016826Y020470D02*
X016441Y020470D01*
X015826Y020470D02*
X015412Y020470D01*
X015391Y020450D02*
X015520Y020578D01*
X015589Y020746D01*
X015589Y021521D01*
X015520Y021688D01*
X015391Y021816D01*
X015224Y021886D01*
X015043Y021886D01*
X014875Y021816D01*
X014747Y021688D01*
X014678Y021521D01*
X014678Y020746D01*
X014747Y020578D01*
X014875Y020450D01*
X015043Y020381D01*
X015224Y020381D01*
X015391Y020450D01*
X015540Y020629D02*
X015704Y020629D01*
X015658Y020787D02*
X015589Y020787D01*
X015589Y020946D02*
X015656Y020946D01*
X015656Y021104D02*
X015589Y021104D01*
X015589Y021263D02*
X015656Y021263D01*
X015656Y021421D02*
X015589Y021421D01*
X015564Y021580D02*
X015681Y021580D01*
X015768Y021738D02*
X015469Y021738D01*
X014797Y021738D02*
X014469Y021738D01*
X014520Y021688D02*
X014391Y021816D01*
X014224Y021886D01*
X014043Y021886D01*
X013875Y021816D01*
X013747Y021688D01*
X013678Y021521D01*
X013678Y020746D01*
X013747Y020578D01*
X013875Y020450D01*
X014043Y020381D01*
X014224Y020381D01*
X014391Y020450D01*
X014520Y020578D01*
X014589Y020746D01*
X014589Y021521D01*
X014520Y021688D01*
X014564Y021580D02*
X014702Y021580D01*
X014678Y021421D02*
X014589Y021421D01*
X014589Y021263D02*
X014678Y021263D01*
X014678Y021104D02*
X014589Y021104D01*
X014589Y020946D02*
X014678Y020946D01*
X014678Y020787D02*
X014589Y020787D01*
X014540Y020629D02*
X014726Y020629D01*
X014855Y020470D02*
X014412Y020470D01*
X013855Y020470D02*
X013441Y020470D01*
X013444Y020473D02*
X013497Y020526D01*
X013541Y020587D01*
X013575Y020653D01*
X013598Y020725D01*
X013610Y020799D01*
X013610Y021115D01*
X013152Y021115D01*
X013152Y021152D01*
X013115Y021152D01*
X013115Y021115D01*
X013152Y021115D01*
X013152Y020360D01*
X013171Y020360D01*
X013245Y020371D01*
X013316Y020395D01*
X013383Y020429D01*
X013444Y020473D01*
X013563Y020629D02*
X013726Y020629D01*
X013678Y020787D02*
X013608Y020787D01*
X013610Y020946D02*
X013678Y020946D01*
X013678Y021104D02*
X013610Y021104D01*
X013610Y021263D02*
X013678Y021263D01*
X013678Y021421D02*
X013610Y021421D01*
X013586Y021580D02*
X013702Y021580D01*
X013797Y021738D02*
X013499Y021738D01*
X013152Y021738D02*
X013115Y021738D01*
X013115Y021580D02*
X013152Y021580D01*
X013152Y021421D02*
X013115Y021421D01*
X013115Y021263D02*
X013152Y021263D01*
X013115Y021115D02*
X012656Y021115D01*
X012656Y020799D01*
X012668Y020725D01*
X012691Y020653D01*
X012725Y020587D01*
X012770Y020526D01*
X012823Y020473D01*
X012883Y020429D01*
X012950Y020395D01*
X013022Y020371D01*
X013096Y020360D01*
X013115Y020360D01*
X013115Y021115D01*
X013115Y021104D02*
X013152Y021104D01*
X013152Y020946D02*
X013115Y020946D01*
X013115Y020787D02*
X013152Y020787D01*
X013152Y020629D02*
X013115Y020629D01*
X013115Y020470D02*
X013152Y020470D01*
X012826Y020470D02*
X012441Y020470D01*
X012444Y020473D02*
X012497Y020526D01*
X012541Y020587D01*
X012575Y020653D01*
X012598Y020725D01*
X012610Y020799D01*
X012610Y021115D01*
X012152Y021115D01*
X012152Y021152D01*
X012115Y021152D01*
X012115Y021115D01*
X012152Y021115D01*
X012152Y020360D01*
X012171Y020360D01*
X012245Y020371D01*
X012316Y020395D01*
X012383Y020429D01*
X012444Y020473D01*
X012563Y020629D02*
X012704Y020629D01*
X012658Y020787D02*
X012608Y020787D01*
X012610Y020946D02*
X012656Y020946D01*
X012656Y021104D02*
X012610Y021104D01*
X012610Y021263D02*
X012656Y021263D01*
X012656Y021421D02*
X012610Y021421D01*
X012586Y021580D02*
X012681Y021580D01*
X012768Y021738D02*
X012499Y021738D01*
X012152Y021738D02*
X012115Y021738D01*
X012115Y021580D02*
X012152Y021580D01*
X012152Y021421D02*
X012115Y021421D01*
X012115Y021263D02*
X012152Y021263D01*
X012115Y021115D02*
X011656Y021115D01*
X011656Y020799D01*
X011668Y020725D01*
X011691Y020653D01*
X011725Y020587D01*
X011770Y020526D01*
X011823Y020473D01*
X011883Y020429D01*
X011950Y020395D01*
X012022Y020371D01*
X012096Y020360D01*
X012115Y020360D01*
X012115Y021115D01*
X012115Y021104D02*
X012152Y021104D01*
X012152Y020946D02*
X012115Y020946D01*
X012115Y020787D02*
X012152Y020787D01*
X012152Y020629D02*
X012115Y020629D01*
X012115Y020470D02*
X012152Y020470D01*
X011826Y020470D02*
X011412Y020470D01*
X011391Y020450D02*
X011520Y020578D01*
X011589Y020746D01*
X011589Y021521D01*
X011520Y021688D01*
X011391Y021816D01*
X011224Y021886D01*
X011043Y021886D01*
X010875Y021816D01*
X010747Y021688D01*
X010678Y021521D01*
X010678Y020746D01*
X010747Y020578D01*
X010875Y020450D01*
X011043Y020381D01*
X011224Y020381D01*
X011391Y020450D01*
X011540Y020629D02*
X011704Y020629D01*
X011658Y020787D02*
X011589Y020787D01*
X011589Y020946D02*
X011656Y020946D01*
X011656Y021104D02*
X011589Y021104D01*
X011589Y021263D02*
X011656Y021263D01*
X011656Y021421D02*
X011589Y021421D01*
X011564Y021580D02*
X011681Y021580D01*
X011768Y021738D02*
X011469Y021738D01*
X010797Y021738D02*
X010469Y021738D01*
X010520Y021688D02*
X010391Y021816D01*
X010224Y021886D01*
X010043Y021886D01*
X009875Y021816D01*
X009747Y021688D01*
X009678Y021521D01*
X009678Y020746D01*
X009747Y020578D01*
X009875Y020450D01*
X010043Y020381D01*
X010224Y020381D01*
X010391Y020450D01*
X010520Y020578D01*
X010589Y020746D01*
X010589Y021521D01*
X010520Y021688D01*
X010564Y021580D02*
X010702Y021580D01*
X010678Y021421D02*
X010589Y021421D01*
X010589Y021263D02*
X010678Y021263D01*
X010678Y021104D02*
X010589Y021104D01*
X010589Y020946D02*
X010678Y020946D01*
X010678Y020787D02*
X010589Y020787D01*
X010540Y020629D02*
X010726Y020629D01*
X010855Y020470D02*
X010412Y020470D01*
X009855Y020470D02*
X008441Y020470D01*
X008444Y020473D02*
X008497Y020526D01*
X008541Y020587D01*
X008575Y020653D01*
X008598Y020725D01*
X008610Y020799D01*
X008610Y021115D01*
X008152Y021115D01*
X008152Y021152D01*
X008115Y021152D01*
X008115Y021115D01*
X008152Y021115D01*
X008152Y020360D01*
X008171Y020360D01*
X008245Y020371D01*
X008316Y020395D01*
X008383Y020429D01*
X008444Y020473D01*
X008563Y020629D02*
X009726Y020629D01*
X009678Y020787D02*
X008608Y020787D01*
X008610Y020946D02*
X009678Y020946D01*
X009678Y021104D02*
X008610Y021104D01*
X008610Y021263D02*
X009678Y021263D01*
X009678Y021421D02*
X008610Y021421D01*
X008586Y021580D02*
X009702Y021580D01*
X009797Y021738D02*
X008499Y021738D01*
X008152Y021738D02*
X008115Y021738D01*
X008115Y021580D02*
X008152Y021580D01*
X008152Y021421D02*
X008115Y021421D01*
X008115Y021263D02*
X008152Y021263D01*
X008115Y021115D02*
X007656Y021115D01*
X007656Y020799D01*
X007668Y020725D01*
X007691Y020653D01*
X007725Y020587D01*
X007770Y020526D01*
X007823Y020473D01*
X007883Y020429D01*
X007950Y020395D01*
X008022Y020371D01*
X008096Y020360D01*
X008115Y020360D01*
X008115Y021115D01*
X008115Y021104D02*
X008152Y021104D01*
X008152Y020946D02*
X008115Y020946D01*
X008115Y020787D02*
X008152Y020787D01*
X008152Y020629D02*
X008115Y020629D01*
X008115Y020470D02*
X008152Y020470D01*
X007826Y020470D02*
X007441Y020470D01*
X007444Y020473D02*
X007497Y020526D01*
X007541Y020587D01*
X007575Y020653D01*
X007598Y020725D01*
X007610Y020799D01*
X007610Y021115D01*
X007152Y021115D01*
X007152Y021152D01*
X007115Y021152D01*
X007115Y021115D01*
X007152Y021115D01*
X007152Y020360D01*
X007171Y020360D01*
X007245Y020371D01*
X007316Y020395D01*
X007383Y020429D01*
X007444Y020473D01*
X007563Y020629D02*
X007704Y020629D01*
X007658Y020787D02*
X007608Y020787D01*
X007610Y020946D02*
X007656Y020946D01*
X007656Y021104D02*
X007610Y021104D01*
X007610Y021263D02*
X007656Y021263D01*
X007656Y021421D02*
X007610Y021421D01*
X007586Y021580D02*
X007681Y021580D01*
X007768Y021738D02*
X007499Y021738D01*
X007152Y021738D02*
X007115Y021738D01*
X007115Y021580D02*
X007152Y021580D01*
X007152Y021421D02*
X007115Y021421D01*
X007115Y021263D02*
X007152Y021263D01*
X007115Y021115D02*
X006656Y021115D01*
X006656Y020799D01*
X006668Y020725D01*
X006691Y020653D01*
X006725Y020587D01*
X006770Y020526D01*
X006823Y020473D01*
X006883Y020429D01*
X006950Y020395D01*
X007022Y020371D01*
X007096Y020360D01*
X007115Y020360D01*
X007115Y021115D01*
X007115Y021104D02*
X007152Y021104D01*
X007152Y020946D02*
X007115Y020946D01*
X007115Y020787D02*
X007152Y020787D01*
X007152Y020629D02*
X007115Y020629D01*
X007115Y020470D02*
X007152Y020470D01*
X006826Y020470D02*
X006412Y020470D01*
X006391Y020450D02*
X006520Y020578D01*
X006589Y020746D01*
X006589Y021521D01*
X006520Y021688D01*
X006391Y021816D01*
X006224Y021886D01*
X006043Y021886D01*
X005875Y021816D01*
X005747Y021688D01*
X005678Y021521D01*
X005678Y020746D01*
X005747Y020578D01*
X005875Y020450D01*
X006043Y020381D01*
X006224Y020381D01*
X006391Y020450D01*
X006540Y020629D02*
X006704Y020629D01*
X006658Y020787D02*
X006589Y020787D01*
X006589Y020946D02*
X006656Y020946D01*
X006656Y021104D02*
X006589Y021104D01*
X006589Y021263D02*
X006656Y021263D01*
X006656Y021421D02*
X006589Y021421D01*
X006564Y021580D02*
X006681Y021580D01*
X006768Y021738D02*
X006469Y021738D01*
X005797Y021738D02*
X005469Y021738D01*
X005520Y021688D02*
X005391Y021816D01*
X005224Y021886D01*
X005043Y021886D01*
X004875Y021816D01*
X004747Y021688D01*
X004678Y021521D01*
X004678Y020746D01*
X004747Y020578D01*
X004875Y020450D01*
X005043Y020381D01*
X005224Y020381D01*
X005391Y020450D01*
X005520Y020578D01*
X005589Y020746D01*
X005589Y021521D01*
X005520Y021688D01*
X005564Y021580D02*
X005702Y021580D01*
X005678Y021421D02*
X005589Y021421D01*
X005589Y021263D02*
X005678Y021263D01*
X005678Y021104D02*
X005589Y021104D01*
X005589Y020946D02*
X005678Y020946D01*
X005678Y020787D02*
X005589Y020787D01*
X005540Y020629D02*
X005726Y020629D01*
X005855Y020470D02*
X005412Y020470D01*
X004855Y020470D02*
X004412Y020470D01*
X004391Y020450D02*
X004520Y020578D01*
X004589Y020746D01*
X004589Y021521D01*
X004520Y021688D01*
X004391Y021816D01*
X004224Y021886D01*
X004043Y021886D01*
X003875Y021816D01*
X003747Y021688D01*
X003678Y021521D01*
X003678Y020746D01*
X003747Y020578D01*
X003875Y020450D01*
X004043Y020381D01*
X004224Y020381D01*
X004391Y020450D01*
X004540Y020629D02*
X004726Y020629D01*
X004678Y020787D02*
X004589Y020787D01*
X004589Y020946D02*
X004678Y020946D01*
X004678Y021104D02*
X004589Y021104D01*
X004589Y021263D02*
X004678Y021263D01*
X004678Y021421D02*
X004589Y021421D01*
X004564Y021580D02*
X004702Y021580D01*
X004797Y021738D02*
X004469Y021738D01*
X003797Y021738D02*
X003469Y021738D01*
X003520Y021688D02*
X003391Y021816D01*
X003224Y021886D01*
X003043Y021886D01*
X002875Y021816D01*
X002747Y021688D01*
X002678Y021521D01*
X002678Y020746D01*
X002747Y020578D01*
X002875Y020450D01*
X003043Y020381D01*
X003224Y020381D01*
X003391Y020450D01*
X003520Y020578D01*
X003589Y020746D01*
X003589Y021521D01*
X003520Y021688D01*
X003564Y021580D02*
X003702Y021580D01*
X003678Y021421D02*
X003589Y021421D01*
X003589Y021263D02*
X003678Y021263D01*
X003678Y021104D02*
X003589Y021104D01*
X003589Y020946D02*
X003678Y020946D01*
X003678Y020787D02*
X003589Y020787D01*
X003540Y020629D02*
X003726Y020629D01*
X003855Y020470D02*
X003412Y020470D01*
X002855Y020470D02*
X000811Y020470D01*
X000811Y020312D02*
X026045Y020312D01*
X026045Y020470D02*
X025441Y020470D01*
X025444Y020473D02*
X025497Y020526D01*
X025541Y020587D01*
X025575Y020653D01*
X025598Y020725D01*
X025610Y020799D01*
X025610Y021115D01*
X025152Y021115D01*
X025152Y021152D01*
X025115Y021152D01*
X025115Y021115D01*
X025152Y021115D01*
X025152Y020360D01*
X025171Y020360D01*
X025245Y020371D01*
X025316Y020395D01*
X025383Y020429D01*
X025444Y020473D01*
X025563Y020629D02*
X026045Y020629D01*
X026045Y020787D02*
X025608Y020787D01*
X025610Y020946D02*
X026045Y020946D01*
X026045Y021104D02*
X025610Y021104D01*
X025610Y021263D02*
X026045Y021263D01*
X026045Y021421D02*
X025610Y021421D01*
X025586Y021580D02*
X026045Y021580D01*
X026045Y021738D02*
X025499Y021738D01*
X025152Y021738D02*
X025115Y021738D01*
X025115Y021580D02*
X025152Y021580D01*
X025152Y021421D02*
X025115Y021421D01*
X025115Y021263D02*
X025152Y021263D01*
X025115Y021115D02*
X024656Y021115D01*
X024656Y020799D01*
X024668Y020725D01*
X024691Y020653D01*
X024725Y020587D01*
X024770Y020526D01*
X024823Y020473D01*
X024883Y020429D01*
X024950Y020395D01*
X025022Y020371D01*
X025096Y020360D01*
X025115Y020360D01*
X025115Y021115D01*
X025115Y021104D02*
X025152Y021104D01*
X025152Y020946D02*
X025115Y020946D01*
X025115Y020787D02*
X025152Y020787D01*
X025152Y020629D02*
X025115Y020629D01*
X025115Y020470D02*
X025152Y020470D01*
X024826Y020470D02*
X024441Y020470D01*
X024444Y020473D02*
X024497Y020526D01*
X024541Y020587D01*
X024575Y020653D01*
X024598Y020725D01*
X024610Y020799D01*
X024610Y021115D01*
X024152Y021115D01*
X024152Y021152D01*
X024115Y021152D01*
X024115Y021115D01*
X024152Y021115D01*
X024152Y020360D01*
X024171Y020360D01*
X024245Y020371D01*
X024316Y020395D01*
X024383Y020429D01*
X024444Y020473D01*
X024563Y020629D02*
X024704Y020629D01*
X024658Y020787D02*
X024608Y020787D01*
X024610Y020946D02*
X024656Y020946D01*
X024656Y021104D02*
X024610Y021104D01*
X024610Y021263D02*
X024656Y021263D01*
X024656Y021421D02*
X024610Y021421D01*
X024586Y021580D02*
X024681Y021580D01*
X024768Y021738D02*
X024499Y021738D01*
X024152Y021738D02*
X024115Y021738D01*
X024115Y021580D02*
X024152Y021580D01*
X024152Y021421D02*
X024115Y021421D01*
X024115Y021263D02*
X024152Y021263D01*
X024115Y021115D02*
X023656Y021115D01*
X023656Y020799D01*
X023668Y020725D01*
X023691Y020653D01*
X023725Y020587D01*
X023770Y020526D01*
X023823Y020473D01*
X023883Y020429D01*
X023950Y020395D01*
X024022Y020371D01*
X024096Y020360D01*
X024115Y020360D01*
X024115Y021115D01*
X024115Y021104D02*
X024152Y021104D01*
X024152Y020946D02*
X024115Y020946D01*
X024115Y020787D02*
X024152Y020787D01*
X024152Y020629D02*
X024115Y020629D01*
X024115Y020470D02*
X024152Y020470D01*
X023826Y020470D02*
X023412Y020470D01*
X023391Y020450D02*
X023520Y020578D01*
X023589Y020746D01*
X023589Y021521D01*
X023520Y021688D01*
X023391Y021816D01*
X023224Y021886D01*
X023043Y021886D01*
X022875Y021816D01*
X022747Y021688D01*
X022678Y021521D01*
X022678Y020746D01*
X022747Y020578D01*
X022875Y020450D01*
X023043Y020381D01*
X023224Y020381D01*
X023391Y020450D01*
X023540Y020629D02*
X023704Y020629D01*
X023658Y020787D02*
X023589Y020787D01*
X023589Y020946D02*
X023656Y020946D01*
X023656Y021104D02*
X023589Y021104D01*
X023589Y021263D02*
X023656Y021263D01*
X023656Y021421D02*
X023589Y021421D01*
X023564Y021580D02*
X023681Y021580D01*
X023768Y021738D02*
X023469Y021738D01*
X022797Y021738D02*
X022469Y021738D01*
X022520Y021688D02*
X022391Y021816D01*
X022224Y021886D01*
X022043Y021886D01*
X021875Y021816D01*
X021747Y021688D01*
X021678Y021521D01*
X021678Y020746D01*
X021747Y020578D01*
X021875Y020450D01*
X022043Y020381D01*
X022224Y020381D01*
X022391Y020450D01*
X022520Y020578D01*
X022589Y020746D01*
X022589Y021521D01*
X022520Y021688D01*
X022564Y021580D02*
X022702Y021580D01*
X022678Y021421D02*
X022589Y021421D01*
X022589Y021263D02*
X022678Y021263D01*
X022678Y021104D02*
X022589Y021104D01*
X022589Y020946D02*
X022678Y020946D01*
X022678Y020787D02*
X022589Y020787D01*
X022540Y020629D02*
X022726Y020629D01*
X022855Y020470D02*
X022412Y020470D01*
X021855Y020470D02*
X021441Y020470D01*
X021444Y020473D02*
X021497Y020526D01*
X021541Y020587D01*
X021575Y020653D01*
X021598Y020725D01*
X021610Y020799D01*
X021610Y021115D01*
X021152Y021115D01*
X021152Y021152D01*
X021115Y021152D01*
X021115Y021115D01*
X021152Y021115D01*
X021152Y020360D01*
X021171Y020360D01*
X021245Y020371D01*
X021316Y020395D01*
X021383Y020429D01*
X021444Y020473D01*
X021563Y020629D02*
X021726Y020629D01*
X021678Y020787D02*
X021608Y020787D01*
X021610Y020946D02*
X021678Y020946D01*
X021678Y021104D02*
X021610Y021104D01*
X021610Y021263D02*
X021678Y021263D01*
X021678Y021421D02*
X021610Y021421D01*
X021586Y021580D02*
X021702Y021580D01*
X021797Y021738D02*
X021499Y021738D01*
X021152Y021738D02*
X021115Y021738D01*
X021115Y021580D02*
X021152Y021580D01*
X021152Y021421D02*
X021115Y021421D01*
X021115Y021263D02*
X021152Y021263D01*
X021115Y021115D02*
X020656Y021115D01*
X020656Y020799D01*
X020668Y020725D01*
X020691Y020653D01*
X020725Y020587D01*
X020770Y020526D01*
X020823Y020473D01*
X020883Y020429D01*
X020950Y020395D01*
X021022Y020371D01*
X021096Y020360D01*
X021115Y020360D01*
X021115Y021115D01*
X021115Y021104D02*
X021152Y021104D01*
X021152Y020946D02*
X021115Y020946D01*
X021115Y020787D02*
X021152Y020787D01*
X021152Y020629D02*
X021115Y020629D01*
X021115Y020470D02*
X021152Y020470D01*
X020826Y020470D02*
X020441Y020470D01*
X020444Y020473D02*
X020497Y020526D01*
X020541Y020587D01*
X020575Y020653D01*
X020598Y020725D01*
X020610Y020799D01*
X020610Y021115D01*
X020152Y021115D01*
X020152Y021152D01*
X020115Y021152D01*
X020115Y021115D01*
X020152Y021115D01*
X020152Y020360D01*
X020171Y020360D01*
X020245Y020371D01*
X020316Y020395D01*
X020383Y020429D01*
X020444Y020473D01*
X020563Y020629D02*
X020704Y020629D01*
X020658Y020787D02*
X020608Y020787D01*
X020610Y020946D02*
X020656Y020946D01*
X020656Y021104D02*
X020610Y021104D01*
X020610Y021263D02*
X020656Y021263D01*
X020656Y021421D02*
X020610Y021421D01*
X020586Y021580D02*
X020681Y021580D01*
X020768Y021738D02*
X020499Y021738D01*
X020152Y021738D02*
X020115Y021738D01*
X020115Y021580D02*
X020152Y021580D01*
X020152Y021421D02*
X020115Y021421D01*
X020115Y021263D02*
X020152Y021263D01*
X020115Y021115D02*
X019656Y021115D01*
X019656Y020799D01*
X019668Y020725D01*
X019691Y020653D01*
X019725Y020587D01*
X019770Y020526D01*
X019823Y020473D01*
X019883Y020429D01*
X019950Y020395D01*
X020022Y020371D01*
X020096Y020360D01*
X020115Y020360D01*
X020115Y021115D01*
X020115Y021104D02*
X020152Y021104D01*
X020152Y020946D02*
X020115Y020946D01*
X020115Y020787D02*
X020152Y020787D01*
X020152Y020629D02*
X020115Y020629D01*
X020115Y020470D02*
X020152Y020470D01*
X019826Y020470D02*
X019412Y020470D01*
X019391Y020450D02*
X019520Y020578D01*
X019589Y020746D01*
X019589Y021521D01*
X019520Y021688D01*
X019391Y021816D01*
X019224Y021886D01*
X019043Y021886D01*
X018875Y021816D01*
X018747Y021688D01*
X018678Y021521D01*
X018678Y020746D01*
X018747Y020578D01*
X018875Y020450D01*
X019043Y020381D01*
X019224Y020381D01*
X019391Y020450D01*
X019540Y020629D02*
X019704Y020629D01*
X019658Y020787D02*
X019589Y020787D01*
X019589Y020946D02*
X019656Y020946D01*
X019656Y021104D02*
X019589Y021104D01*
X019589Y021263D02*
X019656Y021263D01*
X019656Y021421D02*
X019589Y021421D01*
X019564Y021580D02*
X019681Y021580D01*
X019768Y021738D02*
X019469Y021738D01*
X018797Y021738D02*
X018469Y021738D01*
X018520Y021688D02*
X018391Y021816D01*
X018224Y021886D01*
X018043Y021886D01*
X017875Y021816D01*
X017747Y021688D01*
X017678Y021521D01*
X017678Y020746D01*
X017747Y020578D01*
X017875Y020450D01*
X018043Y020381D01*
X018224Y020381D01*
X018391Y020450D01*
X018520Y020578D01*
X018589Y020746D01*
X018589Y021521D01*
X018520Y021688D01*
X018564Y021580D02*
X018702Y021580D01*
X018678Y021421D02*
X018589Y021421D01*
X018589Y021263D02*
X018678Y021263D01*
X018678Y021104D02*
X018589Y021104D01*
X018589Y020946D02*
X018678Y020946D01*
X018678Y020787D02*
X018589Y020787D01*
X018540Y020629D02*
X018726Y020629D01*
X018855Y020470D02*
X018412Y020470D01*
X017855Y020470D02*
X017441Y020470D01*
X017444Y020473D02*
X017497Y020526D01*
X017541Y020587D01*
X017575Y020653D01*
X017598Y020725D01*
X017610Y020799D01*
X017610Y021115D01*
X017152Y021115D01*
X017152Y020360D01*
X017171Y020360D01*
X017245Y020371D01*
X017316Y020395D01*
X017383Y020429D01*
X017444Y020473D01*
X017563Y020629D02*
X017726Y020629D01*
X017678Y020787D02*
X017608Y020787D01*
X017610Y020946D02*
X017678Y020946D01*
X017678Y021104D02*
X017610Y021104D01*
X017610Y021263D02*
X017678Y021263D01*
X017678Y021421D02*
X017610Y021421D01*
X017586Y021580D02*
X017702Y021580D01*
X017797Y021738D02*
X017499Y021738D01*
X017152Y021738D02*
X017115Y021738D01*
X017115Y021580D02*
X017152Y021580D01*
X017152Y021421D02*
X017115Y021421D01*
X017115Y021263D02*
X017152Y021263D01*
X017152Y021104D02*
X017115Y021104D01*
X017115Y020946D02*
X017152Y020946D01*
X017152Y020787D02*
X017115Y020787D01*
X017115Y020629D02*
X017152Y020629D01*
X017152Y020470D02*
X017115Y020470D01*
X014299Y019519D02*
X012990Y019519D01*
X013019Y019498D02*
X012944Y019553D01*
X012861Y019595D01*
X012772Y019624D01*
X012691Y019637D01*
X012691Y018691D01*
X013226Y018691D01*
X013226Y019092D01*
X013211Y019185D01*
X013182Y019273D01*
X013140Y019356D01*
X013085Y019432D01*
X013019Y019498D01*
X013137Y019361D02*
X014146Y019361D01*
X014080Y019202D02*
X013205Y019202D01*
X013226Y019044D02*
X014062Y019044D01*
X014062Y018885D02*
X013226Y018885D01*
X013226Y018727D02*
X014062Y018727D01*
X014062Y018568D02*
X013226Y018568D01*
X013226Y018576D02*
X012691Y018576D01*
X012691Y018691D01*
X012576Y018691D01*
X012576Y019637D01*
X012495Y019624D01*
X012406Y019595D01*
X012323Y019553D01*
X012247Y019498D01*
X012181Y019432D01*
X012127Y019356D01*
X012084Y019273D01*
X012055Y019185D01*
X012041Y019092D01*
X012041Y018691D01*
X012576Y018691D01*
X012576Y018576D01*
X012041Y018576D01*
X012041Y018174D01*
X012055Y018082D01*
X012084Y017993D01*
X012127Y017910D01*
X012181Y017835D01*
X012247Y017769D01*
X012323Y017714D01*
X012406Y017672D01*
X012467Y017652D01*
X012137Y017652D01*
X012091Y017640D01*
X012050Y017616D01*
X012017Y017582D01*
X011993Y017541D01*
X011981Y017496D01*
X011981Y017079D01*
X012553Y017079D01*
X012553Y016919D01*
X012713Y016919D01*
X012713Y016347D01*
X013129Y016347D01*
X013175Y016359D01*
X013216Y016383D01*
X013250Y016417D01*
X013274Y016458D01*
X013286Y016503D01*
X013286Y016919D01*
X012713Y016919D01*
X012713Y017079D01*
X013286Y017079D01*
X013286Y017496D01*
X013274Y017541D01*
X013250Y017582D01*
X013216Y017616D01*
X013175Y017640D01*
X013129Y017652D01*
X012800Y017652D01*
X012861Y017672D01*
X012944Y017714D01*
X013019Y017769D01*
X013085Y017835D01*
X013140Y017910D01*
X013182Y017993D01*
X013211Y018082D01*
X013226Y018174D01*
X013226Y018576D01*
X013226Y018410D02*
X014062Y018410D01*
X014062Y018251D02*
X013226Y018251D01*
X013213Y018093D02*
X014068Y018093D01*
X014134Y017934D02*
X013152Y017934D01*
X013026Y017776D02*
X014270Y017776D01*
X014828Y017090D02*
X014677Y016939D01*
X014595Y016740D01*
X014595Y016473D01*
X014359Y016473D01*
X014266Y016380D01*
X014266Y016160D01*
X013667Y015561D01*
X013624Y015459D01*
X013624Y008902D01*
X013667Y008800D01*
X013745Y008721D01*
X013938Y008528D01*
X013938Y007652D01*
X013836Y007652D01*
X013743Y007559D01*
X013743Y006916D01*
X013796Y006863D01*
X013743Y006811D01*
X013743Y006168D01*
X013836Y006075D01*
X013998Y006075D01*
X013998Y005229D01*
X013915Y005229D01*
X013822Y005136D01*
X013822Y004414D01*
X013915Y004321D01*
X014638Y004321D01*
X014731Y004414D01*
X014731Y004642D01*
X014975Y004397D01*
X015078Y004355D01*
X015345Y004355D01*
X015345Y004253D01*
X015438Y004160D01*
X015481Y004160D01*
X015481Y004107D01*
X015438Y004107D01*
X015345Y004014D01*
X015345Y003253D01*
X015438Y003160D01*
X016081Y003160D01*
X016133Y003212D01*
X016186Y003160D01*
X016672Y003160D01*
X016915Y002917D01*
X016915Y002833D01*
X016875Y002816D01*
X016747Y002688D01*
X016678Y002521D01*
X016678Y001746D01*
X016747Y001578D01*
X016875Y001450D01*
X017043Y001381D01*
X017224Y001381D01*
X017391Y001450D01*
X017520Y001578D01*
X017589Y001746D01*
X017589Y002521D01*
X017520Y002688D01*
X017391Y002816D01*
X017352Y002833D01*
X017352Y003098D01*
X017224Y003226D01*
X016922Y003528D01*
X016922Y004014D01*
X016829Y004107D01*
X016186Y004107D01*
X016133Y004055D01*
X016081Y004107D01*
X016038Y004107D01*
X016038Y004160D01*
X016081Y004160D01*
X016118Y004197D01*
X016141Y004174D01*
X016182Y004151D01*
X016228Y004138D01*
X016459Y004138D01*
X016459Y004585D01*
X016555Y004585D01*
X016555Y004138D01*
X016787Y004138D01*
X016833Y004151D01*
X016874Y004174D01*
X016907Y004208D01*
X016931Y004249D01*
X016943Y004295D01*
X016943Y004585D01*
X016555Y004585D01*
X016555Y004681D01*
X016943Y004681D01*
X016943Y004770D01*
X017052Y004725D01*
X017215Y004725D01*
X017340Y004776D01*
X017397Y004776D01*
X017490Y004869D01*
X017490Y004927D01*
X017542Y005052D01*
X017542Y005173D01*
X017607Y005238D01*
X017607Y005829D01*
X017603Y005833D01*
X017607Y005838D01*
X017607Y006429D01*
X017603Y006433D01*
X017607Y006438D01*
X017607Y007029D01*
X017542Y007094D01*
X017542Y007465D01*
X017490Y007590D01*
X017490Y007647D01*
X017397Y007740D01*
X017340Y007740D01*
X017215Y007792D01*
X017052Y007792D01*
X016927Y007740D01*
X016869Y007740D01*
X016790Y007661D01*
X016790Y007814D01*
X016808Y007821D01*
X016945Y007959D01*
X017020Y008138D01*
X017020Y009341D01*
X016945Y009520D01*
X016887Y009579D01*
X016887Y009624D01*
X016794Y009717D01*
X016664Y009717D01*
X016628Y009732D01*
X016434Y009732D01*
X016397Y009717D01*
X016268Y009717D01*
X016175Y009624D01*
X016175Y009579D01*
X016117Y009520D01*
X016042Y009341D01*
X016042Y008547D01*
X015979Y008484D01*
X015912Y008323D01*
X015912Y008115D01*
X015893Y008107D01*
X015686Y008107D01*
X015633Y008055D01*
X015581Y008107D01*
X015364Y008107D01*
X015144Y008326D01*
X015144Y009325D01*
X015091Y009453D01*
X015091Y009624D01*
X014998Y009717D01*
X014473Y009717D01*
X014380Y009624D01*
X014380Y009453D01*
X014327Y009325D01*
X014327Y008928D01*
X014182Y009073D01*
X014182Y010425D01*
X017220Y010425D01*
X017342Y010547D01*
X017342Y014220D01*
X017220Y014342D01*
X017042Y014342D01*
X017042Y014636D01*
X017172Y014636D01*
X017265Y014729D01*
X017265Y015805D01*
X017172Y015898D01*
X016095Y015898D01*
X016002Y015805D01*
X016002Y014729D01*
X016075Y014656D01*
X015953Y014656D01*
X015908Y014702D01*
X014359Y014702D01*
X014266Y014609D01*
X014266Y014342D01*
X014182Y014342D01*
X014182Y015288D01*
X014459Y015565D01*
X014825Y015565D01*
X014828Y015562D01*
X015026Y015480D01*
X015240Y015480D01*
X015439Y015562D01*
X015441Y015565D01*
X015908Y015565D01*
X016001Y015658D01*
X016001Y015828D01*
X016040Y015916D01*
X016044Y016079D01*
X016001Y016191D01*
X018266Y016191D01*
X018266Y016349D02*
X017138Y016349D01*
X017286Y016508D02*
X018595Y016508D01*
X018595Y016666D02*
X017286Y016666D01*
X017286Y016825D02*
X018630Y016825D01*
X019313Y017142D02*
X019981Y017142D01*
X019981Y016825D02*
X019637Y016825D01*
X019672Y016740D02*
X019590Y016939D01*
X019672Y016740D02*
X019672Y016473D01*
X019908Y016473D01*
X020001Y016380D01*
X020001Y016191D01*
X020001Y016349D02*
X020129Y016349D01*
X019981Y016508D02*
X019672Y016508D01*
X019672Y016666D02*
X019981Y016666D01*
X020043Y016032D02*
X022138Y016032D01*
X022451Y015557D02*
X022842Y015557D01*
X022293Y015398D02*
X024002Y015398D01*
X024002Y015240D02*
X022182Y015240D01*
X022182Y015081D02*
X024002Y015081D01*
X024002Y014923D02*
X022182Y014923D01*
X022182Y014764D02*
X024002Y014764D01*
X024002Y015557D02*
X023425Y015557D01*
X024001Y015715D02*
X024002Y015715D01*
X024021Y015874D02*
X024071Y015874D01*
X024043Y016032D02*
X026045Y016032D01*
X026045Y015874D02*
X025196Y015874D01*
X025265Y015715D02*
X026045Y015715D01*
X026045Y015557D02*
X025265Y015557D01*
X025265Y015398D02*
X026045Y015398D01*
X026045Y015240D02*
X025265Y015240D01*
X025265Y015081D02*
X026045Y015081D01*
X026045Y014923D02*
X025265Y014923D01*
X025265Y014764D02*
X026045Y014764D01*
X026045Y014606D02*
X025042Y014606D01*
X025042Y014447D02*
X026045Y014447D01*
X026045Y014289D02*
X025273Y014289D01*
X025342Y014130D02*
X026045Y014130D01*
X026045Y013972D02*
X025342Y013972D01*
X025342Y013813D02*
X026045Y013813D01*
X026045Y013655D02*
X025342Y013655D01*
X025342Y013496D02*
X026045Y013496D01*
X026045Y013338D02*
X025342Y013338D01*
X025342Y013179D02*
X026045Y013179D01*
X026045Y013021D02*
X025342Y013021D01*
X025342Y012862D02*
X026045Y012862D01*
X026045Y012704D02*
X025342Y012704D01*
X025342Y012545D02*
X026045Y012545D01*
X026045Y012387D02*
X025342Y012387D01*
X025342Y012228D02*
X026045Y012228D01*
X026045Y012070D02*
X025342Y012070D01*
X025342Y011911D02*
X026045Y011911D01*
X026045Y011753D02*
X025342Y011753D01*
X025342Y011594D02*
X026045Y011594D01*
X026045Y011436D02*
X025342Y011436D01*
X025342Y011277D02*
X026045Y011277D01*
X026045Y011119D02*
X025342Y011119D01*
X025342Y010960D02*
X026045Y010960D01*
X026045Y010802D02*
X025342Y010802D01*
X025342Y010643D02*
X026045Y010643D01*
X026045Y010485D02*
X025280Y010485D01*
X026045Y010326D02*
X022182Y010326D01*
X022182Y010168D02*
X026045Y010168D01*
X026045Y010009D02*
X022182Y010009D01*
X022182Y009851D02*
X026045Y009851D01*
X026045Y009692D02*
X024818Y009692D01*
X024932Y009534D02*
X026045Y009534D01*
X026045Y009375D02*
X025005Y009375D01*
X025020Y009217D02*
X026045Y009217D01*
X026045Y009058D02*
X025020Y009058D01*
X025020Y008900D02*
X026045Y008900D01*
X026045Y008741D02*
X025020Y008741D01*
X025020Y008583D02*
X026045Y008583D01*
X026045Y008424D02*
X025020Y008424D01*
X025020Y008266D02*
X026045Y008266D01*
X026045Y008107D02*
X025007Y008107D01*
X024935Y007949D02*
X026045Y007949D01*
X024042Y008583D02*
X023144Y008583D01*
X023144Y008741D02*
X024042Y008741D01*
X024042Y008900D02*
X023144Y008900D01*
X023144Y009058D02*
X024042Y009058D01*
X024042Y009217D02*
X023144Y009217D01*
X023124Y009375D02*
X024057Y009375D01*
X024130Y009534D02*
X023091Y009534D01*
X023023Y009692D02*
X024243Y009692D01*
X023954Y008424D02*
X023144Y008424D01*
X023205Y008266D02*
X023912Y008266D01*
X023894Y008107D02*
X023363Y008107D01*
X022327Y009058D02*
X022197Y009058D01*
X022182Y009217D02*
X022327Y009217D01*
X022348Y009375D02*
X022182Y009375D01*
X022182Y009534D02*
X022380Y009534D01*
X022448Y009692D02*
X022182Y009692D01*
X020243Y009692D02*
X019023Y009692D01*
X019091Y009534D02*
X020130Y009534D01*
X020057Y009375D02*
X019124Y009375D01*
X019144Y009217D02*
X020042Y009217D01*
X020042Y009058D02*
X019144Y009058D01*
X019144Y008900D02*
X020042Y008900D01*
X020042Y008741D02*
X019144Y008741D01*
X019144Y008583D02*
X020042Y008583D01*
X019954Y008424D02*
X019144Y008424D01*
X019205Y008266D02*
X019912Y008266D01*
X019894Y008107D02*
X019363Y008107D01*
X020007Y007633D02*
X020351Y007633D01*
X020790Y007790D02*
X021048Y007790D01*
X019912Y007160D02*
X019912Y006167D01*
X019913Y006166D01*
X019733Y006166D01*
X019733Y005729D01*
X019697Y005729D01*
X019697Y006166D01*
X019627Y006166D01*
X019697Y006235D01*
X019697Y006918D01*
X019620Y006995D01*
X019620Y007198D01*
X019633Y007212D01*
X019686Y007160D01*
X019912Y007160D01*
X019912Y007156D02*
X019620Y007156D01*
X019620Y006998D02*
X019912Y006998D01*
X019912Y006839D02*
X019697Y006839D01*
X019697Y006681D02*
X019912Y006681D01*
X019912Y006522D02*
X019697Y006522D01*
X019697Y006364D02*
X019912Y006364D01*
X019912Y006205D02*
X019667Y006205D01*
X019697Y006047D02*
X019733Y006047D01*
X019733Y005888D02*
X019697Y005888D01*
X019697Y005730D02*
X019733Y005730D01*
X019733Y005729D02*
X020092Y005729D01*
X020092Y005894D01*
X020103Y005883D01*
X020224Y005761D01*
X020385Y005695D01*
X020560Y005695D01*
X020632Y005725D01*
X020660Y005725D01*
X020660Y005238D01*
X020725Y005173D01*
X020725Y005128D01*
X020555Y005128D01*
X020555Y004681D01*
X020459Y004681D01*
X020459Y005128D01*
X020228Y005128D01*
X020182Y005116D01*
X020141Y005092D01*
X020118Y005070D01*
X020081Y005107D01*
X019438Y005107D01*
X019345Y005014D01*
X019345Y004912D01*
X019249Y004912D01*
X019246Y004915D01*
X019246Y005292D01*
X019323Y005369D01*
X019323Y006052D01*
X019232Y006142D01*
X019429Y006142D01*
X019408Y006130D01*
X019374Y006097D01*
X019350Y006055D01*
X019338Y006010D01*
X019338Y005729D01*
X019697Y005729D01*
X019697Y005692D01*
X019733Y005692D01*
X019733Y005255D01*
X019936Y005255D01*
X019981Y005267D01*
X020022Y005291D01*
X020056Y005324D01*
X020080Y005365D01*
X020092Y005411D01*
X020092Y005692D01*
X019733Y005692D01*
X019733Y005729D01*
X019697Y005692D02*
X019697Y005255D01*
X019494Y005255D01*
X019449Y005267D01*
X019408Y005291D01*
X019374Y005324D01*
X019350Y005365D01*
X019338Y005411D01*
X019338Y005692D01*
X019697Y005692D01*
X019697Y005571D02*
X019733Y005571D01*
X019733Y005413D02*
X019697Y005413D01*
X020092Y005413D02*
X020660Y005413D01*
X020660Y005571D02*
X020092Y005571D01*
X020092Y005730D02*
X020300Y005730D01*
X020097Y005888D02*
X020092Y005888D01*
X019338Y005888D02*
X019323Y005888D01*
X019323Y005730D02*
X019338Y005730D01*
X019323Y005571D02*
X019338Y005571D01*
X019323Y005413D02*
X019338Y005413D01*
X019246Y005254D02*
X020660Y005254D01*
X020555Y005096D02*
X020459Y005096D01*
X020459Y004937D02*
X020555Y004937D01*
X020555Y004779D02*
X020459Y004779D01*
X020147Y005096D02*
X020092Y005096D01*
X019426Y005096D02*
X019246Y005096D01*
X019246Y004937D02*
X019345Y004937D01*
X018897Y004475D02*
X018897Y004475D01*
X018911Y004462D02*
X018731Y004462D01*
X018809Y004563D02*
X018809Y004563D01*
X018752Y004620D02*
X018731Y004620D01*
X018731Y004642D02*
X018731Y004642D01*
X019345Y004303D02*
X016943Y004303D01*
X016943Y004462D02*
X017822Y004462D01*
X017822Y004620D02*
X016555Y004620D01*
X016555Y004681D02*
X016459Y004681D01*
X016459Y005128D01*
X016228Y005128D01*
X016182Y005116D01*
X016141Y005092D01*
X016118Y005070D01*
X016081Y005107D01*
X015438Y005107D01*
X015345Y005014D01*
X015345Y004912D01*
X015249Y004912D01*
X015246Y004915D01*
X015246Y005292D01*
X015323Y005369D01*
X015323Y006052D01*
X015232Y006142D01*
X015429Y006142D01*
X015408Y006130D01*
X015374Y006097D01*
X015350Y006055D01*
X015338Y006010D01*
X015338Y005729D01*
X015697Y005729D01*
X015697Y006166D01*
X015627Y006166D01*
X015697Y006235D01*
X015697Y006918D01*
X015620Y006995D01*
X015620Y007198D01*
X015633Y007212D01*
X015686Y007160D01*
X015912Y007160D01*
X015912Y006167D01*
X015913Y006166D01*
X015733Y006166D01*
X015733Y005729D01*
X015697Y005729D01*
X015697Y005692D01*
X015733Y005692D01*
X015733Y005255D01*
X015936Y005255D01*
X015981Y005267D01*
X016022Y005291D01*
X016056Y005324D01*
X016080Y005365D01*
X016092Y005411D01*
X016092Y005692D01*
X015733Y005692D01*
X015733Y005729D01*
X016092Y005729D01*
X016092Y005894D01*
X016103Y005883D01*
X016224Y005761D01*
X016385Y005695D01*
X016560Y005695D01*
X016632Y005725D01*
X016660Y005725D01*
X016660Y005238D01*
X016725Y005173D01*
X016725Y005128D01*
X016555Y005128D01*
X016555Y004681D01*
X016555Y004779D02*
X016459Y004779D01*
X016459Y004937D02*
X016555Y004937D01*
X016555Y005096D02*
X016459Y005096D01*
X016660Y005254D02*
X015246Y005254D01*
X015374Y005324D02*
X015350Y005365D01*
X015338Y005411D01*
X015338Y005692D01*
X015697Y005692D01*
X015697Y005255D01*
X015494Y005255D01*
X015449Y005267D01*
X015408Y005291D01*
X015374Y005324D01*
X015338Y005413D02*
X015323Y005413D01*
X015323Y005571D02*
X015338Y005571D01*
X015323Y005730D02*
X015338Y005730D01*
X015323Y005888D02*
X015338Y005888D01*
X015323Y006047D02*
X015348Y006047D01*
X015697Y006047D02*
X015733Y006047D01*
X015733Y005888D02*
X015697Y005888D01*
X015697Y005730D02*
X015733Y005730D01*
X015733Y005571D02*
X015697Y005571D01*
X015697Y005413D02*
X015733Y005413D01*
X016092Y005413D02*
X016660Y005413D01*
X016660Y005571D02*
X016092Y005571D01*
X016092Y005730D02*
X016300Y005730D01*
X016097Y005888D02*
X016092Y005888D01*
X015912Y006205D02*
X015667Y006205D01*
X015697Y006364D02*
X015912Y006364D01*
X015912Y006522D02*
X015697Y006522D01*
X015697Y006681D02*
X015912Y006681D01*
X015912Y006839D02*
X015697Y006839D01*
X015620Y006998D02*
X015912Y006998D01*
X015912Y007156D02*
X015620Y007156D01*
X016007Y007633D02*
X016351Y007633D01*
X016790Y007790D02*
X017048Y007790D01*
X017219Y007790D02*
X017938Y007790D01*
X017938Y007949D02*
X016935Y007949D01*
X017007Y008107D02*
X017938Y008107D01*
X017938Y008266D02*
X017020Y008266D01*
X017020Y008424D02*
X017938Y008424D01*
X017884Y008583D02*
X017020Y008583D01*
X017020Y008741D02*
X017725Y008741D01*
X017625Y008900D02*
X017020Y008900D01*
X017020Y009058D02*
X017624Y009058D01*
X017624Y009217D02*
X017020Y009217D01*
X017005Y009375D02*
X017624Y009375D01*
X017624Y009534D02*
X016932Y009534D01*
X016818Y009692D02*
X017624Y009692D01*
X017624Y009851D02*
X014182Y009851D01*
X014182Y010009D02*
X017624Y010009D01*
X017624Y010168D02*
X014182Y010168D01*
X014182Y010326D02*
X017624Y010326D01*
X017624Y010485D02*
X017280Y010485D01*
X017342Y010643D02*
X017624Y010643D01*
X017624Y010802D02*
X017342Y010802D01*
X017342Y010960D02*
X017624Y010960D01*
X017624Y011119D02*
X017342Y011119D01*
X017342Y011277D02*
X017624Y011277D01*
X017624Y011436D02*
X017342Y011436D01*
X017342Y011594D02*
X017624Y011594D01*
X017624Y011753D02*
X017342Y011753D01*
X017342Y011911D02*
X017624Y011911D01*
X017624Y012070D02*
X017342Y012070D01*
X017342Y012228D02*
X017624Y012228D01*
X017624Y012387D02*
X017342Y012387D01*
X017342Y012545D02*
X017624Y012545D01*
X017624Y012704D02*
X017342Y012704D01*
X017342Y012862D02*
X017624Y012862D01*
X017624Y013021D02*
X017342Y013021D01*
X017342Y013179D02*
X017624Y013179D01*
X017624Y013338D02*
X017342Y013338D01*
X017342Y013496D02*
X017624Y013496D01*
X017624Y013655D02*
X017342Y013655D01*
X017342Y013813D02*
X017624Y013813D01*
X017624Y013972D02*
X017342Y013972D01*
X017342Y014130D02*
X017624Y014130D01*
X017624Y014289D02*
X017273Y014289D01*
X017042Y014447D02*
X017624Y014447D01*
X017624Y014606D02*
X017042Y014606D01*
X017265Y014764D02*
X017624Y014764D01*
X017624Y014923D02*
X017265Y014923D01*
X017265Y015081D02*
X017624Y015081D01*
X017624Y015240D02*
X017265Y015240D01*
X017265Y015398D02*
X017624Y015398D01*
X017665Y015557D02*
X017265Y015557D01*
X017265Y015715D02*
X017821Y015715D01*
X017980Y015874D02*
X017196Y015874D01*
X016713Y016349D02*
X016553Y016349D01*
X016553Y016347D02*
X016553Y016919D01*
X015981Y016919D01*
X015981Y016503D01*
X015993Y016458D01*
X016017Y016417D01*
X016050Y016383D01*
X016091Y016359D01*
X016137Y016347D01*
X016553Y016347D01*
X016553Y016508D02*
X016713Y016508D01*
X016713Y016666D02*
X016553Y016666D01*
X016553Y016825D02*
X016713Y016825D01*
X016553Y016983D02*
X015545Y016983D01*
X015590Y016939D02*
X015439Y017090D01*
X015240Y017172D01*
X015026Y017172D01*
X014828Y017090D01*
X014953Y017142D02*
X013286Y017142D01*
X013286Y017300D02*
X015981Y017300D01*
X015981Y017142D02*
X015313Y017142D01*
X015590Y016939D02*
X015672Y016740D01*
X015672Y016473D01*
X015908Y016473D01*
X016001Y016380D01*
X016001Y016191D01*
X016001Y016349D02*
X016129Y016349D01*
X015981Y016508D02*
X015672Y016508D01*
X015672Y016666D02*
X015981Y016666D01*
X015981Y016825D02*
X015637Y016825D01*
X015981Y017459D02*
X013286Y017459D01*
X013214Y017617D02*
X016053Y017617D01*
X014721Y016983D02*
X012713Y016983D01*
X012713Y017079D02*
X012553Y017079D01*
X012553Y017634D01*
X012576Y017630D01*
X012576Y018576D01*
X012691Y018576D01*
X012691Y017630D01*
X012713Y017634D01*
X012713Y017079D01*
X012713Y017142D02*
X012553Y017142D01*
X012553Y017300D02*
X012713Y017300D01*
X012713Y017459D02*
X012553Y017459D01*
X012553Y017617D02*
X012713Y017617D01*
X012691Y017776D02*
X012576Y017776D01*
X012576Y017934D02*
X012691Y017934D01*
X012691Y018093D02*
X012576Y018093D01*
X012576Y018251D02*
X012691Y018251D01*
X012691Y018410D02*
X012576Y018410D01*
X012576Y018568D02*
X012691Y018568D01*
X012691Y018727D02*
X012576Y018727D01*
X012576Y018885D02*
X012691Y018885D01*
X012691Y019044D02*
X012576Y019044D01*
X012576Y019202D02*
X012691Y019202D01*
X012691Y019361D02*
X012576Y019361D01*
X012576Y019519D02*
X012691Y019519D01*
X012277Y019519D02*
X010968Y019519D01*
X010957Y019530D02*
X010747Y019617D01*
X010520Y019617D01*
X010310Y019530D01*
X010149Y019369D01*
X010062Y019159D01*
X010062Y018107D01*
X010149Y017897D01*
X010310Y017737D01*
X010520Y017650D01*
X010747Y017650D01*
X010957Y017737D01*
X011118Y017897D01*
X011205Y018107D01*
X011205Y019159D01*
X011118Y019369D01*
X010957Y019530D01*
X011121Y019361D02*
X012130Y019361D01*
X012061Y019202D02*
X011187Y019202D01*
X011205Y019044D02*
X012041Y019044D01*
X012041Y018885D02*
X011205Y018885D01*
X011205Y018727D02*
X012041Y018727D01*
X012041Y018568D02*
X011205Y018568D01*
X011205Y018410D02*
X012041Y018410D01*
X012041Y018251D02*
X011205Y018251D01*
X011199Y018093D02*
X012054Y018093D01*
X012114Y017934D02*
X011133Y017934D01*
X010996Y017776D02*
X012240Y017776D01*
X012053Y017617D02*
X000810Y017617D01*
X000810Y017459D02*
X001875Y017459D01*
X001976Y017501D02*
X001694Y017384D01*
X001477Y017167D01*
X001360Y016885D01*
X001360Y016579D01*
X001477Y016296D01*
X001694Y016080D01*
X001976Y015963D01*
X002282Y015963D01*
X002565Y016080D01*
X002781Y016296D01*
X002898Y016579D01*
X002898Y016885D01*
X002781Y017167D01*
X002565Y017384D01*
X002282Y017501D01*
X001976Y017501D01*
X002383Y017459D02*
X008883Y017459D01*
X008984Y017501D02*
X008702Y017384D01*
X008485Y017167D01*
X008368Y016885D01*
X008368Y016579D01*
X008485Y016296D01*
X008702Y016080D01*
X008984Y015963D01*
X009290Y015963D01*
X009573Y016080D01*
X009789Y016296D01*
X009906Y016579D01*
X009906Y016885D01*
X009789Y017167D01*
X009573Y017384D01*
X009290Y017501D01*
X008984Y017501D01*
X008618Y017300D02*
X002648Y017300D01*
X002792Y017142D02*
X006842Y017142D01*
X006850Y017144D02*
X006804Y017132D01*
X006763Y017108D01*
X006729Y017075D01*
X006706Y017034D01*
X006693Y016988D01*
X006693Y016608D01*
X007229Y016608D01*
X007229Y016493D01*
X006693Y016493D01*
X006693Y016114D01*
X006706Y016068D01*
X006729Y016027D01*
X006763Y015993D01*
X006804Y015970D01*
X006850Y015957D01*
X007229Y015957D01*
X007229Y016493D01*
X007345Y016493D01*
X007345Y016608D01*
X007880Y016608D01*
X007880Y016988D01*
X007868Y017034D01*
X007844Y017075D01*
X007811Y017108D01*
X007770Y017132D01*
X007724Y017144D01*
X007345Y017144D01*
X007345Y016608D01*
X007229Y016608D01*
X007229Y017144D01*
X006850Y017144D01*
X006693Y016983D02*
X006205Y016983D01*
X006205Y017030D02*
X006112Y017123D01*
X005154Y017123D01*
X005061Y017030D01*
X005061Y016072D01*
X005145Y015988D01*
X005145Y014622D01*
X003536Y014622D01*
X003356Y014548D01*
X003219Y014410D01*
X003145Y014231D01*
X003145Y013622D01*
X002036Y013622D01*
X001956Y013589D01*
X001746Y013589D01*
X001578Y013520D01*
X001450Y013391D01*
X001381Y013224D01*
X001381Y013043D01*
X001450Y012875D01*
X001578Y012747D01*
X001746Y012678D01*
X001956Y012678D01*
X002036Y012645D01*
X002895Y012645D01*
X002895Y012247D01*
X002872Y012316D01*
X002838Y012383D01*
X002794Y012444D01*
X002741Y012497D01*
X002680Y012541D01*
X002613Y012575D01*
X002542Y012598D01*
X002468Y012610D01*
X002152Y012610D01*
X002152Y012152D01*
X002115Y012152D01*
X002115Y012610D01*
X001799Y012610D01*
X001725Y012598D01*
X001653Y012575D01*
X001587Y012541D01*
X001526Y012497D01*
X001473Y012444D01*
X001429Y012383D01*
X001395Y012316D01*
X001372Y012247D01*
X001372Y013895D01*
X001442Y013895D01*
X001450Y013875D01*
X001578Y013747D01*
X001746Y013678D01*
X002521Y013678D01*
X002688Y013747D01*
X002816Y013875D01*
X002886Y014043D01*
X002886Y014224D01*
X002816Y014391D01*
X002688Y014520D01*
X002521Y014589D01*
X001746Y014589D01*
X001578Y014520D01*
X001450Y014391D01*
X001442Y014372D01*
X001034Y014372D01*
X000895Y014232D01*
X000895Y009908D01*
X001034Y009769D01*
X001160Y009769D01*
X001160Y009686D01*
X001212Y009633D01*
X001160Y009581D01*
X001160Y008938D01*
X001253Y008845D01*
X001395Y008845D01*
X001395Y008776D01*
X001272Y008776D01*
X001179Y008683D01*
X001179Y007961D01*
X001272Y007868D01*
X001994Y007868D01*
X002087Y007961D01*
X002087Y008683D01*
X001994Y008776D01*
X001872Y008776D01*
X001872Y008845D01*
X002014Y008845D01*
X002107Y008938D01*
X002107Y009581D01*
X002055Y009633D01*
X002107Y009686D01*
X002107Y010329D01*
X002014Y010422D01*
X001372Y010422D01*
X001372Y012020D01*
X001395Y011950D01*
X001429Y011883D01*
X001473Y011823D01*
X001526Y011770D01*
X001587Y011725D01*
X001653Y011691D01*
X001725Y011668D01*
X001799Y011656D01*
X002115Y011656D01*
X002115Y012115D01*
X002152Y012115D01*
X002152Y011656D01*
X002468Y011656D01*
X002542Y011668D01*
X002613Y011691D01*
X002680Y011725D01*
X002741Y011770D01*
X002794Y011823D01*
X002838Y011883D01*
X002872Y011950D01*
X002895Y012020D01*
X002895Y010422D01*
X002253Y010422D01*
X002160Y010329D01*
X002160Y009686D01*
X002212Y009633D01*
X002160Y009581D01*
X002160Y008938D01*
X002253Y008845D01*
X002395Y008845D01*
X002395Y008776D01*
X002272Y008776D01*
X002179Y008683D01*
X002179Y007961D01*
X002272Y007868D01*
X002994Y007868D01*
X003087Y007961D01*
X003087Y008683D01*
X002994Y008776D01*
X002872Y008776D01*
X002872Y008845D01*
X003014Y008845D01*
X003107Y008938D01*
X003107Y009581D01*
X003055Y009633D01*
X003107Y009686D01*
X003107Y009769D01*
X003232Y009769D01*
X003372Y009908D01*
X003372Y012645D01*
X003729Y012645D01*
X003678Y012521D01*
X003678Y011746D01*
X003747Y011578D01*
X003875Y011450D01*
X003915Y011434D01*
X003915Y009922D01*
X003753Y009922D01*
X003660Y009829D01*
X003660Y009186D01*
X003712Y009133D01*
X003660Y009081D01*
X003660Y008438D01*
X003753Y008345D01*
X003915Y008345D01*
X003915Y007530D01*
X003907Y007557D01*
X003884Y007598D01*
X003850Y007632D01*
X003915Y007632D01*
X003850Y007632D02*
X003809Y007655D01*
X003763Y007668D01*
X003522Y007668D01*
X003522Y007191D01*
X003406Y007191D01*
X003406Y007668D01*
X003165Y007668D01*
X003119Y007655D01*
X003078Y007632D01*
X000806Y007632D01*
X000806Y007790D02*
X003915Y007790D01*
X003915Y007949D02*
X003075Y007949D01*
X003087Y008107D02*
X003915Y008107D01*
X003915Y008266D02*
X003087Y008266D01*
X003087Y008424D02*
X003673Y008424D01*
X003660Y008583D02*
X003087Y008583D01*
X003029Y008741D02*
X003660Y008741D01*
X003660Y008900D02*
X003069Y008900D01*
X003107Y009058D02*
X003660Y009058D01*
X003660Y009217D02*
X003107Y009217D01*
X003107Y009375D02*
X003660Y009375D01*
X003660Y009534D02*
X003107Y009534D01*
X003107Y009692D02*
X003660Y009692D01*
X003681Y009851D02*
X003314Y009851D01*
X003372Y010009D02*
X003915Y010009D01*
X003915Y010168D02*
X003372Y010168D01*
X003372Y010326D02*
X003915Y010326D01*
X003915Y010485D02*
X003372Y010485D01*
X003372Y010643D02*
X003915Y010643D01*
X003915Y010802D02*
X003372Y010802D01*
X003372Y010960D02*
X003915Y010960D01*
X003915Y011119D02*
X003372Y011119D01*
X003372Y011277D02*
X003915Y011277D01*
X003910Y011436D02*
X003372Y011436D01*
X003372Y011594D02*
X003740Y011594D01*
X003678Y011753D02*
X003372Y011753D01*
X003372Y011911D02*
X003678Y011911D01*
X003678Y012070D02*
X003372Y012070D01*
X003372Y012228D02*
X003678Y012228D01*
X003678Y012387D02*
X003372Y012387D01*
X003372Y012545D02*
X003688Y012545D01*
X004060Y012886D02*
X004122Y013036D01*
X004122Y013645D01*
X007645Y013645D01*
X007645Y009536D01*
X007650Y009524D01*
X007650Y009243D01*
X007743Y009150D01*
X008024Y009150D01*
X008036Y009145D01*
X008231Y009145D01*
X008243Y009150D01*
X008524Y009150D01*
X008617Y009243D01*
X008617Y009524D01*
X008622Y009536D01*
X008622Y014231D01*
X008548Y014410D01*
X008410Y014548D01*
X008231Y014622D01*
X006122Y014622D01*
X006122Y015988D01*
X006205Y016072D01*
X006205Y017030D01*
X006205Y016825D02*
X006693Y016825D01*
X006693Y016666D02*
X006205Y016666D01*
X006205Y016508D02*
X007229Y016508D01*
X007345Y016508D02*
X008398Y016508D01*
X008368Y016666D02*
X007880Y016666D01*
X007880Y016825D02*
X008368Y016825D01*
X008409Y016983D02*
X007880Y016983D01*
X007732Y017142D02*
X008475Y017142D01*
X008463Y016349D02*
X007880Y016349D01*
X007880Y016493D02*
X007345Y016493D01*
X007345Y015957D01*
X007724Y015957D01*
X007770Y015970D01*
X007811Y015993D01*
X007844Y016027D01*
X007868Y016068D01*
X007880Y016114D01*
X007880Y016493D01*
X007880Y016191D02*
X008591Y016191D01*
X008816Y016032D02*
X007848Y016032D01*
X007345Y016032D02*
X007229Y016032D01*
X007229Y016191D02*
X007345Y016191D01*
X007345Y016349D02*
X007229Y016349D01*
X007229Y016666D02*
X007345Y016666D01*
X007345Y016825D02*
X007229Y016825D01*
X007229Y016983D02*
X007345Y016983D01*
X007345Y017142D02*
X007229Y017142D01*
X006693Y016349D02*
X006205Y016349D01*
X006205Y016191D02*
X006693Y016191D01*
X006726Y016032D02*
X006166Y016032D01*
X006122Y015874D02*
X009980Y015874D01*
X010138Y016032D02*
X009458Y016032D01*
X009684Y016191D02*
X010266Y016191D01*
X010266Y016160D02*
X009667Y015561D01*
X009624Y015459D01*
X009624Y008902D01*
X009667Y008800D01*
X009745Y008721D01*
X009938Y008528D01*
X009938Y007652D01*
X009836Y007652D01*
X009743Y007559D01*
X009743Y006916D01*
X009796Y006863D01*
X009743Y006811D01*
X009743Y006168D01*
X009836Y006075D01*
X009998Y006075D01*
X009998Y005229D01*
X009915Y005229D01*
X009822Y005136D01*
X009822Y004414D01*
X009915Y004321D01*
X010638Y004321D01*
X010731Y004414D01*
X010731Y004642D01*
X010975Y004397D01*
X011078Y004355D01*
X011345Y004355D01*
X011345Y004253D01*
X011438Y004160D01*
X011481Y004160D01*
X011481Y004107D01*
X011438Y004107D01*
X011345Y004014D01*
X011345Y003253D01*
X011438Y003160D01*
X012081Y003160D01*
X012133Y003212D01*
X012186Y003160D01*
X012415Y003160D01*
X012415Y002543D01*
X012915Y002043D01*
X013043Y001915D01*
X015678Y001915D01*
X015678Y001746D01*
X015747Y001578D01*
X015875Y001450D01*
X016043Y001381D01*
X016224Y001381D01*
X016391Y001450D01*
X016520Y001578D01*
X016589Y001746D01*
X016589Y002521D01*
X016520Y002688D01*
X016391Y002816D01*
X016224Y002886D01*
X016043Y002886D01*
X015875Y002816D01*
X015747Y002688D01*
X015678Y002521D01*
X015678Y002352D01*
X013224Y002352D01*
X012852Y002724D01*
X012852Y003183D01*
X012922Y003253D01*
X012922Y004014D01*
X012829Y004107D01*
X012186Y004107D01*
X012133Y004055D01*
X012081Y004107D01*
X012038Y004107D01*
X012038Y004160D01*
X012081Y004160D01*
X012118Y004197D01*
X012141Y004174D01*
X012182Y004151D01*
X012228Y004138D01*
X012459Y004138D01*
X012459Y004585D01*
X012555Y004585D01*
X012555Y004138D01*
X012787Y004138D01*
X012833Y004151D01*
X012874Y004174D01*
X012907Y004208D01*
X012931Y004249D01*
X012943Y004295D01*
X012943Y004585D01*
X012555Y004585D01*
X012555Y004681D01*
X012943Y004681D01*
X012943Y004770D01*
X013052Y004725D01*
X013215Y004725D01*
X013340Y004776D01*
X013397Y004776D01*
X013490Y004869D01*
X013490Y004927D01*
X013542Y005052D01*
X013542Y005173D01*
X013607Y005238D01*
X013607Y005829D01*
X013603Y005833D01*
X013607Y005838D01*
X013607Y006429D01*
X013603Y006433D01*
X013607Y006438D01*
X013607Y007029D01*
X013542Y007094D01*
X013542Y007465D01*
X013490Y007590D01*
X013490Y007647D01*
X013397Y007740D01*
X013340Y007740D01*
X013215Y007792D01*
X013052Y007792D01*
X012927Y007740D01*
X012869Y007740D01*
X012790Y007661D01*
X012790Y007814D01*
X012808Y007821D01*
X012945Y007959D01*
X013020Y008138D01*
X013020Y009341D01*
X012945Y009520D01*
X012887Y009579D01*
X012887Y009624D01*
X012794Y009717D01*
X012664Y009717D01*
X012628Y009732D01*
X012434Y009732D01*
X012397Y009717D01*
X012268Y009717D01*
X012175Y009624D01*
X012175Y009579D01*
X012117Y009520D01*
X012042Y009341D01*
X012042Y008547D01*
X011979Y008484D01*
X011912Y008323D01*
X011912Y008115D01*
X011893Y008107D01*
X011686Y008107D01*
X011633Y008055D01*
X011581Y008107D01*
X011364Y008107D01*
X011144Y008326D01*
X011144Y009325D01*
X011091Y009453D01*
X011091Y009624D01*
X010998Y009717D01*
X010473Y009717D01*
X010380Y009624D01*
X010380Y009453D01*
X010327Y009325D01*
X010327Y008928D01*
X010182Y009073D01*
X010182Y010425D01*
X013220Y010425D01*
X013342Y010547D01*
X013342Y014220D01*
X013220Y014342D01*
X013042Y014342D01*
X013042Y014636D01*
X013172Y014636D01*
X013265Y014729D01*
X013265Y015805D01*
X013172Y015898D01*
X012095Y015898D01*
X012002Y015805D01*
X012002Y014729D01*
X012075Y014656D01*
X011953Y014656D01*
X011908Y014702D01*
X010359Y014702D01*
X010266Y014609D01*
X010266Y014342D01*
X010182Y014342D01*
X010182Y015288D01*
X010459Y015565D01*
X010825Y015565D01*
X010828Y015562D01*
X011026Y015480D01*
X011240Y015480D01*
X011439Y015562D01*
X011441Y015565D01*
X011908Y015565D01*
X012001Y015658D01*
X012001Y015828D01*
X012040Y015916D01*
X012044Y016079D01*
X012001Y016191D01*
X014266Y016191D01*
X014266Y016349D02*
X013138Y016349D01*
X013286Y016508D02*
X014595Y016508D01*
X014595Y016666D02*
X013286Y016666D01*
X013286Y016825D02*
X014630Y016825D01*
X014138Y016032D02*
X012043Y016032D01*
X012021Y015874D02*
X012071Y015874D01*
X012001Y015715D02*
X012002Y015715D01*
X012002Y015557D02*
X011425Y015557D01*
X010842Y015557D02*
X010451Y015557D01*
X010293Y015398D02*
X012002Y015398D01*
X012002Y015240D02*
X010182Y015240D01*
X010182Y015081D02*
X012002Y015081D01*
X012002Y014923D02*
X010182Y014923D01*
X010182Y014764D02*
X012002Y014764D01*
X013042Y014606D02*
X013624Y014606D01*
X013624Y014764D02*
X013265Y014764D01*
X013265Y014923D02*
X013624Y014923D01*
X013624Y015081D02*
X013265Y015081D01*
X013265Y015240D02*
X013624Y015240D01*
X013624Y015398D02*
X013265Y015398D01*
X013265Y015557D02*
X013665Y015557D01*
X013821Y015715D02*
X013265Y015715D01*
X013196Y015874D02*
X013980Y015874D01*
X014451Y015557D02*
X014842Y015557D01*
X014293Y015398D02*
X016002Y015398D01*
X016002Y015240D02*
X014182Y015240D01*
X014182Y015081D02*
X016002Y015081D01*
X016002Y014923D02*
X014182Y014923D01*
X014182Y014764D02*
X016002Y014764D01*
X016002Y015557D02*
X015425Y015557D01*
X016001Y015715D02*
X016002Y015715D01*
X016021Y015874D02*
X016071Y015874D01*
X016043Y016032D02*
X018138Y016032D01*
X018451Y015557D02*
X018842Y015557D01*
X018293Y015398D02*
X020002Y015398D01*
X020002Y015240D02*
X018182Y015240D01*
X018182Y015081D02*
X020002Y015081D01*
X020002Y014923D02*
X018182Y014923D01*
X018182Y014764D02*
X020002Y014764D01*
X020002Y015557D02*
X019425Y015557D01*
X020001Y015715D02*
X020002Y015715D01*
X020021Y015874D02*
X020071Y015874D01*
X021286Y017142D02*
X022953Y017142D01*
X023313Y017142D02*
X023981Y017142D01*
X023981Y017300D02*
X021286Y017300D01*
X021286Y017459D02*
X023981Y017459D01*
X024053Y017617D02*
X021214Y017617D01*
X021026Y017776D02*
X022270Y017776D01*
X022310Y017737D02*
X022520Y017650D01*
X022747Y017650D01*
X022957Y017737D01*
X023118Y017897D01*
X023205Y018107D01*
X023205Y019159D01*
X023118Y019369D01*
X022957Y019530D01*
X022747Y019617D01*
X022520Y019617D01*
X022310Y019530D01*
X022149Y019369D01*
X022062Y019159D01*
X022062Y018107D01*
X022149Y017897D01*
X022310Y017737D01*
X022134Y017934D02*
X021152Y017934D01*
X021213Y018093D02*
X022068Y018093D01*
X022062Y018251D02*
X021226Y018251D01*
X021226Y018410D02*
X022062Y018410D01*
X022062Y018568D02*
X021226Y018568D01*
X021226Y018727D02*
X022062Y018727D01*
X022062Y018885D02*
X021226Y018885D01*
X021226Y019044D02*
X022062Y019044D01*
X022080Y019202D02*
X021205Y019202D01*
X021137Y019361D02*
X022146Y019361D01*
X022299Y019519D02*
X020990Y019519D01*
X022968Y019519D02*
X024277Y019519D01*
X024130Y019361D02*
X023121Y019361D01*
X023187Y019202D02*
X024061Y019202D01*
X024041Y019044D02*
X023205Y019044D01*
X023205Y018885D02*
X024041Y018885D01*
X024041Y018727D02*
X023205Y018727D01*
X023205Y018568D02*
X024041Y018568D01*
X024041Y018410D02*
X023205Y018410D01*
X023205Y018251D02*
X024041Y018251D01*
X024054Y018093D02*
X023199Y018093D01*
X023133Y017934D02*
X024114Y017934D01*
X024240Y017776D02*
X022996Y017776D01*
X023590Y016939D02*
X023672Y016740D01*
X023672Y016473D01*
X023908Y016473D01*
X024001Y016380D01*
X024001Y016191D01*
X024001Y016349D02*
X024129Y016349D01*
X023981Y016508D02*
X023672Y016508D01*
X023672Y016666D02*
X023981Y016666D01*
X023981Y016825D02*
X023637Y016825D01*
X024553Y016666D02*
X024713Y016666D01*
X024713Y016508D02*
X024553Y016508D01*
X024553Y016349D02*
X024713Y016349D01*
X024713Y017079D02*
X024553Y017079D01*
X024553Y017634D01*
X024576Y017630D01*
X024576Y018576D01*
X024691Y018576D01*
X024691Y017630D01*
X024713Y017634D01*
X024713Y017079D01*
X024713Y017142D02*
X024553Y017142D01*
X024553Y017300D02*
X024713Y017300D01*
X024713Y017459D02*
X024553Y017459D01*
X024553Y017617D02*
X024713Y017617D01*
X024691Y017776D02*
X024576Y017776D01*
X024576Y017934D02*
X024691Y017934D01*
X024691Y018093D02*
X024576Y018093D01*
X024576Y018251D02*
X024691Y018251D01*
X024691Y018410D02*
X024576Y018410D01*
X024576Y018568D02*
X024691Y018568D01*
X024691Y018727D02*
X024576Y018727D01*
X024576Y018885D02*
X024691Y018885D01*
X024691Y019044D02*
X024576Y019044D01*
X024576Y019202D02*
X024691Y019202D01*
X024691Y019361D02*
X024576Y019361D01*
X024576Y019519D02*
X024691Y019519D01*
X024990Y019519D02*
X026045Y019519D01*
X026045Y019361D02*
X025137Y019361D01*
X025205Y019202D02*
X026045Y019202D01*
X026045Y019044D02*
X025226Y019044D01*
X025226Y018885D02*
X026045Y018885D01*
X026045Y018727D02*
X025226Y018727D01*
X025226Y018568D02*
X026045Y018568D01*
X026045Y018410D02*
X025226Y018410D01*
X025226Y018251D02*
X026045Y018251D01*
X026045Y018093D02*
X025213Y018093D01*
X025152Y017934D02*
X026045Y017934D01*
X026045Y017776D02*
X025026Y017776D01*
X025214Y017617D02*
X026045Y017617D01*
X026045Y017459D02*
X025286Y017459D01*
X025286Y017300D02*
X026045Y017300D01*
X026045Y017142D02*
X025286Y017142D01*
X026045Y019678D02*
X000811Y019678D01*
X000811Y019836D02*
X026045Y019836D01*
X026045Y019995D02*
X000811Y019995D01*
X000811Y020153D02*
X026045Y020153D01*
X026045Y022214D02*
X000812Y022214D01*
X000812Y022372D02*
X026045Y022372D01*
X026045Y022531D02*
X000812Y022531D01*
X000811Y021738D02*
X002797Y021738D01*
X002702Y021580D02*
X000811Y021580D01*
X000811Y021421D02*
X002678Y021421D01*
X002678Y021263D02*
X000811Y021263D01*
X000811Y021104D02*
X002678Y021104D01*
X002678Y020946D02*
X000811Y020946D01*
X000811Y020787D02*
X002678Y020787D01*
X002726Y020629D02*
X000811Y020629D01*
X000811Y019519D02*
X010299Y019519D01*
X010146Y019361D02*
X000811Y019361D01*
X000810Y019202D02*
X003415Y019202D01*
X003408Y019195D02*
X003501Y019288D01*
X004459Y019288D01*
X004552Y019195D01*
X004552Y018237D01*
X004459Y018144D01*
X003501Y018144D01*
X003408Y018237D01*
X003408Y019195D01*
X003408Y019044D02*
X000810Y019044D01*
X000810Y018885D02*
X003408Y018885D01*
X003408Y018727D02*
X000810Y018727D01*
X000810Y018568D02*
X003408Y018568D01*
X003408Y018410D02*
X000810Y018410D01*
X000810Y018251D02*
X003408Y018251D01*
X004552Y018251D02*
X005061Y018251D01*
X005061Y018237D02*
X005154Y018144D01*
X006112Y018144D01*
X006205Y018237D01*
X006205Y019195D01*
X006112Y019288D01*
X005154Y019288D01*
X005061Y019195D01*
X005061Y018237D01*
X005061Y018410D02*
X004552Y018410D01*
X004552Y018568D02*
X005061Y018568D01*
X005061Y018727D02*
X004552Y018727D01*
X004552Y018885D02*
X005061Y018885D01*
X005061Y019044D02*
X004552Y019044D01*
X004545Y019202D02*
X005068Y019202D01*
X006198Y019202D02*
X006708Y019202D01*
X006706Y019199D02*
X006693Y019153D01*
X006693Y018774D01*
X007229Y018774D01*
X007229Y019309D01*
X006850Y019309D01*
X006804Y019297D01*
X006763Y019273D01*
X006729Y019240D01*
X006706Y019199D01*
X006693Y019044D02*
X006205Y019044D01*
X006205Y018885D02*
X006693Y018885D01*
X006693Y018658D02*
X006693Y018279D01*
X006706Y018233D01*
X006729Y018192D01*
X006763Y018159D01*
X006804Y018135D01*
X006850Y018123D01*
X007229Y018123D01*
X007229Y018658D01*
X007345Y018658D01*
X007345Y018774D01*
X007880Y018774D01*
X007880Y019153D01*
X007868Y019199D01*
X007844Y019240D01*
X007811Y019273D01*
X007770Y019297D01*
X007724Y019309D01*
X007345Y019309D01*
X007345Y018774D01*
X007229Y018774D01*
X007229Y018658D01*
X006693Y018658D01*
X006693Y018568D02*
X006205Y018568D01*
X006205Y018410D02*
X006693Y018410D01*
X006701Y018251D02*
X006205Y018251D01*
X006205Y018727D02*
X007229Y018727D01*
X007345Y018727D02*
X010062Y018727D01*
X010062Y018885D02*
X007880Y018885D01*
X007880Y019044D02*
X010062Y019044D01*
X010080Y019202D02*
X007866Y019202D01*
X007345Y019202D02*
X007229Y019202D01*
X007229Y019044D02*
X007345Y019044D01*
X007345Y018885D02*
X007229Y018885D01*
X007345Y018658D02*
X007880Y018658D01*
X007880Y018279D01*
X007868Y018233D01*
X007844Y018192D01*
X007811Y018159D01*
X007770Y018135D01*
X007724Y018123D01*
X007345Y018123D01*
X007345Y018658D01*
X007345Y018568D02*
X007229Y018568D01*
X007229Y018410D02*
X007345Y018410D01*
X007345Y018251D02*
X007229Y018251D01*
X007873Y018251D02*
X010062Y018251D01*
X010068Y018093D02*
X000810Y018093D01*
X000810Y017934D02*
X010134Y017934D01*
X010270Y017776D02*
X000810Y017776D01*
X000810Y017300D02*
X001610Y017300D01*
X001467Y017142D02*
X000810Y017142D01*
X000810Y016983D02*
X001401Y016983D01*
X001360Y016825D02*
X000810Y016825D01*
X000810Y016666D02*
X001360Y016666D01*
X001390Y016508D02*
X000809Y016508D01*
X000809Y016349D02*
X001455Y016349D01*
X001583Y016191D02*
X000809Y016191D01*
X000809Y016032D02*
X001808Y016032D01*
X002450Y016032D02*
X003447Y016032D01*
X003408Y016072D02*
X003501Y015979D01*
X004459Y015979D01*
X004552Y016072D01*
X004552Y017030D01*
X004459Y017123D01*
X003501Y017123D01*
X003408Y017030D01*
X003408Y016072D01*
X003408Y016191D02*
X002676Y016191D01*
X002803Y016349D02*
X003408Y016349D01*
X003408Y016508D02*
X002869Y016508D01*
X002898Y016666D02*
X003408Y016666D01*
X003408Y016825D02*
X002898Y016825D01*
X002858Y016983D02*
X003408Y016983D01*
X004552Y016983D02*
X005061Y016983D01*
X005061Y016825D02*
X004552Y016825D01*
X004552Y016666D02*
X005061Y016666D01*
X005061Y016508D02*
X004552Y016508D01*
X004552Y016349D02*
X005061Y016349D01*
X005061Y016191D02*
X004552Y016191D01*
X004513Y016032D02*
X005100Y016032D01*
X005145Y015874D02*
X000809Y015874D01*
X000809Y015715D02*
X005145Y015715D01*
X005145Y015557D02*
X000809Y015557D01*
X000809Y015398D02*
X005145Y015398D01*
X005145Y015240D02*
X000809Y015240D01*
X000809Y015081D02*
X005145Y015081D01*
X005145Y014923D02*
X000809Y014923D01*
X000809Y014764D02*
X005145Y014764D01*
X006122Y014764D02*
X009624Y014764D01*
X009624Y014606D02*
X008270Y014606D01*
X008510Y014447D02*
X009624Y014447D01*
X009624Y014289D02*
X008598Y014289D01*
X008622Y014130D02*
X009624Y014130D01*
X009624Y013972D02*
X008622Y013972D01*
X008622Y013813D02*
X009624Y013813D01*
X009624Y013655D02*
X008622Y013655D01*
X008622Y013496D02*
X009624Y013496D01*
X009624Y013338D02*
X008622Y013338D01*
X008622Y013179D02*
X009624Y013179D01*
X009624Y013021D02*
X008622Y013021D01*
X008622Y012862D02*
X009624Y012862D01*
X009624Y012704D02*
X008622Y012704D01*
X008622Y012545D02*
X009624Y012545D01*
X009624Y012387D02*
X008622Y012387D01*
X008622Y012228D02*
X009624Y012228D01*
X009624Y012070D02*
X008622Y012070D01*
X008622Y011911D02*
X009624Y011911D01*
X009624Y011753D02*
X008622Y011753D01*
X008622Y011594D02*
X009624Y011594D01*
X009624Y011436D02*
X008622Y011436D01*
X008622Y011277D02*
X009624Y011277D01*
X009624Y011119D02*
X008622Y011119D01*
X008622Y010960D02*
X009624Y010960D01*
X009624Y010802D02*
X008622Y010802D01*
X008622Y010643D02*
X009624Y010643D01*
X009624Y010485D02*
X008622Y010485D01*
X008622Y010326D02*
X009624Y010326D01*
X009624Y010168D02*
X008622Y010168D01*
X008622Y010009D02*
X009624Y010009D01*
X009624Y009851D02*
X008622Y009851D01*
X008622Y009692D02*
X009624Y009692D01*
X009624Y009534D02*
X008621Y009534D01*
X008617Y009375D02*
X009624Y009375D01*
X009624Y009217D02*
X008591Y009217D01*
X007676Y009217D02*
X007607Y009217D01*
X007607Y009186D02*
X007607Y009829D01*
X007514Y009922D01*
X007352Y009922D01*
X007352Y011434D01*
X007391Y011450D01*
X007520Y011578D01*
X007589Y011746D01*
X007589Y012521D01*
X007520Y012688D01*
X007391Y012816D01*
X007224Y012886D01*
X007043Y012886D01*
X006875Y012816D01*
X006747Y012688D01*
X006678Y012521D01*
X006678Y011746D01*
X006747Y011578D01*
X006875Y011450D01*
X006915Y011434D01*
X006915Y009922D01*
X006753Y009922D01*
X006660Y009829D01*
X006660Y009186D01*
X006712Y009133D01*
X006660Y009081D01*
X006660Y008438D01*
X006753Y008345D01*
X006915Y008345D01*
X006915Y002833D01*
X006875Y002816D01*
X006747Y002688D01*
X006678Y002521D01*
X006678Y001746D01*
X006747Y001578D01*
X006875Y001450D01*
X007043Y001381D01*
X007224Y001381D01*
X007391Y001450D01*
X007520Y001578D01*
X007589Y001746D01*
X007589Y002521D01*
X007520Y002688D01*
X007391Y002816D01*
X007352Y002833D01*
X007352Y005415D01*
X007530Y005415D01*
X007530Y005213D01*
X007623Y005120D01*
X008305Y005120D01*
X008398Y005213D01*
X008398Y006053D01*
X008305Y006146D01*
X007623Y006146D01*
X007530Y006053D01*
X007530Y005852D01*
X007352Y005852D01*
X007352Y006737D01*
X007359Y006710D01*
X007383Y006668D01*
X007417Y006635D01*
X007458Y006611D01*
X007503Y006599D01*
X007745Y006599D01*
X007745Y007076D01*
X007860Y007076D01*
X007860Y006599D01*
X008102Y006599D01*
X008148Y006611D01*
X008189Y006635D01*
X008222Y006668D01*
X008246Y006710D01*
X008258Y006755D01*
X008258Y007076D01*
X007860Y007076D01*
X007860Y007191D01*
X007745Y007191D01*
X007745Y007668D01*
X007503Y007668D01*
X007458Y007655D01*
X007417Y007632D01*
X007352Y007632D01*
X007383Y007598D02*
X007359Y007557D01*
X007352Y007530D01*
X007352Y008345D01*
X007514Y008345D01*
X007607Y008438D01*
X007607Y009081D01*
X007555Y009133D01*
X007607Y009186D01*
X007607Y009058D02*
X009624Y009058D01*
X009625Y008900D02*
X007607Y008900D01*
X007607Y008741D02*
X009725Y008741D01*
X009884Y008583D02*
X007607Y008583D01*
X007594Y008424D02*
X009938Y008424D01*
X009938Y008266D02*
X007352Y008266D01*
X007352Y008107D02*
X009938Y008107D01*
X009938Y007949D02*
X007352Y007949D01*
X007352Y007790D02*
X009938Y007790D01*
X009816Y007632D02*
X008188Y007632D01*
X008189Y007632D02*
X008148Y007655D01*
X008102Y007668D01*
X007860Y007668D01*
X007860Y007191D01*
X008258Y007191D01*
X008258Y007511D01*
X008246Y007557D01*
X008222Y007598D01*
X008189Y007632D01*
X008258Y007473D02*
X009743Y007473D01*
X009743Y007315D02*
X008258Y007315D01*
X008258Y006998D02*
X009743Y006998D01*
X009743Y007156D02*
X007860Y007156D01*
X007860Y006998D02*
X007745Y006998D01*
X007745Y006839D02*
X007860Y006839D01*
X007860Y006681D02*
X007745Y006681D01*
X007376Y006681D02*
X007352Y006681D01*
X007352Y006522D02*
X009743Y006522D01*
X009743Y006364D02*
X007352Y006364D01*
X007352Y006205D02*
X009743Y006205D01*
X009689Y006132D02*
X009648Y006155D01*
X009602Y006168D01*
X009360Y006168D01*
X009360Y005691D01*
X009245Y005691D01*
X009245Y006168D01*
X009003Y006168D01*
X008958Y006155D01*
X008917Y006132D01*
X008883Y006098D01*
X008859Y006057D01*
X008847Y006011D01*
X008847Y005691D01*
X009245Y005691D01*
X009245Y005576D01*
X008847Y005576D01*
X008847Y005255D01*
X008859Y005210D01*
X008883Y005168D01*
X008917Y005135D01*
X008958Y005111D01*
X009003Y005099D01*
X009245Y005099D01*
X009245Y005576D01*
X009360Y005576D01*
X009360Y005099D01*
X009602Y005099D01*
X009648Y005111D01*
X009689Y005135D01*
X009722Y005168D01*
X009746Y005210D01*
X009758Y005255D01*
X009758Y005576D01*
X009360Y005576D01*
X009360Y005691D01*
X009758Y005691D01*
X009758Y006011D01*
X009746Y006057D01*
X009722Y006098D01*
X009689Y006132D01*
X009749Y006047D02*
X009998Y006047D01*
X009998Y005888D02*
X009758Y005888D01*
X009758Y005730D02*
X009998Y005730D01*
X009998Y005571D02*
X009758Y005571D01*
X009758Y005413D02*
X009998Y005413D01*
X009998Y005254D02*
X009758Y005254D01*
X009822Y005096D02*
X007352Y005096D01*
X007352Y005254D02*
X007530Y005254D01*
X007530Y005413D02*
X007352Y005413D01*
X006915Y005413D02*
X006352Y005413D01*
X006352Y005571D02*
X006915Y005571D01*
X006915Y005730D02*
X006352Y005730D01*
X006352Y005888D02*
X006915Y005888D01*
X006915Y006047D02*
X006352Y006047D01*
X006352Y006205D02*
X006915Y006205D01*
X006915Y006364D02*
X006352Y006364D01*
X006352Y006522D02*
X006915Y006522D01*
X006805Y006620D02*
X006898Y006713D01*
X006898Y007553D01*
X006805Y007646D01*
X006352Y007646D01*
X006352Y008345D01*
X006514Y008345D01*
X006607Y008438D01*
X006607Y009081D01*
X006555Y009133D01*
X006607Y009186D01*
X006607Y009829D01*
X006514Y009922D01*
X006352Y009922D01*
X006352Y011434D01*
X006391Y011450D01*
X006520Y011578D01*
X006589Y011746D01*
X006589Y012521D01*
X006520Y012688D01*
X006391Y012816D01*
X006224Y012886D01*
X006043Y012886D01*
X005875Y012816D01*
X005747Y012688D01*
X005678Y012521D01*
X005678Y011746D01*
X005747Y011578D01*
X005875Y011450D01*
X005915Y011434D01*
X005915Y009922D01*
X005753Y009922D01*
X005660Y009829D01*
X005660Y009186D01*
X005712Y009133D01*
X005660Y009081D01*
X005660Y008438D01*
X005753Y008345D01*
X005915Y008345D01*
X005915Y002833D01*
X005875Y002816D01*
X005747Y002688D01*
X005678Y002521D01*
X005678Y001746D01*
X005747Y001578D01*
X005875Y001450D01*
X006043Y001381D01*
X006224Y001381D01*
X006391Y001450D01*
X006520Y001578D01*
X006589Y001746D01*
X006589Y002521D01*
X006520Y002688D01*
X006391Y002816D01*
X006352Y002833D01*
X006352Y006620D01*
X006805Y006620D01*
X006866Y006681D02*
X006915Y006681D01*
X006898Y006839D02*
X006915Y006839D01*
X006898Y006998D02*
X006915Y006998D01*
X006898Y007156D02*
X006915Y007156D01*
X006898Y007315D02*
X006915Y007315D01*
X006898Y007473D02*
X006915Y007473D01*
X006915Y007632D02*
X006820Y007632D01*
X006915Y007790D02*
X006352Y007790D01*
X006352Y007949D02*
X006915Y007949D01*
X006915Y008107D02*
X006352Y008107D01*
X006352Y008266D02*
X006915Y008266D01*
X006673Y008424D02*
X006594Y008424D01*
X006607Y008583D02*
X006660Y008583D01*
X006660Y008741D02*
X006607Y008741D01*
X006607Y008900D02*
X006660Y008900D01*
X006660Y009058D02*
X006607Y009058D01*
X006607Y009217D02*
X006660Y009217D01*
X006660Y009375D02*
X006607Y009375D01*
X006607Y009534D02*
X006660Y009534D01*
X006660Y009692D02*
X006607Y009692D01*
X006585Y009851D02*
X006681Y009851D01*
X006915Y010009D02*
X006352Y010009D01*
X006352Y010168D02*
X006915Y010168D01*
X006915Y010326D02*
X006352Y010326D01*
X006352Y010485D02*
X006915Y010485D01*
X006915Y010643D02*
X006352Y010643D01*
X006352Y010802D02*
X006915Y010802D01*
X006915Y010960D02*
X006352Y010960D01*
X006352Y011119D02*
X006915Y011119D01*
X006915Y011277D02*
X006352Y011277D01*
X006357Y011436D02*
X006910Y011436D01*
X006740Y011594D02*
X006526Y011594D01*
X006589Y011753D02*
X006678Y011753D01*
X006678Y011911D02*
X006589Y011911D01*
X006589Y012070D02*
X006678Y012070D01*
X006678Y012228D02*
X006589Y012228D01*
X006589Y012387D02*
X006678Y012387D01*
X006688Y012545D02*
X006579Y012545D01*
X006504Y012704D02*
X006763Y012704D01*
X006986Y012862D02*
X006281Y012862D01*
X005986Y012862D02*
X005281Y012862D01*
X005224Y012886D02*
X005043Y012886D01*
X004875Y012816D01*
X004747Y012688D01*
X004678Y012521D01*
X004678Y011746D01*
X004747Y011578D01*
X004875Y011450D01*
X004915Y011434D01*
X004915Y009922D01*
X004753Y009922D01*
X004660Y009829D01*
X004660Y009186D01*
X004712Y009133D01*
X004660Y009081D01*
X004660Y008438D01*
X004753Y008345D01*
X004915Y008345D01*
X004915Y007646D01*
X004461Y007646D01*
X004368Y007553D01*
X004368Y006713D01*
X004461Y006620D01*
X004915Y006620D01*
X004915Y002833D01*
X004875Y002816D01*
X004747Y002688D01*
X004678Y002521D01*
X004678Y001746D01*
X004747Y001578D01*
X004875Y001450D01*
X005043Y001381D01*
X005224Y001381D01*
X005391Y001450D01*
X005520Y001578D01*
X005589Y001746D01*
X005589Y002521D01*
X005520Y002688D01*
X005391Y002816D01*
X005352Y002833D01*
X005352Y008345D01*
X005514Y008345D01*
X005607Y008438D01*
X005607Y009081D01*
X005555Y009133D01*
X005607Y009186D01*
X005607Y009829D01*
X005514Y009922D01*
X005352Y009922D01*
X005352Y011434D01*
X005391Y011450D01*
X005520Y011578D01*
X005589Y011746D01*
X005589Y012521D01*
X005520Y012688D01*
X005391Y012816D01*
X005224Y012886D01*
X004986Y012862D02*
X004281Y012862D01*
X004224Y012886D02*
X004060Y012886D01*
X004116Y013021D02*
X007645Y013021D01*
X007645Y013179D02*
X004122Y013179D01*
X004122Y013338D02*
X007645Y013338D01*
X007645Y013496D02*
X004122Y013496D01*
X004224Y012886D02*
X004391Y012816D01*
X004520Y012688D01*
X004589Y012521D01*
X004589Y011746D01*
X004520Y011578D01*
X004391Y011450D01*
X004352Y011434D01*
X004352Y009922D01*
X004514Y009922D01*
X004607Y009829D01*
X004607Y009186D01*
X004555Y009133D01*
X004607Y009081D01*
X004607Y008438D01*
X004514Y008345D01*
X004352Y008345D01*
X004352Y002833D01*
X004391Y002816D01*
X004520Y002688D01*
X004589Y002521D01*
X004589Y001746D01*
X004520Y001578D01*
X004391Y001450D01*
X004224Y001381D01*
X004043Y001381D01*
X003875Y001450D01*
X003747Y001578D01*
X003678Y001746D01*
X003678Y002521D01*
X003747Y002688D01*
X003875Y002816D01*
X003915Y002833D01*
X003915Y005415D01*
X003737Y005415D01*
X003737Y005213D01*
X003644Y005120D01*
X002961Y005120D01*
X002868Y005213D01*
X002868Y006053D01*
X002961Y006146D01*
X003644Y006146D01*
X003737Y006053D01*
X003737Y005852D01*
X003915Y005852D01*
X003915Y006737D01*
X003907Y006710D01*
X003884Y006668D01*
X003850Y006635D01*
X003809Y006611D01*
X003763Y006599D01*
X003522Y006599D01*
X003522Y007076D01*
X003406Y007076D01*
X003406Y006599D01*
X003165Y006599D01*
X003119Y006611D01*
X003107Y006618D01*
X003096Y006580D01*
X003073Y006539D01*
X003039Y006505D01*
X002998Y006481D01*
X002952Y006469D01*
X002701Y006469D01*
X002701Y006877D01*
X002566Y006877D01*
X002566Y006469D01*
X002314Y006469D01*
X002269Y006481D01*
X002228Y006505D01*
X002194Y006539D01*
X002170Y006580D01*
X002158Y006625D01*
X002158Y006877D01*
X002566Y006877D01*
X002566Y007012D01*
X002566Y007420D01*
X002314Y007420D01*
X002269Y007407D01*
X002228Y007384D01*
X002194Y007350D01*
X002170Y007309D01*
X002158Y007263D01*
X002158Y007012D01*
X002566Y007012D01*
X002701Y007012D01*
X002701Y007420D01*
X002952Y007420D01*
X002998Y007407D01*
X003008Y007401D01*
X003008Y007511D01*
X003021Y007557D01*
X003044Y007598D01*
X003078Y007632D01*
X003008Y007473D02*
X000806Y007473D01*
X000806Y007315D02*
X001174Y007315D01*
X001170Y007309D02*
X001158Y007263D01*
X001158Y007012D01*
X001566Y007012D01*
X001566Y007420D01*
X001314Y007420D01*
X001269Y007407D01*
X001228Y007384D01*
X001194Y007350D01*
X001170Y007309D01*
X001158Y007156D02*
X000806Y007156D01*
X000806Y006998D02*
X001566Y006998D01*
X001566Y007012D02*
X001566Y006877D01*
X001701Y006877D01*
X001701Y007012D01*
X002109Y007012D01*
X002109Y007263D01*
X002096Y007309D01*
X002073Y007350D01*
X002039Y007384D01*
X001998Y007407D01*
X001952Y007420D01*
X001701Y007420D01*
X001701Y007012D01*
X001566Y007012D01*
X001566Y006877D02*
X001158Y006877D01*
X001158Y006625D01*
X001170Y006580D01*
X001194Y006539D01*
X001228Y006505D01*
X001269Y006481D01*
X001314Y006469D01*
X001566Y006469D01*
X001566Y006877D01*
X001566Y006839D02*
X001701Y006839D01*
X001701Y006877D02*
X001701Y006469D01*
X001952Y006469D01*
X001998Y006481D01*
X002039Y006505D01*
X002073Y006539D01*
X002096Y006580D01*
X002109Y006625D01*
X002109Y006877D01*
X001701Y006877D01*
X001701Y006998D02*
X002566Y006998D01*
X002566Y007156D02*
X002701Y007156D01*
X002701Y007315D02*
X002566Y007315D01*
X002174Y007315D02*
X002093Y007315D01*
X002109Y007156D02*
X002158Y007156D01*
X002158Y006839D02*
X002109Y006839D01*
X002109Y006681D02*
X002158Y006681D01*
X002210Y006522D02*
X002056Y006522D01*
X001701Y006522D02*
X001566Y006522D01*
X001566Y006681D02*
X001701Y006681D01*
X001701Y007156D02*
X001566Y007156D01*
X001566Y007315D02*
X001701Y007315D01*
X001158Y006839D02*
X000806Y006839D01*
X000806Y006681D02*
X001158Y006681D01*
X001210Y006522D02*
X000806Y006522D01*
X000806Y006364D02*
X003915Y006364D01*
X003915Y006522D02*
X003056Y006522D01*
X003406Y006681D02*
X003522Y006681D01*
X003522Y006839D02*
X003406Y006839D01*
X003406Y006998D02*
X003522Y006998D01*
X003522Y007315D02*
X003406Y007315D01*
X003406Y007473D02*
X003522Y007473D01*
X003522Y007632D02*
X003406Y007632D01*
X004352Y007632D02*
X004447Y007632D01*
X004368Y007473D02*
X004352Y007473D01*
X004352Y007315D02*
X004368Y007315D01*
X004352Y007156D02*
X004368Y007156D01*
X004352Y006998D02*
X004368Y006998D01*
X004352Y006839D02*
X004368Y006839D01*
X004352Y006681D02*
X004401Y006681D01*
X004352Y006522D02*
X004915Y006522D01*
X004915Y006364D02*
X004352Y006364D01*
X004352Y006205D02*
X004915Y006205D01*
X004915Y006047D02*
X004352Y006047D01*
X004352Y005888D02*
X004915Y005888D01*
X004915Y005730D02*
X004352Y005730D01*
X004352Y005571D02*
X004915Y005571D01*
X004915Y005413D02*
X004352Y005413D01*
X004352Y005254D02*
X004915Y005254D01*
X004915Y005096D02*
X004352Y005096D01*
X004352Y004937D02*
X004915Y004937D01*
X004915Y004779D02*
X004352Y004779D01*
X004352Y004620D02*
X004915Y004620D01*
X004915Y004462D02*
X004352Y004462D01*
X004352Y004303D02*
X004915Y004303D01*
X004915Y004145D02*
X004352Y004145D01*
X004352Y003986D02*
X004915Y003986D01*
X004915Y003828D02*
X004352Y003828D01*
X004352Y003669D02*
X004915Y003669D01*
X004915Y003511D02*
X004352Y003511D01*
X004352Y003352D02*
X004915Y003352D01*
X004915Y003194D02*
X004352Y003194D01*
X004352Y003035D02*
X004915Y003035D01*
X004915Y002877D02*
X004352Y002877D01*
X004489Y002718D02*
X004777Y002718D01*
X004694Y002560D02*
X004573Y002560D01*
X004589Y002401D02*
X004678Y002401D01*
X004678Y002243D02*
X004589Y002243D01*
X004589Y002084D02*
X004678Y002084D01*
X004678Y001926D02*
X004589Y001926D01*
X004589Y001767D02*
X004678Y001767D01*
X004734Y001609D02*
X004532Y001609D01*
X004391Y001450D02*
X004875Y001450D01*
X005391Y001450D02*
X005875Y001450D01*
X005734Y001609D02*
X005532Y001609D01*
X005589Y001767D02*
X005678Y001767D01*
X005678Y001926D02*
X005589Y001926D01*
X005589Y002084D02*
X005678Y002084D01*
X005678Y002243D02*
X005589Y002243D01*
X005589Y002401D02*
X005678Y002401D01*
X005694Y002560D02*
X005573Y002560D01*
X005489Y002718D02*
X005777Y002718D01*
X005915Y002877D02*
X005352Y002877D01*
X005352Y003035D02*
X005915Y003035D01*
X005915Y003194D02*
X005352Y003194D01*
X005352Y003352D02*
X005915Y003352D01*
X005915Y003511D02*
X005352Y003511D01*
X005352Y003669D02*
X005915Y003669D01*
X005915Y003828D02*
X005352Y003828D01*
X005352Y003986D02*
X005915Y003986D01*
X005915Y004145D02*
X005352Y004145D01*
X005352Y004303D02*
X005915Y004303D01*
X005915Y004462D02*
X005352Y004462D01*
X005352Y004620D02*
X005915Y004620D01*
X005915Y004779D02*
X005352Y004779D01*
X005352Y004937D02*
X005915Y004937D01*
X005915Y005096D02*
X005352Y005096D01*
X005352Y005254D02*
X005915Y005254D01*
X005915Y005413D02*
X005352Y005413D01*
X005352Y005571D02*
X005915Y005571D01*
X005915Y005730D02*
X005352Y005730D01*
X005352Y005888D02*
X005915Y005888D01*
X005915Y006047D02*
X005352Y006047D01*
X005352Y006205D02*
X005915Y006205D01*
X005915Y006364D02*
X005352Y006364D01*
X005352Y006522D02*
X005915Y006522D01*
X005915Y006681D02*
X005352Y006681D01*
X005352Y006839D02*
X005915Y006839D01*
X005915Y006998D02*
X005352Y006998D01*
X005352Y007156D02*
X005915Y007156D01*
X005915Y007315D02*
X005352Y007315D01*
X005352Y007473D02*
X005915Y007473D01*
X005915Y007632D02*
X005352Y007632D01*
X005352Y007790D02*
X005915Y007790D01*
X005915Y007949D02*
X005352Y007949D01*
X005352Y008107D02*
X005915Y008107D01*
X005915Y008266D02*
X005352Y008266D01*
X005594Y008424D02*
X005673Y008424D01*
X005660Y008583D02*
X005607Y008583D01*
X005607Y008741D02*
X005660Y008741D01*
X005660Y008900D02*
X005607Y008900D01*
X005607Y009058D02*
X005660Y009058D01*
X005660Y009217D02*
X005607Y009217D01*
X005607Y009375D02*
X005660Y009375D01*
X005660Y009534D02*
X005607Y009534D01*
X005607Y009692D02*
X005660Y009692D01*
X005681Y009851D02*
X005585Y009851D01*
X005352Y010009D02*
X005915Y010009D01*
X005915Y010168D02*
X005352Y010168D01*
X005352Y010326D02*
X005915Y010326D01*
X005915Y010485D02*
X005352Y010485D01*
X005352Y010643D02*
X005915Y010643D01*
X005915Y010802D02*
X005352Y010802D01*
X005352Y010960D02*
X005915Y010960D01*
X005915Y011119D02*
X005352Y011119D01*
X005352Y011277D02*
X005915Y011277D01*
X005910Y011436D02*
X005357Y011436D01*
X005526Y011594D02*
X005740Y011594D01*
X005678Y011753D02*
X005589Y011753D01*
X005589Y011911D02*
X005678Y011911D01*
X005678Y012070D02*
X005589Y012070D01*
X005589Y012228D02*
X005678Y012228D01*
X005678Y012387D02*
X005589Y012387D01*
X005579Y012545D02*
X005688Y012545D01*
X005763Y012704D02*
X005504Y012704D01*
X004763Y012704D02*
X004504Y012704D01*
X004579Y012545D02*
X004688Y012545D01*
X004678Y012387D02*
X004589Y012387D01*
X004589Y012228D02*
X004678Y012228D01*
X004678Y012070D02*
X004589Y012070D01*
X004589Y011911D02*
X004678Y011911D01*
X004678Y011753D02*
X004589Y011753D01*
X004526Y011594D02*
X004740Y011594D01*
X004910Y011436D02*
X004357Y011436D01*
X004352Y011277D02*
X004915Y011277D01*
X004915Y011119D02*
X004352Y011119D01*
X004352Y010960D02*
X004915Y010960D01*
X004915Y010802D02*
X004352Y010802D01*
X004352Y010643D02*
X004915Y010643D01*
X004915Y010485D02*
X004352Y010485D01*
X004352Y010326D02*
X004915Y010326D01*
X004915Y010168D02*
X004352Y010168D01*
X004352Y010009D02*
X004915Y010009D01*
X004681Y009851D02*
X004585Y009851D01*
X004607Y009692D02*
X004660Y009692D01*
X004660Y009534D02*
X004607Y009534D01*
X004607Y009375D02*
X004660Y009375D01*
X004660Y009217D02*
X004607Y009217D01*
X004607Y009058D02*
X004660Y009058D01*
X004660Y008900D02*
X004607Y008900D01*
X004607Y008741D02*
X004660Y008741D01*
X004660Y008583D02*
X004607Y008583D01*
X004594Y008424D02*
X004673Y008424D01*
X004915Y008266D02*
X004352Y008266D01*
X004352Y008107D02*
X004915Y008107D01*
X004915Y007949D02*
X004352Y007949D01*
X004352Y007790D02*
X004915Y007790D01*
X003915Y006681D02*
X003891Y006681D01*
X003915Y006205D02*
X000806Y006205D01*
X000806Y006047D02*
X001518Y006047D01*
X001521Y006057D02*
X001508Y006011D01*
X001508Y005691D01*
X001906Y005691D01*
X001906Y005576D01*
X001508Y005576D01*
X001508Y005255D01*
X001521Y005210D01*
X001544Y005168D01*
X001578Y005135D01*
X001619Y005111D01*
X001665Y005099D01*
X001906Y005099D01*
X001906Y005576D01*
X002022Y005576D01*
X002022Y005691D01*
X002420Y005691D01*
X002420Y006011D01*
X002407Y006057D01*
X002384Y006098D01*
X002350Y006132D01*
X002309Y006155D01*
X002263Y006168D01*
X002022Y006168D01*
X002022Y005691D01*
X001906Y005691D01*
X001906Y006168D01*
X001665Y006168D01*
X001619Y006155D01*
X001578Y006132D01*
X001544Y006098D01*
X001521Y006057D01*
X001508Y005888D02*
X000806Y005888D01*
X000806Y005730D02*
X001508Y005730D01*
X001508Y005571D02*
X000805Y005571D01*
X000805Y005413D02*
X001508Y005413D01*
X001509Y005254D02*
X000805Y005254D01*
X000805Y005096D02*
X003915Y005096D01*
X003915Y005254D02*
X003737Y005254D01*
X003737Y005413D02*
X003915Y005413D01*
X003915Y005888D02*
X003737Y005888D01*
X003737Y006047D02*
X003915Y006047D01*
X002868Y006047D02*
X002410Y006047D01*
X002420Y005888D02*
X002868Y005888D01*
X002868Y005730D02*
X002420Y005730D01*
X002420Y005576D02*
X002022Y005576D01*
X002022Y005099D01*
X002263Y005099D01*
X002309Y005111D01*
X002350Y005135D01*
X002384Y005168D01*
X002407Y005210D01*
X002420Y005255D01*
X002420Y005576D01*
X002420Y005571D02*
X002868Y005571D01*
X002868Y005413D02*
X002420Y005413D01*
X002419Y005254D02*
X002868Y005254D01*
X002022Y005254D02*
X001906Y005254D01*
X001906Y005413D02*
X002022Y005413D01*
X002022Y005571D02*
X001906Y005571D01*
X001906Y005730D02*
X002022Y005730D01*
X002022Y005888D02*
X001906Y005888D01*
X001906Y006047D02*
X002022Y006047D01*
X002566Y006522D02*
X002701Y006522D01*
X002701Y006681D02*
X002566Y006681D01*
X002566Y006839D02*
X002701Y006839D01*
X002192Y007949D02*
X002075Y007949D01*
X002087Y008107D02*
X002179Y008107D01*
X002179Y008266D02*
X002087Y008266D01*
X002087Y008424D02*
X002179Y008424D01*
X002179Y008583D02*
X002087Y008583D01*
X002029Y008741D02*
X002237Y008741D01*
X002197Y008900D02*
X002069Y008900D01*
X002107Y009058D02*
X002160Y009058D01*
X002160Y009217D02*
X002107Y009217D01*
X002107Y009375D02*
X002160Y009375D01*
X002160Y009534D02*
X002107Y009534D01*
X002107Y009692D02*
X002160Y009692D01*
X002160Y009851D02*
X002107Y009851D01*
X002107Y010009D02*
X002160Y010009D01*
X002160Y010168D02*
X002107Y010168D01*
X002107Y010326D02*
X002160Y010326D01*
X002633Y010007D02*
X003133Y010007D01*
X003133Y013133D01*
X003145Y013655D02*
X001372Y013655D01*
X001372Y013813D02*
X001512Y013813D01*
X001555Y013496D02*
X001372Y013496D01*
X001372Y013338D02*
X001428Y013338D01*
X001381Y013179D02*
X001372Y013179D01*
X001372Y013021D02*
X001390Y013021D01*
X001372Y012862D02*
X001463Y012862D01*
X001372Y012704D02*
X001683Y012704D01*
X001595Y012545D02*
X001372Y012545D01*
X001372Y012387D02*
X001431Y012387D01*
X001414Y011911D02*
X001372Y011911D01*
X001372Y011753D02*
X001549Y011753D01*
X001372Y011594D02*
X002895Y011594D01*
X002895Y011436D02*
X001372Y011436D01*
X001372Y011277D02*
X002895Y011277D01*
X002895Y011119D02*
X001372Y011119D01*
X001372Y010960D02*
X002895Y010960D01*
X002895Y010802D02*
X001372Y010802D01*
X001372Y010643D02*
X002895Y010643D01*
X002895Y010485D02*
X001372Y010485D01*
X000895Y010485D02*
X000807Y010485D01*
X000807Y010643D02*
X000895Y010643D01*
X000895Y010802D02*
X000807Y010802D01*
X000807Y010960D02*
X000895Y010960D01*
X000895Y011119D02*
X000808Y011119D01*
X000808Y011277D02*
X000895Y011277D01*
X000895Y011436D02*
X000808Y011436D01*
X000808Y011594D02*
X000895Y011594D01*
X000895Y011753D02*
X000808Y011753D01*
X000808Y011911D02*
X000895Y011911D01*
X000895Y012070D02*
X000808Y012070D01*
X000808Y012228D02*
X000895Y012228D01*
X000895Y012387D02*
X000808Y012387D01*
X000808Y012545D02*
X000895Y012545D01*
X000895Y012704D02*
X000808Y012704D01*
X000808Y012862D02*
X000895Y012862D01*
X000895Y013021D02*
X000808Y013021D01*
X000808Y013179D02*
X000895Y013179D01*
X000895Y013338D02*
X000808Y013338D01*
X000808Y013496D02*
X000895Y013496D01*
X000895Y013655D02*
X000808Y013655D01*
X000808Y013813D02*
X000895Y013813D01*
X000895Y013972D02*
X000809Y013972D01*
X000809Y014130D02*
X000895Y014130D01*
X000951Y014289D02*
X000809Y014289D01*
X000809Y014447D02*
X001506Y014447D01*
X001133Y014133D02*
X002133Y014133D01*
X002755Y013813D02*
X003145Y013813D01*
X003145Y013972D02*
X002856Y013972D01*
X002886Y014130D02*
X003145Y014130D01*
X003169Y014289D02*
X002859Y014289D01*
X002760Y014447D02*
X003256Y014447D01*
X003497Y014606D02*
X000809Y014606D01*
X001133Y014133D02*
X001133Y010007D01*
X001633Y010007D01*
X001160Y009692D02*
X000807Y009692D01*
X000807Y009534D02*
X001160Y009534D01*
X001160Y009375D02*
X000807Y009375D01*
X000807Y009217D02*
X001160Y009217D01*
X001160Y009058D02*
X000807Y009058D01*
X000807Y008900D02*
X001197Y008900D01*
X001237Y008741D02*
X000807Y008741D01*
X000807Y008583D02*
X001179Y008583D01*
X001179Y008424D02*
X000807Y008424D01*
X000806Y008266D02*
X001179Y008266D01*
X001179Y008107D02*
X000806Y008107D01*
X000806Y007949D02*
X001192Y007949D01*
X001633Y008322D02*
X001633Y009259D01*
X000952Y009851D02*
X000807Y009851D01*
X000807Y010009D02*
X000895Y010009D01*
X000895Y010168D02*
X000807Y010168D01*
X000807Y010326D02*
X000895Y010326D01*
X002115Y011753D02*
X002152Y011753D01*
X002152Y011911D02*
X002115Y011911D01*
X002115Y012070D02*
X002152Y012070D01*
X002152Y012228D02*
X002115Y012228D01*
X002115Y012387D02*
X002152Y012387D01*
X002152Y012545D02*
X002115Y012545D01*
X002672Y012545D02*
X002895Y012545D01*
X002895Y012387D02*
X002835Y012387D01*
X002852Y011911D02*
X002895Y011911D01*
X002895Y011753D02*
X002718Y011753D01*
X002633Y009259D02*
X002633Y008322D01*
X003915Y004937D02*
X000805Y004937D01*
X000805Y004779D02*
X003915Y004779D01*
X003915Y004620D02*
X000805Y004620D01*
X000805Y004462D02*
X003915Y004462D01*
X003915Y004303D02*
X000805Y004303D01*
X000805Y004145D02*
X003915Y004145D01*
X003915Y003986D02*
X000805Y003986D01*
X000805Y003828D02*
X003915Y003828D01*
X003915Y003669D02*
X000805Y003669D01*
X000805Y003511D02*
X001545Y003511D01*
X001526Y003497D02*
X001473Y003444D01*
X001429Y003383D01*
X001395Y003316D01*
X001371Y003245D01*
X001360Y003171D01*
X001360Y003152D01*
X002115Y003152D01*
X002115Y003610D01*
X001799Y003610D01*
X001725Y003598D01*
X001653Y003575D01*
X001587Y003541D01*
X001526Y003497D01*
X001413Y003352D02*
X000805Y003352D01*
X000805Y003194D02*
X001363Y003194D01*
X001360Y003115D02*
X001360Y003096D01*
X001371Y003022D01*
X001395Y002950D01*
X001429Y002883D01*
X001473Y002823D01*
X001526Y002770D01*
X001587Y002725D01*
X001653Y002691D01*
X001725Y002668D01*
X001799Y002656D01*
X002115Y002656D01*
X002115Y003115D01*
X002152Y003115D01*
X002152Y003152D01*
X002115Y003152D01*
X002115Y003115D01*
X001360Y003115D01*
X001369Y003035D02*
X000805Y003035D01*
X000805Y002877D02*
X001433Y002877D01*
X001601Y002718D02*
X000804Y002718D01*
X000804Y002560D02*
X001623Y002560D01*
X001653Y002575D02*
X001587Y002541D01*
X001526Y002497D01*
X001473Y002444D01*
X001429Y002383D01*
X001395Y002316D01*
X001371Y002245D01*
X001360Y002171D01*
X001360Y002152D01*
X002115Y002152D01*
X002115Y002610D01*
X001799Y002610D01*
X001725Y002598D01*
X001653Y002575D01*
X001442Y002401D02*
X000804Y002401D01*
X000804Y002243D02*
X001371Y002243D01*
X001360Y002115D02*
X001360Y002096D01*
X001371Y002022D01*
X001395Y001950D01*
X001429Y001883D01*
X001473Y001823D01*
X001526Y001770D01*
X001587Y001725D01*
X001653Y001691D01*
X001725Y001668D01*
X001799Y001656D01*
X002115Y001656D01*
X002115Y002115D01*
X002152Y002115D01*
X002152Y002152D01*
X002115Y002152D01*
X002115Y002115D01*
X001360Y002115D01*
X001361Y002084D02*
X000804Y002084D01*
X000804Y001926D02*
X001407Y001926D01*
X001529Y001767D02*
X000804Y001767D01*
X000804Y001609D02*
X003734Y001609D01*
X003678Y001767D02*
X002738Y001767D01*
X002741Y001770D02*
X002794Y001823D01*
X002838Y001883D01*
X002872Y001950D01*
X002895Y002022D01*
X002907Y002096D01*
X002907Y002115D01*
X002152Y002115D01*
X002152Y001656D01*
X002468Y001656D01*
X002542Y001668D01*
X002613Y001691D01*
X002680Y001725D01*
X002741Y001770D01*
X002860Y001926D02*
X003678Y001926D01*
X003678Y002084D02*
X002905Y002084D01*
X002907Y002152D02*
X002907Y002171D01*
X002895Y002245D01*
X002872Y002316D01*
X002838Y002383D01*
X002794Y002444D01*
X002741Y002497D01*
X002680Y002541D01*
X002613Y002575D01*
X002542Y002598D01*
X002468Y002610D01*
X002152Y002610D01*
X002152Y002152D01*
X002907Y002152D01*
X002896Y002243D02*
X003678Y002243D01*
X003678Y002401D02*
X002825Y002401D01*
X002643Y002560D02*
X003694Y002560D01*
X003777Y002718D02*
X002666Y002718D01*
X002680Y002725D02*
X002741Y002770D01*
X002794Y002823D01*
X002838Y002883D01*
X002872Y002950D01*
X002895Y003022D01*
X002907Y003096D01*
X002907Y003115D01*
X002152Y003115D01*
X002152Y002656D01*
X002468Y002656D01*
X002542Y002668D01*
X002613Y002691D01*
X002680Y002725D01*
X002833Y002877D02*
X003915Y002877D01*
X003915Y003035D02*
X002897Y003035D01*
X002907Y003152D02*
X002907Y003171D01*
X002895Y003245D01*
X002872Y003316D01*
X002838Y003383D01*
X002794Y003444D01*
X002741Y003497D01*
X002680Y003541D01*
X002613Y003575D01*
X002542Y003598D01*
X002468Y003610D01*
X002152Y003610D01*
X002152Y003152D01*
X002907Y003152D01*
X002903Y003194D02*
X003915Y003194D01*
X003915Y003352D02*
X002854Y003352D01*
X002722Y003511D02*
X003915Y003511D01*
X002152Y003511D02*
X002115Y003511D01*
X002115Y003352D02*
X002152Y003352D01*
X002152Y003194D02*
X002115Y003194D01*
X002115Y003035D02*
X002152Y003035D01*
X002152Y002877D02*
X002115Y002877D01*
X002115Y002718D02*
X002152Y002718D01*
X002152Y002560D02*
X002115Y002560D01*
X002115Y002401D02*
X002152Y002401D01*
X002152Y002243D02*
X002115Y002243D01*
X002115Y002084D02*
X002152Y002084D01*
X002152Y001926D02*
X002115Y001926D01*
X002115Y001767D02*
X002152Y001767D01*
X000804Y001450D02*
X003875Y001450D01*
X006391Y001450D02*
X006875Y001450D01*
X006734Y001609D02*
X006532Y001609D01*
X006589Y001767D02*
X006678Y001767D01*
X006678Y001926D02*
X006589Y001926D01*
X006589Y002084D02*
X006678Y002084D01*
X006678Y002243D02*
X006589Y002243D01*
X006589Y002401D02*
X006678Y002401D01*
X006694Y002560D02*
X006573Y002560D01*
X006489Y002718D02*
X006777Y002718D01*
X006915Y002877D02*
X006352Y002877D01*
X006352Y003035D02*
X006915Y003035D01*
X006915Y003194D02*
X006352Y003194D01*
X006352Y003352D02*
X006915Y003352D01*
X006915Y003511D02*
X006352Y003511D01*
X006352Y003669D02*
X006915Y003669D01*
X006915Y003828D02*
X006352Y003828D01*
X006352Y003986D02*
X006915Y003986D01*
X006915Y004145D02*
X006352Y004145D01*
X006352Y004303D02*
X006915Y004303D01*
X006915Y004462D02*
X006352Y004462D01*
X006352Y004620D02*
X006915Y004620D01*
X006915Y004779D02*
X006352Y004779D01*
X006352Y004937D02*
X006915Y004937D01*
X006915Y005096D02*
X006352Y005096D01*
X006352Y005254D02*
X006915Y005254D01*
X007352Y004937D02*
X009822Y004937D01*
X009822Y004779D02*
X007352Y004779D01*
X007352Y004620D02*
X009822Y004620D01*
X009822Y004462D02*
X007352Y004462D01*
X007352Y004303D02*
X011345Y004303D01*
X011481Y004145D02*
X007352Y004145D01*
X007352Y003986D02*
X011345Y003986D01*
X011345Y003828D02*
X010691Y003828D01*
X010682Y003837D02*
X010641Y003860D01*
X010595Y003873D01*
X010344Y003873D01*
X010344Y003465D01*
X010209Y003465D01*
X010209Y003873D01*
X009958Y003873D01*
X009912Y003860D01*
X009871Y003837D01*
X009837Y003803D01*
X009814Y003762D01*
X009801Y003716D01*
X009801Y003465D01*
X010209Y003465D01*
X010209Y003330D01*
X009801Y003330D01*
X009801Y003078D01*
X009814Y003033D01*
X009837Y002992D01*
X009871Y002958D01*
X009912Y002934D01*
X009958Y002922D01*
X010209Y002922D01*
X010209Y003330D01*
X010344Y003330D01*
X010344Y003465D01*
X010752Y003465D01*
X010752Y003716D01*
X010740Y003762D01*
X010716Y003803D01*
X010682Y003837D01*
X010752Y003669D02*
X011345Y003669D01*
X011345Y003511D02*
X010752Y003511D01*
X010752Y003330D02*
X010344Y003330D01*
X010344Y002922D01*
X010595Y002922D01*
X010641Y002934D01*
X010682Y002958D01*
X010716Y002992D01*
X010740Y003033D01*
X010752Y003078D01*
X010752Y003330D01*
X010752Y003194D02*
X011403Y003194D01*
X011345Y003352D02*
X010344Y003352D01*
X010209Y003352D02*
X007352Y003352D01*
X007352Y003194D02*
X009801Y003194D01*
X009813Y003035D02*
X007352Y003035D01*
X007352Y002877D02*
X012415Y002877D01*
X012415Y003035D02*
X010740Y003035D01*
X010344Y003035D02*
X010209Y003035D01*
X010209Y003194D02*
X010344Y003194D01*
X010344Y003511D02*
X010209Y003511D01*
X010209Y003669D02*
X010344Y003669D01*
X010344Y003828D02*
X010209Y003828D01*
X009862Y003828D02*
X007352Y003828D01*
X007352Y003669D02*
X009801Y003669D01*
X009801Y003511D02*
X007352Y003511D01*
X007489Y002718D02*
X012415Y002718D01*
X012415Y002560D02*
X012146Y002560D01*
X012131Y002574D02*
X011755Y002574D01*
X011621Y002440D01*
X011528Y002347D01*
X011528Y002107D01*
X011339Y002107D01*
X011246Y002014D01*
X011205Y002014D01*
X011205Y002440D01*
X011073Y002572D01*
X011071Y002574D01*
X010882Y002574D01*
X010882Y002574D01*
X010561Y002253D01*
X010561Y002064D01*
X010653Y001972D01*
X010561Y001880D01*
X010561Y001690D01*
X010695Y001556D01*
X011258Y001556D01*
X011299Y001597D01*
X011339Y001556D01*
X011622Y001556D01*
X011689Y001623D01*
X011755Y001556D01*
X012131Y001556D01*
X012265Y001690D01*
X012359Y001784D01*
X012359Y002347D01*
X012225Y002481D01*
X012131Y002574D01*
X012304Y002401D02*
X012556Y002401D01*
X012714Y002243D02*
X012359Y002243D01*
X012359Y002084D02*
X012873Y002084D01*
X013031Y001926D02*
X012359Y001926D01*
X012343Y001767D02*
X015678Y001767D01*
X015734Y001609D02*
X012184Y001609D01*
X011702Y001609D02*
X011675Y001609D01*
X011317Y002084D02*
X011205Y002084D01*
X011205Y002243D02*
X011528Y002243D01*
X011582Y002401D02*
X011205Y002401D01*
X011085Y002560D02*
X011741Y002560D01*
X012115Y003194D02*
X012151Y003194D01*
X012863Y003194D02*
X013801Y003194D01*
X013801Y003078D02*
X013814Y003033D01*
X013837Y002992D01*
X013871Y002958D01*
X013912Y002934D01*
X013958Y002922D01*
X014209Y002922D01*
X014209Y003330D01*
X013801Y003330D01*
X013801Y003078D01*
X013813Y003035D02*
X012852Y003035D01*
X012852Y002877D02*
X016021Y002877D01*
X016246Y002877D02*
X016915Y002877D01*
X016796Y003035D02*
X014740Y003035D01*
X014740Y003033D02*
X014752Y003078D01*
X014752Y003330D01*
X014344Y003330D01*
X014344Y003465D01*
X014209Y003465D01*
X014209Y003873D01*
X013958Y003873D01*
X013912Y003860D01*
X013871Y003837D01*
X013837Y003803D01*
X013814Y003762D01*
X013801Y003716D01*
X013801Y003465D01*
X014209Y003465D01*
X014209Y003330D01*
X014344Y003330D01*
X014344Y002922D01*
X014595Y002922D01*
X014641Y002934D01*
X014682Y002958D01*
X014716Y002992D01*
X014740Y003033D01*
X014752Y003194D02*
X015403Y003194D01*
X015345Y003352D02*
X014344Y003352D01*
X014344Y003465D02*
X014752Y003465D01*
X014752Y003716D01*
X014740Y003762D01*
X014716Y003803D01*
X014682Y003837D01*
X014641Y003860D01*
X014595Y003873D01*
X014344Y003873D01*
X014344Y003465D01*
X014344Y003511D02*
X014209Y003511D01*
X014209Y003669D02*
X014344Y003669D01*
X014344Y003828D02*
X014209Y003828D01*
X014691Y003828D02*
X015345Y003828D01*
X015345Y003986D02*
X012922Y003986D01*
X012922Y003828D02*
X013862Y003828D01*
X013801Y003669D02*
X012922Y003669D01*
X012922Y003511D02*
X013801Y003511D01*
X014209Y003352D02*
X012922Y003352D01*
X012858Y002718D02*
X015777Y002718D01*
X015694Y002560D02*
X013016Y002560D01*
X013175Y002401D02*
X015678Y002401D01*
X016489Y002718D02*
X016777Y002718D01*
X016694Y002560D02*
X016573Y002560D01*
X016589Y002401D02*
X016678Y002401D01*
X016678Y002243D02*
X016589Y002243D01*
X016589Y002084D02*
X016678Y002084D01*
X016678Y001926D02*
X016589Y001926D01*
X016589Y001767D02*
X016678Y001767D01*
X016734Y001609D02*
X016532Y001609D01*
X016391Y001450D02*
X016875Y001450D01*
X017391Y001450D02*
X017875Y001450D01*
X017734Y001609D02*
X017532Y001609D01*
X017589Y001767D02*
X017678Y001767D01*
X017678Y001926D02*
X017589Y001926D01*
X017589Y002084D02*
X017678Y002084D01*
X017678Y002243D02*
X017589Y002243D01*
X017589Y002401D02*
X017678Y002401D01*
X017694Y002560D02*
X017573Y002560D01*
X017489Y002718D02*
X017777Y002718D01*
X018021Y002877D02*
X017352Y002877D01*
X017352Y003035D02*
X017813Y003035D01*
X017801Y003194D02*
X017256Y003194D01*
X017098Y003352D02*
X018209Y003352D01*
X018344Y003352D02*
X019345Y003352D01*
X019345Y003511D02*
X018752Y003511D01*
X018752Y003465D02*
X018752Y003716D01*
X018740Y003762D01*
X018716Y003803D01*
X018682Y003837D01*
X018641Y003860D01*
X018595Y003873D01*
X018344Y003873D01*
X018344Y003465D01*
X018752Y003465D01*
X018752Y003669D02*
X019345Y003669D01*
X019345Y003828D02*
X018691Y003828D01*
X018344Y003828D02*
X018209Y003828D01*
X018209Y003669D02*
X018344Y003669D01*
X018344Y003511D02*
X018209Y003511D01*
X017801Y003511D02*
X016939Y003511D01*
X016922Y003669D02*
X017801Y003669D01*
X017862Y003828D02*
X016922Y003828D01*
X016922Y003986D02*
X019345Y003986D01*
X019481Y004145D02*
X016811Y004145D01*
X016555Y004145D02*
X016459Y004145D01*
X016459Y004303D02*
X016555Y004303D01*
X016555Y004462D02*
X016459Y004462D01*
X016204Y004145D02*
X016038Y004145D01*
X015481Y004145D02*
X012811Y004145D01*
X012943Y004303D02*
X015345Y004303D01*
X014911Y004462D02*
X014731Y004462D01*
X014731Y004620D02*
X014752Y004620D01*
X014731Y004642D02*
X014731Y004642D01*
X015246Y004937D02*
X015345Y004937D01*
X015426Y005096D02*
X015246Y005096D01*
X016092Y005096D02*
X016147Y005096D01*
X017400Y004779D02*
X017822Y004779D01*
X017822Y004937D02*
X017495Y004937D01*
X017542Y005096D02*
X017822Y005096D01*
X017998Y005254D02*
X017607Y005254D01*
X017607Y005413D02*
X017998Y005413D01*
X017998Y005571D02*
X017607Y005571D01*
X017607Y005730D02*
X017998Y005730D01*
X017998Y005888D02*
X017607Y005888D01*
X017607Y006047D02*
X017998Y006047D01*
X017743Y006205D02*
X017607Y006205D01*
X017607Y006364D02*
X017743Y006364D01*
X017743Y006522D02*
X017607Y006522D01*
X017607Y006681D02*
X017743Y006681D01*
X017772Y006839D02*
X017607Y006839D01*
X017607Y006998D02*
X017743Y006998D01*
X017743Y007156D02*
X017542Y007156D01*
X017542Y007315D02*
X017743Y007315D01*
X017743Y007473D02*
X017538Y007473D01*
X017490Y007632D02*
X017816Y007632D01*
X018197Y009058D02*
X018327Y009058D01*
X018327Y009217D02*
X018182Y009217D01*
X018182Y009375D02*
X018348Y009375D01*
X018380Y009534D02*
X018182Y009534D01*
X018182Y009692D02*
X018448Y009692D01*
X016243Y009692D02*
X015023Y009692D01*
X015091Y009534D02*
X016130Y009534D01*
X016057Y009375D02*
X015124Y009375D01*
X015144Y009217D02*
X016042Y009217D01*
X016042Y009058D02*
X015144Y009058D01*
X015144Y008900D02*
X016042Y008900D01*
X016042Y008741D02*
X015144Y008741D01*
X015144Y008583D02*
X016042Y008583D01*
X015954Y008424D02*
X015144Y008424D01*
X015205Y008266D02*
X015912Y008266D01*
X015894Y008107D02*
X015363Y008107D01*
X014327Y009058D02*
X014197Y009058D01*
X014182Y009217D02*
X014327Y009217D01*
X014348Y009375D02*
X014182Y009375D01*
X014182Y009534D02*
X014380Y009534D01*
X014448Y009692D02*
X014182Y009692D01*
X013624Y009692D02*
X012818Y009692D01*
X012932Y009534D02*
X013624Y009534D01*
X013624Y009375D02*
X013005Y009375D01*
X013020Y009217D02*
X013624Y009217D01*
X013624Y009058D02*
X013020Y009058D01*
X013020Y008900D02*
X013625Y008900D01*
X013725Y008741D02*
X013020Y008741D01*
X013020Y008583D02*
X013884Y008583D01*
X013938Y008424D02*
X013020Y008424D01*
X013020Y008266D02*
X013938Y008266D01*
X013938Y008107D02*
X013007Y008107D01*
X012935Y007949D02*
X013938Y007949D01*
X013938Y007790D02*
X013219Y007790D01*
X013048Y007790D02*
X012790Y007790D01*
X012351Y007633D02*
X012007Y007633D01*
X011912Y007160D02*
X011686Y007160D01*
X011633Y007212D01*
X011620Y007198D01*
X011620Y006995D01*
X011697Y006918D01*
X011697Y006235D01*
X011627Y006166D01*
X011697Y006166D01*
X011697Y005729D01*
X011733Y005729D01*
X011733Y006166D01*
X011913Y006166D01*
X011912Y006167D01*
X011912Y007160D01*
X011912Y007156D02*
X011620Y007156D01*
X011620Y006998D02*
X011912Y006998D01*
X011912Y006839D02*
X011697Y006839D01*
X011697Y006681D02*
X011912Y006681D01*
X011912Y006522D02*
X011697Y006522D01*
X011697Y006364D02*
X011912Y006364D01*
X011912Y006205D02*
X011667Y006205D01*
X011697Y006047D02*
X011733Y006047D01*
X011733Y005888D02*
X011697Y005888D01*
X011697Y005730D02*
X011733Y005730D01*
X011733Y005729D02*
X012092Y005729D01*
X012092Y005894D01*
X012103Y005883D01*
X012224Y005761D01*
X012385Y005695D01*
X012560Y005695D01*
X012632Y005725D01*
X012660Y005725D01*
X012660Y005238D01*
X012725Y005173D01*
X012725Y005128D01*
X012555Y005128D01*
X012555Y004681D01*
X012459Y004681D01*
X012459Y005128D01*
X012228Y005128D01*
X012182Y005116D01*
X012141Y005092D01*
X012118Y005070D01*
X012081Y005107D01*
X011438Y005107D01*
X011345Y005014D01*
X011345Y004912D01*
X011249Y004912D01*
X011246Y004915D01*
X011246Y005292D01*
X011323Y005369D01*
X011323Y006052D01*
X011232Y006142D01*
X011429Y006142D01*
X011408Y006130D01*
X011374Y006097D01*
X011350Y006055D01*
X011338Y006010D01*
X011338Y005729D01*
X011697Y005729D01*
X011697Y005692D01*
X011733Y005692D01*
X011733Y005255D01*
X011936Y005255D01*
X011981Y005267D01*
X012022Y005291D01*
X012056Y005324D01*
X012080Y005365D01*
X012092Y005411D01*
X012092Y005692D01*
X011733Y005692D01*
X011733Y005729D01*
X011697Y005692D02*
X011697Y005255D01*
X011494Y005255D01*
X011449Y005267D01*
X011408Y005291D01*
X011374Y005324D01*
X011350Y005365D01*
X011338Y005411D01*
X011338Y005692D01*
X011697Y005692D01*
X011697Y005571D02*
X011733Y005571D01*
X011733Y005413D02*
X011697Y005413D01*
X011338Y005413D02*
X011323Y005413D01*
X011323Y005571D02*
X011338Y005571D01*
X011323Y005730D02*
X011338Y005730D01*
X011323Y005888D02*
X011338Y005888D01*
X011323Y006047D02*
X011348Y006047D01*
X012092Y005888D02*
X012097Y005888D01*
X012092Y005730D02*
X012300Y005730D01*
X012092Y005571D02*
X012660Y005571D01*
X012660Y005413D02*
X012092Y005413D01*
X012092Y005096D02*
X012147Y005096D01*
X012459Y005096D02*
X012555Y005096D01*
X012555Y004937D02*
X012459Y004937D01*
X012459Y004779D02*
X012555Y004779D01*
X012555Y004620D02*
X013822Y004620D01*
X013822Y004462D02*
X012943Y004462D01*
X012555Y004462D02*
X012459Y004462D01*
X012459Y004303D02*
X012555Y004303D01*
X012555Y004145D02*
X012459Y004145D01*
X012204Y004145D02*
X012038Y004145D01*
X011345Y004937D02*
X011246Y004937D01*
X011246Y005096D02*
X011426Y005096D01*
X011246Y005254D02*
X012660Y005254D01*
X013400Y004779D02*
X013822Y004779D01*
X013822Y004937D02*
X013495Y004937D01*
X013542Y005096D02*
X013822Y005096D01*
X013998Y005254D02*
X013607Y005254D01*
X013607Y005413D02*
X013998Y005413D01*
X013998Y005571D02*
X013607Y005571D01*
X013607Y005730D02*
X013998Y005730D01*
X013998Y005888D02*
X013607Y005888D01*
X013607Y006047D02*
X013998Y006047D01*
X013743Y006205D02*
X013607Y006205D01*
X013607Y006364D02*
X013743Y006364D01*
X013743Y006522D02*
X013607Y006522D01*
X013607Y006681D02*
X013743Y006681D01*
X013772Y006839D02*
X013607Y006839D01*
X013607Y006998D02*
X013743Y006998D01*
X013743Y007156D02*
X013542Y007156D01*
X013542Y007315D02*
X013743Y007315D01*
X013743Y007473D02*
X013538Y007473D01*
X013490Y007632D02*
X013816Y007632D01*
X012042Y008583D02*
X011144Y008583D01*
X011144Y008741D02*
X012042Y008741D01*
X012042Y008900D02*
X011144Y008900D01*
X011144Y009058D02*
X012042Y009058D01*
X012042Y009217D02*
X011144Y009217D01*
X011124Y009375D02*
X012057Y009375D01*
X012130Y009534D02*
X011091Y009534D01*
X011023Y009692D02*
X012243Y009692D01*
X013280Y010485D02*
X013624Y010485D01*
X013624Y010643D02*
X013342Y010643D01*
X013342Y010802D02*
X013624Y010802D01*
X013624Y010960D02*
X013342Y010960D01*
X013342Y011119D02*
X013624Y011119D01*
X013624Y011277D02*
X013342Y011277D01*
X013342Y011436D02*
X013624Y011436D01*
X013624Y011594D02*
X013342Y011594D01*
X013342Y011753D02*
X013624Y011753D01*
X013624Y011911D02*
X013342Y011911D01*
X013342Y012070D02*
X013624Y012070D01*
X013624Y012228D02*
X013342Y012228D01*
X013342Y012387D02*
X013624Y012387D01*
X013624Y012545D02*
X013342Y012545D01*
X013342Y012704D02*
X013624Y012704D01*
X013624Y012862D02*
X013342Y012862D01*
X013342Y013021D02*
X013624Y013021D01*
X013624Y013179D02*
X013342Y013179D01*
X013342Y013338D02*
X013624Y013338D01*
X013624Y013496D02*
X013342Y013496D01*
X013342Y013655D02*
X013624Y013655D01*
X013624Y013813D02*
X013342Y013813D01*
X013342Y013972D02*
X013624Y013972D01*
X013624Y014130D02*
X013342Y014130D01*
X013273Y014289D02*
X013624Y014289D01*
X013624Y014447D02*
X013042Y014447D01*
X014182Y014447D02*
X014266Y014447D01*
X014266Y014606D02*
X014182Y014606D01*
X012713Y016349D02*
X012553Y016349D01*
X012553Y016347D02*
X012553Y016919D01*
X011981Y016919D01*
X011981Y016503D01*
X011993Y016458D01*
X012017Y016417D01*
X012050Y016383D01*
X012091Y016359D01*
X012137Y016347D01*
X012553Y016347D01*
X012553Y016508D02*
X012713Y016508D01*
X012713Y016666D02*
X012553Y016666D01*
X012553Y016825D02*
X012713Y016825D01*
X012553Y016983D02*
X011545Y016983D01*
X011590Y016939D02*
X011439Y017090D01*
X011240Y017172D01*
X011026Y017172D01*
X010828Y017090D01*
X010677Y016939D01*
X010595Y016740D01*
X010595Y016473D01*
X010359Y016473D01*
X010266Y016380D01*
X010266Y016160D01*
X010266Y016349D02*
X009811Y016349D01*
X009877Y016508D02*
X010595Y016508D01*
X010595Y016666D02*
X009906Y016666D01*
X009906Y016825D02*
X010630Y016825D01*
X010721Y016983D02*
X009865Y016983D01*
X009800Y017142D02*
X010953Y017142D01*
X011313Y017142D02*
X011981Y017142D01*
X011981Y017300D02*
X009656Y017300D01*
X009391Y017459D02*
X011981Y017459D01*
X011981Y016825D02*
X011637Y016825D01*
X011672Y016740D02*
X011590Y016939D01*
X011672Y016740D02*
X011672Y016473D01*
X011908Y016473D01*
X012001Y016380D01*
X012001Y016191D01*
X012001Y016349D02*
X012129Y016349D01*
X011981Y016508D02*
X011672Y016508D01*
X011672Y016666D02*
X011981Y016666D01*
X009821Y015715D02*
X006122Y015715D01*
X006122Y015557D02*
X009665Y015557D01*
X009624Y015398D02*
X006122Y015398D01*
X006122Y015240D02*
X009624Y015240D01*
X009624Y015081D02*
X006122Y015081D01*
X006122Y014923D02*
X009624Y014923D01*
X010182Y014606D02*
X010266Y014606D01*
X010266Y014447D02*
X010182Y014447D01*
X007645Y012862D02*
X007281Y012862D01*
X007504Y012704D02*
X007645Y012704D01*
X007645Y012545D02*
X007579Y012545D01*
X007589Y012387D02*
X007645Y012387D01*
X007645Y012228D02*
X007589Y012228D01*
X007589Y012070D02*
X007645Y012070D01*
X007645Y011911D02*
X007589Y011911D01*
X007589Y011753D02*
X007645Y011753D01*
X007645Y011594D02*
X007526Y011594D01*
X007645Y011436D02*
X007357Y011436D01*
X007352Y011277D02*
X007645Y011277D01*
X007645Y011119D02*
X007352Y011119D01*
X007352Y010960D02*
X007645Y010960D01*
X007645Y010802D02*
X007352Y010802D01*
X007352Y010643D02*
X007645Y010643D01*
X007645Y010485D02*
X007352Y010485D01*
X007352Y010326D02*
X007645Y010326D01*
X007645Y010168D02*
X007352Y010168D01*
X007352Y010009D02*
X007645Y010009D01*
X007645Y009851D02*
X007585Y009851D01*
X007607Y009692D02*
X007645Y009692D01*
X007646Y009534D02*
X007607Y009534D01*
X007607Y009375D02*
X007650Y009375D01*
X007745Y007632D02*
X007860Y007632D01*
X007860Y007473D02*
X007745Y007473D01*
X007745Y007315D02*
X007860Y007315D01*
X007417Y007632D02*
X007383Y007598D01*
X008258Y006839D02*
X009772Y006839D01*
X009743Y006681D02*
X008229Y006681D01*
X008398Y006047D02*
X008857Y006047D01*
X008847Y005888D02*
X008398Y005888D01*
X008398Y005730D02*
X008847Y005730D01*
X008847Y005571D02*
X008398Y005571D01*
X008398Y005413D02*
X008847Y005413D01*
X008847Y005254D02*
X008398Y005254D01*
X009245Y005254D02*
X009360Y005254D01*
X009360Y005413D02*
X009245Y005413D01*
X009245Y005571D02*
X009360Y005571D01*
X009360Y005730D02*
X009245Y005730D01*
X009245Y005888D02*
X009360Y005888D01*
X009360Y006047D02*
X009245Y006047D01*
X007530Y006047D02*
X007352Y006047D01*
X007352Y005888D02*
X007530Y005888D01*
X010731Y004642D02*
X010731Y004642D01*
X010731Y004620D02*
X010752Y004620D01*
X010731Y004462D02*
X010911Y004462D01*
X010867Y002560D02*
X007573Y002560D01*
X007589Y002401D02*
X009475Y002401D01*
X009483Y002405D02*
X009313Y002321D01*
X009309Y002309D01*
X009231Y002387D01*
X008855Y002387D01*
X008774Y002307D01*
X008694Y002387D01*
X008224Y002387D01*
X008090Y002253D01*
X008090Y001690D01*
X008224Y001556D01*
X008414Y001556D01*
X008548Y001690D01*
X008548Y001877D01*
X008600Y001930D01*
X008627Y001930D01*
X008627Y001784D01*
X008761Y001650D01*
X008855Y001556D01*
X009044Y001556D01*
X009231Y001556D01*
X009365Y001690D01*
X009365Y001784D01*
X009410Y001828D01*
X009475Y001697D01*
X009500Y001623D01*
X009517Y001614D01*
X009525Y001598D01*
X009600Y001573D01*
X009670Y001538D01*
X009687Y001544D01*
X009705Y001538D01*
X009775Y001573D01*
X009849Y001598D01*
X009858Y001614D01*
X009874Y001623D01*
X009899Y001697D01*
X010121Y002141D01*
X010061Y002321D01*
X009892Y002405D01*
X009712Y002346D01*
X009687Y002296D01*
X009663Y002346D01*
X009483Y002405D01*
X009495Y002401D02*
X009879Y002401D01*
X009900Y002401D02*
X010709Y002401D01*
X010561Y002243D02*
X010087Y002243D01*
X010093Y002084D02*
X010561Y002084D01*
X010607Y001926D02*
X010013Y001926D01*
X009934Y001767D02*
X010561Y001767D01*
X010642Y001609D02*
X009855Y001609D01*
X009520Y001609D02*
X009284Y001609D01*
X009365Y001767D02*
X009440Y001767D01*
X008802Y001609D02*
X008466Y001609D01*
X008548Y001767D02*
X008643Y001767D01*
X008627Y001926D02*
X008596Y001926D01*
X008090Y001926D02*
X007589Y001926D01*
X007589Y002084D02*
X008090Y002084D01*
X008090Y002243D02*
X007589Y002243D01*
X007589Y001767D02*
X008090Y001767D01*
X008171Y001609D02*
X007532Y001609D01*
X007391Y001450D02*
X015875Y001450D01*
X016115Y003194D02*
X016151Y003194D01*
X015345Y003511D02*
X014752Y003511D01*
X014752Y003669D02*
X015345Y003669D01*
X014344Y003194D02*
X014209Y003194D01*
X014209Y003035D02*
X014344Y003035D01*
X018209Y003035D02*
X018344Y003035D01*
X018344Y003194D02*
X018209Y003194D01*
X018246Y002877D02*
X018484Y002877D01*
X018752Y003194D02*
X018801Y003194D01*
X019489Y002718D02*
X023789Y002718D01*
X023750Y002560D02*
X019573Y002560D01*
X019589Y002401D02*
X023592Y002401D01*
X023894Y002084D02*
X024361Y002084D01*
X024360Y002096D02*
X024371Y002022D01*
X024395Y001950D01*
X024429Y001883D01*
X024473Y001823D01*
X024526Y001770D01*
X024587Y001725D01*
X024653Y001691D01*
X024725Y001668D01*
X024799Y001656D01*
X025115Y001656D01*
X025115Y002115D01*
X024360Y002115D01*
X024360Y002096D01*
X024371Y002243D02*
X024052Y002243D01*
X024211Y002401D02*
X024442Y002401D01*
X024623Y002560D02*
X024226Y002560D01*
X024226Y002718D02*
X024601Y002718D01*
X024587Y002725D02*
X024653Y002691D01*
X024725Y002668D01*
X024799Y002656D01*
X025115Y002656D01*
X025115Y003115D01*
X024360Y003115D01*
X024360Y003096D01*
X024371Y003022D01*
X024395Y002950D01*
X024429Y002883D01*
X024473Y002823D01*
X024526Y002770D01*
X024587Y002725D01*
X024433Y002877D02*
X024226Y002877D01*
X024226Y003035D02*
X024369Y003035D01*
X023651Y003194D02*
X023615Y003194D01*
X022903Y003194D02*
X022752Y003194D01*
X023735Y001926D02*
X024407Y001926D01*
X024529Y001767D02*
X019589Y001767D01*
X018875Y001450D02*
X018391Y001450D01*
X018532Y001609D02*
X018734Y001609D01*
X018678Y001767D02*
X018589Y001767D01*
X018589Y001926D02*
X018678Y001926D01*
X018678Y002084D02*
X018589Y002084D01*
X018589Y002243D02*
X018678Y002243D01*
X020038Y004145D02*
X020204Y004145D01*
X019348Y006047D02*
X019323Y006047D01*
X013624Y009851D02*
X010182Y009851D01*
X010182Y010009D02*
X013624Y010009D01*
X013624Y010168D02*
X010182Y010168D01*
X010182Y010326D02*
X013624Y010326D01*
X011954Y008424D02*
X011144Y008424D01*
X011205Y008266D02*
X011912Y008266D01*
X011894Y008107D02*
X011363Y008107D01*
X010327Y009058D02*
X010197Y009058D01*
X010182Y009217D02*
X010327Y009217D01*
X010348Y009375D02*
X010182Y009375D01*
X010182Y009534D02*
X010380Y009534D01*
X010448Y009692D02*
X010182Y009692D01*
X018182Y014447D02*
X018266Y014447D01*
X018266Y014606D02*
X018182Y014606D01*
X022182Y014606D02*
X022266Y014606D01*
X022266Y014447D02*
X022182Y014447D01*
X010062Y018410D02*
X007880Y018410D01*
X007880Y018568D02*
X010062Y018568D01*
X025115Y003511D02*
X025152Y003511D01*
X025152Y003352D02*
X025115Y003352D01*
X025115Y003194D02*
X025152Y003194D01*
X025152Y003035D02*
X025115Y003035D01*
X025115Y002877D02*
X025152Y002877D01*
X025152Y002718D02*
X025115Y002718D01*
X025115Y002560D02*
X025152Y002560D01*
X025152Y002401D02*
X025115Y002401D01*
X025115Y002243D02*
X025152Y002243D01*
X025152Y002084D02*
X025115Y002084D01*
X025115Y001926D02*
X025152Y001926D01*
X025152Y001767D02*
X025115Y001767D01*
D28*
X023259Y003633D02*
X023259Y004633D01*
X023133Y004633D01*
X022967Y004800D01*
X022967Y005710D01*
X022277Y006430D02*
X022217Y006489D01*
X022277Y006430D02*
X022277Y004775D01*
X023341Y006577D02*
X023341Y007552D01*
X023259Y007633D01*
X022217Y007237D02*
X022217Y008644D01*
X021903Y008958D01*
X021903Y015403D01*
X022519Y016019D01*
X023133Y016019D01*
X019133Y016019D02*
X018519Y016019D01*
X017903Y015403D01*
X017903Y008958D01*
X018217Y008644D01*
X018217Y007237D01*
X018217Y006489D02*
X018277Y006430D01*
X018277Y004775D01*
X018967Y004800D02*
X019133Y004633D01*
X019759Y004633D01*
X019759Y003633D01*
X018967Y004800D02*
X018967Y005710D01*
X019341Y006577D02*
X019341Y007552D01*
X019259Y007633D01*
X015759Y004633D02*
X015759Y003633D01*
X015759Y004633D02*
X015133Y004633D01*
X014967Y004800D01*
X014967Y005710D01*
X014277Y006430D02*
X014217Y006489D01*
X014277Y006430D02*
X014277Y004775D01*
X015341Y006577D02*
X015341Y007552D01*
X015259Y007633D01*
X014217Y007237D02*
X014217Y008644D01*
X013903Y008958D01*
X013903Y015403D01*
X014519Y016019D01*
X015133Y016019D01*
X011133Y016019D02*
X010519Y016019D01*
X009903Y015403D01*
X009903Y008958D01*
X010217Y008644D01*
X010217Y007237D01*
X010217Y006489D02*
X010277Y006430D01*
X010277Y004775D01*
X010967Y004800D02*
X011133Y004633D01*
X011759Y004633D01*
X011759Y003633D01*
X010967Y004800D02*
X010967Y005710D01*
X011341Y006577D02*
X011341Y007552D01*
X011259Y007633D01*
D29*
X011133Y011133D03*
X012133Y011133D03*
X012133Y012133D03*
X011133Y012133D03*
X011133Y013133D03*
X012133Y013133D03*
X015133Y013133D03*
X015133Y012133D03*
X016133Y012133D03*
X016133Y013133D03*
X016133Y011133D03*
X015133Y011133D03*
X019133Y011133D03*
X020133Y011133D03*
X020133Y012133D03*
X019133Y012133D03*
X019133Y013133D03*
X020133Y013133D03*
X023133Y013133D03*
X023133Y012133D03*
X024133Y012133D03*
X024133Y013133D03*
X024133Y011133D03*
X023133Y011133D03*
D30*
X022152Y011180D02*
X025133Y011180D01*
X025133Y011082D02*
X022152Y011082D01*
X022152Y010983D02*
X025133Y010983D01*
X025133Y010885D02*
X022152Y010885D01*
X022152Y010786D02*
X025133Y010786D01*
X025133Y010688D02*
X022152Y010688D01*
X022152Y010633D02*
X022152Y014133D01*
X025133Y014133D01*
X025133Y010633D01*
X022152Y010633D01*
X022152Y011279D02*
X025133Y011279D01*
X025133Y011377D02*
X022152Y011377D01*
X022152Y011476D02*
X025133Y011476D01*
X025133Y011574D02*
X022152Y011574D01*
X022152Y011673D02*
X025133Y011673D01*
X025133Y011771D02*
X022152Y011771D01*
X022152Y011870D02*
X025133Y011870D01*
X025133Y011968D02*
X022152Y011968D01*
X022152Y012067D02*
X025133Y012067D01*
X025133Y012165D02*
X022152Y012165D01*
X022152Y012264D02*
X025133Y012264D01*
X025133Y012362D02*
X022152Y012362D01*
X022152Y012461D02*
X025133Y012461D01*
X025133Y012559D02*
X022152Y012559D01*
X022152Y012658D02*
X025133Y012658D01*
X025133Y012756D02*
X022152Y012756D01*
X022152Y012855D02*
X025133Y012855D01*
X025133Y012953D02*
X022152Y012953D01*
X022152Y013052D02*
X025133Y013052D01*
X025133Y013150D02*
X022152Y013150D01*
X022152Y013249D02*
X025133Y013249D01*
X025133Y013347D02*
X022152Y013347D01*
X022152Y013446D02*
X025133Y013446D01*
X025133Y013544D02*
X022152Y013544D01*
X022152Y013643D02*
X025133Y013643D01*
X025133Y013741D02*
X022152Y013741D01*
X022152Y013840D02*
X025133Y013840D01*
X025133Y013938D02*
X022152Y013938D01*
X022152Y014037D02*
X025133Y014037D01*
X021133Y014037D02*
X018152Y014037D01*
X018152Y014133D02*
X021133Y014133D01*
X021133Y010633D01*
X018152Y010633D01*
X018152Y014133D01*
X018152Y013938D02*
X021133Y013938D01*
X021133Y013840D02*
X018152Y013840D01*
X018152Y013741D02*
X021133Y013741D01*
X021133Y013643D02*
X018152Y013643D01*
X018152Y013544D02*
X021133Y013544D01*
X021133Y013446D02*
X018152Y013446D01*
X018152Y013347D02*
X021133Y013347D01*
X021133Y013249D02*
X018152Y013249D01*
X018152Y013150D02*
X021133Y013150D01*
X021133Y013052D02*
X018152Y013052D01*
X018152Y012953D02*
X021133Y012953D01*
X021133Y012855D02*
X018152Y012855D01*
X018152Y012756D02*
X021133Y012756D01*
X021133Y012658D02*
X018152Y012658D01*
X018152Y012559D02*
X021133Y012559D01*
X021133Y012461D02*
X018152Y012461D01*
X018152Y012362D02*
X021133Y012362D01*
X021133Y012264D02*
X018152Y012264D01*
X018152Y012165D02*
X021133Y012165D01*
X021133Y012067D02*
X018152Y012067D01*
X018152Y011968D02*
X021133Y011968D01*
X021133Y011870D02*
X018152Y011870D01*
X018152Y011771D02*
X021133Y011771D01*
X021133Y011673D02*
X018152Y011673D01*
X018152Y011574D02*
X021133Y011574D01*
X021133Y011476D02*
X018152Y011476D01*
X018152Y011377D02*
X021133Y011377D01*
X021133Y011279D02*
X018152Y011279D01*
X018152Y011180D02*
X021133Y011180D01*
X021133Y011082D02*
X018152Y011082D01*
X018152Y010983D02*
X021133Y010983D01*
X021133Y010885D02*
X018152Y010885D01*
X018152Y010786D02*
X021133Y010786D01*
X021133Y010688D02*
X018152Y010688D01*
X017133Y010688D02*
X014152Y010688D01*
X014152Y010633D02*
X014152Y014133D01*
X017133Y014133D01*
X017133Y010633D01*
X014152Y010633D01*
X014152Y010786D02*
X017133Y010786D01*
X017133Y010885D02*
X014152Y010885D01*
X014152Y010983D02*
X017133Y010983D01*
X017133Y011082D02*
X014152Y011082D01*
X014152Y011180D02*
X017133Y011180D01*
X017133Y011279D02*
X014152Y011279D01*
X014152Y011377D02*
X017133Y011377D01*
X017133Y011476D02*
X014152Y011476D01*
X014152Y011574D02*
X017133Y011574D01*
X017133Y011673D02*
X014152Y011673D01*
X014152Y011771D02*
X017133Y011771D01*
X017133Y011870D02*
X014152Y011870D01*
X014152Y011968D02*
X017133Y011968D01*
X017133Y012067D02*
X014152Y012067D01*
X014152Y012165D02*
X017133Y012165D01*
X017133Y012264D02*
X014152Y012264D01*
X014152Y012362D02*
X017133Y012362D01*
X017133Y012461D02*
X014152Y012461D01*
X014152Y012559D02*
X017133Y012559D01*
X017133Y012658D02*
X014152Y012658D01*
X014152Y012756D02*
X017133Y012756D01*
X017133Y012855D02*
X014152Y012855D01*
X014152Y012953D02*
X017133Y012953D01*
X017133Y013052D02*
X014152Y013052D01*
X014152Y013150D02*
X017133Y013150D01*
X017133Y013249D02*
X014152Y013249D01*
X014152Y013347D02*
X017133Y013347D01*
X017133Y013446D02*
X014152Y013446D01*
X014152Y013544D02*
X017133Y013544D01*
X017133Y013643D02*
X014152Y013643D01*
X014152Y013741D02*
X017133Y013741D01*
X017133Y013840D02*
X014152Y013840D01*
X014152Y013938D02*
X017133Y013938D01*
X017133Y014037D02*
X014152Y014037D01*
X013133Y014037D02*
X010152Y014037D01*
X010152Y014133D02*
X013133Y014133D01*
X013133Y010633D01*
X010152Y010633D01*
X010152Y014133D01*
X010152Y013938D02*
X013133Y013938D01*
X013133Y013840D02*
X010152Y013840D01*
X010152Y013741D02*
X013133Y013741D01*
X013133Y013643D02*
X010152Y013643D01*
X010152Y013544D02*
X013133Y013544D01*
X013133Y013446D02*
X010152Y013446D01*
X010152Y013347D02*
X013133Y013347D01*
X013133Y013249D02*
X010152Y013249D01*
X010152Y013150D02*
X013133Y013150D01*
X013133Y013052D02*
X010152Y013052D01*
X010152Y012953D02*
X013133Y012953D01*
X013133Y012855D02*
X010152Y012855D01*
X010152Y012756D02*
X013133Y012756D01*
X013133Y012658D02*
X010152Y012658D01*
X010152Y012559D02*
X013133Y012559D01*
X013133Y012461D02*
X010152Y012461D01*
X010152Y012362D02*
X013133Y012362D01*
X013133Y012264D02*
X010152Y012264D01*
X010152Y012165D02*
X013133Y012165D01*
X013133Y012067D02*
X010152Y012067D01*
X010152Y011968D02*
X013133Y011968D01*
X013133Y011870D02*
X010152Y011870D01*
X010152Y011771D02*
X013133Y011771D01*
X013133Y011673D02*
X010152Y011673D01*
X010152Y011574D02*
X013133Y011574D01*
X013133Y011476D02*
X010152Y011476D01*
X010152Y011377D02*
X013133Y011377D01*
X013133Y011279D02*
X010152Y011279D01*
X010152Y011180D02*
X013133Y011180D01*
X013133Y011082D02*
X010152Y011082D01*
X010152Y010983D02*
X013133Y010983D01*
X013133Y010885D02*
X010152Y010885D01*
X010152Y010786D02*
X013133Y010786D01*
X013133Y010688D02*
X010152Y010688D01*
D31*
X011133Y016019D02*
X011133Y016633D01*
X015133Y016633D02*
X015133Y016019D01*
X019133Y016019D02*
X019133Y016633D01*
X023133Y016633D02*
X023133Y016019D01*
D32*
X023133Y016633D03*
X019133Y016633D03*
X015133Y016633D03*
X011133Y016633D03*
D33*
X013133Y007383D03*
X013133Y005133D03*
X017133Y005133D03*
X017133Y007383D03*
X021133Y007383D03*
X021133Y005133D03*
X025133Y005133D03*
X025133Y007383D03*
D34*
X008133Y009633D03*
D35*
X007133Y009507D02*
X007133Y012133D01*
X006133Y012133D02*
X006133Y009507D01*
X006133Y008759D02*
X006133Y007133D01*
X006464Y007133D01*
X006133Y007133D02*
X006133Y002133D01*
X005133Y002133D02*
X005133Y007133D01*
X004803Y007133D01*
X005133Y007133D02*
X005133Y008759D01*
X005133Y009507D02*
X005133Y012133D01*
X004133Y012133D02*
X004133Y009507D01*
X004133Y008759D02*
X004133Y005633D01*
X004133Y002133D01*
X007133Y002133D02*
X007133Y005633D01*
X007964Y005633D01*
X007133Y005633D02*
X007133Y008759D01*
X004133Y005633D02*
X003303Y005633D01*
X012507Y003633D02*
X012633Y003507D01*
X012633Y002633D01*
X013133Y002133D01*
X016133Y002133D01*
X017133Y002133D02*
X017133Y003007D01*
X016507Y003633D01*
X018133Y002133D02*
X018650Y002650D01*
X018650Y002734D01*
X018903Y002987D01*
X020360Y002987D01*
X020507Y003134D01*
X020507Y003633D01*
X019133Y002133D02*
X023633Y002133D01*
X024007Y002507D01*
X024007Y003633D01*
M02*
